<?xml version="1.0" encoding="UTF-8" standalone="no"?>
<svg
   xmlns:dc="http://purl.org/dc/elements/1.1/"
   xmlns:cc="http://creativecommons.org/ns#"
   xmlns:rdf="http://www.w3.org/1999/02/22-rdf-syntax-ns#"
   xmlns:svg="http://www.w3.org/2000/svg"
   xmlns="http://www.w3.org/2000/svg"
   viewBox="0 0 528 384"
   height="384"
   width="528"
   xml:space="preserve"
   id="svg2"
   version="1.1"><metadata
     id="metadata8"><rdf:RDF><cc:Work
         rdf:about=""><dc:format>image/svg+xml</dc:format><dc:type
           rdf:resource="http://purl.org/dc/dcmitype/StillImage" /></cc:Work></rdf:RDF></metadata><defs
     id="defs6" /><g
     transform="matrix(1.3333333,0,0,-1.3333333,0,384)"
     id="g10"><g
       transform="scale(0.1)"
       id="g12"><path
         id="path14"
         style="fill:#eaf2f3;fill-opacity:1;fill-rule:nonzero;stroke:none"
         d="M 0,0 H 3960 V 2880 H 0 Z" /><path
         id="path16"
         style="fill:#a8a2db;fill-opacity:1;fill-rule:nonzero;stroke:none"
         d="m 1979.88,1439.95 1042.98,844.6 c -254.81,314.66 -638.08,497.47 -1042.98,497.47" /><path
         id="path18"
         style="fill:none;stroke:#9e98d7;stroke-width:1.20000005;stroke-linecap:butt;stroke-linejoin:miter;stroke-miterlimit:10;stroke-dasharray:none;stroke-opacity:1"
         d="m 1979.88,1439.95 1042.98,844.6 c -254.81,314.66 -638.08,497.47 -1042.98,497.47 z" /><path
         id="path20"
         style="fill:#a8a2db;fill-opacity:1;fill-rule:nonzero;stroke:none"
         d="m 1979.88,1439.95 1112.62,750.48 c -21.83,32.37 -45.07,63.77 -69.64,94.12" /><path
         id="path22"
         style="fill:none;stroke:#9e98d7;stroke-width:1.20000005;stroke-linecap:butt;stroke-linejoin:miter;stroke-miterlimit:10;stroke-dasharray:none;stroke-opacity:1"
         d="m 1979.88,1439.95 1112.62,750.48 c -21.83,32.37 -45.07,63.77 -69.64,94.12 z" /><path
         id="path24"
         style="fill:#a8a2db;fill-opacity:1;fill-rule:nonzero;stroke:none"
         d="m 1979.88,1439.95 1150.37,691.22 c -12.06,20.08 -24.65,39.84 -37.75,59.26" /><path
         id="path26"
         style="fill:none;stroke:#9e98d7;stroke-width:1.20000005;stroke-linecap:butt;stroke-linejoin:miter;stroke-miterlimit:10;stroke-dasharray:none;stroke-opacity:1"
         d="m 1979.88,1439.95 1150.37,691.22 c -12.06,20.08 -24.65,39.84 -37.75,59.26 z" /><path
         id="path28"
         style="fill:#a8a2db;fill-opacity:1;fill-rule:nonzero;stroke:none"
         d="M 1979.88,1439.95 3301.55,1673 c -28.55,161.93 -86.61,317.23 -171.3,458.17" /><path
         id="path30"
         style="fill:none;stroke:#9e98d7;stroke-width:1.20000005;stroke-linecap:butt;stroke-linejoin:miter;stroke-miterlimit:10;stroke-dasharray:none;stroke-opacity:1"
         d="M 1979.88,1439.95 3301.55,1673 c -28.55,161.93 -86.61,317.23 -171.3,458.17 z" /><path
         id="path32"
         style="fill:#3098ff;fill-opacity:1;fill-rule:nonzero;stroke:none"
         d="M 1979.88,1439.95 3224.22,937.207 c 64.55,159.753 97.73,330.443 97.73,502.743 0,78.13 -6.83,156.11 -20.4,233.05" /><path
         id="path34"
         style="fill:none;stroke:#198dff;stroke-width:1.20000005;stroke-linecap:butt;stroke-linejoin:miter;stroke-miterlimit:10;stroke-dasharray:none;stroke-opacity:1"
         d="M 1979.88,1439.95 3224.22,937.207 c 64.55,159.753 97.73,330.443 97.73,502.743 0,78.13 -6.83,156.11 -20.4,233.05 z" /><path
         id="path36"
         style="fill:#3098ff;fill-opacity:1;fill-rule:nonzero;stroke:none"
         d="M 1979.88,1439.95 3022.86,595.363 c 83.68,103.34 151.55,218.551 201.36,341.844" /><path
         id="path38"
         style="fill:none;stroke:#198dff;stroke-width:1.20000005;stroke-linecap:butt;stroke-linejoin:miter;stroke-miterlimit:10;stroke-dasharray:none;stroke-opacity:1"
         d="M 1979.88,1439.95 3022.86,595.363 c 83.68,103.34 151.55,218.551 201.36,341.844 z" /><path
         id="path40"
         style="fill:#3098ff;fill-opacity:1;fill-rule:nonzero;stroke:none"
         d="M 1979.88,1439.95 2650.91,277.688 c 142.39,82.21 268.48,189.894 371.95,317.675" /><path
         id="path42"
         style="fill:none;stroke:#198dff;stroke-width:1.20000005;stroke-linecap:butt;stroke-linejoin:miter;stroke-miterlimit:10;stroke-dasharray:none;stroke-opacity:1"
         d="M 1979.88,1439.95 2650.91,277.688 c 142.39,82.21 268.48,189.894 371.95,317.675 z" /><path
         id="path44"
         style="fill:#3098ff;fill-opacity:1;fill-rule:nonzero;stroke:none"
         d="M 1979.88,1439.95 2026.71,98.7031 c 219.58,7.6679 433.92,69.1329 624.2,178.9849" /><path
         id="path46"
         style="fill:none;stroke:#198dff;stroke-width:1.20000005;stroke-linecap:butt;stroke-linejoin:miter;stroke-miterlimit:10;stroke-dasharray:none;stroke-opacity:1"
         d="M 1979.88,1439.95 2026.71,98.7031 c 219.58,7.6679 433.92,69.1329 624.2,178.9849 z" /><path
         id="path48"
         style="fill:#ff9830;fill-opacity:1;fill-rule:nonzero;stroke:none"
         d="M 1979.88,1439.95 1909.64,99.7266 c 23.39,-1.2227 46.81,-1.8399 70.24,-1.8399 15.61,0 31.23,0.2735 46.83,0.8164" /><path
         id="path50"
         style="fill:none;stroke:#ff8c19;stroke-width:1.20000005;stroke-linecap:butt;stroke-linejoin:miter;stroke-miterlimit:10;stroke-dasharray:none;stroke-opacity:1"
         d="M 1979.88,1439.95 1909.64,99.7266 c 23.39,-1.2227 46.81,-1.8399 70.24,-1.8399 15.61,0 31.23,0.2735 46.83,0.8164 z" /><path
         id="path52"
         style="fill:#30bf30;fill-opacity:1;fill-rule:nonzero;stroke:none"
         d="M 1979.88,1439.95 1723.8,122.543 c 61.33,-11.922 123.43,-19.551 185.84,-22.8164" /><path
         id="path54"
         style="fill:none;stroke:#19b819;stroke-width:1.20000005;stroke-linecap:butt;stroke-linejoin:miter;stroke-miterlimit:10;stroke-dasharray:none;stroke-opacity:1"
         d="M 1979.88,1439.95 1723.8,122.543 c 61.33,-11.922 123.43,-19.551 185.84,-22.8164 z" /><path
         id="path56"
         style="fill:#30bf30;fill-opacity:1;fill-rule:nonzero;stroke:none"
         d="M 1979.88,1439.95 1498.92,187.027 c 72.94,-27.996 148.19,-49.578 224.88,-64.484" /><path
         id="path58"
         style="fill:none;stroke:#19b819;stroke-width:1.20000005;stroke-linecap:butt;stroke-linejoin:miter;stroke-miterlimit:10;stroke-dasharray:none;stroke-opacity:1"
         d="M 1979.88,1439.95 1498.92,187.027 c 72.94,-27.996 148.19,-49.578 224.88,-64.484 z" /><path
         id="path60"
         style="fill:#30bf30;fill-opacity:1;fill-rule:nonzero;stroke:none"
         d="M 1979.88,1439.95 1081.86,442.605 c 122.19,-110.023 263.56,-196.656 417.06,-255.578" /><path
         id="path62"
         style="fill:none;stroke:#19b819;stroke-width:1.20000005;stroke-linecap:butt;stroke-linejoin:miter;stroke-miterlimit:10;stroke-dasharray:none;stroke-opacity:1"
         d="M 1979.88,1439.95 1081.86,442.605 c 122.19,-110.023 263.56,-196.656 417.06,-255.578 z" /><path
         id="path64"
         style="fill:#30bf30;fill-opacity:1;fill-rule:nonzero;stroke:none"
         d="M 1979.88,1439.95 703.492,1025.23 C 776.289,801.184 906.785,600.238 1081.86,442.605" /><path
         id="path66"
         style="fill:none;stroke:#19b819;stroke-width:1.20000005;stroke-linecap:butt;stroke-linejoin:miter;stroke-miterlimit:10;stroke-dasharray:none;stroke-opacity:1"
         d="M 1979.88,1439.95 703.492,1025.23 C 776.289,801.184 906.785,600.238 1081.86,442.605 Z" /><path
         id="path68"
         style="fill:#30bf30;fill-opacity:1;fill-rule:nonzero;stroke:none"
         d="M 1979.88,1439.95 1191.03,2525.71 C 843.473,2273.2 637.809,1869.55 637.809,1439.95 c 0,-140.82 22.168,-280.78 65.683,-414.72" /><path
         id="path70"
         style="fill:none;stroke:#19b819;stroke-width:1.20000005;stroke-linecap:butt;stroke-linejoin:miter;stroke-miterlimit:10;stroke-dasharray:none;stroke-opacity:1"
         d="M 1979.88,1439.95 1191.03,2525.71 C 843.473,2273.2 637.809,1869.55 637.809,1439.95 c 0,-140.82 22.168,-280.78 65.683,-414.72 z" /><path
         id="path72"
         style="fill:#30bf30;fill-opacity:1;fill-rule:nonzero;stroke:none"
         d="M 1979.88,1439.95 1587.49,2723.38 C 1445.3,2679.91 1311.32,2613.11 1191.03,2525.71" /><path
         id="path74"
         style="fill:none;stroke:#19b819;stroke-width:1.20000005;stroke-linecap:butt;stroke-linejoin:miter;stroke-miterlimit:10;stroke-dasharray:none;stroke-opacity:1"
         d="M 1979.88,1439.95 1587.49,2723.38 C 1445.3,2679.91 1311.32,2613.11 1191.03,2525.71 Z" /><path
         id="path76"
         style="fill:#f2f034;fill-opacity:1;fill-rule:nonzero;stroke:none"
         d="M 1979.88,1439.95 1700.84,2752.7 c -38.19,-8.12 -76.01,-17.9 -113.35,-29.32" /><path
         id="path78"
         style="fill:none;stroke:#f0ee1e;stroke-width:1.20000005;stroke-linecap:butt;stroke-linejoin:miter;stroke-miterlimit:10;stroke-dasharray:none;stroke-opacity:1"
         d="M 1979.88,1439.95 1700.84,2752.7 c -38.19,-8.12 -76.01,-17.9 -113.35,-29.32 z" /><path
         id="path80"
         style="fill:#f2f034;fill-opacity:1;fill-rule:nonzero;stroke:none"
         d="M 1979.88,1439.95 1769.93,2765.5 c -23.13,-3.66 -46.18,-7.93 -69.09,-12.8" /><path
         id="path82"
         style="fill:none;stroke:#f0ee1e;stroke-width:1.20000005;stroke-linecap:butt;stroke-linejoin:miter;stroke-miterlimit:10;stroke-dasharray:none;stroke-opacity:1"
         d="M 1979.88,1439.95 1769.93,2765.5 c -23.13,-3.66 -46.18,-7.93 -69.09,-12.8 z" /><path
         id="path84"
         style="fill:#f2f034;fill-opacity:1;fill-rule:nonzero;stroke:none"
         d="m 1979.88,1439.95 -163.56,1332.07 c -15.5,-1.9 -30.97,-4.08 -46.39,-6.52" /><path
         id="path86"
         style="fill:none;stroke:#f0ee1e;stroke-width:1.20000005;stroke-linecap:butt;stroke-linejoin:miter;stroke-miterlimit:10;stroke-dasharray:none;stroke-opacity:1"
         d="m 1979.88,1439.95 -163.56,1332.07 c -15.5,-1.9 -30.97,-4.08 -46.39,-6.52 z" /><path
         id="path88"
         style="fill:#f2f034;fill-opacity:1;fill-rule:nonzero;stroke:none"
         d="m 1979.88,1439.95 -46.84,1341.26 c -39.02,-1.37 -77.97,-4.43 -116.72,-9.19" /><path
         id="path90"
         style="fill:none;stroke:#f0ee1e;stroke-width:1.20000005;stroke-linecap:butt;stroke-linejoin:miter;stroke-miterlimit:10;stroke-dasharray:none;stroke-opacity:1"
         d="m 1979.88,1439.95 -46.84,1341.26 c -39.02,-1.37 -77.97,-4.43 -116.72,-9.19 z" /><path
         id="path92"
         style="fill:#f2f034;fill-opacity:1;fill-rule:nonzero;stroke:none"
         d="m 1979.88,1439.95 v 1342.07 c -15.62,0 -31.24,-0.27 -46.84,-0.81" /><path
         id="path94"
         style="fill:none;stroke:#f0ee1e;stroke-width:1.20000005;stroke-linecap:butt;stroke-linejoin:miter;stroke-miterlimit:10;stroke-dasharray:none;stroke-opacity:1"
         d="m 1979.88,1439.95 v 1342.07 c -15.62,0 -31.24,-0.27 -46.84,-0.81 z" /></g></g></svg>