<?xml version="1.0" encoding="UTF-8" standalone="no"?>
<svg
   xmlns:dc="http://purl.org/dc/elements/1.1/"
   xmlns:cc="http://creativecommons.org/ns#"
   xmlns:rdf="http://www.w3.org/1999/02/22-rdf-syntax-ns#"
   xmlns:svg="http://www.w3.org/2000/svg"
   xmlns="http://www.w3.org/2000/svg"
   viewBox="0 0 768 768"
   height="768"
   width="768"
   xml:space="preserve"
   id="svg2"
   version="1.1"><metadata
     id="metadata8"><rdf:RDF><cc:Work
         rdf:about=""><dc:format>image/svg+xml</dc:format><dc:type
           rdf:resource="http://purl.org/dc/dcmitype/StillImage" /></cc:Work></rdf:RDF></metadata><defs
     id="defs6" /><g
     transform="matrix(1.3333333,0,0,-1.3333333,0,768)"
     id="g10"><g
       transform="scale(0.1)"
       id="g12"><path
         id="path14"
         style="fill:#eaf2f3;fill-opacity:1;fill-rule:nonzero;stroke:none"
         d="M 0,0 H 5760 V 5760 H 0 Z" /><path
         id="path16"
         style="fill:none;stroke:#c0c0c0;stroke-width:11.52000046;stroke-linecap:butt;stroke-linejoin:miter;stroke-miterlimit:10;stroke-dasharray:none;stroke-opacity:1"
         d="M 1602.54,669.602 V 5558.4" /><path
         id="path18"
         style="fill:none;stroke:#c0c0c0;stroke-width:11.52000046;stroke-linecap:butt;stroke-linejoin:miter;stroke-miterlimit:10;stroke-dasharray:none;stroke-opacity:1"
         d="M 1870.74,669.602 V 5558.4" /><path
         id="path20"
         style="fill:none;stroke:#c0c0c0;stroke-width:11.52000046;stroke-linecap:butt;stroke-linejoin:miter;stroke-miterlimit:10;stroke-dasharray:none;stroke-opacity:1"
         d="M 2138.94,669.602 V 5558.4" /><path
         id="path22"
         style="fill:none;stroke:#c0c0c0;stroke-width:11.52000046;stroke-linecap:butt;stroke-linejoin:miter;stroke-miterlimit:10;stroke-dasharray:none;stroke-opacity:1"
         d="M 2407.14,669.602 V 5558.4" /><path
         id="path24"
         style="fill:none;stroke:#c0c0c0;stroke-width:11.52000046;stroke-linecap:butt;stroke-linejoin:miter;stroke-miterlimit:10;stroke-dasharray:none;stroke-opacity:1"
         d="M 2675.16,669.602 V 5558.4" /><path
         id="path26"
         style="fill:none;stroke:#c0c0c0;stroke-width:11.52000046;stroke-linecap:butt;stroke-linejoin:miter;stroke-miterlimit:10;stroke-dasharray:none;stroke-opacity:1"
         d="M 2943.36,669.602 V 5558.4" /><path
         id="path28"
         style="fill:none;stroke:#c0c0c0;stroke-width:11.52000046;stroke-linecap:butt;stroke-linejoin:miter;stroke-miterlimit:10;stroke-dasharray:none;stroke-opacity:1"
         d="M 3211.56,669.602 V 5558.4" /><path
         id="path30"
         style="fill:none;stroke:#c0c0c0;stroke-width:11.52000046;stroke-linecap:butt;stroke-linejoin:miter;stroke-miterlimit:10;stroke-dasharray:none;stroke-opacity:1"
         d="M 3479.76,669.602 V 5558.4" /><path
         id="path32"
         style="fill:none;stroke:#c0c0c0;stroke-width:11.52000046;stroke-linecap:butt;stroke-linejoin:miter;stroke-miterlimit:10;stroke-dasharray:none;stroke-opacity:1"
         d="M 3747.78,669.602 V 5558.4" /><path
         id="path34"
         style="fill:none;stroke:#c0c0c0;stroke-width:11.52000046;stroke-linecap:butt;stroke-linejoin:miter;stroke-miterlimit:10;stroke-dasharray:none;stroke-opacity:1"
         d="M 4015.98,669.602 V 5558.4" /><path
         id="path36"
         style="fill:none;stroke:#c0c0c0;stroke-width:11.52000046;stroke-linecap:butt;stroke-linejoin:miter;stroke-miterlimit:10;stroke-dasharray:none;stroke-opacity:1"
         d="M 4284.18,669.602 V 5558.4" /><path
         id="path38"
         style="fill:none;stroke:#c0c0c0;stroke-width:11.52000046;stroke-linecap:butt;stroke-linejoin:miter;stroke-miterlimit:10;stroke-dasharray:none;stroke-opacity:1"
         d="M 4552.38,669.602 V 5558.4" /><path
         id="path40"
         style="fill:none;stroke:#c0c0c0;stroke-width:11.52000046;stroke-linecap:butt;stroke-linejoin:miter;stroke-miterlimit:10;stroke-dasharray:none;stroke-opacity:1"
         d="M 4820.4,669.602 V 5558.4" /><path
         id="path42"
         style="fill:none;stroke:#c0c0c0;stroke-width:11.52000046;stroke-linecap:butt;stroke-linejoin:miter;stroke-miterlimit:10;stroke-dasharray:none;stroke-opacity:1"
         d="M 5088.6,669.602 V 5558.4" /><path
         id="path44"
         style="fill:none;stroke:#c0c0c0;stroke-width:11.52000046;stroke-linecap:butt;stroke-linejoin:miter;stroke-miterlimit:10;stroke-dasharray:none;stroke-opacity:1"
         d="M 5356.8,669.602 V 5558.4" /><path
         id="path46"
         style="fill:none;stroke:#c0c0c0;stroke-width:11.52000046;stroke-linecap:butt;stroke-linejoin:miter;stroke-miterlimit:10;stroke-dasharray:none;stroke-opacity:1"
         d="M 1870.74,669.602 V 5558.4" /><path
         id="path48"
         style="fill:none;stroke:#c0c0c0;stroke-width:11.52000046;stroke-linecap:butt;stroke-linejoin:miter;stroke-miterlimit:10;stroke-dasharray:none;stroke-opacity:1"
         d="M 2407.14,669.602 V 5558.4" /><path
         id="path50"
         style="fill:none;stroke:#c0c0c0;stroke-width:11.52000046;stroke-linecap:butt;stroke-linejoin:miter;stroke-miterlimit:10;stroke-dasharray:none;stroke-opacity:1"
         d="M 2943.36,669.602 V 5558.4" /><path
         id="path52"
         style="fill:none;stroke:#c0c0c0;stroke-width:11.52000046;stroke-linecap:butt;stroke-linejoin:miter;stroke-miterlimit:10;stroke-dasharray:none;stroke-opacity:1"
         d="M 3479.76,669.602 V 5558.4" /><path
         id="path54"
         style="fill:none;stroke:#c0c0c0;stroke-width:11.52000046;stroke-linecap:butt;stroke-linejoin:miter;stroke-miterlimit:10;stroke-dasharray:none;stroke-opacity:1"
         d="M 4015.98,669.602 V 5558.4" /><path
         id="path56"
         style="fill:none;stroke:#c0c0c0;stroke-width:11.52000046;stroke-linecap:butt;stroke-linejoin:miter;stroke-miterlimit:10;stroke-dasharray:none;stroke-opacity:1"
         d="M 4552.38,669.602 V 5558.4" /><path
         id="path58"
         style="fill:none;stroke:#c0c0c0;stroke-width:11.52000046;stroke-linecap:butt;stroke-linejoin:miter;stroke-miterlimit:10;stroke-dasharray:none;stroke-opacity:1"
         d="M 5088.6,669.602 V 5558.4" /><path
         id="path60"
         style="fill:none;stroke:#000000;stroke-width:11.52000046;stroke-linecap:butt;stroke-linejoin:miter;stroke-miterlimit:10;stroke-dasharray:none;stroke-opacity:1"
         d="M 3479.76,669.602 V 5558.4" /><path
         id="path62"
         style="fill:#d7191c;fill-opacity:1;fill-rule:nonzero;stroke:none"
         d="M 2862.9,895.141 V 1015.2 h 616.86 V 895.141 H 2862.9" /><path
         id="path64"
         style="fill:none;stroke:#d7191c;stroke-width:1.20000005;stroke-linecap:butt;stroke-linejoin:miter;stroke-miterlimit:10;stroke-dasharray:none;stroke-opacity:1"
         d="M 2862.9,895.141 V 1015.2 h 616.86 V 895.141 Z" /><path
         id="path66"
         style="fill:#d7191c;fill-opacity:1;fill-rule:nonzero;stroke:none"
         d="m 2905.92,1039.14 v 119.88 h 573.84 v -119.88 h -573.84" /><path
         id="path68"
         style="fill:none;stroke:#d7191c;stroke-width:1.20000005;stroke-linecap:butt;stroke-linejoin:miter;stroke-miterlimit:10;stroke-dasharray:none;stroke-opacity:1"
         d="m 2905.92,1039.14 v 119.88 h 573.84 v -119.88 z" /><path
         id="path70"
         style="fill:#d7191c;fill-opacity:1;fill-rule:nonzero;stroke:none"
         d="m 2959.02,1182.96 v 120.06 h 520.74 v -120.06 h -520.74" /><path
         id="path72"
         style="fill:none;stroke:#d7191c;stroke-width:1.20000005;stroke-linecap:butt;stroke-linejoin:miter;stroke-miterlimit:10;stroke-dasharray:none;stroke-opacity:1"
         d="m 2959.02,1182.96 v 120.06 h 520.74 v -120.06 z" /><path
         id="path74"
         style="fill:#d7191c;fill-opacity:1;fill-rule:nonzero;stroke:none"
         d="m 2992.68,1326.96 v 119.88 h 487.08 v -119.88 h -487.08" /><path
         id="path76"
         style="fill:none;stroke:#d7191c;stroke-width:1.20000005;stroke-linecap:butt;stroke-linejoin:miter;stroke-miterlimit:10;stroke-dasharray:none;stroke-opacity:1"
         d="m 2992.68,1326.96 v 119.88 h 487.08 v -119.88 z" /><path
         id="path78"
         style="fill:#d7191c;fill-opacity:1;fill-rule:nonzero;stroke:none"
         d="m 3039.66,1470.78 v 120.06 h 440.1 v -120.06 h -440.1" /><path
         id="path80"
         style="fill:none;stroke:#d7191c;stroke-width:1.20000005;stroke-linecap:butt;stroke-linejoin:miter;stroke-miterlimit:10;stroke-dasharray:none;stroke-opacity:1"
         d="m 3039.66,1470.78 v 120.06 h 440.1 v -120.06 z" /><path
         id="path82"
         style="fill:#d7191c;fill-opacity:1;fill-rule:nonzero;stroke:none"
         d="m 3058.92,1614.78 v 119.88 h 420.84 v -119.88 h -420.84" /><path
         id="path84"
         style="fill:none;stroke:#d7191c;stroke-width:1.20000005;stroke-linecap:butt;stroke-linejoin:miter;stroke-miterlimit:10;stroke-dasharray:none;stroke-opacity:1"
         d="m 3058.92,1614.78 v 119.88 h 420.84 v -119.88 z" /><path
         id="path86"
         style="fill:#d7191c;fill-opacity:1;fill-rule:nonzero;stroke:none"
         d="m 3120.3,1758.78 v 119.88 h 359.46 V 1758.78 H 3120.3" /><path
         id="path88"
         style="fill:none;stroke:#d7191c;stroke-width:1.20000005;stroke-linecap:butt;stroke-linejoin:miter;stroke-miterlimit:10;stroke-dasharray:none;stroke-opacity:1"
         d="m 3120.3,1758.78 v 119.88 h 359.46 v -119.88 z" /><path
         id="path90"
         style="fill:#d7191c;fill-opacity:1;fill-rule:nonzero;stroke:none"
         d="m 3127.86,1902.6 v 120.06 h 351.9 V 1902.6 h -351.9" /><path
         id="path92"
         style="fill:none;stroke:#d7191c;stroke-width:1.20000005;stroke-linecap:butt;stroke-linejoin:miter;stroke-miterlimit:10;stroke-dasharray:none;stroke-opacity:1"
         d="m 3127.86,1902.6 v 120.06 h 351.9 V 1902.6 Z" /><path
         id="path94"
         style="fill:#d7191c;fill-opacity:1;fill-rule:nonzero;stroke:none"
         d="m 3137.76,2046.6 v 119.88 h 342 V 2046.6 h -342" /><path
         id="path96"
         style="fill:none;stroke:#d7191c;stroke-width:1.20000005;stroke-linecap:butt;stroke-linejoin:miter;stroke-miterlimit:10;stroke-dasharray:none;stroke-opacity:1"
         d="m 3137.76,2046.6 v 119.88 h 342 V 2046.6 Z" /><path
         id="path98"
         style="fill:#d7191c;fill-opacity:1;fill-rule:nonzero;stroke:none"
         d="m 3151.98,2190.42 v 120.06 h 327.78 v -120.06 h -327.78" /><path
         id="path100"
         style="fill:none;stroke:#d7191c;stroke-width:1.20000005;stroke-linecap:butt;stroke-linejoin:miter;stroke-miterlimit:10;stroke-dasharray:none;stroke-opacity:1"
         d="m 3151.98,2190.42 v 120.06 h 327.78 v -120.06 z" /><path
         id="path102"
         style="fill:#d7191c;fill-opacity:1;fill-rule:nonzero;stroke:none"
         d="m 3211.74,2334.42 v 119.88 h 268.02 v -119.88 h -268.02" /><path
         id="path104"
         style="fill:none;stroke:#d7191c;stroke-width:1.20000005;stroke-linecap:butt;stroke-linejoin:miter;stroke-miterlimit:10;stroke-dasharray:none;stroke-opacity:1"
         d="m 3211.74,2334.42 v 119.88 h 268.02 v -119.88 z" /><path
         id="path106"
         style="fill:#d7191c;fill-opacity:1;fill-rule:nonzero;stroke:none"
         d="m 3242.52,2478.42 v 119.88 h 237.24 v -119.88 h -237.24" /><path
         id="path108"
         style="fill:none;stroke:#d7191c;stroke-width:1.20000005;stroke-linecap:butt;stroke-linejoin:miter;stroke-miterlimit:10;stroke-dasharray:none;stroke-opacity:1"
         d="m 3242.52,2478.42 v 119.88 h 237.24 v -119.88 z" /><path
         id="path110"
         style="fill:#d7191c;fill-opacity:1;fill-rule:nonzero;stroke:none"
         d="m 3268.98,2622.24 v 119.88 h 210.78 v -119.88 h -210.78" /><path
         id="path112"
         style="fill:none;stroke:#d7191c;stroke-width:1.20000005;stroke-linecap:butt;stroke-linejoin:miter;stroke-miterlimit:10;stroke-dasharray:none;stroke-opacity:1"
         d="m 3268.98,2622.24 v 119.88 h 210.78 v -119.88 z" /><path
         id="path114"
         style="fill:#d7191c;fill-opacity:1;fill-rule:nonzero;stroke:none"
         d="m 3274.92,2766.24 v 119.88 h 204.84 v -119.88 h -204.84" /><path
         id="path116"
         style="fill:none;stroke:#d7191c;stroke-width:1.20000005;stroke-linecap:butt;stroke-linejoin:miter;stroke-miterlimit:10;stroke-dasharray:none;stroke-opacity:1"
         d="m 3274.92,2766.24 v 119.88 h 204.84 v -119.88 z" /><path
         id="path118"
         style="fill:#d7191c;fill-opacity:1;fill-rule:nonzero;stroke:none"
         d="m 3287.52,2910.06 v 120.06 h 192.24 v -120.06 h -192.24" /><path
         id="path120"
         style="fill:none;stroke:#d7191c;stroke-width:1.20000005;stroke-linecap:butt;stroke-linejoin:miter;stroke-miterlimit:10;stroke-dasharray:none;stroke-opacity:1"
         d="m 3287.52,2910.06 v 120.06 h 192.24 v -120.06 z" /><path
         id="path122"
         style="fill:#d7191c;fill-opacity:1;fill-rule:nonzero;stroke:none"
         d="m 3317.76,3054.06 v 119.88 h 162 v -119.88 h -162" /><path
         id="path124"
         style="fill:none;stroke:#d7191c;stroke-width:1.20000005;stroke-linecap:butt;stroke-linejoin:miter;stroke-miterlimit:10;stroke-dasharray:none;stroke-opacity:1"
         d="m 3317.76,3054.06 v 119.88 h 162 v -119.88 z" /><path
         id="path126"
         style="fill:#d7191c;fill-opacity:1;fill-rule:nonzero;stroke:none"
         d="m 3397.86,3197.88 v 120.06 h 81.9 v -120.06 h -81.9" /><path
         id="path128"
         style="fill:none;stroke:#d7191c;stroke-width:1.20000005;stroke-linecap:butt;stroke-linejoin:miter;stroke-miterlimit:10;stroke-dasharray:none;stroke-opacity:1"
         d="m 3397.86,3197.88 v 120.06 h 81.9 v -120.06 z" /><path
         id="path130"
         style="fill:#d7191c;fill-opacity:1;fill-rule:nonzero;stroke:none"
         d="m 3399.12,3341.88 v 119.88 h 80.64 v -119.88 h -80.64" /><path
         id="path132"
         style="fill:none;stroke:#d7191c;stroke-width:1.20000005;stroke-linecap:butt;stroke-linejoin:miter;stroke-miterlimit:10;stroke-dasharray:none;stroke-opacity:1"
         d="m 3399.12,3341.88 v 119.88 h 80.64 v -119.88 z" /><path
         id="path134"
         style="fill:#d7191c;fill-opacity:1;fill-rule:nonzero;stroke:none"
         d="m 3404.7,3485.88 v 119.88 h 75.06 v -119.88 h -75.06" /><path
         id="path136"
         style="fill:none;stroke:#d7191c;stroke-width:1.20000005;stroke-linecap:butt;stroke-linejoin:miter;stroke-miterlimit:10;stroke-dasharray:none;stroke-opacity:1"
         d="m 3404.7,3485.88 v 119.88 h 75.06 v -119.88 z" /><path
         id="path138"
         style="fill:#d7191c;fill-opacity:1;fill-rule:nonzero;stroke:none"
         d="m 3406.86,3629.7 v 119.88 h 72.9 V 3629.7 h -72.9" /><path
         id="path140"
         style="fill:none;stroke:#d7191c;stroke-width:1.20000005;stroke-linecap:butt;stroke-linejoin:miter;stroke-miterlimit:10;stroke-dasharray:none;stroke-opacity:1"
         d="m 3406.86,3629.7 v 119.88 h 72.9 V 3629.7 Z" /><path
         id="path142"
         style="fill:#d7191c;fill-opacity:1;fill-rule:nonzero;stroke:none"
         d="m 3427.74,3773.7 v 119.88 h 52.02 V 3773.7 h -52.02" /><path
         id="path144"
         style="fill:none;stroke:#d7191c;stroke-width:1.20000005;stroke-linecap:butt;stroke-linejoin:miter;stroke-miterlimit:10;stroke-dasharray:none;stroke-opacity:1"
         d="m 3427.74,3773.7 v 119.88 h 52.02 V 3773.7 Z" /><path
         id="path146"
         style="fill:#d7191c;fill-opacity:1;fill-rule:nonzero;stroke:none"
         d="m 3437.28,3917.52 v 120.06 h 42.48 v -120.06 h -42.48" /><path
         id="path148"
         style="fill:none;stroke:#d7191c;stroke-width:1.20000005;stroke-linecap:butt;stroke-linejoin:miter;stroke-miterlimit:10;stroke-dasharray:none;stroke-opacity:1"
         d="m 3437.28,3917.52 v 120.06 h 42.48 v -120.06 z" /><path
         id="path150"
         style="fill:#d7191c;fill-opacity:1;fill-rule:nonzero;stroke:none"
         d="m 3443.58,4061.52 v 119.88 h 36.18 v -119.88 h -36.18" /><path
         id="path152"
         style="fill:none;stroke:#d7191c;stroke-width:1.20000005;stroke-linecap:butt;stroke-linejoin:miter;stroke-miterlimit:10;stroke-dasharray:none;stroke-opacity:1"
         d="m 3443.58,4061.52 v 119.88 h 36.18 v -119.88 z" /><path
         id="path154"
         style="fill:#d7191c;fill-opacity:1;fill-rule:nonzero;stroke:none"
         d="m 3454.56,4205.34 v 120.06 h 25.2 v -120.06 h -25.2" /><path
         id="path156"
         style="fill:none;stroke:#d7191c;stroke-width:1.20000005;stroke-linecap:butt;stroke-linejoin:miter;stroke-miterlimit:10;stroke-dasharray:none;stroke-opacity:1"
         d="m 3454.56,4205.34 v 120.06 h 25.2 v -120.06 z" /><path
         id="path158"
         style="fill:#d7191c;fill-opacity:1;fill-rule:nonzero;stroke:none"
         d="m 3458.52,4349.34 v 119.88 h 21.24 v -119.88 h -21.24" /><path
         id="path160"
         style="fill:none;stroke:#d7191c;stroke-width:1.20000005;stroke-linecap:butt;stroke-linejoin:miter;stroke-miterlimit:10;stroke-dasharray:none;stroke-opacity:1"
         d="m 3458.52,4349.34 v 119.88 h 21.24 v -119.88 z" /><path
         id="path162"
         style="fill:#d7191c;fill-opacity:1;fill-rule:nonzero;stroke:none"
         d="m 3467.88,4493.34 v 119.88 h 11.88 v -119.88 h -11.88" /><path
         id="path164"
         style="fill:none;stroke:#d7191c;stroke-width:1.20000005;stroke-linecap:butt;stroke-linejoin:miter;stroke-miterlimit:10;stroke-dasharray:none;stroke-opacity:1"
         d="m 3467.88,4493.34 v 119.88 h 11.88 v -119.88 z" /><path
         id="path166"
         style="fill:#d7191c;fill-opacity:1;fill-rule:nonzero;stroke:none"
         d="m 3471.3,4637.16 v 119.88 h 8.46 v -119.88 h -8.46" /><path
         id="path168"
         style="fill:none;stroke:#d7191c;stroke-width:1.20000005;stroke-linecap:butt;stroke-linejoin:miter;stroke-miterlimit:10;stroke-dasharray:none;stroke-opacity:1"
         d="m 3471.3,4637.16 v 119.88 h 8.46 v -119.88 z" /><path
         id="path170"
         style="fill:#d7191c;fill-opacity:1;fill-rule:nonzero;stroke:none"
         d="m 3479.76,4781.16 v 119.88 h 61.38 v -119.88 h -61.38" /><path
         id="path172"
         style="fill:none;stroke:#d7191c;stroke-width:1.20000005;stroke-linecap:butt;stroke-linejoin:miter;stroke-miterlimit:10;stroke-dasharray:none;stroke-opacity:1"
         d="m 3479.76,4781.16 v 119.88 h 61.38 v -119.88 z" /><path
         id="path174"
         style="fill:#d7191c;fill-opacity:1;fill-rule:nonzero;stroke:none"
         d="m 3479.76,4924.98 v 120.06 h 77.22 v -120.06 h -77.22" /><path
         id="path176"
         style="fill:none;stroke:#d7191c;stroke-width:1.20000005;stroke-linecap:butt;stroke-linejoin:miter;stroke-miterlimit:10;stroke-dasharray:none;stroke-opacity:1"
         d="m 3479.76,4924.98 v 120.06 h 77.22 v -120.06 z" /><path
         id="path178"
         style="fill:#d7191c;fill-opacity:1;fill-rule:nonzero;stroke:none"
         d="m 3479.76,5068.98 v 119.88 h 107.28 v -119.88 h -107.28" /><path
         id="path180"
         style="fill:none;stroke:#d7191c;stroke-width:1.20000005;stroke-linecap:butt;stroke-linejoin:miter;stroke-miterlimit:10;stroke-dasharray:none;stroke-opacity:1"
         d="m 3479.76,5068.98 v 119.88 h 107.28 v -119.88 z" /><path
         id="path182"
         style="fill:#d7191c;fill-opacity:1;fill-rule:nonzero;stroke:none"
         d="m 3479.76,5212.8 v 120.06 h 329.4 V 5212.8 h -329.4" /><path
         id="path184"
         style="fill:none;stroke:#d7191c;stroke-width:1.20000005;stroke-linecap:butt;stroke-linejoin:miter;stroke-miterlimit:10;stroke-dasharray:none;stroke-opacity:1"
         d="m 3479.76,5212.8 v 120.06 h 329.4 V 5212.8 Z" /><path
         id="path186"
         style="fill:none;stroke:#000000;stroke-width:11.52000046;stroke-linecap:butt;stroke-linejoin:miter;stroke-miterlimit:10;stroke-dasharray:none;stroke-opacity:1"
         d="M 1400.94,669.602 H 5558.4" /><path
         id="path188"
         style="fill:none;stroke:#000000;stroke-width:11.52000046;stroke-linecap:butt;stroke-linejoin:miter;stroke-miterlimit:10;stroke-dasharray:none;stroke-opacity:1"
         d="M 1602.54,669.602 V 629.641" /><path
         id="path190"
         style="fill:none;stroke:#000000;stroke-width:11.52000046;stroke-linecap:butt;stroke-linejoin:miter;stroke-miterlimit:10;stroke-dasharray:none;stroke-opacity:1"
         d="M 1870.74,669.602 V 629.641" /><path
         id="path192"
         style="fill:none;stroke:#000000;stroke-width:11.52000046;stroke-linecap:butt;stroke-linejoin:miter;stroke-miterlimit:10;stroke-dasharray:none;stroke-opacity:1"
         d="M 2138.94,669.602 V 629.641" /><path
         id="path194"
         style="fill:none;stroke:#000000;stroke-width:11.52000046;stroke-linecap:butt;stroke-linejoin:miter;stroke-miterlimit:10;stroke-dasharray:none;stroke-opacity:1"
         d="M 2407.14,669.602 V 629.641" /><path
         id="path196"
         style="fill:none;stroke:#000000;stroke-width:11.52000046;stroke-linecap:butt;stroke-linejoin:miter;stroke-miterlimit:10;stroke-dasharray:none;stroke-opacity:1"
         d="M 2675.16,669.602 V 629.641" /><path
         id="path198"
         style="fill:none;stroke:#000000;stroke-width:11.52000046;stroke-linecap:butt;stroke-linejoin:miter;stroke-miterlimit:10;stroke-dasharray:none;stroke-opacity:1"
         d="M 2943.36,669.602 V 629.641" /><path
         id="path200"
         style="fill:none;stroke:#000000;stroke-width:11.52000046;stroke-linecap:butt;stroke-linejoin:miter;stroke-miterlimit:10;stroke-dasharray:none;stroke-opacity:1"
         d="M 3211.56,669.602 V 629.641" /><path
         id="path202"
         style="fill:none;stroke:#000000;stroke-width:11.52000046;stroke-linecap:butt;stroke-linejoin:miter;stroke-miterlimit:10;stroke-dasharray:none;stroke-opacity:1"
         d="M 3479.76,669.602 V 629.641" /><path
         id="path204"
         style="fill:none;stroke:#000000;stroke-width:11.52000046;stroke-linecap:butt;stroke-linejoin:miter;stroke-miterlimit:10;stroke-dasharray:none;stroke-opacity:1"
         d="M 3747.78,669.602 V 629.641" /><path
         id="path206"
         style="fill:none;stroke:#000000;stroke-width:11.52000046;stroke-linecap:butt;stroke-linejoin:miter;stroke-miterlimit:10;stroke-dasharray:none;stroke-opacity:1"
         d="M 4015.98,669.602 V 629.641" /><path
         id="path208"
         style="fill:none;stroke:#000000;stroke-width:11.52000046;stroke-linecap:butt;stroke-linejoin:miter;stroke-miterlimit:10;stroke-dasharray:none;stroke-opacity:1"
         d="M 4284.18,669.602 V 629.641" /><path
         id="path210"
         style="fill:none;stroke:#000000;stroke-width:11.52000046;stroke-linecap:butt;stroke-linejoin:miter;stroke-miterlimit:10;stroke-dasharray:none;stroke-opacity:1"
         d="M 4552.38,669.602 V 629.641" /><path
         id="path212"
         style="fill:none;stroke:#000000;stroke-width:11.52000046;stroke-linecap:butt;stroke-linejoin:miter;stroke-miterlimit:10;stroke-dasharray:none;stroke-opacity:1"
         d="M 4820.4,669.602 V 629.641" /><path
         id="path214"
         style="fill:none;stroke:#000000;stroke-width:11.52000046;stroke-linecap:butt;stroke-linejoin:miter;stroke-miterlimit:10;stroke-dasharray:none;stroke-opacity:1"
         d="M 5088.6,669.602 V 629.641" /><path
         id="path216"
         style="fill:none;stroke:#000000;stroke-width:11.52000046;stroke-linecap:butt;stroke-linejoin:miter;stroke-miterlimit:10;stroke-dasharray:none;stroke-opacity:1"
         d="M 5356.8,669.602 V 629.641" /><path
         id="path218"
         style="fill:none;stroke:#000000;stroke-width:11.52000046;stroke-linecap:butt;stroke-linejoin:miter;stroke-miterlimit:10;stroke-dasharray:none;stroke-opacity:1"
         d="M 1870.74,669.602 V 589.68" /><g
         transform="scale(10)"
         id="g220"><text
           id="text224"
           style="font-variant:normal;font-weight:normal;font-size:14.39999962px;font-family:Helvetica;-inkscape-font-specification:Helvetica;writing-mode:lr-tb;fill:#000000;fill-opacity:1;fill-rule:nonzero;stroke:none"
           transform="matrix(1,0,0,-1,179.068,44.8738)"><tspan
             id="tspan222"
             y="0"
             x="0 8.0064001">15</tspan></text>
</g><path
         id="path226"
         style="fill:none;stroke:#000000;stroke-width:11.52000046;stroke-linecap:butt;stroke-linejoin:miter;stroke-miterlimit:10;stroke-dasharray:none;stroke-opacity:1"
         d="M 2407.14,669.602 V 589.68" /><g
         transform="scale(10)"
         id="g228"><text
           id="text232"
           style="font-variant:normal;font-weight:normal;font-size:14.39999962px;font-family:Helvetica;-inkscape-font-specification:Helvetica;writing-mode:lr-tb;fill:#000000;fill-opacity:1;fill-rule:nonzero;stroke:none"
           transform="matrix(1,0,0,-1,232.708,44.8738)"><tspan
             id="tspan230"
             y="0"
             x="0 8.0064001">10</tspan></text>
</g><path
         id="path234"
         style="fill:none;stroke:#000000;stroke-width:11.52000046;stroke-linecap:butt;stroke-linejoin:miter;stroke-miterlimit:10;stroke-dasharray:none;stroke-opacity:1"
         d="M 2943.36,669.602 V 589.68" /><g
         transform="scale(10)"
         id="g236"><text
           id="text240"
           style="font-variant:normal;font-weight:normal;font-size:14.39999962px;font-family:Helvetica;-inkscape-font-specification:Helvetica;writing-mode:lr-tb;fill:#000000;fill-opacity:1;fill-rule:nonzero;stroke:none"
           transform="matrix(1,0,0,-1,290.333,44.8738)"><tspan
             id="tspan238"
             y="0"
             x="0">5</tspan></text>
</g><path
         id="path242"
         style="fill:none;stroke:#000000;stroke-width:11.52000046;stroke-linecap:butt;stroke-linejoin:miter;stroke-miterlimit:10;stroke-dasharray:none;stroke-opacity:1"
         d="M 3479.76,669.602 V 589.68" /><g
         transform="scale(10)"
         id="g244"><text
           id="text248"
           style="font-variant:normal;font-weight:normal;font-size:14.39999962px;font-family:Helvetica;-inkscape-font-specification:Helvetica;writing-mode:lr-tb;fill:#000000;fill-opacity:1;fill-rule:nonzero;stroke:none"
           transform="matrix(1,0,0,-1,343.973,44.8738)"><tspan
             id="tspan246"
             y="0"
             x="0">0</tspan></text>
</g><path
         id="path250"
         style="fill:none;stroke:#000000;stroke-width:11.52000046;stroke-linecap:butt;stroke-linejoin:miter;stroke-miterlimit:10;stroke-dasharray:none;stroke-opacity:1"
         d="M 4015.98,669.602 V 589.68" /><g
         transform="scale(10)"
         id="g252"><text
           id="text256"
           style="font-variant:normal;font-weight:normal;font-size:14.39999962px;font-family:Helvetica;-inkscape-font-specification:Helvetica;writing-mode:lr-tb;fill:#000000;fill-opacity:1;fill-rule:nonzero;stroke:none"
           transform="matrix(1,0,0,-1,397.595,44.8738)"><tspan
             id="tspan254"
             y="0"
             x="0">5</tspan></text>
</g><path
         id="path258"
         style="fill:none;stroke:#000000;stroke-width:11.52000046;stroke-linecap:butt;stroke-linejoin:miter;stroke-miterlimit:10;stroke-dasharray:none;stroke-opacity:1"
         d="M 4552.38,669.602 V 589.68" /><g
         transform="scale(10)"
         id="g260"><text
           id="text264"
           style="font-variant:normal;font-weight:normal;font-size:14.39999962px;font-family:Helvetica;-inkscape-font-specification:Helvetica;writing-mode:lr-tb;fill:#000000;fill-opacity:1;fill-rule:nonzero;stroke:none"
           transform="matrix(1,0,0,-1,447.232,44.8738)"><tspan
             id="tspan262"
             y="0"
             x="0 8.0064001">10</tspan></text>
</g><path
         id="path266"
         style="fill:none;stroke:#000000;stroke-width:11.52000046;stroke-linecap:butt;stroke-linejoin:miter;stroke-miterlimit:10;stroke-dasharray:none;stroke-opacity:1"
         d="M 5088.6,669.602 V 589.68" /><g
         transform="scale(10)"
         id="g268"><text
           id="text274"
           style="font-variant:normal;font-weight:normal;font-size:14.39999962px;font-family:Helvetica;-inkscape-font-specification:Helvetica;writing-mode:lr-tb;fill:#000000;fill-opacity:1;fill-rule:nonzero;stroke:none"
           transform="matrix(1,0,0,-1,500.854,44.8738)"><tspan
             id="tspan270"
             y="0"
             x="0 8.0064001">15</tspan><tspan
             id="tspan272"
             y="16.397699"
             x="-277.53601 -267.93121 -259.9248 -251.9184 -243.5088 -236.30881 -232.3056 -224.29919 -216.2928 -208.28641 -200.28 -195.4848 -187.47839 -184.2816 -177.0816 -169.0752 -161.0688 -157.0656 -152.2704 -138.6768 -133.88161 -129.8784 -125.0832 -117.0768 -113.0736 -105.0672 -101.064 -93.057602 -85.051201 -80.255997 -76.2528 -68.246399 -60.240002 -52.233601 -44.2272 -36.220798">Age−standardized (W) rate per 100000</tspan></text>
</g><path
         id="path276"
         style="fill:none;stroke:#000000;stroke-width:11.52000046;stroke-linecap:butt;stroke-linejoin:miter;stroke-miterlimit:10;stroke-dasharray:none;stroke-opacity:1"
         d="M 1400.94,669.602 V 5558.4" /><g
         transform="scale(10)"
         id="g278"><text
           id="text342"
           style="font-variant:normal;font-weight:normal;font-size:14.39999962px;font-family:Helvetica;-inkscape-font-specification:Helvetica;writing-mode:lr-tb;fill:#000000;fill-opacity:1;fill-rule:nonzero;stroke:none"
           transform="matrix(1,0,0,-1,85.6773,90.468)"><tspan
             id="tspan280"
             y="0"
             x="0 4.0032001 11.2032 19.2096 22.406401 30.4128 38.419201">Iceland</tspan><tspan
             id="tspan282"
             y="-14.4"
             x="-23.989799 -13.593 -5.5865998 1.6134 5.6166 13.623 17.6262 28.023001 31.219801 38.4198">Costa Rica</tspan><tspan
             id="tspan284"
             y="-28.799999"
             x="-2.3901999 7.2146001 15.221 18.417801 26.4242 31.2194 39.2258">Belarus</tspan><tspan
             id="tspan286"
             y="-43.181999"
             x="2.4051099 6.4083099 11.20351 19.209909 22.40671 30.413111 38.41951">Ireland</tspan><tspan
             id="tspan288"
             y="-57.582001"
             x="-54.40189 -44.005089 -36.805092 -28.798691 -21.59869 -13.59229 -9.5890903 0.80770999 8.8141098 16.820511 24.82691 32.833309 36.030109 39.22691">Czech Republic</tspan><tspan
             id="tspan290"
             y="-71.963997"
             x="-11.98039 -1.58359 6.4228101 14.42921 26.42441 34.430809 39.226009">Denmark</tspan><tspan
             id="tspan292"
             y="-86.363998"
             x="9.6048098 19.20961 27.216009 35.222408 38.419209">Spain</tspan><tspan
             id="tspan294"
             y="-100.746"
             x="20.015711 24.018909 28.02211 36.028511 39.225311">Italy</tspan><tspan
             id="tspan296"
             y="-115.146"
             x="-27.992491 -18.38769 -7.99089 -4.7940898 -0.79088998 6.4091101 14.41551 19.210711 22.407511 30.41391 38.420311">Switzerland</tspan><tspan
             id="tspan298"
             y="-129.54601"
             x="1.61301 10.41141 15.20661 23.213011 31.21941 38.419411">France</tspan><tspan
             id="tspan300"
             y="-143.92799"
             x="13.62281 24.019609 32.026009 35.222809 38.419609">Chile</tspan><tspan
             id="tspan302"
             y="-158.328"
             x="7.19976 14.39976 22.40616 30.41256 38.418961">Japan</tspan><tspan
             id="tspan304"
             y="-172.71001"
             x="10.42593 20.030729 24.82593 32.832329 40.03233 43.22913">Brazil</tspan><tspan
             id="tspan306"
             y="-187.11"
             x="-2.37567 8.0211296 16.027531 20.822729 31.21953 39.225929">Norway</tspan><tspan
             id="tspan308"
             y="-201.492"
             x="-9.5897303 0.01507 8.0214701 15.22147 19.22467 24.019871 32.026272 35.223068 38.419868">Australia</tspan><tspan
             id="tspan310"
             y="-215.892"
             x="-31.203831 -20.80703 -12.80063 -8.79743 -0.79102999 7.2153702 12.01057 15.20737 23.21377 31.220169 39.22657">Netherlands</tspan><tspan
             id="tspan312"
             y="-230.29201"
             x="8.8129702 19.20977 27.216169 30.41297 38.419369">China</tspan><tspan
             id="tspan314"
             y="-244.674"
             x="-7.1999302 2.40487 9.6048698 17.611271 25.61767 33.624069 41.63047">Ecuador</tspan><tspan
             id="tspan316"
             y="-259.07401"
             x="-12.78704 -1.58384 6.4225602 11.21776 23.212959 31.21936 39.225761">Germany</tspan><tspan
             id="tspan318"
             y="-273.4556"
             x="-4.0030599 6.3937402 14.40014 22.40654 30.412939 38.419338">Canada</tspan><tspan
             id="tspan320"
             y="-287.85559"
             x="-38.403461 -28.00666 -20.000259 -9.6034603 -5.6002598 3.1981399 11.20454 19.210939 22.40774 30.414141 38.42054">New Zealand</tspan><tspan
             id="tspan322"
             y="-302.23761"
             x="-1.5983599 8.0064402 15.20644 19.209641 27.21604 35.222439 38.419239">Estonia</tspan><tspan
             id="tspan324"
             y="-316.6376"
             x="-12.00886 -4.00246 -0.80566001 3.19754 11.20394 19.21034 27.21674 35.223141 38.419941">Lithuania</tspan><tspan
             id="tspan326"
             y="-331.0376"
             x="-56.014359 -45.617561 -37.61116 -34.41436 -30.41116 -22.40476 -14.39836 -10.39516 -0.79035997 2.40644 10.41284 18.419241 26.42564 34.432041">United Kingdom</tspan><tspan
             id="tspan328"
             y="-345.41959"
             x="-23.197161 -13.59236 -5.5859599 -2.3891599 0.80764002 4.0044398 12.01084 20.017241 23.214041 31.22044 39.226841">Philippines</tspan><tspan
             id="tspan330"
             y="-359.81961"
             x="1.61304 11.21784 19.224239 26.42424 30.427441 35.222641 38.419441">Austria</tspan><tspan
             id="tspan332"
             y="-374.2016"
             x="16.818939 27.21574 36.820541">USA</tspan><tspan
             id="tspan334"
             y="-388.60159"
             x="0.01504 10.41184 15.20704 23.21344 31.219839 35.223042 38.419842">Croatia</tspan><tspan
             id="tspan336"
             y="-402.98361"
             x="-6.3927698 3.2120299 11.21843 14.41523 22.421631 30.42803 35.223228 38.420029">Bulgaria</tspan><tspan
             id="tspan338"
             y="-417.38361"
             x="-14.38457 -3.9877701 4.01863 7.2154298 15.22183 27.21703 35.223431 38.420231">Colombia</tspan><tspan
             id="tspan340"
             y="-431.7836"
             x="1.59863 11.20343 19.209829 22.40663 30.413031 38.41943">Poland</tspan></text>
</g></g></g></svg>