<?xml version="1.0" encoding="UTF-8" standalone="no"?>
<svg
   xmlns:dc="http://purl.org/dc/elements/1.1/"
   xmlns:cc="http://creativecommons.org/ns#"
   xmlns:rdf="http://www.w3.org/1999/02/22-rdf-syntax-ns#"
   xmlns:svg="http://www.w3.org/2000/svg"
   xmlns="http://www.w3.org/2000/svg"
   viewBox="0 0 672 576"
   height="576"
   width="672"
   xml:space="preserve"
   id="svg2"
   version="1.1"><metadata
     id="metadata8"><rdf:RDF><cc:Work
         rdf:about=""><dc:format>image/svg+xml</dc:format><dc:type
           rdf:resource="http://purl.org/dc/dcmitype/StillImage" /></cc:Work></rdf:RDF></metadata><defs
     id="defs6" /><g
     transform="matrix(1.3333333,0,0,-1.3333333,0,576)"
     id="g10"><g
       transform="scale(0.1)"
       id="g12"><path
         id="path14"
         style="fill:#eaf2f3;fill-opacity:1;fill-rule:nonzero;stroke:none"
         d="M 0,0 H 5040 V 4320 H 0 Z" /><path
         id="path16"
         style="fill:none;stroke:#c0c0c0;stroke-width:8.64000034;stroke-linecap:butt;stroke-linejoin:miter;stroke-miterlimit:10;stroke-dasharray:none;stroke-opacity:1"
         d="M 2068.13,544.164 V 4168.71" /><path
         id="path18"
         style="fill:none;stroke:#c0c0c0;stroke-width:8.64000034;stroke-linecap:butt;stroke-linejoin:miter;stroke-miterlimit:10;stroke-dasharray:none;stroke-opacity:1"
         d="M 2335.09,544.164 V 4168.71" /><path
         id="path20"
         style="fill:none;stroke:#c0c0c0;stroke-width:8.64000034;stroke-linecap:butt;stroke-linejoin:miter;stroke-miterlimit:10;stroke-dasharray:none;stroke-opacity:1"
         d="M 2602.06,544.164 V 4168.71" /><path
         id="path22"
         style="fill:none;stroke:#c0c0c0;stroke-width:8.64000034;stroke-linecap:butt;stroke-linejoin:miter;stroke-miterlimit:10;stroke-dasharray:none;stroke-opacity:1"
         d="M 2869.02,544.164 V 4168.71" /><path
         id="path24"
         style="fill:none;stroke:#c0c0c0;stroke-width:8.64000034;stroke-linecap:butt;stroke-linejoin:miter;stroke-miterlimit:10;stroke-dasharray:none;stroke-opacity:1"
         d="M 3135.82,544.164 V 4168.71" /><path
         id="path26"
         style="fill:none;stroke:#c0c0c0;stroke-width:8.64000034;stroke-linecap:butt;stroke-linejoin:miter;stroke-miterlimit:10;stroke-dasharray:none;stroke-opacity:1"
         d="M 3402.79,544.164 V 4168.71" /><path
         id="path28"
         style="fill:none;stroke:#c0c0c0;stroke-width:8.64000034;stroke-linecap:butt;stroke-linejoin:miter;stroke-miterlimit:10;stroke-dasharray:none;stroke-opacity:1"
         d="M 3669.75,544.164 V 4168.71" /><path
         id="path30"
         style="fill:none;stroke:#c0c0c0;stroke-width:8.64000034;stroke-linecap:butt;stroke-linejoin:miter;stroke-miterlimit:10;stroke-dasharray:none;stroke-opacity:1"
         d="M 3936.71,544.164 V 4168.71" /><path
         id="path32"
         style="fill:none;stroke:#c0c0c0;stroke-width:8.64000034;stroke-linecap:butt;stroke-linejoin:miter;stroke-miterlimit:10;stroke-dasharray:none;stroke-opacity:1"
         d="M 4203.68,544.164 V 4168.71" /><path
         id="path34"
         style="fill:none;stroke:#c0c0c0;stroke-width:8.64000034;stroke-linecap:butt;stroke-linejoin:miter;stroke-miterlimit:10;stroke-dasharray:none;stroke-opacity:1"
         d="M 4470.64,544.164 V 4168.71" /><path
         id="path36"
         style="fill:none;stroke:#c0c0c0;stroke-width:8.64000034;stroke-linecap:butt;stroke-linejoin:miter;stroke-miterlimit:10;stroke-dasharray:none;stroke-opacity:1"
         d="M 4737.44,544.164 V 4168.71" /><path
         id="path38"
         style="fill:none;stroke:#c0c0c0;stroke-width:8.64000034;stroke-linecap:butt;stroke-linejoin:miter;stroke-miterlimit:10;stroke-dasharray:none;stroke-opacity:1"
         d="M 2068.13,544.164 V 4168.71" /><path
         id="path40"
         style="fill:none;stroke:#c0c0c0;stroke-width:8.64000034;stroke-linecap:butt;stroke-linejoin:miter;stroke-miterlimit:10;stroke-dasharray:none;stroke-opacity:1"
         d="M 2602.06,544.164 V 4168.71" /><path
         id="path42"
         style="fill:none;stroke:#c0c0c0;stroke-width:8.64000034;stroke-linecap:butt;stroke-linejoin:miter;stroke-miterlimit:10;stroke-dasharray:none;stroke-opacity:1"
         d="M 3135.82,544.164 V 4168.71" /><path
         id="path44"
         style="fill:none;stroke:#c0c0c0;stroke-width:8.64000034;stroke-linecap:butt;stroke-linejoin:miter;stroke-miterlimit:10;stroke-dasharray:none;stroke-opacity:1"
         d="M 3669.75,544.164 V 4168.71" /><path
         id="path46"
         style="fill:none;stroke:#c0c0c0;stroke-width:8.64000034;stroke-linecap:butt;stroke-linejoin:miter;stroke-miterlimit:10;stroke-dasharray:none;stroke-opacity:1"
         d="M 4203.68,544.164 V 4168.71" /><path
         id="path48"
         style="fill:none;stroke:#c0c0c0;stroke-width:8.64000034;stroke-linecap:butt;stroke-linejoin:miter;stroke-miterlimit:10;stroke-dasharray:none;stroke-opacity:1"
         d="M 4737.44,544.164 V 4168.71" /><path
         id="path50"
         style="fill:#2c7bb6;fill-opacity:1;fill-rule:nonzero;stroke:none"
         d="m 2068.13,746.078 v 253.574 h 28.19 V 746.078 h -28.19" /><path
         id="path52"
         style="fill:none;stroke:#2c7bb6;stroke-width:1.20000005;stroke-linecap:butt;stroke-linejoin:miter;stroke-miterlimit:10;stroke-dasharray:none;stroke-opacity:1"
         d="m 2068.13,746.078 v 253.574 h 28.19 V 746.078 Z" /><path
         id="path54"
         style="fill:#2c7bb6;fill-opacity:1;fill-rule:nonzero;stroke:none"
         d="m 2068.13,1075.73 v 253.57 h 28.67 v -253.57 h -28.67" /><path
         id="path56"
         style="fill:none;stroke:#2c7bb6;stroke-width:1.20000005;stroke-linecap:butt;stroke-linejoin:miter;stroke-miterlimit:10;stroke-dasharray:none;stroke-opacity:1"
         d="m 2068.13,1075.73 v 253.57 h 28.67 v -253.57 z" /><path
         id="path58"
         style="fill:#2c7bb6;fill-opacity:1;fill-rule:nonzero;stroke:none"
         d="m 2068.13,1405.53 v 253.58 h 57.17 v -253.58 h -57.17" /><path
         id="path60"
         style="fill:none;stroke:#2c7bb6;stroke-width:1.20000005;stroke-linecap:butt;stroke-linejoin:miter;stroke-miterlimit:10;stroke-dasharray:none;stroke-opacity:1"
         d="m 2068.13,1405.53 v 253.58 h 57.17 v -253.58 z" /><path
         id="path62"
         style="fill:#2c7bb6;fill-opacity:1;fill-rule:nonzero;stroke:none"
         d="m 2068.13,1735.18 v 253.57 h 63.32 v -253.57 h -63.32" /><path
         id="path64"
         style="fill:none;stroke:#2c7bb6;stroke-width:1.20000005;stroke-linecap:butt;stroke-linejoin:miter;stroke-miterlimit:10;stroke-dasharray:none;stroke-opacity:1"
         d="m 2068.13,1735.18 v 253.57 h 63.32 v -253.57 z" /><path
         id="path66"
         style="fill:#2c7bb6;fill-opacity:1;fill-rule:nonzero;stroke:none"
         d="m 2068.13,2064.82 v 253.58 h 74.66 v -253.58 h -74.66" /><path
         id="path68"
         style="fill:none;stroke:#2c7bb6;stroke-width:1.20000005;stroke-linecap:butt;stroke-linejoin:miter;stroke-miterlimit:10;stroke-dasharray:none;stroke-opacity:1"
         d="m 2068.13,2064.82 v 253.58 h 74.66 v -253.58 z" /><path
         id="path70"
         style="fill:#2c7bb6;fill-opacity:1;fill-rule:nonzero;stroke:none"
         d="m 2068.13,2394.47 v 253.58 h 84.26 v -253.58 h -84.26" /><path
         id="path72"
         style="fill:none;stroke:#2c7bb6;stroke-width:1.20000005;stroke-linecap:butt;stroke-linejoin:miter;stroke-miterlimit:10;stroke-dasharray:none;stroke-opacity:1"
         d="m 2068.13,2394.47 v 253.58 h 84.26 v -253.58 z" /><path
         id="path74"
         style="fill:#2c7bb6;fill-opacity:1;fill-rule:nonzero;stroke:none"
         d="m 2068.13,2724.12 v 253.58 h 127.1 v -253.58 h -127.1" /><path
         id="path76"
         style="fill:none;stroke:#2c7bb6;stroke-width:1.20000005;stroke-linecap:butt;stroke-linejoin:miter;stroke-miterlimit:10;stroke-dasharray:none;stroke-opacity:1"
         d="m 2068.13,2724.12 v 253.58 h 127.1 v -253.58 z" /><path
         id="path78"
         style="fill:#2c7bb6;fill-opacity:1;fill-rule:nonzero;stroke:none"
         d="M 2068.13,3053.77 V 3307.5 H 2229.1 V 3053.77 H 2068.13" /><path
         id="path80"
         style="fill:none;stroke:#2c7bb6;stroke-width:1.20000005;stroke-linecap:butt;stroke-linejoin:miter;stroke-miterlimit:10;stroke-dasharray:none;stroke-opacity:1"
         d="M 2068.13,3053.77 V 3307.5 H 2229.1 V 3053.77 Z" /><path
         id="path82"
         style="fill:#2c7bb6;fill-opacity:1;fill-rule:nonzero;stroke:none"
         d="m 2068.13,3383.57 v 253.58 h 203.96 v -253.58 h -203.96" /><path
         id="path84"
         style="fill:none;stroke:#2c7bb6;stroke-width:1.20000005;stroke-linecap:butt;stroke-linejoin:miter;stroke-miterlimit:10;stroke-dasharray:none;stroke-opacity:1"
         d="m 2068.13,3383.57 v 253.58 h 203.96 v -253.58 z" /><path
         id="path86"
         style="fill:#2c7bb6;fill-opacity:1;fill-rule:nonzero;stroke:none"
         d="m 2068.13,3713.22 v 253.58 h 398.95 v -253.58 h -398.95" /><path
         id="path88"
         style="fill:none;stroke:#2c7bb6;stroke-width:1.20000005;stroke-linecap:butt;stroke-linejoin:miter;stroke-miterlimit:10;stroke-dasharray:none;stroke-opacity:1"
         d="m 2068.13,3713.22 v 253.58 h 398.95 v -253.58 z" /><path
         id="path90"
         style="fill:none;stroke:#000000;stroke-width:8.64000034;stroke-linecap:butt;stroke-linejoin:miter;stroke-miterlimit:10;stroke-dasharray:none;stroke-opacity:1"
         d="M 2068.13,544.164 H 4888.64" /><path
         id="path92"
         style="fill:none;stroke:#000000;stroke-width:8.64000034;stroke-linecap:butt;stroke-linejoin:miter;stroke-miterlimit:10;stroke-dasharray:none;stroke-opacity:1"
         d="M 2068.13,544.164 V 514.238" /><path
         id="path94"
         style="fill:none;stroke:#000000;stroke-width:8.64000034;stroke-linecap:butt;stroke-linejoin:miter;stroke-miterlimit:10;stroke-dasharray:none;stroke-opacity:1"
         d="M 2335.09,544.164 V 514.238" /><path
         id="path96"
         style="fill:none;stroke:#000000;stroke-width:8.64000034;stroke-linecap:butt;stroke-linejoin:miter;stroke-miterlimit:10;stroke-dasharray:none;stroke-opacity:1"
         d="M 2602.06,544.164 V 514.238" /><path
         id="path98"
         style="fill:none;stroke:#000000;stroke-width:8.64000034;stroke-linecap:butt;stroke-linejoin:miter;stroke-miterlimit:10;stroke-dasharray:none;stroke-opacity:1"
         d="M 2869.02,544.164 V 514.238" /><path
         id="path100"
         style="fill:none;stroke:#000000;stroke-width:8.64000034;stroke-linecap:butt;stroke-linejoin:miter;stroke-miterlimit:10;stroke-dasharray:none;stroke-opacity:1"
         d="M 3135.82,544.164 V 514.238" /><path
         id="path102"
         style="fill:none;stroke:#000000;stroke-width:8.64000034;stroke-linecap:butt;stroke-linejoin:miter;stroke-miterlimit:10;stroke-dasharray:none;stroke-opacity:1"
         d="M 3402.79,544.164 V 514.238" /><path
         id="path104"
         style="fill:none;stroke:#000000;stroke-width:8.64000034;stroke-linecap:butt;stroke-linejoin:miter;stroke-miterlimit:10;stroke-dasharray:none;stroke-opacity:1"
         d="M 3669.75,544.164 V 514.238" /><path
         id="path106"
         style="fill:none;stroke:#000000;stroke-width:8.64000034;stroke-linecap:butt;stroke-linejoin:miter;stroke-miterlimit:10;stroke-dasharray:none;stroke-opacity:1"
         d="M 3936.71,544.164 V 514.238" /><path
         id="path108"
         style="fill:none;stroke:#000000;stroke-width:8.64000034;stroke-linecap:butt;stroke-linejoin:miter;stroke-miterlimit:10;stroke-dasharray:none;stroke-opacity:1"
         d="M 4203.68,544.164 V 514.238" /><path
         id="path110"
         style="fill:none;stroke:#000000;stroke-width:8.64000034;stroke-linecap:butt;stroke-linejoin:miter;stroke-miterlimit:10;stroke-dasharray:none;stroke-opacity:1"
         d="M 4470.64,544.164 V 514.238" /><path
         id="path112"
         style="fill:none;stroke:#000000;stroke-width:8.64000034;stroke-linecap:butt;stroke-linejoin:miter;stroke-miterlimit:10;stroke-dasharray:none;stroke-opacity:1"
         d="M 4737.44,544.164 V 514.238" /><path
         id="path114"
         style="fill:none;stroke:#000000;stroke-width:8.64000034;stroke-linecap:butt;stroke-linejoin:miter;stroke-miterlimit:10;stroke-dasharray:none;stroke-opacity:1"
         d="M 2068.13,544.164 V 484.156" /><g
         transform="scale(10)"
         id="g116"><text
           id="text120"
           style="font-variant:normal;font-weight:normal;font-size:10.80449963px;font-family:Helvetica;-inkscape-font-specification:Helvetica;writing-mode:lr-tb;fill:#000000;fill-opacity:1;fill-rule:nonzero;stroke:none"
           transform="matrix(1,0,0,-1,203.81,37.8629)"><tspan
             id="tspan118"
             y="0"
             x="0">0</tspan></text>
</g><path
         id="path122"
         style="fill:none;stroke:#000000;stroke-width:8.64000034;stroke-linecap:butt;stroke-linejoin:miter;stroke-miterlimit:10;stroke-dasharray:none;stroke-opacity:1"
         d="M 2602.06,544.164 V 484.156" /><g
         transform="scale(10)"
         id="g124"><text
           id="text128"
           style="font-variant:normal;font-weight:normal;font-size:10.80449963px;font-family:Helvetica;-inkscape-font-specification:Helvetica;writing-mode:lr-tb;fill:#000000;fill-opacity:1;fill-rule:nonzero;stroke:none"
           transform="matrix(1,0,0,-1,254.199,37.8629)"><tspan
             id="tspan126"
             y="0"
             x="0 6.0073018">20</tspan></text>
</g><path
         id="path130"
         style="fill:none;stroke:#000000;stroke-width:8.64000034;stroke-linecap:butt;stroke-linejoin:miter;stroke-miterlimit:10;stroke-dasharray:none;stroke-opacity:1"
         d="M 3135.82,544.164 V 484.156" /><g
         transform="scale(10)"
         id="g132"><text
           id="text136"
           style="font-variant:normal;font-weight:normal;font-size:10.80449963px;font-family:Helvetica;-inkscape-font-specification:Helvetica;writing-mode:lr-tb;fill:#000000;fill-opacity:1;fill-rule:nonzero;stroke:none"
           transform="matrix(1,0,0,-1,307.575,37.8629)"><tspan
             id="tspan134"
             y="0"
             x="0 6.0073018">40</tspan></text>
</g><path
         id="path138"
         style="fill:none;stroke:#000000;stroke-width:8.64000034;stroke-linecap:butt;stroke-linejoin:miter;stroke-miterlimit:10;stroke-dasharray:none;stroke-opacity:1"
         d="M 3669.75,544.164 V 484.156" /><g
         transform="scale(10)"
         id="g140"><text
           id="text144"
           style="font-variant:normal;font-weight:normal;font-size:10.80449963px;font-family:Helvetica;-inkscape-font-specification:Helvetica;writing-mode:lr-tb;fill:#000000;fill-opacity:1;fill-rule:nonzero;stroke:none"
           transform="matrix(1,0,0,-1,360.968,37.8629)"><tspan
             id="tspan142"
             y="0"
             x="0 6.0073018">60</tspan></text>
</g><path
         id="path146"
         style="fill:none;stroke:#000000;stroke-width:8.64000034;stroke-linecap:butt;stroke-linejoin:miter;stroke-miterlimit:10;stroke-dasharray:none;stroke-opacity:1"
         d="M 4203.68,544.164 V 484.156" /><g
         transform="scale(10)"
         id="g148"><text
           id="text152"
           style="font-variant:normal;font-weight:normal;font-size:10.80449963px;font-family:Helvetica;-inkscape-font-specification:Helvetica;writing-mode:lr-tb;fill:#000000;fill-opacity:1;fill-rule:nonzero;stroke:none"
           transform="matrix(1,0,0,-1,414.361,37.8629)"><tspan
             id="tspan150"
             y="0"
             x="0 6.0073018">80</tspan></text>
</g><path
         id="path154"
         style="fill:none;stroke:#000000;stroke-width:8.64000034;stroke-linecap:butt;stroke-linejoin:miter;stroke-miterlimit:10;stroke-dasharray:none;stroke-opacity:1"
         d="M 4737.44,544.164 V 484.156" /><g
         transform="scale(10)"
         id="g156"><text
           id="text160"
           style="font-variant:normal;font-weight:normal;font-size:10.80449963px;font-family:Helvetica;-inkscape-font-specification:Helvetica;writing-mode:lr-tb;fill:#000000;fill-opacity:1;fill-rule:nonzero;stroke:none"
           transform="matrix(1,0,0,-1,464.734,37.8629)"><tspan
             id="tspan158"
             y="0"
             x="0 6.0073018 12.014604">100</tspan></text>
<text
           id="text164"
           style="font-variant:normal;font-weight:normal;font-size:14.99400043px;font-family:Helvetica;-inkscape-font-specification:Helvetica;writing-mode:lr-tb;fill:#000000;fill-opacity:1;fill-rule:nonzero;stroke:none"
           transform="matrix(1,0,0,-1,299.088,22.6172)"><tspan
             id="tspan162"
             y="0"
             x="0 12.490002 20.826666 29.16333 37.499992 41.668327 50.00499 54.173321 58.341656 65.838654 74.175316 81.672318 90.00898">mean of cases</tspan></text>
</g><path
         id="path166"
         style="fill:none;stroke:#000000;stroke-width:8.64000034;stroke-linecap:butt;stroke-linejoin:miter;stroke-miterlimit:10;stroke-dasharray:none;stroke-opacity:1"
         d="M 2068.13,544.164 V 4168.71" /><g
         transform="scale(10)"
         id="g168"><text
           id="text190"
           style="font-variant:normal;font-weight:normal;font-size:10.80449963px;font-family:Helvetica;-inkscape-font-specification:Helvetica;writing-mode:lr-tb;fill:#000000;fill-opacity:1;fill-rule:nonzero;stroke:none"
           transform="matrix(1,0,0,-1,118.55,83.5066)"><tspan
             id="tspan170"
             y="0"
             x="0 8.405901 11.409552 17.416855 23.424156 27.022055 30.025705 36.033009 42.04031 48.047611 54.054913 56.453514 62.460815 67.863068 76.863213">Other neoplasms</tspan><tspan
             id="tspan172"
             y="-32.9645"
             x="-7.8000002 0.000849 2.3994479 8.4067497 14.414052 19.816301 22.819954 25.218552 30.620802 36.628105 39.631756 45.639057 48.037655 53.439907 59.447208 65.454514 70.856758 76.864059">Digestive diseases</tspan><tspan
             id="tspan174"
             y="-65.945396"
             x="-90.666801 -83.460197 -77.452896 -71.445595 -65.438293 -60.036041 -56.438145 -54.039543 -48.032242 -42.02494 -39.02129 -36.017639 -30.010338 -27.611738 -21.604437 -15.597134 -9.5898323 -6.5861812 -3.58253 -1.183931 7.8162174 16.816366 22.823668 28.830971 34.838272 37.841923 43.849224 46.247826 51.650074 57.657375 61.255276 67.262573 73.269882 76.867775">Endocrine, blood, immune disorders</tspan><tspan
             id="tspan176"
             y="-98.909897"
             x="-35.414799 -27.613951 -21.606649 -18.008751 -12.001449 -9.60285 -3.5955474 1.8067025 7.8140044 13.216254 18.618504 24.625807 27.024406 33.031708 36.629604 39.633259 45.64056 48.039158 53.441406 59.448711 65.456009 70.858261 76.865562">Cardiovascular diseases</tspan><tspan
             id="tspan178"
             y="-131.87469"
             x="-29.418711 -21.617861 -15.610559 -9.6032572 -6.0053587 0.0019435 2.4005425 8.4078445 14.415147 16.813745 22.215996 28.223297 30.621897 33.625549 39.027798 45.035099 51.0424 57.049702 59.448303 62.451954 64.850555 70.857857 76.865158">Neurological conditions</tspan><tspan
             id="tspan180"
             y="-164.83949"
             x="-4.8070102 -1.803359 4.2039428 7.2075939 13.214896 19.222198 22.225849 24.624449 30.63175 36.639053 42.646355 45.044952 48.048603 50.447205 56.454506 58.853104 64.860405 68.458305 70.856903 76.864204">Intentional injuries</tspan><tspan
             id="tspan182"
             y="-197.80431"
             x="-73.866013 -70.862358 -64.855057 -61.851406 -55.844105 -50.441853 -47.438202 -45.039604 -39.032303 -33.025002 -27.622749 -24.619099 -18.611797 -12.604495 -6.5971928 -3.5935421 2.4137599 8.4210625 12.018961 18.026262 23.428513 25.827112 28.830763 31.229361 36.631611 39.635262 45.642563 48.041164 53.443413 59.450714 65.458015 70.860268 76.867569">Infectious and parasitic diseases</tspan><tspan
             id="tspan184"
             y="-230.78481"
             x="-25.216009 -17.415161 -11.407859 -6.005609 0.001693 2.4002919 5.9981904 12.005492 15.009144 21.016445 24.614344 30.016594 33.020245 36.023895 42.031197 45.034847 51.042152 56.444401 59.448051 61.846649 67.853951 73.861252 79.263504">Respiratory Infectious </tspan><tspan
             id="tspan186"
             y="-263.7493"
             x="-19.814449 -10.814301 -4.8069997 -2.4084005 -0.0098014995 5.9975004 12.004803 18.012104 24.019407 27.023058 30.026709 36.034012 42.041313 48.048615 54.055916 56.454517 62.461819 67.864067 76.86422">Malignant neoplasms</tspan><tspan
             id="tspan188"
             y="-296.71411"
             x="-18.00976 -10.208911 -4.2016091 -1.80301 4.2042918 7.207943 13.215245 19.222548 22.226198 24.624798 30.632099 36.6394 42.646702 45.045303 48.048954 50.447552 56.454853 58.853455 64.860756 68.458656 70.857254 76.864555">Unintentional injuries</tspan></text>
</g></g></g></svg>