<?xml version="1.0" encoding="UTF-8" standalone="no"?>
<svg
   xmlns:dc="http://purl.org/dc/elements/1.1/"
   xmlns:cc="http://creativecommons.org/ns#"
   xmlns:rdf="http://www.w3.org/1999/02/22-rdf-syntax-ns#"
   xmlns:svg="http://www.w3.org/2000/svg"
   xmlns="http://www.w3.org/2000/svg"
   viewBox="0 0 528 384"
   height="384"
   width="528"
   xml:space="preserve"
   id="svg2"
   version="1.1"><metadata
     id="metadata8"><rdf:RDF><cc:Work
         rdf:about=""><dc:format>image/svg+xml</dc:format><dc:type
           rdf:resource="http://purl.org/dc/dcmitype/StillImage" /></cc:Work></rdf:RDF></metadata><defs
     id="defs6" /><g
     transform="matrix(1.3333333,0,0,-1.3333333,0,384)"
     id="g10"><g
       transform="scale(0.1)"
       id="g12"><path
         id="path14"
         style="fill:#eaf2f3;fill-opacity:1;fill-rule:nonzero;stroke:none"
         d="M 0,0 H 3960 V 2880 H 0 Z" /><path
         id="path16"
         style="fill:#e0e0e0;fill-opacity:1;fill-rule:nonzero;stroke:none"
         d="m 1979.88,1439.95 1340.23,70.25 c -37.36,712.92 -626.33,1271.82 -1340.23,1271.82" /><path
         id="path18"
         style="fill:none;stroke:#dcdcdc;stroke-width:1.20000005;stroke-linecap:butt;stroke-linejoin:miter;stroke-miterlimit:10;stroke-dasharray:none;stroke-opacity:1"
         d="m 1979.88,1439.95 1340.23,70.25 c -37.36,712.92 -626.33,1271.82 -1340.23,1271.82 z" /><path
         id="path20"
         style="fill:#3172ab;fill-opacity:1;fill-rule:nonzero;stroke:none"
         d="m 1979.88,1439.95 v 1342.07 c -741.21,0 -1342.071,-600.86 -1342.071,-1342.07 0,-741.2 600.861,-1342.0633 1342.071,-1342.0633 741.2,0 1342.07,600.8633 1342.07,1342.0633 0,23.43 -0.62,46.85 -1.84,70.25" /><path
         id="path22"
         style="fill:none;stroke:#1a62a2;stroke-width:1.20000005;stroke-linecap:butt;stroke-linejoin:miter;stroke-miterlimit:10;stroke-dasharray:none;stroke-opacity:1"
         d="m 1979.88,1439.95 v 1342.07 c -741.21,0 -1342.071,-600.86 -1342.071,-1342.07 0,-741.2 600.861,-1342.0633 1342.071,-1342.0633 741.2,0 1342.07,600.8633 1342.07,1342.0633 0,23.43 -0.62,46.85 -1.84,70.25 z" /><g
         transform="scale(10)"
         id="g24"><text
           id="text30"
           style="font-variant:normal;font-weight:normal;font-size:11.00139999px;font-family:Helvetica;-inkscape-font-specification:Helvetica;writing-mode:lr-tb;fill:#000000;fill-opacity:1;fill-rule:nonzero;stroke:none"
           transform="matrix(1,0,0,-1,108.402,65.6246)"><tspan
             id="tspan26"
             y="0"
             x="0 6.1167784 12.233557 15.291946 21.408724 27.525503">75.78%</tspan><tspan
             id="tspan28"
             y="-149.045"
             x="141.879 147.99577 154.11256 157.17094 163.28772 169.4045">24.22%</tspan></text>
</g></g></g></svg>