<?xml version="1.0" encoding="UTF-8" standalone="no"?>
<!-- Created with Inkscape (http://www.inkscape.org/) -->

<svg
   version="1.1"
   id="svg2"
   xml:space="preserve"
   width="528"
   height="384"
   viewBox="0 0 528 384"
   sodipodi:docname="pie1.eps"
   xmlns:inkscape="http://www.inkscape.org/namespaces/inkscape"
   xmlns:sodipodi="http://sodipodi.sourceforge.net/DTD/sodipodi-0.dtd"
   xmlns="http://www.w3.org/2000/svg"
   xmlns:svg="http://www.w3.org/2000/svg"><defs
     id="defs6"><clipPath
       clipPathUnits="userSpaceOnUse"
       id="clipPath22"><path
         d="M 1979.88,1439.95 1956.45,98.0898 c 7.81,-0.1328 15.62,-0.2031 23.43,-0.2031 741.2,0 1342.07,600.8633 1342.07,1342.0633 0,741.21 -600.87,1342.07 -1342.07,1342.07 z"
         id="path20" /></clipPath><clipPath
       clipPathUnits="userSpaceOnUse"
       id="clipPath34"><path
         d="M 1979.88,1439.95 V 2782.02 C 1238.67,2782.02 637.809,2181.16 637.809,1439.95 637.809,707.883 1224.5,110.867 1956.45,98.0898 Z"
         id="path32" /></clipPath></defs><sodipodi:namedview
     id="namedview4"
     pagecolor="#ffffff"
     bordercolor="#666666"
     borderopacity="1.0"
     inkscape:pageshadow="2"
     inkscape:pageopacity="0.0"
     inkscape:pagecheckerboard="0" /><g
     id="g8"
     inkscape:groupmode="layer"
     inkscape:label="ink_ext_XXXXXX"
     transform="matrix(1.3333333,0,0,-1.3333333,0,384)"><g
       id="g10"
       transform="scale(0.1)"><path
         d="M 0,0 H 3960 V 2880 H 0 Z"
         style="fill:#eaf2f3;fill-opacity:1;fill-rule:nonzero;stroke:none"
         id="path12" /><path
         d="M 1979.88,1439.95 1956.45,98.0898 c 7.81,-0.1328 15.62,-0.2031 23.43,-0.2031 741.2,0 1342.07,600.8633 1342.07,1342.0633 0,741.21 -600.87,1342.07 -1342.07,1342.07"
         style="fill:#e0e0e0;fill-opacity:1;fill-rule:nonzero;stroke:none"
         id="path14" /><g
         id="g16"><g
           id="g18"
           clip-path="url(#clipPath22)"><path
             d="M 1979.88,1439.95 1956.45,98.0898 c 7.81,-0.1328 15.62,-0.2031 23.43,-0.2031 741.2,0 1342.07,600.8633 1342.07,1342.0633 0,741.21 -600.87,1342.07 -1342.07,1342.07 z"
             style="fill:none;stroke:#dcdcdc;stroke-width:2.4;stroke-linecap:butt;stroke-linejoin:miter;stroke-miterlimit:10;stroke-dasharray:none;stroke-opacity:1"
             id="path24" /></g></g><path
         d="M 1979.88,1439.95 V 2782.02 C 1238.67,2782.02 637.809,2181.16 637.809,1439.95 637.809,707.883 1224.5,110.867 1956.45,98.0898"
         style="fill:#3172ab;fill-opacity:1;fill-rule:nonzero;stroke:none"
         id="path26" /><g
         id="g28"><g
           id="g30"
           clip-path="url(#clipPath34)"><path
             d="M 1979.88,1439.95 V 2782.02 C 1238.67,2782.02 637.809,2181.16 637.809,1439.95 637.809,707.883 1224.5,110.867 1956.45,98.0898 Z"
             style="fill:none;stroke:#1a62a2;stroke-width:2.4;stroke-linecap:butt;stroke-linejoin:miter;stroke-miterlimit:10;stroke-dasharray:none;stroke-opacity:1"
             id="path36" /></g></g><g
         id="g38"
         transform="scale(10)"><text
           transform="matrix(1,0,0,-1,76.45,140.691)"
           style="font-variant:normal;font-weight:normal;font-size:11.0014px;font-family:Helvetica;-inkscape-font-specification:Helvetica;writing-mode:lr-tb;fill:#000000;fill-opacity:1;fill-rule:nonzero;stroke:none"
           id="text44"><tspan
             x="0 6.1167784 12.233557 15.291946 21.408724 27.525503"
             y="0"
             sodipodi:role="line"
             id="tspan40">49.83%</tspan><tspan
             x="205.784 211.90077 218.01756 221.07594 227.19272 233.30951"
             y="1.0890599"
             sodipodi:role="line"
             id="tspan42">50.17%</tspan></text></g></g></g></svg>
