<?xml version="1.0" encoding="UTF-8" standalone="no"?>
<svg
   xmlns:dc="http://purl.org/dc/elements/1.1/"
   xmlns:cc="http://creativecommons.org/ns#"
   xmlns:rdf="http://www.w3.org/1999/02/22-rdf-syntax-ns#"
   xmlns:svg="http://www.w3.org/2000/svg"
   xmlns="http://www.w3.org/2000/svg"
   viewBox="0 0 528 384"
   height="384"
   width="528"
   xml:space="preserve"
   id="svg2"
   version="1.1"><metadata
     id="metadata8"><rdf:RDF><cc:Work
         rdf:about=""><dc:format>image/svg+xml</dc:format><dc:type
           rdf:resource="http://purl.org/dc/dcmitype/StillImage" /></cc:Work></rdf:RDF></metadata><defs
     id="defs6" /><g
     transform="matrix(1.3333333,0,0,-1.3333333,0,384)"
     id="g10"><g
       transform="scale(0.1)"
       id="g12"><path
         id="path14"
         style="fill:#eaf2f3;fill-opacity:1;fill-rule:nonzero;stroke:none"
         d="M 0,0 H 3960 V 2880 H 0 Z" /><path
         id="path16"
         style="fill:#e0e0e0;fill-opacity:1;fill-rule:nonzero;stroke:none"
         d="M 1979.88,1439.95 V 97.8867 c 741.2,0 1342.07,600.8633 1342.07,1342.0633 0,741.21 -600.87,1342.07 -1342.07,1342.07" /><path
         id="path18"
         style="fill:none;stroke:#dcdcdc;stroke-width:1.20000005;stroke-linecap:butt;stroke-linejoin:miter;stroke-miterlimit:10;stroke-dasharray:none;stroke-opacity:1"
         d="M 1979.88,1439.95 V 97.8867 c 741.2,0 1342.07,600.8633 1342.07,1342.0633 0,741.21 -600.87,1342.07 -1342.07,1342.07 z" /><path
         id="path20"
         style="fill:#3172ab;fill-opacity:1;fill-rule:nonzero;stroke:none"
         d="M 1979.88,1439.95 V 2782.02 C 1238.67,2782.02 637.809,2181.16 637.809,1439.95 637.809,698.75 1238.67,97.8867 1979.88,97.8867" /><path
         id="path22"
         style="fill:none;stroke:#1a62a2;stroke-width:1.20000005;stroke-linecap:butt;stroke-linejoin:miter;stroke-miterlimit:10;stroke-dasharray:none;stroke-opacity:1"
         d="M 1979.88,1439.95 V 2782.02 C 1238.67,2782.02 637.809,2181.16 637.809,1439.95 637.809,698.75 1238.67,97.8867 1979.88,97.8867 Z" /><g
         transform="scale(10)"
         id="g24"><text
           id="text30"
           style="font-variant:normal;font-weight:normal;font-size:11.00139999px;font-family:Helvetica;-inkscape-font-specification:Helvetica;writing-mode:lr-tb;fill:#000000;fill-opacity:1;fill-rule:nonzero;stroke:none"
           transform="matrix(1,0,0,-1,76.45,139.899)"><tspan
             id="tspan26"
             y="0"
             x="0 6.1167784 12.233557 15.291946 21.408724 27.525503">50.08%</tspan><tspan
             id="tspan28"
             y="-0.49531299"
             x="205.784 211.90077 218.01756 221.07594 227.19272 233.30951">49.92%</tspan></text>
</g></g></g></svg>