<?xml version="1.0" encoding="UTF-8" standalone="no"?>
<svg
   xmlns:dc="http://purl.org/dc/elements/1.1/"
   xmlns:cc="http://creativecommons.org/ns#"
   xmlns:rdf="http://www.w3.org/1999/02/22-rdf-syntax-ns#"
   xmlns:svg="http://www.w3.org/2000/svg"
   xmlns="http://www.w3.org/2000/svg"
   viewBox="0 0 528 384"
   height="384"
   width="528"
   xml:space="preserve"
   id="svg2"
   version="1.1"><metadata
     id="metadata8"><rdf:RDF><cc:Work
         rdf:about=""><dc:format>image/svg+xml</dc:format><dc:type
           rdf:resource="http://purl.org/dc/dcmitype/StillImage" /></cc:Work></rdf:RDF></metadata><defs
     id="defs6" /><g
     transform="matrix(1.3333333,0,0,-1.3333333,0,384)"
     id="g10"><g
       transform="scale(0.1)"
       id="g12"><path
         id="path14"
         style="fill:#eaf2f3;fill-opacity:1;fill-rule:nonzero;stroke:none"
         d="M 0,0 H 3960 V 2880 H 0 Z" /><path
         id="path16"
         style="fill:#e0e0e0;fill-opacity:1;fill-rule:nonzero;stroke:none"
         d="M 1979.88,1439.95 2120.16,105.238 c 683.13,71.797 1201.79,647.821 1201.79,1334.712 0,741.21 -600.87,1342.07 -1342.07,1342.07" /><path
         id="path18"
         style="fill:none;stroke:#dcdcdc;stroke-width:1.20000005;stroke-linecap:butt;stroke-linejoin:miter;stroke-miterlimit:10;stroke-dasharray:none;stroke-opacity:1"
         d="M 1979.88,1439.95 2120.16,105.238 c 683.13,71.797 1201.79,647.821 1201.79,1334.712 0,741.21 -600.87,1342.07 -1342.07,1342.07 z" /><path
         id="path20"
         style="fill:#3172ab;fill-opacity:1;fill-rule:nonzero;stroke:none"
         d="m 1979.88,1439.95 v 1342.07 c -741.21,0 -1342.071,-600.86 -1342.071,-1342.07 0,-741.2 600.861,-1342.0633 1342.071,-1342.0633 46.85,0 93.68,2.4573 140.28,7.3513" /><path
         id="path22"
         style="fill:none;stroke:#1a62a2;stroke-width:1.20000005;stroke-linecap:butt;stroke-linejoin:miter;stroke-miterlimit:10;stroke-dasharray:none;stroke-opacity:1"
         d="m 1979.88,1439.95 v 1342.07 c -741.21,0 -1342.071,-600.86 -1342.071,-1342.07 0,-741.2 600.861,-1342.0633 1342.071,-1342.0633 46.85,0 93.68,2.4573 140.28,7.3513 z" /><g
         transform="scale(10)"
         id="g24"><text
           id="text30"
           style="font-variant:normal;font-weight:normal;font-size:11.00139999px;font-family:Helvetica;-inkscape-font-specification:Helvetica;writing-mode:lr-tb;fill:#000000;fill-opacity:1;fill-rule:nonzero;stroke:none"
           transform="matrix(1,0,0,-1,76.5984,134.714)"><tspan
             id="tspan26"
             y="0"
             x="0 6.1167784 12.233557 15.291946 21.408724 27.525503">51.68%</tspan><tspan
             id="tspan28"
             y="-10.8656"
             x="205.487 211.60378 217.72055 220.77895 226.89572 233.0125">48.32%</tspan></text>
</g></g></g></svg>