<?xml version="1.0" encoding="UTF-8" standalone="no"?>
<!-- Created with Inkscape (http://www.inkscape.org/) -->

<svg
   version="1.1"
   id="svg2"
   xml:space="preserve"
   width="528"
   height="384"
   viewBox="0 0 528 384"
   sodipodi:docname="pie2.eps"
   xmlns:inkscape="http://www.inkscape.org/namespaces/inkscape"
   xmlns:sodipodi="http://sodipodi.sourceforge.net/DTD/sodipodi-0.dtd"
   xmlns="http://www.w3.org/2000/svg"
   xmlns:svg="http://www.w3.org/2000/svg"><defs
     id="defs6"><clipPath
       clipPathUnits="userSpaceOnUse"
       id="clipPath22"><path
         d="M 1979.88,1439.95 2143.43,107.891 c 672.9,82.621 1178.52,654.113 1178.52,1332.059 0,741.21 -600.87,1342.07 -1342.07,1342.07 z"
         id="path20" /></clipPath><clipPath
       clipPathUnits="userSpaceOnUse"
       id="clipPath34"><path
         d="m 1979.88,1439.95 v 1342.07 c -741.21,0 -1342.071,-600.86 -1342.071,-1342.07 0,-741.2 600.861,-1342.0633 1342.071,-1342.0633 54.67,0 109.29,3.3433 163.55,10.0043 z"
         id="path32" /></clipPath></defs><sodipodi:namedview
     id="namedview4"
     pagecolor="#ffffff"
     bordercolor="#666666"
     borderopacity="1.0"
     inkscape:pageshadow="2"
     inkscape:pageopacity="0.0"
     inkscape:pagecheckerboard="0" /><g
     id="g8"
     inkscape:groupmode="layer"
     inkscape:label="ink_ext_XXXXXX"
     transform="matrix(1.3333333,0,0,-1.3333333,0,384)"><g
       id="g10"
       transform="scale(0.1)"><path
         d="M 0,0 H 3960 V 2880 H 0 Z"
         style="fill:#eaf2f3;fill-opacity:1;fill-rule:nonzero;stroke:none"
         id="path12" /><path
         d="M 1979.88,1439.95 2143.43,107.891 c 672.9,82.621 1178.52,654.113 1178.52,1332.059 0,741.21 -600.87,1342.07 -1342.07,1342.07"
         style="fill:#e0e0e0;fill-opacity:1;fill-rule:nonzero;stroke:none"
         id="path14" /><g
         id="g16"><g
           id="g18"
           clip-path="url(#clipPath22)"><path
             d="M 1979.88,1439.95 2143.43,107.891 c 672.9,82.621 1178.52,654.113 1178.52,1332.059 0,741.21 -600.87,1342.07 -1342.07,1342.07 z"
             style="fill:none;stroke:#dcdcdc;stroke-width:2.4;stroke-linecap:butt;stroke-linejoin:miter;stroke-miterlimit:10;stroke-dasharray:none;stroke-opacity:1"
             id="path24" /></g></g><path
         d="m 1979.88,1439.95 v 1342.07 c -741.21,0 -1342.071,-600.86 -1342.071,-1342.07 0,-741.2 600.861,-1342.0633 1342.071,-1342.0633 54.67,0 109.29,3.3433 163.55,10.0043"
         style="fill:#3172ab;fill-opacity:1;fill-rule:nonzero;stroke:none"
         id="path26" /><g
         id="g28"><g
           id="g30"
           clip-path="url(#clipPath34)"><path
             d="m 1979.88,1439.95 v 1342.07 c -741.21,0 -1342.071,-600.86 -1342.071,-1342.07 0,-741.2 600.861,-1342.0633 1342.071,-1342.0633 54.67,0 109.29,3.3433 163.55,10.0043 z"
             style="fill:none;stroke:#1a62a2;stroke-width:2.4;stroke-linecap:butt;stroke-linejoin:miter;stroke-miterlimit:10;stroke-dasharray:none;stroke-opacity:1"
             id="path36" /></g></g><g
         id="g38"
         transform="scale(10)"><text
           transform="matrix(1,0,0,-1,79.6938,134.021)"
           style="font-variant:normal;font-weight:normal;font-size:11.0014px;font-family:Helvetica;-inkscape-font-specification:Helvetica;writing-mode:lr-tb;fill:#000000;fill-opacity:1;fill-rule:nonzero;stroke:none"
           id="text44"><tspan
             x="0 6.1167784 12.233557 15.291946 21.408724"
             y="0"
             sodipodi:role="line"
             id="tspan40">51.9%</tspan><tspan
             x="205.412 211.52878 217.64555 220.70395 226.82072"
             y="-12.2516"
             sodipodi:role="line"
             id="tspan42">48.1%</tspan></text></g></g></g></svg>
