<?xml version="1.0" encoding="UTF-8" standalone="no"?>
<svg
   xmlns:dc="http://purl.org/dc/elements/1.1/"
   xmlns:cc="http://creativecommons.org/ns#"
   xmlns:rdf="http://www.w3.org/1999/02/22-rdf-syntax-ns#"
   xmlns:svg="http://www.w3.org/2000/svg"
   xmlns="http://www.w3.org/2000/svg"
   viewBox="0 0 528 384"
   height="384"
   width="528"
   xml:space="preserve"
   id="svg2"
   version="1.1"><metadata
     id="metadata8"><rdf:RDF><cc:Work
         rdf:about=""><dc:format>image/svg+xml</dc:format><dc:type
           rdf:resource="http://purl.org/dc/dcmitype/StillImage" /></cc:Work></rdf:RDF></metadata><defs
     id="defs6" /><g
     transform="matrix(1.3333333,0,0,-1.3333333,0,384)"
     id="g10"><g
       transform="scale(0.1)"
       id="g12"><path
         id="path14"
         style="fill:#eaf2f3;fill-opacity:1;fill-rule:nonzero;stroke:none"
         d="M 0,0 H 3960 V 2880 H 0 Z" /><path
         id="path16"
         style="fill:#e0e0e0;fill-opacity:1;fill-rule:nonzero;stroke:none"
         d="M 1979.88,1439.95 2547.06,223.629 c 472.7,220.422 774.89,694.758 774.89,1216.321 0,741.21 -600.87,1342.07 -1342.07,1342.07" /><path
         id="path18"
         style="fill:none;stroke:#dcdcdc;stroke-width:1.20000005;stroke-linecap:butt;stroke-linejoin:miter;stroke-miterlimit:10;stroke-dasharray:none;stroke-opacity:1"
         d="M 1979.88,1439.95 2547.06,223.629 c 472.7,220.422 774.89,694.758 774.89,1216.321 0,741.21 -600.87,1342.07 -1342.07,1342.07 z" /><path
         id="path20"
         style="fill:#3172ab;fill-opacity:1;fill-rule:nonzero;stroke:none"
         d="m 1979.88,1439.95 v 1342.07 c -741.21,0 -1342.071,-600.86 -1342.071,-1342.07 0,-741.2 600.861,-1342.0633 1342.071,-1342.0633 195.97,0 389.57,42.9223 567.18,125.7423" /><path
         id="path22"
         style="fill:none;stroke:#1a62a2;stroke-width:1.20000005;stroke-linecap:butt;stroke-linejoin:miter;stroke-miterlimit:10;stroke-dasharray:none;stroke-opacity:1"
         d="m 1979.88,1439.95 v 1342.07 c -741.21,0 -1342.071,-600.86 -1342.071,-1342.07 0,-741.2 600.861,-1342.0633 1342.071,-1342.0633 195.97,0 389.57,42.9223 567.18,125.7423 z" /><g
         transform="scale(10)"
         id="g24"><text
           id="text30"
           style="font-variant:normal;font-weight:normal;font-size:11.00139999px;font-family:Helvetica;-inkscape-font-specification:Helvetica;writing-mode:lr-tb;fill:#000000;fill-opacity:1;fill-rule:nonzero;stroke:none"
           transform="matrix(1,0,0,-1,78.925,117.748)"><tspan
             id="tspan26"
             y="0"
             x="0 6.1167784 12.233557 15.291946 21.408724 27.525503">56.99%</tspan><tspan
             id="tspan28"
             y="-44.797699"
             x="200.834 206.95078 213.06755 216.12595 222.24272 228.3595">43.01%</tspan></text>
</g></g></g></svg>