<svg xmlns:dc="http://purl.org/dc/elements/1.1/" xmlns:cc="http://creativecommons.org/ns#" xmlns:rdf="http://www.w3.org/1999/02/22-rdf-syntax-ns#" xmlns:svg="http://www.w3.org/2000/svg" xmlns="http://www.w3.org/2000/svg" viewBox="0 0 960 960" height="960" width="960" xml:space="preserve" id="svg2" version="1.1"><metadata id="metadata8"><rdf:RDF><cc:Work rdf:about=""><dc:format>image/svg+xml</dc:format><dc:type rdf:resource="http://purl.org/dc/dcmitype/StillImage"/></cc:Work></rdf:RDF></metadata><defs id="defs6"/><g transform="matrix(1.3333333,0,0,-1.3333333,0,960)" id="g10"><g transform="scale(0.1)" id="g12"><path id="path14" style="fill:#eaf2f3;fill-opacity:1;fill-rule:nonzero;stroke:none" d="M 0,0 H 7200 V 7200 H 0 Z"/><path id="path16" style="fill:none;stroke:#c0c0c0;stroke-width:14.39999962;stroke-linecap:butt;stroke-linejoin:miter;stroke-miterlimit:10;stroke-dasharray:none;stroke-opacity:1" d="M 1630.57,1011.82 V 6948"/><path id="path18" style="fill:none;stroke:#c0c0c0;stroke-width:14.39999962;stroke-linecap:butt;stroke-linejoin:miter;stroke-miterlimit:10;stroke-dasharray:none;stroke-opacity:1" d="M 1963.8,1011.82 V 6948"/><path id="path20" style="fill:none;stroke:#c0c0c0;stroke-width:14.39999962;stroke-linecap:butt;stroke-linejoin:miter;stroke-miterlimit:10;stroke-dasharray:none;stroke-opacity:1" d="M 2297.02,1011.82 V 6948"/><path id="path22" style="fill:none;stroke:#c0c0c0;stroke-width:14.39999962;stroke-linecap:butt;stroke-linejoin:miter;stroke-miterlimit:10;stroke-dasharray:none;stroke-opacity:1" d="M 2630.25,1011.82 V 6948"/><path id="path24" style="fill:none;stroke:#c0c0c0;stroke-width:14.39999962;stroke-linecap:butt;stroke-linejoin:miter;stroke-miterlimit:10;stroke-dasharray:none;stroke-opacity:1" d="M 2963.48,1011.82 V 6948"/><path id="path26" style="fill:none;stroke:#c0c0c0;stroke-width:14.39999962;stroke-linecap:butt;stroke-linejoin:miter;stroke-miterlimit:10;stroke-dasharray:none;stroke-opacity:1" d="M 3296.7,1011.82 V 6948"/><path id="path28" style="fill:none;stroke:#c0c0c0;stroke-width:14.39999962;stroke-linecap:butt;stroke-linejoin:miter;stroke-miterlimit:10;stroke-dasharray:none;stroke-opacity:1" d="M 3629.93,1011.82 V 6948"/><path id="path30" style="fill:none;stroke:#c0c0c0;stroke-width:14.39999962;stroke-linecap:butt;stroke-linejoin:miter;stroke-miterlimit:10;stroke-dasharray:none;stroke-opacity:1" d="M 3963.38,1011.82 V 6948"/><path id="path32" style="fill:none;stroke:#c0c0c0;stroke-width:14.39999962;stroke-linecap:butt;stroke-linejoin:miter;stroke-miterlimit:10;stroke-dasharray:none;stroke-opacity:1" d="M 4296.6,1011.82 V 6948"/><path id="path34" style="fill:none;stroke:#c0c0c0;stroke-width:14.39999962;stroke-linecap:butt;stroke-linejoin:miter;stroke-miterlimit:10;stroke-dasharray:none;stroke-opacity:1" d="M 4629.82,1011.82 V 6948"/><path id="path36" style="fill:none;stroke:#c0c0c0;stroke-width:14.39999962;stroke-linecap:butt;stroke-linejoin:miter;stroke-miterlimit:10;stroke-dasharray:none;stroke-opacity:1" d="M 4963.05,1011.82 V 6948"/><path id="path38" style="fill:none;stroke:#c0c0c0;stroke-width:14.39999962;stroke-linecap:butt;stroke-linejoin:miter;stroke-miterlimit:10;stroke-dasharray:none;stroke-opacity:1" d="M 5296.27,1011.82 V 6948"/><path id="path40" style="fill:none;stroke:#c0c0c0;stroke-width:14.39999962;stroke-linecap:butt;stroke-linejoin:miter;stroke-miterlimit:10;stroke-dasharray:none;stroke-opacity:1" d="M 5629.5,1011.82 V 6948"/><path id="path42" style="fill:none;stroke:#c0c0c0;stroke-width:14.39999962;stroke-linecap:butt;stroke-linejoin:miter;stroke-miterlimit:10;stroke-dasharray:none;stroke-opacity:1" d="M 5962.73,1011.82 V 6948"/><path id="path44" style="fill:none;stroke:#c0c0c0;stroke-width:14.39999962;stroke-linecap:butt;stroke-linejoin:miter;stroke-miterlimit:10;stroke-dasharray:none;stroke-opacity:1" d="M 6296.18,1011.82 V 6948"/><path id="path46" style="fill:none;stroke:#c0c0c0;stroke-width:14.39999962;stroke-linecap:butt;stroke-linejoin:miter;stroke-miterlimit:10;stroke-dasharray:none;stroke-opacity:1" d="M 6629.4,1011.82 V 6948"/><path id="path48" style="fill:none;stroke:#c0c0c0;stroke-width:14.39999962;stroke-linecap:butt;stroke-linejoin:miter;stroke-miterlimit:10;stroke-dasharray:none;stroke-opacity:1" d="M 1630.57,1011.82 V 6948"/><path id="path50" style="fill:none;stroke:#c0c0c0;stroke-width:14.39999962;stroke-linecap:butt;stroke-linejoin:miter;stroke-miterlimit:10;stroke-dasharray:none;stroke-opacity:1" d="M 2297.02,1011.82 V 6948"/><path id="path52" style="fill:none;stroke:#c0c0c0;stroke-width:14.39999962;stroke-linecap:butt;stroke-linejoin:miter;stroke-miterlimit:10;stroke-dasharray:none;stroke-opacity:1" d="M 2963.48,1011.82 V 6948"/><path id="path54" style="fill:none;stroke:#c0c0c0;stroke-width:14.39999962;stroke-linecap:butt;stroke-linejoin:miter;stroke-miterlimit:10;stroke-dasharray:none;stroke-opacity:1" d="M 3629.93,1011.82 V 6948"/><path id="path56" style="fill:none;stroke:#c0c0c0;stroke-width:14.39999962;stroke-linecap:butt;stroke-linejoin:miter;stroke-miterlimit:10;stroke-dasharray:none;stroke-opacity:1" d="M 4296.6,1011.82 V 6948"/><path id="path58" style="fill:none;stroke:#c0c0c0;stroke-width:14.39999962;stroke-linecap:butt;stroke-linejoin:miter;stroke-miterlimit:10;stroke-dasharray:none;stroke-opacity:1" d="M 4963.05,1011.82 V 6948"/><path id="path60" style="fill:none;stroke:#c0c0c0;stroke-width:14.39999962;stroke-linecap:butt;stroke-linejoin:miter;stroke-miterlimit:10;stroke-dasharray:none;stroke-opacity:1" d="M 5629.5,1011.82 V 6948"/><path id="path62" style="fill:none;stroke:#c0c0c0;stroke-width:14.39999962;stroke-linecap:butt;stroke-linejoin:miter;stroke-miterlimit:10;stroke-dasharray:none;stroke-opacity:1" d="M 6296.18,1011.82 V 6948"/><path id="path64" style="fill:#2c7bb6;fill-opacity:1;fill-rule:nonzero;stroke:none" d="m 1630.57,1275.98 v 60.07 h 314.11 v -60.07 h -314.11"/><path id="path66" style="fill:none;stroke:#2c7bb6;stroke-width:1.20000005;stroke-linecap:butt;stroke-linejoin:miter;stroke-miterlimit:10;stroke-dasharray:none;stroke-opacity:1" d="m 1630.57,1275.98 v 60.07 h 314.11 v -60.07 z"/><path id="path68" style="fill:#c80910;fill-opacity:1;fill-rule:nonzero;stroke:none" d="m 1630.57,1336.05 v 60.08 h 62.56 v -60.08 h -62.56"/><path id="path70" style="fill:none;stroke:#c80910;stroke-width:1.20000005;stroke-linecap:butt;stroke-linejoin:miter;stroke-miterlimit:10;stroke-dasharray:none;stroke-opacity:1" d="m 1630.57,1336.05 v 60.08 h 62.56 v -60.08 z"/><path id="path72" style="fill:#2c7bb6;fill-opacity:1;fill-rule:nonzero;stroke:none" d="m 1630.57,1408.05 v 60.08 h 255.61 v -60.08 h -255.61"/><path id="path74" style="fill:none;stroke:#2c7bb6;stroke-width:1.20000005;stroke-linecap:butt;stroke-linejoin:miter;stroke-miterlimit:10;stroke-dasharray:none;stroke-opacity:1" d="m 1630.57,1408.05 v 60.08 h 255.61 v -60.08 z"/><path id="path76" style="fill:#c80910;fill-opacity:1;fill-rule:nonzero;stroke:none" d="m 1630.57,1468.13 v 60.3 h 71.56 v -60.3 h -71.56"/><path id="path78" style="fill:none;stroke:#c80910;stroke-width:1.20000005;stroke-linecap:butt;stroke-linejoin:miter;stroke-miterlimit:10;stroke-dasharray:none;stroke-opacity:1" d="m 1630.57,1468.13 v 60.3 h 71.56 v -60.3 z"/><path id="path80" style="fill:#2c7bb6;fill-opacity:1;fill-rule:nonzero;stroke:none" d="m 1630.57,1540.35 v 60.08 h 505.81 v -60.08 h -505.81"/><path id="path82" style="fill:none;stroke:#2c7bb6;stroke-width:1.20000005;stroke-linecap:butt;stroke-linejoin:miter;stroke-miterlimit:10;stroke-dasharray:none;stroke-opacity:1" d="m 1630.57,1540.35 v 60.08 h 505.81 v -60.08 z"/><path id="path84" style="fill:#c80910;fill-opacity:1;fill-rule:nonzero;stroke:none" d="m 1630.57,1600.43 v 60.07 h 89.78 v -60.07 h -89.78"/><path id="path86" style="fill:none;stroke:#c80910;stroke-width:1.20000005;stroke-linecap:butt;stroke-linejoin:miter;stroke-miterlimit:10;stroke-dasharray:none;stroke-opacity:1" d="m 1630.57,1600.43 v 60.07 h 89.78 v -60.07 z"/><path id="path88" style="fill:#2c7bb6;fill-opacity:1;fill-rule:nonzero;stroke:none" d="m 1630.57,1672.65 v 60.08 h 378.23 v -60.08 h -378.23"/><path id="path90" style="fill:none;stroke:#2c7bb6;stroke-width:1.20000005;stroke-linecap:butt;stroke-linejoin:miter;stroke-miterlimit:10;stroke-dasharray:none;stroke-opacity:1" d="m 1630.57,1672.65 v 60.08 h 378.23 v -60.08 z"/><path id="path92" style="fill:#c80910;fill-opacity:1;fill-rule:nonzero;stroke:none" d="m 1630.57,1732.73 v 60.07 h 95.86 v -60.07 h -95.86"/><path id="path94" style="fill:none;stroke:#c80910;stroke-width:1.20000005;stroke-linecap:butt;stroke-linejoin:miter;stroke-miterlimit:10;stroke-dasharray:none;stroke-opacity:1" d="m 1630.57,1732.73 v 60.07 h 95.86 v -60.07 z"/><path id="path96" style="fill:#2c7bb6;fill-opacity:1;fill-rule:nonzero;stroke:none" d="m 1630.57,1804.73 v 60.07 h 230.41 v -60.07 h -230.41"/><path id="path98" style="fill:none;stroke:#2c7bb6;stroke-width:1.20000005;stroke-linecap:butt;stroke-linejoin:miter;stroke-miterlimit:10;stroke-dasharray:none;stroke-opacity:1" d="m 1630.57,1804.73 v 60.07 h 230.41 v -60.07 z"/><path id="path100" style="fill:#c80910;fill-opacity:1;fill-rule:nonzero;stroke:none" d="m 1630.57,1864.8 v 60.08 h 96.53 v -60.08 h -96.53"/><path id="path102" style="fill:none;stroke:#c80910;stroke-width:1.20000005;stroke-linecap:butt;stroke-linejoin:miter;stroke-miterlimit:10;stroke-dasharray:none;stroke-opacity:1" d="m 1630.57,1864.8 v 60.08 h 96.53 v -60.08 z"/><path id="path104" style="fill:#2c7bb6;fill-opacity:1;fill-rule:nonzero;stroke:none" d="m 1630.57,1937.02 v 60.08 h 378.23 v -60.08 h -378.23"/><path id="path106" style="fill:none;stroke:#2c7bb6;stroke-width:1.20000005;stroke-linecap:butt;stroke-linejoin:miter;stroke-miterlimit:10;stroke-dasharray:none;stroke-opacity:1" d="m 1630.57,1937.02 v 60.08 h 378.23 v -60.08 z"/><path id="path108" style="fill:#c80910;fill-opacity:1;fill-rule:nonzero;stroke:none" d="m 1630.57,1997.1 v 60.08 h 97.2 v -60.08 h -97.2"/><path id="path110" style="fill:none;stroke:#c80910;stroke-width:1.20000005;stroke-linecap:butt;stroke-linejoin:miter;stroke-miterlimit:10;stroke-dasharray:none;stroke-opacity:1" d="m 1630.57,1997.1 v 60.08 h 97.2 v -60.08 z"/><path id="path112" style="fill:#2c7bb6;fill-opacity:1;fill-rule:nonzero;stroke:none" d="m 1630.57,2069.1 v 60.08 h 471.61 v -60.08 h -471.61"/><path id="path114" style="fill:none;stroke:#2c7bb6;stroke-width:1.20000005;stroke-linecap:butt;stroke-linejoin:miter;stroke-miterlimit:10;stroke-dasharray:none;stroke-opacity:1" d="m 1630.57,2069.1 v 60.08 h 471.61 v -60.08 z"/><path id="path116" style="fill:#c80910;fill-opacity:1;fill-rule:nonzero;stroke:none" d="m 1630.57,2129.18 v 60.07 h 99.91 v -60.07 h -99.91"/><path id="path118" style="fill:none;stroke:#c80910;stroke-width:1.20000005;stroke-linecap:butt;stroke-linejoin:miter;stroke-miterlimit:10;stroke-dasharray:none;stroke-opacity:1" d="m 1630.57,2129.18 v 60.07 h 99.91 v -60.07 z"/><path id="path120" style="fill:#2c7bb6;fill-opacity:1;fill-rule:nonzero;stroke:none" d="m 1630.57,2201.4 v 60.08 h 712.58 v -60.08 h -712.58"/><path id="path122" style="fill:none;stroke:#2c7bb6;stroke-width:1.20000005;stroke-linecap:butt;stroke-linejoin:miter;stroke-miterlimit:10;stroke-dasharray:none;stroke-opacity:1" d="m 1630.57,2201.4 v 60.08 h 712.58 v -60.08 z"/><path id="path124" style="fill:#c80910;fill-opacity:1;fill-rule:nonzero;stroke:none" d="m 1630.57,2261.48 v 60.07 h 110.25 v -60.07 h -110.25"/><path id="path126" style="fill:none;stroke:#c80910;stroke-width:1.20000005;stroke-linecap:butt;stroke-linejoin:miter;stroke-miterlimit:10;stroke-dasharray:none;stroke-opacity:1" d="m 1630.57,2261.48 v 60.07 h 110.25 v -60.07 z"/><path id="path128" style="fill:#2c7bb6;fill-opacity:1;fill-rule:nonzero;stroke:none" d="m 1630.57,2333.48 v 60.07 h 344.7 v -60.07 h -344.7"/><path id="path130" style="fill:none;stroke:#2c7bb6;stroke-width:1.20000005;stroke-linecap:butt;stroke-linejoin:miter;stroke-miterlimit:10;stroke-dasharray:none;stroke-opacity:1" d="m 1630.57,2333.48 v 60.07 h 344.7 v -60.07 z"/><path id="path132" style="fill:#c80910;fill-opacity:1;fill-rule:nonzero;stroke:none" d="m 1630.57,2393.55 v 60.08 h 112.5 v -60.08 h -112.5"/><path id="path134" style="fill:none;stroke:#c80910;stroke-width:1.20000005;stroke-linecap:butt;stroke-linejoin:miter;stroke-miterlimit:10;stroke-dasharray:none;stroke-opacity:1" d="m 1630.57,2393.55 v 60.08 h 112.5 v -60.08 z"/><path id="path136" style="fill:#2c7bb6;fill-opacity:1;fill-rule:nonzero;stroke:none" d="m 1630.57,2465.77 v 60.08 h 363.83 v -60.08 h -363.83"/><path id="path138" style="fill:none;stroke:#2c7bb6;stroke-width:1.20000005;stroke-linecap:butt;stroke-linejoin:miter;stroke-miterlimit:10;stroke-dasharray:none;stroke-opacity:1" d="m 1630.57,2465.77 v 60.08 h 363.83 v -60.08 z"/><path id="path140" style="fill:#c80910;fill-opacity:1;fill-rule:nonzero;stroke:none" d="m 1630.57,2525.85 v 60.08 h 113.18 v -60.08 h -113.18"/><path id="path142" style="fill:none;stroke:#c80910;stroke-width:1.20000005;stroke-linecap:butt;stroke-linejoin:miter;stroke-miterlimit:10;stroke-dasharray:none;stroke-opacity:1" d="m 1630.57,2525.85 v 60.08 h 113.18 v -60.08 z"/><path id="path144" style="fill:#2c7bb6;fill-opacity:1;fill-rule:nonzero;stroke:none" d="m 1630.57,2597.85 v 60.08 h 560.03 v -60.08 h -560.03"/><path id="path146" style="fill:none;stroke:#2c7bb6;stroke-width:1.20000005;stroke-linecap:butt;stroke-linejoin:miter;stroke-miterlimit:10;stroke-dasharray:none;stroke-opacity:1" d="m 1630.57,2597.85 v 60.08 h 560.03 v -60.08 z"/><path id="path148" style="fill:#c80910;fill-opacity:1;fill-rule:nonzero;stroke:none" d="M 1630.57,2657.93 V 2718 h 113.18 v -60.07 h -113.18"/><path id="path150" style="fill:none;stroke:#c80910;stroke-width:1.20000005;stroke-linecap:butt;stroke-linejoin:miter;stroke-miterlimit:10;stroke-dasharray:none;stroke-opacity:1" d="M 1630.57,2657.93 V 2718 h 113.18 v -60.07 z"/><path id="path152" style="fill:#2c7bb6;fill-opacity:1;fill-rule:nonzero;stroke:none" d="m 1630.57,2730.15 v 60.08 h 516.83 v -60.08 h -516.83"/><path id="path154" style="fill:none;stroke:#2c7bb6;stroke-width:1.20000005;stroke-linecap:butt;stroke-linejoin:miter;stroke-miterlimit:10;stroke-dasharray:none;stroke-opacity:1" d="m 1630.57,2730.15 v 60.08 h 516.83 v -60.08 z"/><path id="path156" style="fill:#c80910;fill-opacity:1;fill-rule:nonzero;stroke:none" d="m 1630.57,2790.23 v 60.07 h 130.06 v -60.07 h -130.06"/><path id="path158" style="fill:none;stroke:#c80910;stroke-width:1.20000005;stroke-linecap:butt;stroke-linejoin:miter;stroke-miterlimit:10;stroke-dasharray:none;stroke-opacity:1" d="m 1630.57,2790.23 v 60.07 h 130.06 v -60.07 z"/><path id="path160" style="fill:#2c7bb6;fill-opacity:1;fill-rule:nonzero;stroke:none" d="m 1630.57,2862.23 v 60.07 h 728.78 v -60.07 h -728.78"/><path id="path162" style="fill:none;stroke:#2c7bb6;stroke-width:1.20000005;stroke-linecap:butt;stroke-linejoin:miter;stroke-miterlimit:10;stroke-dasharray:none;stroke-opacity:1" d="m 1630.57,2862.23 v 60.07 h 728.78 v -60.07 z"/><path id="path164" style="fill:#c80910;fill-opacity:1;fill-rule:nonzero;stroke:none" d="m 1630.57,2922.3 v 60.08 h 130.28 v -60.08 h -130.28"/><path id="path166" style="fill:none;stroke:#c80910;stroke-width:1.20000005;stroke-linecap:butt;stroke-linejoin:miter;stroke-miterlimit:10;stroke-dasharray:none;stroke-opacity:1" d="m 1630.57,2922.3 v 60.08 h 130.28 v -60.08 z"/><path id="path168" style="fill:#2c7bb6;fill-opacity:1;fill-rule:nonzero;stroke:none" d="m 1630.57,2994.52 v 60.08 h 372.83 v -60.08 h -372.83"/><path id="path170" style="fill:none;stroke:#2c7bb6;stroke-width:1.20000005;stroke-linecap:butt;stroke-linejoin:miter;stroke-miterlimit:10;stroke-dasharray:none;stroke-opacity:1" d="m 1630.57,2994.52 v 60.08 h 372.83 v -60.08 z"/><path id="path172" style="fill:#c80910;fill-opacity:1;fill-rule:nonzero;stroke:none" d="m 1630.57,3054.6 v 60.08 h 132.31 v -60.08 h -132.31"/><path id="path174" style="fill:none;stroke:#c80910;stroke-width:1.20000005;stroke-linecap:butt;stroke-linejoin:miter;stroke-miterlimit:10;stroke-dasharray:none;stroke-opacity:1" d="m 1630.57,3054.6 v 60.08 h 132.31 v -60.08 z"/><path id="path176" style="fill:#2c7bb6;fill-opacity:1;fill-rule:nonzero;stroke:none" d="m 1630.57,3126.6 v 60.08 h 597.83 v -60.08 h -597.83"/><path id="path178" style="fill:none;stroke:#2c7bb6;stroke-width:1.20000005;stroke-linecap:butt;stroke-linejoin:miter;stroke-miterlimit:10;stroke-dasharray:none;stroke-opacity:1" d="m 1630.57,3126.6 v 60.08 h 597.83 v -60.08 z"/><path id="path180" style="fill:#c80910;fill-opacity:1;fill-rule:nonzero;stroke:none" d="m 1630.57,3186.68 v 60.3 h 134.33 v -60.3 h -134.33"/><path id="path182" style="fill:none;stroke:#c80910;stroke-width:1.20000005;stroke-linecap:butt;stroke-linejoin:miter;stroke-miterlimit:10;stroke-dasharray:none;stroke-opacity:1" d="m 1630.57,3186.68 v 60.3 h 134.33 v -60.3 z"/><path id="path184" style="fill:#2c7bb6;fill-opacity:1;fill-rule:nonzero;stroke:none" d="m 1630.57,3258.9 v 60.08 h 541.58 v -60.08 h -541.58"/><path id="path186" style="fill:none;stroke:#2c7bb6;stroke-width:1.20000005;stroke-linecap:butt;stroke-linejoin:miter;stroke-miterlimit:10;stroke-dasharray:none;stroke-opacity:1" d="m 1630.57,3258.9 v 60.08 h 541.58 v -60.08 z"/><path id="path188" style="fill:#c80910;fill-opacity:1;fill-rule:nonzero;stroke:none" d="m 1630.57,3318.98 v 60.07 h 139.28 v -60.07 h -139.28"/><path id="path190" style="fill:none;stroke:#c80910;stroke-width:1.20000005;stroke-linecap:butt;stroke-linejoin:miter;stroke-miterlimit:10;stroke-dasharray:none;stroke-opacity:1" d="m 1630.57,3318.98 v 60.07 h 139.28 v -60.07 z"/><path id="path192" style="fill:#2c7bb6;fill-opacity:1;fill-rule:nonzero;stroke:none" d="m 1630.57,3391.2 v 60.07 h 502.88 v -60.07 h -502.88"/><path id="path194" style="fill:none;stroke:#2c7bb6;stroke-width:1.20000005;stroke-linecap:butt;stroke-linejoin:miter;stroke-miterlimit:10;stroke-dasharray:none;stroke-opacity:1" d="m 1630.57,3391.2 v 60.07 h 502.88 v -60.07 z"/><path id="path196" style="fill:#c80910;fill-opacity:1;fill-rule:nonzero;stroke:none" d="m 1630.57,3451.27 v 60.08 h 146.93 v -60.08 h -146.93"/><path id="path198" style="fill:none;stroke:#c80910;stroke-width:1.20000005;stroke-linecap:butt;stroke-linejoin:miter;stroke-miterlimit:10;stroke-dasharray:none;stroke-opacity:1" d="m 1630.57,3451.27 v 60.08 h 146.93 v -60.08 z"/><path id="path200" style="fill:#2c7bb6;fill-opacity:1;fill-rule:nonzero;stroke:none" d="m 1630.57,3523.27 v 60.08 h 449.33 v -60.08 h -449.33"/><path id="path202" style="fill:none;stroke:#2c7bb6;stroke-width:1.20000005;stroke-linecap:butt;stroke-linejoin:miter;stroke-miterlimit:10;stroke-dasharray:none;stroke-opacity:1" d="m 1630.57,3523.27 v 60.08 h 449.33 v -60.08 z"/><path id="path204" style="fill:#c80910;fill-opacity:1;fill-rule:nonzero;stroke:none" d="m 1630.57,3583.35 v 60.08 h 153.91 v -60.08 h -153.91"/><path id="path206" style="fill:none;stroke:#c80910;stroke-width:1.20000005;stroke-linecap:butt;stroke-linejoin:miter;stroke-miterlimit:10;stroke-dasharray:none;stroke-opacity:1" d="m 1630.57,3583.35 v 60.08 h 153.91 v -60.08 z"/><path id="path208" style="fill:#2c7bb6;fill-opacity:1;fill-rule:nonzero;stroke:none" d="m 1630.57,3655.57 v 60.08 h 430.2 v -60.08 h -430.2"/><path id="path210" style="fill:none;stroke:#2c7bb6;stroke-width:1.20000005;stroke-linecap:butt;stroke-linejoin:miter;stroke-miterlimit:10;stroke-dasharray:none;stroke-opacity:1" d="m 1630.57,3655.57 v 60.08 h 430.2 v -60.08 z"/><path id="path212" style="fill:#c80910;fill-opacity:1;fill-rule:nonzero;stroke:none" d="m 1630.57,3715.65 v 60.08 h 156.16 v -60.08 h -156.16"/><path id="path214" style="fill:none;stroke:#c80910;stroke-width:1.20000005;stroke-linecap:butt;stroke-linejoin:miter;stroke-miterlimit:10;stroke-dasharray:none;stroke-opacity:1" d="m 1630.57,3715.65 v 60.08 h 156.16 v -60.08 z"/><path id="path216" style="fill:#2c7bb6;fill-opacity:1;fill-rule:nonzero;stroke:none" d="m 1630.57,3787.65 v 60.08 h 589.95 v -60.08 h -589.95"/><path id="path218" style="fill:none;stroke:#2c7bb6;stroke-width:1.20000005;stroke-linecap:butt;stroke-linejoin:miter;stroke-miterlimit:10;stroke-dasharray:none;stroke-opacity:1" d="m 1630.57,3787.65 v 60.08 h 589.95 v -60.08 z"/><path id="path220" style="fill:#c80910;fill-opacity:1;fill-rule:nonzero;stroke:none" d="m 1630.57,3847.73 v 60.07 h 185.63 v -60.07 h -185.63"/><path id="path222" style="fill:none;stroke:#c80910;stroke-width:1.20000005;stroke-linecap:butt;stroke-linejoin:miter;stroke-miterlimit:10;stroke-dasharray:none;stroke-opacity:1" d="m 1630.57,3847.73 v 60.07 h 185.63 v -60.07 z"/><path id="path224" style="fill:#2c7bb6;fill-opacity:1;fill-rule:nonzero;stroke:none" d="m 1630.57,3919.95 v 60.07 h 474.08 v -60.07 h -474.08"/><path id="path226" style="fill:none;stroke:#2c7bb6;stroke-width:1.20000005;stroke-linecap:butt;stroke-linejoin:miter;stroke-miterlimit:10;stroke-dasharray:none;stroke-opacity:1" d="m 1630.57,3919.95 v 60.07 h 474.08 v -60.07 z"/><path id="path228" style="fill:#c80910;fill-opacity:1;fill-rule:nonzero;stroke:none" d="m 1630.57,3980.02 v 60.08 h 185.63 v -60.08 h -185.63"/><path id="path230" style="fill:none;stroke:#c80910;stroke-width:1.20000005;stroke-linecap:butt;stroke-linejoin:miter;stroke-miterlimit:10;stroke-dasharray:none;stroke-opacity:1" d="m 1630.57,3980.02 v 60.08 h 185.63 v -60.08 z"/><path id="path232" style="fill:#2c7bb6;fill-opacity:1;fill-rule:nonzero;stroke:none" d="m 1630.57,4052.02 v 60.08 h 731.7 v -60.08 h -731.7"/><path id="path234" style="fill:none;stroke:#2c7bb6;stroke-width:1.20000005;stroke-linecap:butt;stroke-linejoin:miter;stroke-miterlimit:10;stroke-dasharray:none;stroke-opacity:1" d="m 1630.57,4052.02 v 60.08 h 731.7 v -60.08 z"/><path id="path236" style="fill:#c80910;fill-opacity:1;fill-rule:nonzero;stroke:none" d="m 1630.57,4112.1 v 60.08 h 191.25 v -60.08 h -191.25"/><path id="path238" style="fill:none;stroke:#c80910;stroke-width:1.20000005;stroke-linecap:butt;stroke-linejoin:miter;stroke-miterlimit:10;stroke-dasharray:none;stroke-opacity:1" d="m 1630.57,4112.1 v 60.08 h 191.25 v -60.08 z"/><path id="path240" style="fill:#2c7bb6;fill-opacity:1;fill-rule:nonzero;stroke:none" d="m 1630.57,4184.32 v 60.08 h 666.68 v -60.08 h -666.68"/><path id="path242" style="fill:none;stroke:#2c7bb6;stroke-width:1.20000005;stroke-linecap:butt;stroke-linejoin:miter;stroke-miterlimit:10;stroke-dasharray:none;stroke-opacity:1" d="m 1630.57,4184.32 v 60.08 h 666.68 v -60.08 z"/><path id="path244" style="fill:#c80910;fill-opacity:1;fill-rule:nonzero;stroke:none" d="m 1630.57,4244.4 v 60.08 h 235.36 v -60.08 h -235.36"/><path id="path246" style="fill:none;stroke:#c80910;stroke-width:1.20000005;stroke-linecap:butt;stroke-linejoin:miter;stroke-miterlimit:10;stroke-dasharray:none;stroke-opacity:1" d="m 1630.57,4244.4 v 60.08 h 235.36 v -60.08 z"/><path id="path248" style="fill:#2c7bb6;fill-opacity:1;fill-rule:nonzero;stroke:none" d="m 1630.57,4316.4 v 60.08 h 525.83 v -60.08 h -525.83"/><path id="path250" style="fill:none;stroke:#2c7bb6;stroke-width:1.20000005;stroke-linecap:butt;stroke-linejoin:miter;stroke-miterlimit:10;stroke-dasharray:none;stroke-opacity:1" d="m 1630.57,4316.4 v 60.08 h 525.83 v -60.08 z"/><path id="path252" style="fill:#c80910;fill-opacity:1;fill-rule:nonzero;stroke:none" d="m 1630.57,4376.48 v 60.07 h 246.38 v -60.07 h -246.38"/><path id="path254" style="fill:none;stroke:#c80910;stroke-width:1.20000005;stroke-linecap:butt;stroke-linejoin:miter;stroke-miterlimit:10;stroke-dasharray:none;stroke-opacity:1" d="m 1630.57,4376.48 v 60.07 h 246.38 v -60.07 z"/><path id="path256" style="fill:#2c7bb6;fill-opacity:1;fill-rule:nonzero;stroke:none" d="m 1630.57,4448.7 v 60.08 h 889.2 v -60.08 h -889.2"/><path id="path258" style="fill:none;stroke:#2c7bb6;stroke-width:1.20000005;stroke-linecap:butt;stroke-linejoin:miter;stroke-miterlimit:10;stroke-dasharray:none;stroke-opacity:1" d="m 1630.57,4448.7 v 60.08 h 889.2 v -60.08 z"/><path id="path260" style="fill:#c80910;fill-opacity:1;fill-rule:nonzero;stroke:none" d="m 1630.57,4508.78 v 60.07 h 254.93 v -60.07 h -254.93"/><path id="path262" style="fill:none;stroke:#c80910;stroke-width:1.20000005;stroke-linecap:butt;stroke-linejoin:miter;stroke-miterlimit:10;stroke-dasharray:none;stroke-opacity:1" d="m 1630.57,4508.78 v 60.07 h 254.93 v -60.07 z"/><path id="path264" style="fill:#2c7bb6;fill-opacity:1;fill-rule:nonzero;stroke:none" d="m 1630.57,4580.78 v 60.07 h 662.41 v -60.07 h -662.41"/><path id="path266" style="fill:none;stroke:#2c7bb6;stroke-width:1.20000005;stroke-linecap:butt;stroke-linejoin:miter;stroke-miterlimit:10;stroke-dasharray:none;stroke-opacity:1" d="m 1630.57,4580.78 v 60.07 h 662.41 v -60.07 z"/><path id="path268" style="fill:#c80910;fill-opacity:1;fill-rule:nonzero;stroke:none" d="m 1630.57,4640.85 v 60.08 h 265.06 v -60.08 h -265.06"/><path id="path270" style="fill:none;stroke:#c80910;stroke-width:1.20000005;stroke-linecap:butt;stroke-linejoin:miter;stroke-miterlimit:10;stroke-dasharray:none;stroke-opacity:1" d="m 1630.57,4640.85 v 60.08 h 265.06 v -60.08 z"/><path id="path272" style="fill:#2c7bb6;fill-opacity:1;fill-rule:nonzero;stroke:none" d="m 1630.57,4713.07 v 60.08 h 834.75 v -60.08 h -834.75"/><path id="path274" style="fill:none;stroke:#2c7bb6;stroke-width:1.20000005;stroke-linecap:butt;stroke-linejoin:miter;stroke-miterlimit:10;stroke-dasharray:none;stroke-opacity:1" d="m 1630.57,4713.07 v 60.08 h 834.75 v -60.08 z"/><path id="path276" style="fill:#c80910;fill-opacity:1;fill-rule:nonzero;stroke:none" d="m 1630.57,4773.15 v 60.08 h 279.23 v -60.08 h -279.23"/><path id="path278" style="fill:none;stroke:#c80910;stroke-width:1.20000005;stroke-linecap:butt;stroke-linejoin:miter;stroke-miterlimit:10;stroke-dasharray:none;stroke-opacity:1" d="m 1630.57,4773.15 v 60.08 h 279.23 v -60.08 z"/><path id="path280" style="fill:#2c7bb6;fill-opacity:1;fill-rule:nonzero;stroke:none" d="m 1630.57,4845.15 v 60.3 H 3130.2 v -60.3 H 1630.57"/><path id="path282" style="fill:none;stroke:#2c7bb6;stroke-width:1.20000005;stroke-linecap:butt;stroke-linejoin:miter;stroke-miterlimit:10;stroke-dasharray:none;stroke-opacity:1" d="m 1630.57,4845.15 v 60.3 H 3130.2 v -60.3 z"/><path id="path284" style="fill:#c80910;fill-opacity:1;fill-rule:nonzero;stroke:none" d="m 1630.57,4905.45 v 60.08 h 287.11 v -60.08 h -287.11"/><path id="path286" style="fill:none;stroke:#c80910;stroke-width:1.20000005;stroke-linecap:butt;stroke-linejoin:miter;stroke-miterlimit:10;stroke-dasharray:none;stroke-opacity:1" d="m 1630.57,4905.45 v 60.08 h 287.11 v -60.08 z"/><path id="path288" style="fill:#2c7bb6;fill-opacity:1;fill-rule:nonzero;stroke:none" d="m 1630.57,4977.45 v 60.08 h 1595.48 v -60.08 H 1630.57"/><path id="path290" style="fill:none;stroke:#2c7bb6;stroke-width:1.20000005;stroke-linecap:butt;stroke-linejoin:miter;stroke-miterlimit:10;stroke-dasharray:none;stroke-opacity:1" d="m 1630.57,4977.45 v 60.08 h 1595.48 v -60.08 z"/><path id="path292" style="fill:#c80910;fill-opacity:1;fill-rule:nonzero;stroke:none" d="m 1630.57,5037.53 v 60.07 h 311.86 v -60.07 h -311.86"/><path id="path294" style="fill:none;stroke:#c80910;stroke-width:1.20000005;stroke-linecap:butt;stroke-linejoin:miter;stroke-miterlimit:10;stroke-dasharray:none;stroke-opacity:1" d="m 1630.57,5037.53 v 60.07 h 311.86 v -60.07 z"/><path id="path296" style="fill:#2c7bb6;fill-opacity:1;fill-rule:nonzero;stroke:none" d="m 1630.57,5109.75 v 60.07 h 626.18 v -60.07 h -626.18"/><path id="path298" style="fill:none;stroke:#2c7bb6;stroke-width:1.20000005;stroke-linecap:butt;stroke-linejoin:miter;stroke-miterlimit:10;stroke-dasharray:none;stroke-opacity:1" d="m 1630.57,5109.75 v 60.07 h 626.18 v -60.07 z"/><path id="path300" style="fill:#c80910;fill-opacity:1;fill-rule:nonzero;stroke:none" d="m 1630.57,5169.82 v 60.08 h 324.68 v -60.08 h -324.68"/><path id="path302" style="fill:none;stroke:#c80910;stroke-width:1.20000005;stroke-linecap:butt;stroke-linejoin:miter;stroke-miterlimit:10;stroke-dasharray:none;stroke-opacity:1" d="m 1630.57,5169.82 v 60.08 h 324.68 v -60.08 z"/><path id="path304" style="fill:#2c7bb6;fill-opacity:1;fill-rule:nonzero;stroke:none" d="m 1630.57,5241.82 v 60.08 H 2774.7 v -60.08 H 1630.57"/><path id="path306" style="fill:none;stroke:#2c7bb6;stroke-width:1.20000005;stroke-linecap:butt;stroke-linejoin:miter;stroke-miterlimit:10;stroke-dasharray:none;stroke-opacity:1" d="m 1630.57,5241.82 v 60.08 H 2774.7 v -60.08 z"/><path id="path308" style="fill:#c80910;fill-opacity:1;fill-rule:nonzero;stroke:none" d="m 1630.57,5301.9 v 60.08 h 339.31 v -60.08 h -339.31"/><path id="path310" style="fill:none;stroke:#c80910;stroke-width:1.20000005;stroke-linecap:butt;stroke-linejoin:miter;stroke-miterlimit:10;stroke-dasharray:none;stroke-opacity:1" d="m 1630.57,5301.9 v 60.08 h 339.31 v -60.08 z"/><path id="path312" style="fill:#2c7bb6;fill-opacity:1;fill-rule:nonzero;stroke:none" d="m 1630.57,5374.13 v 60.07 h 1108.81 v -60.07 H 1630.57"/><path id="path314" style="fill:none;stroke:#2c7bb6;stroke-width:1.20000005;stroke-linecap:butt;stroke-linejoin:miter;stroke-miterlimit:10;stroke-dasharray:none;stroke-opacity:1" d="m 1630.57,5374.13 v 60.07 h 1108.81 v -60.07 z"/><path id="path316" style="fill:#c80910;fill-opacity:1;fill-rule:nonzero;stroke:none" d="m 1630.57,5434.2 v 60.08 h 377.78 v -60.08 h -377.78"/><path id="path318" style="fill:none;stroke:#c80910;stroke-width:1.20000005;stroke-linecap:butt;stroke-linejoin:miter;stroke-miterlimit:10;stroke-dasharray:none;stroke-opacity:1" d="m 1630.57,5434.2 v 60.08 h 377.78 v -60.08 z"/><path id="path320" style="fill:#2c7bb6;fill-opacity:1;fill-rule:nonzero;stroke:none" d="m 1630.57,5506.2 v 60.07 h 1134 v -60.07 h -1134"/><path id="path322" style="fill:none;stroke:#2c7bb6;stroke-width:1.20000005;stroke-linecap:butt;stroke-linejoin:miter;stroke-miterlimit:10;stroke-dasharray:none;stroke-opacity:1" d="m 1630.57,5506.2 v 60.07 h 1134 v -60.07 z"/><path id="path324" style="fill:#c80910;fill-opacity:1;fill-rule:nonzero;stroke:none" d="m 1630.57,5566.27 v 60.08 h 414.45 v -60.08 h -414.45"/><path id="path326" style="fill:none;stroke:#c80910;stroke-width:1.20000005;stroke-linecap:butt;stroke-linejoin:miter;stroke-miterlimit:10;stroke-dasharray:none;stroke-opacity:1" d="m 1630.57,5566.27 v 60.08 h 414.45 v -60.08 z"/><path id="path328" style="fill:#2c7bb6;fill-opacity:1;fill-rule:nonzero;stroke:none" d="m 1630.57,5638.5 v 60.07 h 1669.5 v -60.07 h -1669.5"/><path id="path330" style="fill:none;stroke:#2c7bb6;stroke-width:1.20000005;stroke-linecap:butt;stroke-linejoin:miter;stroke-miterlimit:10;stroke-dasharray:none;stroke-opacity:1" d="m 1630.57,5638.5 v 60.07 h 1669.5 v -60.07 z"/><path id="path332" style="fill:#c80910;fill-opacity:1;fill-rule:nonzero;stroke:none" d="m 1630.57,5698.57 v 60.08 h 436.28 v -60.08 h -436.28"/><path id="path334" style="fill:none;stroke:#c80910;stroke-width:1.20000005;stroke-linecap:butt;stroke-linejoin:miter;stroke-miterlimit:10;stroke-dasharray:none;stroke-opacity:1" d="m 1630.57,5698.57 v 60.08 h 436.28 v -60.08 z"/><path id="path336" style="fill:#2c7bb6;fill-opacity:1;fill-rule:nonzero;stroke:none" d="m 1630.57,5770.57 v 60.08 H 2763 v -60.08 H 1630.57"/><path id="path338" style="fill:none;stroke:#2c7bb6;stroke-width:1.20000005;stroke-linecap:butt;stroke-linejoin:miter;stroke-miterlimit:10;stroke-dasharray:none;stroke-opacity:1" d="m 1630.57,5770.57 v 60.08 H 2763 v -60.08 z"/><path id="path340" style="fill:#c80910;fill-opacity:1;fill-rule:nonzero;stroke:none" d="m 1630.57,5830.65 v 60.08 h 438.98 v -60.08 h -438.98"/><path id="path342" style="fill:none;stroke:#c80910;stroke-width:1.20000005;stroke-linecap:butt;stroke-linejoin:miter;stroke-miterlimit:10;stroke-dasharray:none;stroke-opacity:1" d="m 1630.57,5830.65 v 60.08 h 438.98 v -60.08 z"/><path id="path344" style="fill:#2c7bb6;fill-opacity:1;fill-rule:nonzero;stroke:none" d="m 1630.57,5902.88 v 60.07 h 1355.41 v -60.07 H 1630.57"/><path id="path346" style="fill:none;stroke:#2c7bb6;stroke-width:1.20000005;stroke-linecap:butt;stroke-linejoin:miter;stroke-miterlimit:10;stroke-dasharray:none;stroke-opacity:1" d="m 1630.57,5902.88 v 60.07 h 1355.41 v -60.07 z"/><path id="path348" style="fill:#c80910;fill-opacity:1;fill-rule:nonzero;stroke:none" d="m 1630.57,5962.95 v 60.08 h 464.63 v -60.08 h -464.63"/><path id="path350" style="fill:none;stroke:#c80910;stroke-width:1.20000005;stroke-linecap:butt;stroke-linejoin:miter;stroke-miterlimit:10;stroke-dasharray:none;stroke-opacity:1" d="m 1630.57,5962.95 v 60.08 h 464.63 v -60.08 z"/><path id="path352" style="fill:#2c7bb6;fill-opacity:1;fill-rule:nonzero;stroke:none" d="m 1630.57,6034.95 v 60.07 H 2890.8 v -60.07 H 1630.57"/><path id="path354" style="fill:none;stroke:#2c7bb6;stroke-width:1.20000005;stroke-linecap:butt;stroke-linejoin:miter;stroke-miterlimit:10;stroke-dasharray:none;stroke-opacity:1" d="m 1630.57,6034.95 v 60.07 H 2890.8 v -60.07 z"/><path id="path356" style="fill:#c80910;fill-opacity:1;fill-rule:nonzero;stroke:none" d="m 1630.57,6095.02 v 60.08 h 477 v -60.08 h -477"/><path id="path358" style="fill:none;stroke:#c80910;stroke-width:1.20000005;stroke-linecap:butt;stroke-linejoin:miter;stroke-miterlimit:10;stroke-dasharray:none;stroke-opacity:1" d="m 1630.57,6095.02 v 60.08 h 477 v -60.08 z"/><path id="path360" style="fill:#2c7bb6;fill-opacity:1;fill-rule:nonzero;stroke:none" d="m 1630.57,6167.25 v 60.07 H 2982.6 v -60.07 H 1630.57"/><path id="path362" style="fill:none;stroke:#2c7bb6;stroke-width:1.20000005;stroke-linecap:butt;stroke-linejoin:miter;stroke-miterlimit:10;stroke-dasharray:none;stroke-opacity:1" d="m 1630.57,6167.25 v 60.07 H 2982.6 v -60.07 z"/><path id="path364" style="fill:#c80910;fill-opacity:1;fill-rule:nonzero;stroke:none" d="m 1630.57,6227.32 v 60.08 h 491.86 v -60.08 h -491.86"/><path id="path366" style="fill:none;stroke:#c80910;stroke-width:1.20000005;stroke-linecap:butt;stroke-linejoin:miter;stroke-miterlimit:10;stroke-dasharray:none;stroke-opacity:1" d="m 1630.57,6227.32 v 60.08 h 491.86 v -60.08 z"/><path id="path368" style="fill:#2c7bb6;fill-opacity:1;fill-rule:nonzero;stroke:none" d="m 1630.57,6299.32 v 60.08 H 3053.7 v -60.08 H 1630.57"/><path id="path370" style="fill:none;stroke:#2c7bb6;stroke-width:1.20000005;stroke-linecap:butt;stroke-linejoin:miter;stroke-miterlimit:10;stroke-dasharray:none;stroke-opacity:1" d="m 1630.57,6299.32 v 60.08 H 3053.7 v -60.08 z"/><path id="path372" style="fill:#c80910;fill-opacity:1;fill-rule:nonzero;stroke:none" d="m 1630.57,6359.4 v 60.3 h 529.2 v -60.3 h -529.2"/><path id="path374" style="fill:none;stroke:#c80910;stroke-width:1.20000005;stroke-linecap:butt;stroke-linejoin:miter;stroke-miterlimit:10;stroke-dasharray:none;stroke-opacity:1" d="m 1630.57,6359.4 v 60.3 h 529.2 v -60.3 z"/><path id="path376" style="fill:#2c7bb6;fill-opacity:1;fill-rule:nonzero;stroke:none" d="m 1630.57,6431.63 v 60.07 H 2927.7 v -60.07 H 1630.57"/><path id="path378" style="fill:none;stroke:#2c7bb6;stroke-width:1.20000005;stroke-linecap:butt;stroke-linejoin:miter;stroke-miterlimit:10;stroke-dasharray:none;stroke-opacity:1" d="m 1630.57,6431.63 v 60.07 H 2927.7 v -60.07 z"/><path id="path380" style="fill:#c80910;fill-opacity:1;fill-rule:nonzero;stroke:none" d="m 1630.57,6491.7 v 60.08 h 590.18 v -60.08 h -590.18"/><path id="path382" style="fill:none;stroke:#c80910;stroke-width:1.20000005;stroke-linecap:butt;stroke-linejoin:miter;stroke-miterlimit:10;stroke-dasharray:none;stroke-opacity:1" d="m 1630.57,6491.7 v 60.08 h 590.18 v -60.08 z"/><path id="path384" style="fill:#2c7bb6;fill-opacity:1;fill-rule:nonzero;stroke:none" d="m 1630.57,6563.7 v 60.3 h 1281.38 v -60.3 H 1630.57"/><path id="path386" style="fill:none;stroke:#2c7bb6;stroke-width:1.20000005;stroke-linecap:butt;stroke-linejoin:miter;stroke-miterlimit:10;stroke-dasharray:none;stroke-opacity:1" d="m 1630.57,6563.7 v 60.3 h 1281.38 v -60.3 z"/><path id="path388" style="fill:#c80910;fill-opacity:1;fill-rule:nonzero;stroke:none" d="m 1630.57,6624 v 60.07 H 2799.23 V 6624 H 1630.57"/><path id="path390" style="fill:none;stroke:#c80910;stroke-width:1.20000005;stroke-linecap:butt;stroke-linejoin:miter;stroke-miterlimit:10;stroke-dasharray:none;stroke-opacity:1" d="m 1630.57,6624 v 60.07 H 2799.23 V 6624 Z"/><path id="path392" style="fill:none;stroke:#000000;stroke-width:14.39999962;stroke-linecap:butt;stroke-linejoin:miter;stroke-miterlimit:10;stroke-dasharray:none;stroke-opacity:1" d="M 1630.57,1011.82 H 6948"/><path id="path394" style="fill:none;stroke:#000000;stroke-width:14.39999962;stroke-linecap:butt;stroke-linejoin:miter;stroke-miterlimit:10;stroke-dasharray:none;stroke-opacity:1" d="M 1630.57,1011.82 V 961.875"/><path id="path396" style="fill:none;stroke:#000000;stroke-width:14.39999962;stroke-linecap:butt;stroke-linejoin:miter;stroke-miterlimit:10;stroke-dasharray:none;stroke-opacity:1" d="M 1963.8,1011.82 V 961.875"/><path id="path398" style="fill:none;stroke:#000000;stroke-width:14.39999962;stroke-linecap:butt;stroke-linejoin:miter;stroke-miterlimit:10;stroke-dasharray:none;stroke-opacity:1" d="M 2297.02,1011.82 V 961.875"/><path id="path400" style="fill:none;stroke:#000000;stroke-width:14.39999962;stroke-linecap:butt;stroke-linejoin:miter;stroke-miterlimit:10;stroke-dasharray:none;stroke-opacity:1" d="M 2630.25,1011.82 V 961.875"/><path id="path402" style="fill:none;stroke:#000000;stroke-width:14.39999962;stroke-linecap:butt;stroke-linejoin:miter;stroke-miterlimit:10;stroke-dasharray:none;stroke-opacity:1" d="M 2963.48,1011.82 V 961.875"/><path id="path404" style="fill:none;stroke:#000000;stroke-width:14.39999962;stroke-linecap:butt;stroke-linejoin:miter;stroke-miterlimit:10;stroke-dasharray:none;stroke-opacity:1" d="M 3296.7,1011.82 V 961.875"/><path id="path406" style="fill:none;stroke:#000000;stroke-width:14.39999962;stroke-linecap:butt;stroke-linejoin:miter;stroke-miterlimit:10;stroke-dasharray:none;stroke-opacity:1" d="M 3629.93,1011.82 V 961.875"/><path id="path408" style="fill:none;stroke:#000000;stroke-width:14.39999962;stroke-linecap:butt;stroke-linejoin:miter;stroke-miterlimit:10;stroke-dasharray:none;stroke-opacity:1" d="M 3963.38,1011.82 V 961.875"/><path id="path410" style="fill:none;stroke:#000000;stroke-width:14.39999962;stroke-linecap:butt;stroke-linejoin:miter;stroke-miterlimit:10;stroke-dasharray:none;stroke-opacity:1" d="M 4296.6,1011.82 V 961.875"/><path id="path412" style="fill:none;stroke:#000000;stroke-width:14.39999962;stroke-linecap:butt;stroke-linejoin:miter;stroke-miterlimit:10;stroke-dasharray:none;stroke-opacity:1" d="M 4629.82,1011.82 V 961.875"/><path id="path414" style="fill:none;stroke:#000000;stroke-width:14.39999962;stroke-linecap:butt;stroke-linejoin:miter;stroke-miterlimit:10;stroke-dasharray:none;stroke-opacity:1" d="M 4963.05,1011.82 V 961.875"/><path id="path416" style="fill:none;stroke:#000000;stroke-width:14.39999962;stroke-linecap:butt;stroke-linejoin:miter;stroke-miterlimit:10;stroke-dasharray:none;stroke-opacity:1" d="M 5296.27,1011.82 V 961.875"/><path id="path418" style="fill:none;stroke:#000000;stroke-width:14.39999962;stroke-linecap:butt;stroke-linejoin:miter;stroke-miterlimit:10;stroke-dasharray:none;stroke-opacity:1" d="M 5629.5,1011.82 V 961.875"/><path id="path420" style="fill:none;stroke:#000000;stroke-width:14.39999962;stroke-linecap:butt;stroke-linejoin:miter;stroke-miterlimit:10;stroke-dasharray:none;stroke-opacity:1" d="M 5962.73,1011.82 V 961.875"/><path id="path422" style="fill:none;stroke:#000000;stroke-width:14.39999962;stroke-linecap:butt;stroke-linejoin:miter;stroke-miterlimit:10;stroke-dasharray:none;stroke-opacity:1" d="M 6296.18,1011.82 V 961.875"/><path id="path424" style="fill:none;stroke:#000000;stroke-width:14.39999962;stroke-linecap:butt;stroke-linejoin:miter;stroke-miterlimit:10;stroke-dasharray:none;stroke-opacity:1" d="M 6629.4,1011.82 V 961.875"/><path id="path426" style="fill:none;stroke:#000000;stroke-width:14.39999962;stroke-linecap:butt;stroke-linejoin:miter;stroke-miterlimit:10;stroke-dasharray:none;stroke-opacity:1" d="M 1630.57,1011.82 V 911.926"/><g transform="scale(10)" id="g428"><text id="text432" style="font-variant:normal;font-weight:normal;font-size:20.00250053px;font-family:Helvetica;-inkscape-font-specification:Helvetica;writing-mode:lr-tb;fill:#000000;fill-opacity:1;fill-rule:nonzero;stroke:none" transform="matrix(1,0,0,-1,157.497,72.2023)"><tspan id="tspan430" y="0" x="0">0</tspan></text>
</g><path id="path434" style="fill:none;stroke:#000000;stroke-width:14.39999962;stroke-linecap:butt;stroke-linejoin:miter;stroke-miterlimit:10;stroke-dasharray:none;stroke-opacity:1" d="M 2297.02,1011.82 V 911.926"/><g transform="scale(10)" id="g436"><text id="text440" style="font-variant:normal;font-weight:normal;font-size:20.00250053px;font-family:Helvetica;-inkscape-font-specification:Helvetica;writing-mode:lr-tb;fill:#000000;fill-opacity:1;fill-rule:nonzero;stroke:none" transform="matrix(1,0,0,-1,218.581,72.2023)"><tspan id="tspan438" y="0" x="0">10</tspan></text>
</g><path id="path442" style="fill:none;stroke:#000000;stroke-width:14.39999962;stroke-linecap:butt;stroke-linejoin:miter;stroke-miterlimit:10;stroke-dasharray:none;stroke-opacity:1" d="M 2963.48,1011.82 V 911.926"/><g transform="scale(10)" id="g444"><text id="text448" style="font-variant:normal;font-weight:normal;font-size:20.00250053px;font-family:Helvetica;-inkscape-font-specification:Helvetica;writing-mode:lr-tb;fill:#000000;fill-opacity:1;fill-rule:nonzero;stroke:none" transform="matrix(1,0,0,-1,285.227,72.2023)"><tspan id="tspan446" y="0" x="0">20</tspan></text>
</g><path id="path450" style="fill:none;stroke:#000000;stroke-width:14.39999962;stroke-linecap:butt;stroke-linejoin:miter;stroke-miterlimit:10;stroke-dasharray:none;stroke-opacity:1" d="M 3629.93,1011.82 V 911.926"/><g transform="scale(10)" id="g452"><text id="text456" style="font-variant:normal;font-weight:normal;font-size:20.00250053px;font-family:Helvetica;-inkscape-font-specification:Helvetica;writing-mode:lr-tb;fill:#000000;fill-opacity:1;fill-rule:nonzero;stroke:none" transform="matrix(1,0,0,-1,351.871,72.2023)"><tspan id="tspan454" y="0" x="0">30</tspan></text>
</g><path id="path458" style="fill:none;stroke:#000000;stroke-width:14.39999962;stroke-linecap:butt;stroke-linejoin:miter;stroke-miterlimit:10;stroke-dasharray:none;stroke-opacity:1" d="M 4296.6,1011.82 V 911.926"/><g transform="scale(10)" id="g460"><text id="text464" style="font-variant:normal;font-weight:normal;font-size:20.00250053px;font-family:Helvetica;-inkscape-font-specification:Helvetica;writing-mode:lr-tb;fill:#000000;fill-opacity:1;fill-rule:nonzero;stroke:none" transform="matrix(1,0,0,-1,418.539,72.2023)"><tspan id="tspan462" y="0" x="0">40</tspan></text>
</g><path id="path466" style="fill:none;stroke:#000000;stroke-width:14.39999962;stroke-linecap:butt;stroke-linejoin:miter;stroke-miterlimit:10;stroke-dasharray:none;stroke-opacity:1" d="M 4963.05,1011.82 V 911.926"/><g transform="scale(10)" id="g468"><text id="text472" style="font-variant:normal;font-weight:normal;font-size:20.00250053px;font-family:Helvetica;-inkscape-font-specification:Helvetica;writing-mode:lr-tb;fill:#000000;fill-opacity:1;fill-rule:nonzero;stroke:none" transform="matrix(1,0,0,-1,485.184,72.2023)"><tspan id="tspan470" y="0" x="0">50</tspan></text>
</g><path id="path474" style="fill:none;stroke:#000000;stroke-width:14.39999962;stroke-linecap:butt;stroke-linejoin:miter;stroke-miterlimit:10;stroke-dasharray:none;stroke-opacity:1" d="M 5629.5,1011.82 V 911.926"/><g transform="scale(10)" id="g476"><text id="text480" style="font-variant:normal;font-weight:normal;font-size:20.00250053px;font-family:Helvetica;-inkscape-font-specification:Helvetica;writing-mode:lr-tb;fill:#000000;fill-opacity:1;fill-rule:nonzero;stroke:none" transform="matrix(1,0,0,-1,551.829,72.2023)"><tspan id="tspan478" y="0" x="0">60</tspan></text>
</g><path id="path482" style="fill:none;stroke:#000000;stroke-width:14.39999962;stroke-linecap:butt;stroke-linejoin:miter;stroke-miterlimit:10;stroke-dasharray:none;stroke-opacity:1" d="M 6296.18,1011.82 V 911.926"/><g transform="scale(10)" id="g484"><text id="text488" style="font-variant:normal;font-weight:normal;font-size:20.00250053px;font-family:Helvetica;-inkscape-font-specification:Helvetica;writing-mode:lr-tb;fill:#000000;fill-opacity:1;fill-rule:nonzero;stroke:none" transform="matrix(1,0,0,-1,618.496,72.2023)"><tspan id="tspan486" y="0" x="0">70</tspan></text>
</g><path id="path490" style="fill:none;stroke:#000000;stroke-width:14.39999962;stroke-linecap:butt;stroke-linejoin:miter;stroke-miterlimit:10;stroke-dasharray:none;stroke-opacity:1" d="M 1630.57,1011.82 V 6948"/><g transform="scale(10)" id="g492"><text id="text576" style="font-variant:normal;font-weight:normal;font-size:10.80000019px;font-family:Helvetica;-inkscape-font-specification:Helvetica;writing-mode:lr-tb;fill:#000000;fill-opacity:1;fill-rule:nonzero;stroke:none" transform="matrix(1,0,0,-1,117.633,129.825)"><tspan id="tspan494" y="0" x="0">Finland</tspan><tspan id="tspan496" y="-13.2074" x="-20.400801">Switzerland</tspan><tspan id="tspan498" y="-26.4375" x="0.59329998">Iceland</tspan><tspan id="tspan500" y="-39.667599" x="-44.419601">The Netherlands</tspan><tspan id="tspan502" y="-52.875" x="9.0066004">Malta</tspan><tspan id="tspan504" y="-66.105103" x="1.20894">Cyprus</tspan><tspan id="tspan506" y="-79.3125" x="15.60504">Italy</tspan><tspan id="tspan508" y="-92.542603" x="-1.18836">Norway</tspan><tspan id="tspan510" y="-105.75" x="7.7968001">Spain</tspan><tspan id="tspan512" y="-118.9801" x="1.80305">Austria</tspan><tspan id="tspan514" y="-132.1875" x="-41.417252">United Kingdom</tspan><tspan id="tspan516" y="-145.4176" x="-3.59655">Belgium</tspan><tspan id="tspan518" y="-158.625" x="-8.39186">Denmark</tspan><tspan id="tspan520" y="-171.8551" x="-24.613359">Luxembourg</tspan><tspan id="tspan522" y="-185.0625" x="-3.6078601">Sweden</tspan><tspan id="tspan524" y="-198.2926" x="-0.00082999998">Greece</tspan><tspan id="tspan526" y="-211.52271" x="-8.9969196">Germany</tspan><tspan id="tspan528" y="-224.7301" x="1.80308">France</tspan><tspan id="tspan530" y="-237.96021" x="-0.60512">Albania</tspan><tspan id="tspan532" y="-251.1676" x="-4.8062901">Portugal</tspan><tspan id="tspan534" y="-264.39771" x="-6.0051198">Slovenia</tspan><tspan id="tspan536" y="-277.6051" x="2.3972199">Ireland</tspan><tspan id="tspan538" y="-290.83521" x="-17.409781">Macedonia</tspan><tspan id="tspan540" y="-304.0426" x="0.60472">Croatia</tspan><tspan id="tspan542" y="-317.27271" x="-1.19919">Belarus</tspan><tspan id="tspan544" y="-330.4801" x="-3.5968499">Czechia</tspan><tspan id="tspan546" y="-343.71021" x="-22.215549">Montenegro</tspan><tspan id="tspan548" y="-356.94031" x="-0.60535002">Estonia</tspan><tspan id="tspan550" y="-370.14771" x="-61.224049">Bosnia Herzegovina</tspan><tspan id="tspan552" y="-383.37781" x="1.7923501">Poland</tspan><tspan id="tspan554" y="-396.58521" x="-5.4002299">Hungary</tspan><tspan id="tspan556" y="-409.81531" x="-5.4002299">Slovakia</tspan><tspan id="tspan558" y="-423.02271" x="-58.221329">Russian Federation</tspan><tspan id="tspan560" y="-436.25281" x="6.5981698">Latvia</tspan><tspan id="tspan562" y="-449.46021" x="-1.79285">Ukraine</tspan><tspan id="tspan564" y="-462.69031" x="4.2009001">Serbia</tspan><tspan id="tspan566" y="-475.89771" x="-8.4132004">Lithuania</tspan><tspan id="tspan568" y="-489.12781" x="-4.2010899">Bulgaria</tspan><tspan id="tspan570" y="-502.33521" x="-5.40031">Moldova</tspan><tspan id="tspan572" y="-515.56531" x="-7.7975798">Romania</tspan><tspan id="tspan574" y="-528.79498" x="-81.019081">Central African Republic</tspan></text>
</g></g></g></svg>