<?xml version="1.0" encoding="UTF-8" standalone="no"?>
<svg
   xmlns:dc="http://purl.org/dc/elements/1.1/"
   xmlns:cc="http://creativecommons.org/ns#"
   xmlns:rdf="http://www.w3.org/1999/02/22-rdf-syntax-ns#"
   xmlns:svg="http://www.w3.org/2000/svg"
   xmlns="http://www.w3.org/2000/svg"
   viewBox="0 0 528 384"
   height="384"
   width="528"
   xml:space="preserve"
   id="svg2"
   version="1.1"><metadata
     id="metadata8"><rdf:RDF><cc:Work
         rdf:about=""><dc:format>image/svg+xml</dc:format><dc:type
           rdf:resource="http://purl.org/dc/dcmitype/StillImage" /></cc:Work></rdf:RDF></metadata><defs
     id="defs6" /><g
     transform="matrix(1.3333333,0,0,-1.3333333,0,384)"
     id="g10"><g
       transform="scale(0.1)"
       id="g12"><path
         id="path14"
         style="fill:#eaf2f3;fill-opacity:1;fill-rule:nonzero;stroke:none"
         d="M 0,0 H 3960 V 2880 H 0 Z" /><path
         id="path16"
         style="fill:#ff77c3;fill-opacity:1;fill-rule:nonzero;stroke:none"
         d="m 1979.88,1439.95 1042.98,844.6 c -254.81,314.66 -638.08,497.47 -1042.98,497.47" /><path
         id="path18"
         style="fill:none;stroke:#ff68bc;stroke-width:1.20000005;stroke-linecap:butt;stroke-linejoin:miter;stroke-miterlimit:10;stroke-dasharray:none;stroke-opacity:1"
         d="m 1979.88,1439.95 1042.98,844.6 c -254.81,314.66 -638.08,497.47 -1042.98,497.47 z" /><path
         id="path20"
         style="fill:#48b07d;fill-opacity:1;fill-rule:nonzero;stroke:none"
         d="m 1979.88,1439.95 1325.54,-209.94 c 11,69.44 16.53,139.64 16.53,209.94 0,307.48 -105.59,605.64 -299.09,844.6" /><path
         id="path22"
         style="fill:none;stroke:#34a76e;stroke-width:1.20000005;stroke-linecap:butt;stroke-linejoin:miter;stroke-miterlimit:10;stroke-dasharray:none;stroke-opacity:1"
         d="m 1979.88,1439.95 1325.54,-209.94 c 11,69.44 16.53,139.64 16.53,209.94 0,307.48 -105.59,605.64 -299.09,844.6 z" /><path
         id="path24"
         style="fill:#ffdc1c;fill-opacity:1;fill-rule:nonzero;stroke:none"
         d="m 1979.88,1439.95 997.35,-898.012 c 173.61,192.808 287.61,431.812 328.19,688.072" /><path
         id="path26"
         style="fill:none;stroke:#ffd803;stroke-width:1.20000005;stroke-linecap:butt;stroke-linejoin:miter;stroke-miterlimit:10;stroke-dasharray:none;stroke-opacity:1"
         d="m 1979.88,1439.95 997.35,-898.012 c 173.61,192.808 287.61,431.812 328.19,688.072 z" /><path
         id="path28"
         style="fill:#349bff;fill-opacity:1;fill-rule:nonzero;stroke:none"
         d="M 1979.88,1439.95 2547.06,223.629 c 163.3,76.148 309.6,184.406 430.17,318.309" /><path
         id="path30"
         style="fill:none;stroke:#1e90ff;stroke-width:1.20000005;stroke-linecap:butt;stroke-linejoin:miter;stroke-miterlimit:10;stroke-dasharray:none;stroke-opacity:1"
         d="M 1979.88,1439.95 2547.06,223.629 c 163.3,76.148 309.6,184.406 430.17,318.309 z" /><path
         id="path32"
         style="fill:#598fbc;fill-opacity:1;fill-rule:nonzero;stroke:none"
         d="M 1979.88,1439.95 2166.66,110.945 c 131.68,18.508 259.88,56.489 380.4,112.684" /><path
         id="path34"
         style="fill:none;stroke:#4682b4;stroke-width:1.20000005;stroke-linecap:butt;stroke-linejoin:miter;stroke-miterlimit:10;stroke-dasharray:none;stroke-opacity:1"
         d="M 1979.88,1439.95 2166.66,110.945 c 131.68,18.508 259.88,56.489 380.4,112.684 z" /><path
         id="path36"
         style="fill:#ff8319;fill-opacity:1;fill-rule:nonzero;stroke:none"
         d="M 1979.88,1439.95 1839.59,105.238 c 46.6,-4.894 93.43,-7.3513 140.29,-7.3513 62.48,0 124.9,4.3673 186.78,13.0583" /><path
         id="path38"
         style="fill:none;stroke:#ff7500;stroke-width:1.20000005;stroke-linecap:butt;stroke-linejoin:miter;stroke-miterlimit:10;stroke-dasharray:none;stroke-opacity:1"
         d="M 1979.88,1439.95 1839.59,105.238 c 46.6,-4.894 93.43,-7.3513 140.29,-7.3513 62.48,0 124.9,4.3673 186.78,13.0583 z" /><path
         id="path40"
         style="fill:#b5dde7;fill-opacity:1;fill-rule:nonzero;stroke:none"
         d="M 1979.88,1439.95 1520.86,178.824 c 102.85,-37.429 209.89,-62.144 318.73,-73.586" /><path
         id="path42"
         style="fill:none;stroke:#add9e4;stroke-width:1.20000005;stroke-linecap:butt;stroke-linejoin:miter;stroke-miterlimit:10;stroke-dasharray:none;stroke-opacity:1"
         d="M 1979.88,1439.95 1520.86,178.824 c 102.85,-37.429 209.89,-62.144 318.73,-73.586 z" /><path
         id="path44"
         style="fill:#a346d5;fill-opacity:1;fill-rule:nonzero;stroke:none"
         d="M 1979.88,1439.95 1308.84,277.688 c 67.66,-39.063 138.61,-72.145 212.02,-98.864" /><path
         id="path46"
         style="fill:none;stroke:#9931d0;stroke-width:1.20000005;stroke-linecap:butt;stroke-linejoin:miter;stroke-miterlimit:10;stroke-dasharray:none;stroke-opacity:1"
         d="M 1979.88,1439.95 1308.84,277.688 c 67.66,-39.063 138.61,-72.145 212.02,-98.864 z" /><path
         id="path48"
         style="fill:#f4af65;fill-opacity:1;fill-rule:nonzero;stroke:none"
         d="M 1979.88,1439.95 1117.21,411.871 c 59.85,-50.219 123.97,-95.121 191.63,-134.183" /><path
         id="path50"
         style="fill:none;stroke:#f3a654;stroke-width:1.20000005;stroke-linecap:butt;stroke-linejoin:miter;stroke-miterlimit:10;stroke-dasharray:none;stroke-opacity:1"
         d="M 1979.88,1439.95 1117.21,411.871 c 59.85,-50.219 123.97,-95.121 191.63,-134.183 z" /><path
         id="path52"
         style="fill:#e0e0e0;fill-opacity:1;fill-rule:nonzero;stroke:none"
         d="m 1979.88,1439.95 v 1342.07 c -741.21,0 -1342.071,-600.86 -1342.071,-1342.07 0,-396.7 175.511,-773.083 479.401,-1028.079" /><path
         id="path54"
         style="fill:none;stroke:#dcdcdc;stroke-width:1.20000005;stroke-linecap:butt;stroke-linejoin:miter;stroke-miterlimit:10;stroke-dasharray:none;stroke-opacity:1"
         d="m 1979.88,1439.95 v 1342.07 c -741.21,0 -1342.071,-600.86 -1342.071,-1342.07 0,-396.7 175.511,-773.083 479.401,-1028.079 z" /><g
         transform="scale(10)"
         id="g56"><text
           id="text78"
           style="font-variant:normal;font-weight:normal;font-size:11.00139999px;font-family:Helvetica;-inkscape-font-specification:Helvetica;writing-mode:lr-tb;fill:#000000;fill-opacity:1;fill-rule:nonzero;stroke:none"
           transform="matrix(1,0,0,-1,229.318,245.173)"><tspan
             id="tspan58"
             y="0"
             x="0 6.1167784 12.233557 15.291946 21.408724 27.525503">14.14%</tspan><tspan
             id="tspan60"
             y="75.227699"
             x="62.4566 68.57338 74.690155 77.748543 83.865326 89.982101">13.48%</tspan><tspan
             id="tspan62"
             y="155.5043"
             x="54.808941 60.92572 63.984108 70.100883 76.217667 82.334442">9.061%</tspan><tspan
             id="tspan64"
             y="198.48241"
             x="19.25544 25.372219 28.430607 34.547386 40.664165 46.780941">6.354%</tspan><tspan
             id="tspan66"
             y="216.51289"
             x="-16.84256 -10.725781 -7.6673923 -1.550614 4.5661645 10.682942">4.747%</tspan><tspan
             id="tspan68"
             y="221.32697"
             x="-48.262459 -42.145683 -39.087292 -32.970512 -26.853735 -20.736958">3.977%</tspan><tspan
             id="tspan70"
             y="218.2207"
             x="-76.712463 -70.59568 -67.537292 -61.420513 -55.303734 -49.186958">3.875%</tspan><tspan
             id="tspan72"
             y="210.18945"
             x="-96.597656 -90.480881 -87.422493 -81.305717 -75.188934">2.79%</tspan><tspan
             id="tspan74"
             y="200.06647"
             x="-117.01796 -110.90118 -107.84279 -101.72601 -95.609238 -89.492455">2.718%</tspan><tspan
             id="tspan76"
             y="65.154457"
             x="-159.24136 -153.12459 -147.0078 -143.94942 -137.83264 -131.71585">38.86%</tspan></text>
</g></g></g></svg>