<?xml version="1.0" encoding="UTF-8" standalone="no"?>
<svg
   xmlns:dc="http://purl.org/dc/elements/1.1/"
   xmlns:cc="http://creativecommons.org/ns#"
   xmlns:rdf="http://www.w3.org/1999/02/22-rdf-syntax-ns#"
   xmlns:svg="http://www.w3.org/2000/svg"
   xmlns="http://www.w3.org/2000/svg"
   viewBox="0 0 528 384"
   height="384"
   width="528"
   xml:space="preserve"
   id="svg2"
   version="1.1"><metadata
     id="metadata8"><rdf:RDF><cc:Work
         rdf:about=""><dc:format>image/svg+xml</dc:format><dc:type
           rdf:resource="http://purl.org/dc/dcmitype/StillImage" /></cc:Work></rdf:RDF></metadata><defs
     id="defs6" /><g
     transform="matrix(1.3333333,0,0,-1.3333333,0,384)"
     id="g10"><g
       transform="scale(0.1)"
       id="g12"><path
         id="path14"
         style="fill:#eaf2f3;fill-opacity:1;fill-rule:nonzero;stroke:none"
         d="M 0,0 H 3960 V 2880 H 0 Z" /><path
         id="path16"
         style="fill:#349bff;fill-opacity:1;fill-rule:nonzero;stroke:none"
         d="m 1979.88,1439.95 932.28,965.41 c -250.21,241.62 -584.46,376.66 -932.28,376.66" /><path
         id="path18"
         style="fill:none;stroke:#1e90ff;stroke-width:1.20000005;stroke-linecap:butt;stroke-linejoin:miter;stroke-miterlimit:10;stroke-dasharray:none;stroke-opacity:1"
         d="m 1979.88,1439.95 932.28,965.41 c -250.21,241.62 -584.46,376.66 -932.28,376.66 z" /><path
         id="path20"
         style="fill:#ffdc1c;fill-opacity:1;fill-rule:nonzero;stroke:none"
         d="m 1979.88,1439.95 1312.74,279.04 c -55.6,261.58 -188.09,500.6 -380.46,686.37" /><path
         id="path22"
         style="fill:none;stroke:#ffd803;stroke-width:1.20000005;stroke-linecap:butt;stroke-linejoin:miter;stroke-miterlimit:10;stroke-dasharray:none;stroke-opacity:1"
         d="m 1979.88,1439.95 1312.74,279.04 c -55.6,261.58 -188.09,500.6 -380.46,686.37 z" /><path
         id="path24"
         style="fill:#48b07d;fill-opacity:1;fill-rule:nonzero;stroke:none"
         d="M 1979.88,1439.95 3263.3,1047.57 c 38.88,127.17 58.65,259.41 58.65,392.38 0,93.78 -9.84,187.31 -29.33,279.04" /><path
         id="path26"
         style="fill:none;stroke:#34a76e;stroke-width:1.20000005;stroke-linecap:butt;stroke-linejoin:miter;stroke-miterlimit:10;stroke-dasharray:none;stroke-opacity:1"
         d="M 1979.88,1439.95 3263.3,1047.57 c 38.88,127.17 58.65,259.41 58.65,392.38 0,93.78 -9.84,187.31 -29.33,279.04 z" /><path
         id="path28"
         style="fill:#ff77c3;fill-opacity:1;fill-rule:nonzero;stroke:none"
         d="m 1979.88,1439.95 948.98,-948.981 c 155.36,155.359 270.21,346.492 334.44,556.601" /><path
         id="path30"
         style="fill:none;stroke:#ff68bc;stroke-width:1.20000005;stroke-linecap:butt;stroke-linejoin:miter;stroke-miterlimit:10;stroke-dasharray:none;stroke-opacity:1"
         d="m 1979.88,1439.95 948.98,-948.981 c 155.36,155.359 270.21,346.492 334.44,556.601 z" /><path
         id="path32"
         style="fill:#598fbc;fill-opacity:1;fill-rule:nonzero;stroke:none"
         d="M 1979.88,1439.95 2372.26,156.527 c 210.11,64.235 401.24,179.082 556.6,334.442" /><path
         id="path34"
         style="fill:none;stroke:#4682b4;stroke-width:1.20000005;stroke-linecap:butt;stroke-linejoin:miter;stroke-miterlimit:10;stroke-dasharray:none;stroke-opacity:1"
         d="M 1979.88,1439.95 2372.26,156.527 c 210.11,64.235 401.24,179.082 556.6,334.442 z" /><path
         id="path36"
         style="fill:#f4af65;fill-opacity:1;fill-rule:nonzero;stroke:none"
         d="M 1979.88,1439.95 1933.04,98.7031 c 15.6,-0.5429 31.22,-0.8164 46.84,-0.8164 132.97,0 265.21,19.7653 392.38,58.6403" /><path
         id="path38"
         style="fill:none;stroke:#f3a654;stroke-width:1.20000005;stroke-linecap:butt;stroke-linejoin:miter;stroke-miterlimit:10;stroke-dasharray:none;stroke-opacity:1"
         d="M 1979.88,1439.95 1933.04,98.7031 c 15.6,-0.5429 31.22,-0.8164 46.84,-0.8164 132.97,0 265.21,19.7653 392.38,58.6403 z" /><path
         id="path40"
         style="fill:#9f1922;fill-opacity:1;fill-rule:nonzero;stroke:none"
         d="M 1979.88,1439.95 1520.86,178.824 c 132.34,-48.168 271.44,-75.207 412.18,-80.1209" /><path
         id="path42"
         style="fill:none;stroke:#940009;stroke-width:1.20000005;stroke-linecap:butt;stroke-linejoin:miter;stroke-miterlimit:10;stroke-dasharray:none;stroke-opacity:1"
         d="M 1979.88,1439.95 1520.86,178.824 c 132.34,-48.168 271.44,-75.207 412.18,-80.1209 z" /><path
         id="path44"
         style="fill:#ff8319;fill-opacity:1;fill-rule:nonzero;stroke:none"
         d="M 1979.88,1439.95 1210.1,340.598 c 96.07,-67.27 200.55,-121.66 310.76,-161.774" /><path
         id="path46"
         style="fill:none;stroke:#ff7500;stroke-width:1.20000005;stroke-linecap:butt;stroke-linejoin:miter;stroke-miterlimit:10;stroke-dasharray:none;stroke-opacity:1"
         d="M 1979.88,1439.95 1210.1,340.598 c 96.07,-67.27 200.55,-121.66 310.76,-161.774 z" /><path
         id="path48"
         style="fill:#ffffaf;fill-opacity:1;fill-rule:nonzero;stroke:none"
         d="M 1979.88,1439.95 967.004,559.48 C 1038.8,476.883 1120.45,403.371 1210.1,340.598" /><path
         id="path50"
         style="fill:none;stroke:#ffffa6;stroke-width:1.20000005;stroke-linecap:butt;stroke-linejoin:miter;stroke-miterlimit:10;stroke-dasharray:none;stroke-opacity:1"
         d="M 1979.88,1439.95 967.004,559.48 C 1038.8,476.883 1120.45,403.371 1210.1,340.598 Z" /><path
         id="path52"
         style="fill:#e0e0e0;fill-opacity:1;fill-rule:nonzero;stroke:none"
         d="m 1979.88,1439.95 v 1342.07 c -741.21,0 -1342.071,-600.86 -1342.071,-1342.07 0,-323.57 116.91,-636.262 329.195,-880.47" /><path
         id="path54"
         style="fill:none;stroke:#dcdcdc;stroke-width:1.20000005;stroke-linecap:butt;stroke-linejoin:miter;stroke-miterlimit:10;stroke-dasharray:none;stroke-opacity:1"
         d="m 1979.88,1439.95 v 1342.07 c -741.21,0 -1342.071,-600.86 -1342.071,-1342.07 0,-323.57 116.91,-636.262 329.195,-880.47 z" /><g
         transform="scale(10)"
         id="g56"><text
           id="text78"
           style="font-variant:normal;font-weight:normal;font-size:11.00139999px;font-family:Helvetica;-inkscape-font-specification:Helvetica;writing-mode:lr-tb;fill:#000000;fill-opacity:1;fill-rule:nonzero;stroke:none"
           transform="matrix(1,0,0,-1,225.545,248.156)"><tspan
             id="tspan58"
             y="0"
             x="0 6.1167784 12.233557 15.291946 21.408724">12.1%</tspan><tspan
             id="tspan60"
             y="51.3563"
             x="55.376999 61.493778 64.55217 70.668945 76.785721 82.902504">9.612%</tspan><tspan
             id="tspan62"
             y="113.1817"
             x="69.991798 76.108582 79.166969 85.283745 91.400528 97.517303">7.997%</tspan><tspan
             id="tspan64"
             y="167.9165"
             x="53.495701 59.61248 62.670868 68.787643 74.904427 81.021202">7.812%</tspan><tspan
             id="tspan66"
             y="207.6649"
             x="13.7844 19.901178 22.959568 29.076345 35.193123 41.309902">7.717%</tspan><tspan
             id="tspan68"
             y="223.34419"
             x="-31.2113 -25.094522 -22.036133 -15.919354 -9.8025761 -3.6857972">5.416%</tspan><tspan
             id="tspan70"
             y="222.0817"
             x="-68.905403 -62.78862 -59.730232 -53.613453 -47.496677 -41.379898">4.951%</tspan><tspan
             id="tspan72"
             y="210.9442"
             x="-100.3503 -94.233521 -91.175133 -85.058357 -78.941574 -72.824799">4.209%</tspan><tspan
             id="tspan74"
             y="193.99071"
             x="-124.5308 -118.41402 -115.35563 -109.23885 -103.12208 -97.005295">3.898%</tspan><tspan
             id="tspan76"
             y="59.449699"
             x="-151.89211 -145.77531 -139.65854 -136.60016 -130.48338 -124.3666">36.29%</tspan></text>
</g></g></g></svg>