<?xml version="1.0" encoding="UTF-8" standalone="no"?>
<svg
   xmlns:dc="http://purl.org/dc/elements/1.1/"
   xmlns:cc="http://creativecommons.org/ns#"
   xmlns:rdf="http://www.w3.org/1999/02/22-rdf-syntax-ns#"
   xmlns:svg="http://www.w3.org/2000/svg"
   xmlns="http://www.w3.org/2000/svg"
   viewBox="0 0 528 384"
   height="384"
   width="528"
   xml:space="preserve"
   id="svg2"
   version="1.1"><metadata
     id="metadata8"><rdf:RDF><cc:Work
         rdf:about=""><dc:format>image/svg+xml</dc:format><dc:type
           rdf:resource="http://purl.org/dc/dcmitype/StillImage" /></cc:Work></rdf:RDF></metadata><defs
     id="defs6" /><g
     transform="matrix(1.3333333,0,0,-1.3333333,0,384)"
     id="g10"><g
       transform="scale(0.1)"
       id="g12"><path
         id="path14"
         style="fill:#eaf2f3;fill-opacity:1;fill-rule:nonzero;stroke:none"
         d="M 0,0 H 3960 V 2880 H 0 Z" /><path
         id="path16"
         style="fill:#ff77c3;fill-opacity:1;fill-rule:nonzero;stroke:none"
         d="m 1979.88,1439.95 1235.38,524.39 c -210.43,495.75 -696.83,817.68 -1235.38,817.68" /><path
         id="path18"
         style="fill:none;stroke:#ff68bc;stroke-width:1.20000005;stroke-linecap:butt;stroke-linejoin:miter;stroke-miterlimit:10;stroke-dasharray:none;stroke-opacity:1"
         d="m 1979.88,1439.95 1235.38,524.39 c -210.43,495.75 -696.83,817.68 -1235.38,817.68 z" /><path
         id="path20"
         style="fill:#48b07d;fill-opacity:1;fill-rule:nonzero;stroke:none"
         d="M 1979.88,1439.95 3196.2,872.773 c 82.82,177.607 125.75,371.207 125.75,567.177 0,180.19 -36.29,358.53 -106.69,524.39" /><path
         id="path22"
         style="fill:none;stroke:#34a76e;stroke-width:1.20000005;stroke-linecap:butt;stroke-linejoin:miter;stroke-miterlimit:10;stroke-dasharray:none;stroke-opacity:1"
         d="M 1979.88,1439.95 3196.2,872.773 c 82.82,177.607 125.75,371.207 125.75,567.177 0,180.19 -36.29,358.53 -106.69,524.39 z" /><path
         id="path24"
         style="fill:#ffdc1c;fill-opacity:1;fill-rule:nonzero;stroke:none"
         d="M 1979.88,1439.95 2671.09,289.578 c 229.23,137.735 412.09,340.82 525.11,583.195" /><path
         id="path26"
         style="fill:none;stroke:#ffd803;stroke-width:1.20000005;stroke-linecap:butt;stroke-linejoin:miter;stroke-miterlimit:10;stroke-dasharray:none;stroke-opacity:1"
         d="M 1979.88,1439.95 2671.09,289.578 c 229.23,137.735 412.09,340.82 525.11,583.195 z" /><path
         id="path28"
         style="fill:#b5dde7;fill-opacity:1;fill-rule:nonzero;stroke:none"
         d="M 1979.88,1439.95 2235.96,122.543 c 153.67,29.871 300.94,86.406 435.13,167.035" /><path
         id="path30"
         style="fill:none;stroke:#add9e4;stroke-width:1.20000005;stroke-linecap:butt;stroke-linejoin:miter;stroke-miterlimit:10;stroke-dasharray:none;stroke-opacity:1"
         d="M 1979.88,1439.95 2235.96,122.543 c 153.67,29.871 300.94,86.406 435.13,167.035 z" /><path
         id="path32"
         style="fill:#ff8319;fill-opacity:1;fill-rule:nonzero;stroke:none"
         d="M 1979.88,1439.95 1839.59,105.238 c 46.6,-4.894 93.43,-7.3513 140.29,-7.3513 85.94,0 171.7,8.2583 256.08,24.6563" /><path
         id="path34"
         style="fill:none;stroke:#ff7500;stroke-width:1.20000005;stroke-linecap:butt;stroke-linejoin:miter;stroke-miterlimit:10;stroke-dasharray:none;stroke-opacity:1"
         d="M 1979.88,1439.95 1839.59,105.238 c 46.6,-4.894 93.43,-7.3513 140.29,-7.3513 85.94,0 171.7,8.2583 256.08,24.6563 z" /><path
         id="path36"
         style="fill:#a346d5;fill-opacity:1;fill-rule:nonzero;stroke:none"
         d="M 1979.88,1439.95 1565.15,163.57 c 89.19,-28.976 181.18,-48.531 274.44,-58.332" /><path
         id="path38"
         style="fill:none;stroke:#9931d0;stroke-width:1.20000005;stroke-linecap:butt;stroke-linejoin:miter;stroke-miterlimit:10;stroke-dasharray:none;stroke-opacity:1"
         d="M 1979.88,1439.95 1565.15,163.57 c 89.19,-28.976 181.18,-48.531 274.44,-58.332 z" /><path
         id="path40"
         style="fill:#ffffaf;fill-opacity:1;fill-rule:nonzero;stroke:none"
         d="M 1979.88,1439.95 1349.81,254.98 c 68.98,-36.679 141.04,-67.269 215.34,-91.41" /><path
         id="path42"
         style="fill:none;stroke:#ffffa6;stroke-width:1.20000005;stroke-linecap:butt;stroke-linejoin:miter;stroke-miterlimit:10;stroke-dasharray:none;stroke-opacity:1"
         d="M 1979.88,1439.95 1349.81,254.98 c 68.98,-36.679 141.04,-67.269 215.34,-91.41 z" /><path
         id="path44"
         style="fill:#a9e942;fill-opacity:1;fill-rule:nonzero;stroke:none"
         d="M 1979.88,1439.95 1153.62,382.391 c 61.56,-48.098 127.21,-90.735 196.19,-127.411" /><path
         id="path46"
         style="fill:none;stroke:#9fe72d;stroke-width:1.20000005;stroke-linecap:butt;stroke-linejoin:miter;stroke-miterlimit:10;stroke-dasharray:none;stroke-opacity:1"
         d="M 1979.88,1439.95 1153.62,382.391 c 61.56,-48.098 127.21,-90.735 196.19,-127.411 z" /><path
         id="path48"
         style="fill:#598fbc;fill-opacity:1;fill-rule:nonzero;stroke:none"
         d="M 1979.88,1439.95 982.523,541.938 C 1034.8,483.879 1092.05,430.488 1153.62,382.391" /><path
         id="path50"
         style="fill:none;stroke:#4682b4;stroke-width:1.20000005;stroke-linecap:butt;stroke-linejoin:miter;stroke-miterlimit:10;stroke-dasharray:none;stroke-opacity:1"
         d="M 1979.88,1439.95 982.523,541.938 C 1034.8,483.879 1092.05,430.488 1153.62,382.391 Z" /><path
         id="path52"
         style="fill:#e0e0e0;fill-opacity:1;fill-rule:nonzero;stroke:none"
         d="m 1979.88,1439.95 v 1342.07 c -741.21,0 -1342.071,-600.86 -1342.071,-1342.07 0,-331.65 122.8,-651.552 344.714,-898.012" /><path
         id="path54"
         style="fill:none;stroke:#dcdcdc;stroke-width:1.20000005;stroke-linecap:butt;stroke-linejoin:miter;stroke-miterlimit:10;stroke-dasharray:none;stroke-opacity:1"
         d="m 1979.88,1439.95 v 1342.07 c -741.21,0 -1342.071,-600.86 -1342.071,-1342.07 0,-331.65 122.8,-651.552 344.714,-898.012 z" /><g
         transform="scale(10)"
         id="g56"><text
           id="text78"
           style="font-variant:normal;font-weight:normal;font-size:11.00139999px;font-family:Helvetica;-inkscape-font-specification:Helvetica;writing-mode:lr-tb;fill:#000000;fill-opacity:1;fill-rule:nonzero;stroke:none"
           transform="matrix(1,0,0,-1,243.896,236.895)"><tspan
             id="tspan58"
             y="0"
             x="0 6.1167784 12.233557 15.291946 21.408724 27.525503">18.73%</tspan><tspan
             id="tspan60"
             y="98.839104"
             x="51.739799 57.856579 63.973358 67.031746 73.148521 79.265305">13.11%</tspan><tspan
             id="tspan62"
             y="174.0047"
             x="22.386299 28.503078 31.561468 37.678246 43.795025 49.911804">9.441%</tspan><tspan
             id="tspan64"
             y="205.1774"
             x="-22.473101 -16.356321 -13.297933 -7.1811538 -1.0643756 5.052403">5.652%</tspan><tspan
             id="tspan66"
             y="212.94888"
             x="-59.499298 -53.382523 -50.324131 -44.207355 -38.090576 -31.973797">4.747%</tspan><tspan
             id="tspan68"
             y="210.61021"
             x="-88.308296 -82.191521 -79.133133 -73.016357 -66.899574 -60.782799">3.183%</tspan><tspan
             id="tspan70"
             y="203.82857"
             x="-109.9521 -103.83532 -100.77693 -94.660156 -88.543373 -82.426598">3.035%</tspan><tspan
             id="tspan72"
             y="193.85435"
             x="-128.57629 -122.45952 -119.40113 -113.28436 -107.16757 -101.0508">2.756%</tspan><tspan
             id="tspan74"
             y="181.55354"
             x="-144.1564 -138.03963 -134.98123 -128.86446 -122.74767 -116.6309">2.679%</tspan><tspan
             id="tspan76"
             y="49.43755"
             x="-170.8123 -164.69553 -158.57875 -155.52036 -149.40358 -143.2868">36.66%</tspan></text>
</g></g></g></svg>