<?xml version="1.0" encoding="UTF-8" standalone="no"?>
<svg
   xmlns:dc="http://purl.org/dc/elements/1.1/"
   xmlns:cc="http://creativecommons.org/ns#"
   xmlns:rdf="http://www.w3.org/1999/02/22-rdf-syntax-ns#"
   xmlns:svg="http://www.w3.org/2000/svg"
   xmlns="http://www.w3.org/2000/svg"
   viewBox="0 0 528 384"
   height="384"
   width="528"
   xml:space="preserve"
   id="svg2"
   version="1.1"><metadata
     id="metadata8"><rdf:RDF><cc:Work
         rdf:about=""><dc:format>image/svg+xml</dc:format><dc:type
           rdf:resource="http://purl.org/dc/dcmitype/StillImage" /></cc:Work></rdf:RDF></metadata><defs
     id="defs6" /><g
     transform="matrix(1.3333333,0,0,-1.3333333,0,384)"
     id="g10"><g
       transform="scale(0.1)"
       id="g12"><path
         id="path14"
         style="fill:#eaf2f3;fill-opacity:1;fill-rule:nonzero;stroke:none"
         d="M 0,0 H 3960 V 2880 H 0 Z" /><path
         id="path16"
         style="fill:#ff77c3;fill-opacity:1;fill-rule:nonzero;stroke:none"
         d="m 1979.88,1439.95 1112.62,750.48 c -249.48,369.87 -666.47,591.59 -1112.62,591.59" /><path
         id="path18"
         style="fill:none;stroke:#ff68bc;stroke-width:1.20000005;stroke-linecap:butt;stroke-linejoin:miter;stroke-miterlimit:10;stroke-dasharray:none;stroke-opacity:1"
         d="m 1979.88,1439.95 1112.62,750.48 c -249.48,369.87 -666.47,591.59 -1112.62,591.59 z" /><path
         id="path20"
         style="fill:#349bff;fill-opacity:1;fill-rule:nonzero;stroke:none"
         d="M 1979.88,1439.95 3276.21,1092.6 c 30.36,113.29 45.74,230.07 45.74,347.35 0,267.43 -79.9,528.77 -229.45,750.48" /><path
         id="path22"
         style="fill:none;stroke:#1e90ff;stroke-width:1.20000005;stroke-linecap:butt;stroke-linejoin:miter;stroke-miterlimit:10;stroke-dasharray:none;stroke-opacity:1"
         d="M 1979.88,1439.95 3276.21,1092.6 c 30.36,113.29 45.74,230.07 45.74,347.35 0,267.43 -79.9,528.77 -229.45,750.48 z" /><path
         id="path24"
         style="fill:#ffdc1c;fill-opacity:1;fill-rule:nonzero;stroke:none"
         d="M 1979.88,1439.95 2860.35,427.082 C 3062.18,602.531 3207,834.285 3276.21,1092.6" /><path
         id="path26"
         style="fill:none;stroke:#ffd803;stroke-width:1.20000005;stroke-linecap:butt;stroke-linejoin:miter;stroke-miterlimit:10;stroke-dasharray:none;stroke-opacity:1"
         d="M 1979.88,1439.95 2860.35,427.082 C 3062.18,602.531 3207,834.285 3276.21,1092.6 Z" /><path
         id="path28"
         style="fill:#ff8319;fill-opacity:1;fill-rule:nonzero;stroke:none"
         d="m 1979.88,1439.95 301.9,-1307.665 c 214.08,49.422 412.76,150.653 578.57,294.797" /><path
         id="path30"
         style="fill:none;stroke:#ff7500;stroke-width:1.20000005;stroke-linecap:butt;stroke-linejoin:miter;stroke-miterlimit:10;stroke-dasharray:none;stroke-opacity:1"
         d="m 1979.88,1439.95 301.9,-1307.665 c 214.08,49.422 412.76,150.653 578.57,294.797 z" /><path
         id="path32"
         style="fill:#598fbc;fill-opacity:1;fill-rule:nonzero;stroke:none"
         d="M 1979.88,1439.95 1769.93,114.41 c 69.44,-10.996 139.64,-16.5233 209.95,-16.5233 101.6,0 202.89,11.5433 301.9,34.3983" /><path
         id="path34"
         style="fill:none;stroke:#4682b4;stroke-width:1.20000005;stroke-linecap:butt;stroke-linejoin:miter;stroke-miterlimit:10;stroke-dasharray:none;stroke-opacity:1"
         d="M 1979.88,1439.95 1769.93,114.41 c 69.44,-10.996 139.64,-16.5233 209.95,-16.5233 101.6,0 202.89,11.5433 301.9,34.3983 z" /><path
         id="path36"
         style="fill:#f4af65;fill-opacity:1;fill-rule:nonzero;stroke:none"
         d="M 1979.88,1439.95 1329.23,266.156 c 136.92,-75.898 286.07,-127.258 440.7,-151.746" /><path
         id="path38"
         style="fill:none;stroke:#f3a654;stroke-width:1.20000005;stroke-linecap:butt;stroke-linejoin:miter;stroke-miterlimit:10;stroke-dasharray:none;stroke-opacity:1"
         d="M 1979.88,1439.95 1329.23,266.156 c 136.92,-75.898 286.07,-127.258 440.7,-151.746 z" /><path
         id="path40"
         style="fill:#9f1922;fill-opacity:1;fill-rule:nonzero;stroke:none"
         d="M 1979.88,1439.95 998.348,524.668 C 1094.39,421.672 1206.05,334.43 1329.23,266.156" /><path
         id="path42"
         style="fill:none;stroke:#940009;stroke-width:1.20000005;stroke-linecap:butt;stroke-linejoin:miter;stroke-miterlimit:10;stroke-dasharray:none;stroke-opacity:1"
         d="M 1979.88,1439.95 998.348,524.668 C 1094.39,421.672 1206.05,334.43 1329.23,266.156 Z" /><path
         id="path44"
         style="fill:#9820c8;fill-opacity:1;fill-rule:nonzero;stroke:none"
         d="M 1979.88,1439.95 773.633,851.629 C 831.926,732.113 907.66,621.918 998.348,524.668" /><path
         id="path46"
         style="fill:none;stroke:#8c07c2;stroke-width:1.20000005;stroke-linecap:butt;stroke-linejoin:miter;stroke-miterlimit:10;stroke-dasharray:none;stroke-opacity:1"
         d="M 1979.88,1439.95 773.633,851.629 C 831.926,732.113 907.66,621.918 998.348,524.668 Z" /><path
         id="path48"
         style="fill:#e02b54;fill-opacity:1;fill-rule:nonzero;stroke:none"
         d="M 1979.88,1439.95 667.137,1160.92 c 22.75,-107.05 58.519,-210.924 106.496,-309.291" /><path
         id="path50"
         style="fill:none;stroke:#dc1341;stroke-width:1.20000005;stroke-linecap:butt;stroke-linejoin:miter;stroke-miterlimit:10;stroke-dasharray:none;stroke-opacity:1"
         d="M 1979.88,1439.95 667.137,1160.92 c 22.75,-107.05 58.519,-210.924 106.496,-309.291 z" /><path
         id="path52"
         style="fill:#ffffaf;fill-opacity:1;fill-rule:nonzero;stroke:none"
         d="M 1979.88,1439.95 638.625,1393.12 c 2.727,-78.08 12.27,-155.78 28.512,-232.2" /><path
         id="path54"
         style="fill:none;stroke:#ffffa6;stroke-width:1.20000005;stroke-linecap:butt;stroke-linejoin:miter;stroke-miterlimit:10;stroke-dasharray:none;stroke-opacity:1"
         d="M 1979.88,1439.95 638.625,1393.12 c 2.727,-78.08 12.27,-155.78 28.512,-232.2 z" /><path
         id="path56"
         style="fill:#e0e0e0;fill-opacity:1;fill-rule:nonzero;stroke:none"
         d="m 1979.88,1439.95 v 1342.07 c -741.21,0 -1342.071,-600.86 -1342.071,-1342.07 0,-15.61 0.273,-31.23 0.816,-46.83" /><path
         id="path58"
         style="fill:none;stroke:#dcdcdc;stroke-width:1.20000005;stroke-linecap:butt;stroke-linejoin:miter;stroke-miterlimit:10;stroke-dasharray:none;stroke-opacity:1"
         d="m 1979.88,1439.95 v 1342.07 c -741.21,0 -1342.071,-600.86 -1342.071,-1342.07 0,-15.61 0.273,-31.23 0.816,-46.83 z" /><g
         transform="scale(10)"
         id="g60"><text
           id="text84"
           style="font-variant:normal;font-weight:normal;font-size:11.00139999px;font-family:Helvetica;-inkscape-font-specification:Helvetica;writing-mode:lr-tb;fill:#000000;fill-opacity:1;fill-rule:nonzero;stroke:none"
           transform="matrix(1,0,0,-1,233.65,242.996)"><tspan
             id="tspan62"
             y="0"
             x="0 6.1167784 12.233557 15.291946 21.408724 27.525503">15.46%</tspan><tspan
             id="tspan64"
             y="83.370697"
             x="60.3652 66.481979 72.598755 75.657143 81.773926 87.890701">13.71%</tspan><tspan
             id="tspan66"
             y="164.6496"
             x="44.2281 50.344879 53.403267 59.520046 65.636826 71.753601">9.472%</tspan><tspan
             id="tspan68"
             y="206.5141"
             x="-1.5594 4.5573783 7.6157675 13.732546 19.849325 25.966103">7.717%</tspan><tspan
             id="tspan70"
             y="219.0625"
             x="-49.710602 -43.593822 -40.535431 -34.418655 -28.301876 -22.185097">6.006%</tspan><tspan
             id="tspan72"
             y="212.94922"
             x="-91.810204 -85.69342 -82.635033 -76.518257 -70.401474 -64.284698 -91.810204 -85.69342 -82.635033 -76.518257 -70.401474 -64.284698">5.704%5.704%</tspan><tspan
             id="tspan74"
             y="194.52261"
             x="-125.8911 -119.77432 -116.71593 -110.59915 -104.48238 -98.365601">4.948%</tspan><tspan
             id="tspan76"
             y="169.04253"
             x="-149.9481 -143.83131 -140.77293 -134.65616 -128.53938 -122.4226">4.679%</tspan><tspan
             id="tspan78"
             y="141.42181"
             x="-164.0309 -157.91412 -154.85573 -148.73895 -142.62218 -136.5054">3.833%</tspan><tspan
             id="tspan80"
             y="117.09252"
             x="-166.68988 -160.5731 -157.51471 -151.39793 -145.28116">3.02%</tspan><tspan
             id="tspan82"
             y="21.755421"
             x="-137.68439 -131.5676 -125.45082 -122.39243 -116.27566 -110.15887">25.44%</tspan></text>
</g></g></g></svg>