<?xml version="1.0" encoding="UTF-8" standalone="no"?>
<svg
   xmlns:dc="http://purl.org/dc/elements/1.1/"
   xmlns:cc="http://creativecommons.org/ns#"
   xmlns:rdf="http://www.w3.org/1999/02/22-rdf-syntax-ns#"
   xmlns:svg="http://www.w3.org/2000/svg"
   xmlns="http://www.w3.org/2000/svg"
   viewBox="0 0 528 384"
   height="384"
   width="528"
   xml:space="preserve"
   id="svg2"
   version="1.1"><metadata
     id="metadata8"><rdf:RDF><cc:Work
         rdf:about=""><dc:format>image/svg+xml</dc:format><dc:type
           rdf:resource="http://purl.org/dc/dcmitype/StillImage" /></cc:Work></rdf:RDF></metadata><defs
     id="defs6" /><g
     transform="matrix(1.3333333,0,0,-1.3333333,0,384)"
     id="g10"><g
       transform="scale(0.1)"
       id="g12"><path
         id="path14"
         style="fill:#eaf2f3;fill-opacity:1;fill-rule:nonzero;stroke:none"
         d="M 0,0 H 3960 V 2880 H 0 Z" /><path
         id="path16"
         style="fill:#ff77c3;fill-opacity:1;fill-rule:nonzero;stroke:none"
         d="m 1979.88,1439.95 898.01,997.35 c -246.46,221.92 -566.37,344.72 -898.01,344.72" /><path
         id="path18"
         style="fill:none;stroke:#ff68bc;stroke-width:1.20000005;stroke-linecap:butt;stroke-linejoin:miter;stroke-miterlimit:10;stroke-dasharray:none;stroke-opacity:1"
         d="m 1979.88,1439.95 898.01,997.35 c -246.46,221.92 -566.37,344.72 -898.01,344.72 z" /><path
         id="path20"
         style="fill:#349bff;fill-opacity:1;fill-rule:nonzero;stroke:none"
         d="m 1979.88,1439.95 1332.06,163.56 c -39.43,321.17 -193.58,617.28 -434.05,833.79" /><path
         id="path22"
         style="fill:none;stroke:#1e90ff;stroke-width:1.20000005;stroke-linecap:butt;stroke-linejoin:miter;stroke-miterlimit:10;stroke-dasharray:none;stroke-opacity:1"
         d="m 1979.88,1439.95 1332.06,163.56 c -39.43,321.17 -193.58,617.28 -434.05,833.79 z" /><path
         id="path24"
         style="fill:#ffdc1c;fill-opacity:1;fill-rule:nonzero;stroke:none"
         d="m 1979.88,1439.95 1173.8,-650.641 c 110.36,199.097 168.27,423.001 168.27,650.641 0,54.68 -3.35,109.3 -10.01,163.56" /><path
         id="path26"
         style="fill:none;stroke:#ffd803;stroke-width:1.20000005;stroke-linecap:butt;stroke-linejoin:miter;stroke-miterlimit:10;stroke-dasharray:none;stroke-opacity:1"
         d="m 1979.88,1439.95 1173.8,-650.641 c 110.36,199.097 168.27,423.001 168.27,650.641 0,54.68 -3.35,109.3 -10.01,163.56 z" /><path
         id="path28"
         style="fill:#48b07d;fill-opacity:1;fill-rule:nonzero;stroke:none"
         d="M 1979.88,1439.95 2730.35,327.328 c 175.58,118.434 320.65,276.746 423.33,461.981" /><path
         id="path30"
         style="fill:none;stroke:#34a76e;stroke-width:1.20000005;stroke-linecap:butt;stroke-linejoin:miter;stroke-miterlimit:10;stroke-dasharray:none;stroke-opacity:1"
         d="M 1979.88,1439.95 2730.35,327.328 c 175.58,118.434 320.65,276.746 423.33,461.981 z" /><path
         id="path32"
         style="fill:#598fbc;fill-opacity:1;fill-rule:nonzero;stroke:none"
         d="m 1979.88,1439.95 324.67,-1302.2 c 151.9,37.871 296.01,102.035 425.8,189.578" /><path
         id="path34"
         style="fill:none;stroke:#4682b4;stroke-width:1.20000005;stroke-linecap:butt;stroke-linejoin:miter;stroke-miterlimit:10;stroke-dasharray:none;stroke-opacity:1"
         d="m 1979.88,1439.95 324.67,-1302.2 c 151.9,37.871 296.01,102.035 425.8,189.578 z" /><path
         id="path36"
         style="fill:#e0e0e0;fill-opacity:1;fill-rule:nonzero;stroke:none"
         d="m 1979.88,1439.95 v 1342.07 c -741.21,0 -1342.071,-600.86 -1342.071,-1342.07 0,-741.2 600.861,-1342.0633 1342.071,-1342.0633 109.44,0 218.48,13.3903 324.67,39.8633" /><path
         id="path38"
         style="fill:none;stroke:#dcdcdc;stroke-width:1.20000005;stroke-linecap:butt;stroke-linejoin:miter;stroke-miterlimit:10;stroke-dasharray:none;stroke-opacity:1"
         d="m 1979.88,1439.95 v 1342.07 c -741.21,0 -1342.071,-600.86 -1342.071,-1342.07 0,-741.2 600.861,-1342.0633 1342.071,-1342.0633 109.44,0 218.48,13.3903 324.67,39.8633 z" /><g
         transform="scale(10)"
         id="g40"><text
           id="text54"
           style="font-variant:normal;font-weight:normal;font-size:11.00139999px;font-family:Helvetica;-inkscape-font-specification:Helvetica;writing-mode:lr-tb;fill:#000000;fill-opacity:1;fill-rule:nonzero;stroke:none"
           transform="matrix(1,0,0,-1,221.213,248.663)"><tspan
             id="tspan42"
             y="0"
             x="0 6.1167784 12.233557 15.291946 21.408724 27.525503">11.72%</tspan><tspan
             id="tspan44"
             y="55.328499"
             x="61.565601 67.682381 73.799156 76.857544 82.974327 89.091103">11.44%</tspan><tspan
             id="tspan46"
             y="131.4969"
             x="72.1465 78.263275 84.380058 87.438446 93.555222 99.672005">10.01%</tspan><tspan
             id="tspan48"
             y="187.25861"
             x="43.7211 49.837879 52.896267 59.013046 65.129822 71.246605">7.331%</tspan><tspan
             id="tspan50"
             y="214.74339"
             x="5.4945002 11.611279 14.669667 20.786446 26.903225 33.020004">5.645%</tspan><tspan
             id="tspan52"
             y="122.5621"
             x="-157.33549 -151.21872 -145.10194 -142.04355 -135.92677 -129.81 -157.33549 -151.21872 -145.10194 -142.04355 -135.92677 -129.81">53.85%53.85%</tspan></text>
</g></g></g></svg>