<?xml version="1.0" encoding="UTF-8" standalone="no"?>
<!-- Created with Inkscape (http://www.inkscape.org/) -->

<svg
   version="1.1"
   id="svg2"
   xml:space="preserve"
   width="528"
   height="384"
   viewBox="0 0 528 384"
   sodipodi:docname="temp.eps"
   xmlns:inkscape="http://www.inkscape.org/namespaces/inkscape"
   xmlns:sodipodi="http://sodipodi.sourceforge.net/DTD/sodipodi-0.dtd"
   xmlns="http://www.w3.org/2000/svg"
   xmlns:svg="http://www.w3.org/2000/svg"><defs
     id="defs6"><clipPath
       clipPathUnits="userSpaceOnUse"
       id="clipPath22"><path
         d="M 1979.88,1439.95 2394.6,163.57 c 552.96,179.668 927.35,694.969 927.35,1276.38 0,741.21 -600.87,1342.07 -1342.07,1342.07 z"
         id="path20" /></clipPath><clipPath
       clipPathUnits="userSpaceOnUse"
       id="clipPath34"><path
         d="M 1979.88,1439.95 951.793,577.289 C 1206.79,273.398 1583.17,97.8867 1979.88,97.8867 c 140.82,0 280.78,22.1683 414.72,65.6833 z"
         id="path32" /></clipPath><clipPath
       clipPathUnits="userSpaceOnUse"
       id="clipPath46"><path
         d="M 1979.88,1439.95 683.539,1092.6 C 734.258,903.309 825.824,727.414 951.793,577.289 Z"
         id="path44" /></clipPath><clipPath
       clipPathUnits="userSpaceOnUse"
       id="clipPath58"><path
         d="M 1979.88,1439.95 639.648,1510.2 c -1.222,-23.4 -1.839,-46.82 -1.839,-70.25 0,-117.28 15.375,-234.06 45.73,-347.35 z"
         id="path56" /></clipPath><clipPath
       clipPathUnits="userSpaceOnUse"
       id="clipPath70"><path
         d="M 1979.88,1439.95 703.492,1854.68 C 667.254,1743.13 645.785,1627.32 639.648,1510.2 Z"
         id="path68" /></clipPath><clipPath
       clipPathUnits="userSpaceOnUse"
       id="clipPath82"><path
         d="m 1979.88,1439.95 v 1342.07 c -581.42,0 -1096.72,-374.38 -1276.388,-927.34 z"
         id="path80" /></clipPath></defs><sodipodi:namedview
     id="namedview4"
     pagecolor="#ffffff"
     bordercolor="#666666"
     borderopacity="1.0"
     inkscape:pageshadow="2"
     inkscape:pageopacity="0.0"
     inkscape:pagecheckerboard="0" /><g
     id="g8"
     inkscape:groupmode="layer"
     inkscape:label="ink_ext_XXXXXX"
     transform="matrix(1.3333333,0,0,-1.3333333,0,384)"><g
       id="g10"
       transform="scale(0.1)"><path
         d="M 0,0 H 3960 V 2880 H 0 Z"
         style="fill:#eaf2f3;fill-opacity:1;fill-rule:nonzero;stroke:none"
         id="path12" /><path
         d="M 1979.88,1439.95 2394.6,163.57 c 552.96,179.668 927.35,694.969 927.35,1276.38 0,741.21 -600.87,1342.07 -1342.07,1342.07"
         style="fill:#ff8319;fill-opacity:1;fill-rule:nonzero;stroke:none"
         id="path14" /><g
         id="g16"><g
           id="g18"
           clip-path="url(#clipPath22)"><path
             d="M 1979.88,1439.95 2394.6,163.57 c 552.96,179.668 927.35,694.969 927.35,1276.38 0,741.21 -600.87,1342.07 -1342.07,1342.07 z"
             style="fill:none;stroke:#ff7500;stroke-width:2.4;stroke-linecap:butt;stroke-linejoin:miter;stroke-miterlimit:10;stroke-dasharray:none;stroke-opacity:1"
             id="path24" /></g></g><path
         d="M 1979.88,1439.95 951.793,577.289 C 1206.79,273.398 1583.17,97.8867 1979.88,97.8867 c 140.82,0 280.78,22.1683 414.72,65.6833"
         style="fill:#ffdc1c;fill-opacity:1;fill-rule:nonzero;stroke:none"
         id="path26" /><g
         id="g28"><g
           id="g30"
           clip-path="url(#clipPath34)"><path
             d="M 1979.88,1439.95 951.793,577.289 C 1206.79,273.398 1583.17,97.8867 1979.88,97.8867 c 140.82,0 280.78,22.1683 414.72,65.6833 z"
             style="fill:none;stroke:#ffd803;stroke-width:2.4;stroke-linecap:butt;stroke-linejoin:miter;stroke-miterlimit:10;stroke-dasharray:none;stroke-opacity:1"
             id="path36" /></g></g><path
         d="M 1979.88,1439.95 683.539,1092.6 C 734.258,903.309 825.824,727.414 951.793,577.289"
         style="fill:#b66751;fill-opacity:1;fill-rule:nonzero;stroke:none"
         id="path38" /><g
         id="g40"><g
           id="g42"
           clip-path="url(#clipPath46)"><path
             d="M 1979.88,1439.95 683.539,1092.6 C 734.258,903.309 825.824,727.414 951.793,577.289 Z"
             style="fill:none;stroke:#ae563e;stroke-width:2.4;stroke-linecap:butt;stroke-linejoin:miter;stroke-miterlimit:10;stroke-dasharray:none;stroke-opacity:1"
             id="path48" /></g></g><path
         d="M 1979.88,1439.95 639.648,1510.2 c -1.222,-23.4 -1.839,-46.82 -1.839,-70.25 0,-117.28 15.375,-234.06 45.73,-347.35"
         style="fill:#3d983e;fill-opacity:1;fill-rule:nonzero;stroke:none"
         id="path50" /><g
         id="g52"><g
           id="g54"
           clip-path="url(#clipPath58)"><path
             d="M 1979.88,1439.95 639.648,1510.2 c -1.222,-23.4 -1.839,-46.82 -1.839,-70.25 0,-117.28 15.375,-234.06 45.73,-347.35 z"
             style="fill:none;stroke:#278d29;stroke-width:2.4;stroke-linecap:butt;stroke-linejoin:miter;stroke-miterlimit:10;stroke-dasharray:none;stroke-opacity:1"
             id="path60" /></g></g><path
         d="M 1979.88,1439.95 703.492,1854.68 C 667.254,1743.13 645.785,1627.32 639.648,1510.2"
         style="fill:#a9e942;fill-opacity:1;fill-rule:nonzero;stroke:none"
         id="path62" /><g
         id="g64"><g
           id="g66"
           clip-path="url(#clipPath70)"><path
             d="M 1979.88,1439.95 703.492,1854.68 C 667.254,1743.13 645.785,1627.32 639.648,1510.2 Z"
             style="fill:none;stroke:#9fe72d;stroke-width:2.4;stroke-linecap:butt;stroke-linejoin:miter;stroke-miterlimit:10;stroke-dasharray:none;stroke-opacity:1"
             id="path72" /></g></g><path
         d="m 1979.88,1439.95 v 1342.07 c -581.42,0 -1096.72,-374.38 -1276.388,-927.34"
         style="fill:#e0e0e0;fill-opacity:1;fill-rule:nonzero;stroke:none"
         id="path74" /><g
         id="g76"><g
           id="g78"
           clip-path="url(#clipPath82)"><path
             d="m 1979.88,1439.95 v 1342.07 c -581.42,0 -1096.72,-374.38 -1276.388,-927.34 z"
             style="fill:none;stroke:#dcdcdc;stroke-width:2.4;stroke-linecap:butt;stroke-linejoin:miter;stroke-miterlimit:10;stroke-dasharray:none;stroke-opacity:1"
             id="path84" /></g></g><g
         id="g86"
         transform="scale(10)"><text
           transform="matrix(1,0,0,-1,294.213,158.4)"
           style="font-variant:normal;font-weight:normal;font-size:11.0014px;font-family:Helvetica;-inkscape-font-specification:Helvetica;writing-mode:lr-tb;fill:#000000;fill-opacity:1;fill-rule:nonzero;stroke:none"
           id="text100"><tspan
             x="0 6.1167784 12.233557 15.291946 21.408724 27.525503"
             y="0"
             sodipodi:role="line"
             id="tspan88">44.99%</tspan><tspan
             x="-147.127 -141.01022 -134.89345 -131.83505 -125.71828 -119.60149"
             y="129.99899"
             sodipodi:role="line"
             id="tspan90">18.98%</tspan><tspan
             x="-218.1098 -211.99303 -208.93463 -202.81786 -196.70108 -190.5843"
             y="71.824402"
             sodipodi:role="line"
             id="tspan92">6.843%</tspan><tspan
             x="-230.55901 -224.44221 -221.38383 -215.26706 -209.15027 -203.03349"
             y="30.2197"
             sodipodi:role="line"
             id="tspan94">5.111%</tspan><tspan
             x="-229.18556 -223.06879 -220.01039 -213.89362 -207.77684 -201.66006"
             y="-3.2298999"
             sodipodi:role="line"
             id="tspan96">4.082%</tspan><tspan
             x="-175.60396 -169.48718 -163.37041 -175.60396 -169.48718 -163.37041"
             y="-75.834198"
             sodipodi:role="line"
             id="tspan98">20%20%</tspan></text></g></g></g></svg>
