<?xml version="1.0" encoding="UTF-8" standalone="no"?>
<svg
   xmlns:dc="http://purl.org/dc/elements/1.1/"
   xmlns:cc="http://creativecommons.org/ns#"
   xmlns:rdf="http://www.w3.org/1999/02/22-rdf-syntax-ns#"
   xmlns:svg="http://www.w3.org/2000/svg"
   xmlns="http://www.w3.org/2000/svg"
   viewBox="0 0 528 384"
   height="384"
   width="528"
   xml:space="preserve"
   id="svg2"
   version="1.1"><metadata
     id="metadata8"><rdf:RDF><cc:Work
         rdf:about=""><dc:format>image/svg+xml</dc:format><dc:type
           rdf:resource="http://purl.org/dc/dcmitype/StillImage" /></cc:Work></rdf:RDF></metadata><defs
     id="defs6" /><g
     transform="matrix(1.3333333,0,0,-1.3333333,0,384)"
     id="g10"><g
       transform="scale(0.1)"
       id="g12"><path
         id="path14"
         style="fill:#eaf2f3;fill-opacity:1;fill-rule:nonzero;stroke:none"
         d="M 0,0 H 3960 V 2880 H 0 Z" /><path
         id="path16"
         style="fill:#ff8319;fill-opacity:1;fill-rule:nonzero;stroke:none"
         d="M 1979.88,1439.95 3079.23,670.176 c 157.98,225.605 242.72,494.364 242.72,769.774 0,741.21 -600.87,1342.07 -1342.07,1342.07" /><path
         id="path18"
         style="fill:none;stroke:#ff7500;stroke-width:1.20000005;stroke-linecap:butt;stroke-linejoin:miter;stroke-miterlimit:10;stroke-dasharray:none;stroke-opacity:1"
         d="M 1979.88,1439.95 3079.23,670.176 c 157.98,225.605 242.72,494.364 242.72,769.774 0,741.21 -600.87,1342.07 -1342.07,1342.07 z" /><path
         id="path20"
         style="fill:#ffdc1c;fill-opacity:1;fill-rule:nonzero;stroke:none"
         d="M 1979.88,1439.95 854.324,709.012 C 1101.84,327.875 1525.42,97.8867 1979.88,97.8867 c 437.86,0 848.21,213.6093 1099.35,572.2893" /><path
         id="path22"
         style="fill:none;stroke:#ffd803;stroke-width:1.20000005;stroke-linecap:butt;stroke-linejoin:miter;stroke-miterlimit:10;stroke-dasharray:none;stroke-opacity:1"
         d="M 1979.88,1439.95 854.324,709.012 C 1101.84,327.875 1525.42,97.8867 1979.88,97.8867 c 437.86,0 848.21,213.6093 1099.35,572.2893 z" /><path
         id="path24"
         style="fill:#b66751;fill-opacity:1;fill-rule:nonzero;stroke:none"
         d="M 1979.88,1439.95 650.867,1253.18 C 678.141,1059.11 747.59,873.367 854.324,709.012" /><path
         id="path26"
         style="fill:none;stroke:#ae563e;stroke-width:1.20000005;stroke-linecap:butt;stroke-linejoin:miter;stroke-miterlimit:10;stroke-dasharray:none;stroke-opacity:1"
         d="M 1979.88,1439.95 650.867,1253.18 C 678.141,1059.11 747.59,873.367 854.324,709.012 Z" /><path
         id="path28"
         style="fill:#9820c8;fill-opacity:1;fill-rule:nonzero;stroke:none"
         d="M 1979.88,1439.95 662.465,1696.04 c -16.399,-84.38 -24.656,-170.14 -24.656,-256.09 0,-62.48 4.367,-124.9 13.058,-186.77" /><path
         id="path30"
         style="fill:none;stroke:#8c07c2;stroke-width:1.20000005;stroke-linecap:butt;stroke-linejoin:miter;stroke-miterlimit:10;stroke-dasharray:none;stroke-opacity:1"
         d="M 1979.88,1439.95 662.465,1696.04 c -16.399,-84.38 -24.656,-170.14 -24.656,-256.09 0,-62.48 4.367,-124.9 13.058,-186.77 z" /><path
         id="path32"
         style="fill:#a9e942;fill-opacity:1;fill-rule:nonzero;stroke:none"
         d="M 1979.88,1439.95 784.086,2049.24 c -56.809,-111.49 -97.75,-230.38 -121.621,-353.2" /><path
         id="path34"
         style="fill:none;stroke:#9fe72d;stroke-width:1.20000005;stroke-linecap:butt;stroke-linejoin:miter;stroke-miterlimit:10;stroke-dasharray:none;stroke-opacity:1"
         d="M 1979.88,1439.95 784.086,2049.24 c -56.809,-111.49 -97.75,-230.38 -121.621,-353.2 z" /><path
         id="path36"
         style="fill:#e0e0e0;fill-opacity:1;fill-rule:nonzero;stroke:none"
         d="m 1979.88,1439.95 v 1342.07 c -504.67,0 -966.68,-283.12 -1195.794,-732.78" /><path
         id="path38"
         style="fill:none;stroke:#dcdcdc;stroke-width:1.20000005;stroke-linecap:butt;stroke-linejoin:miter;stroke-miterlimit:10;stroke-dasharray:none;stroke-opacity:1"
         d="m 1979.88,1439.95 v 1342.07 c -504.67,0 -966.68,-283.12 -1195.794,-732.78 z" /><g
         transform="scale(10)"
         id="g40"><text
           id="text54"
           style="font-variant:normal;font-weight:normal;font-size:11.00139999px;font-family:Helvetica;-inkscape-font-specification:Helvetica;writing-mode:lr-tb;fill:#000000;fill-opacity:1;fill-rule:nonzero;stroke:none"
           transform="matrix(1,0,0,-1,282.444,193.978)"><tspan
             id="tspan42"
             y="0"
             x="0 6.1167784 12.233557 15.291946 21.408724 27.525503">34.68%</tspan><tspan
             id="tspan44"
             y="170.132"
             x="-104.717 -98.60022 -92.483444 -89.425056 -83.308273 -77.191498">31.07%</tspan><tspan
             id="tspan46"
             y="94.941399"
             x="-211.897 -205.78023 -202.72183 -196.60506 -190.48828 -184.37149">6.986%</tspan><tspan
             id="tspan48"
             y="50.935902"
             x="-219.37122 -213.25444 -210.19604 -204.07927 -197.96249 -191.84572">5.308%</tspan><tspan
             id="tspan50"
             y="16.2363"
             x="-213.17162 -207.05482 -203.99644 -197.87967 -191.76288 -185.6461">4.374%</tspan><tspan
             id="tspan52"
             y="-45.193001"
             x="-164.10442 -157.98763 -151.87085 -148.81247 -142.69568 -136.5789 -164.10442 -157.98763 -151.87085 -148.81247 -142.69568 -136.5789">17.58%17.58%</tspan></text>
</g></g></g></svg>