<?xml version="1.0" encoding="UTF-8" standalone="no"?>
<svg
   xmlns:dc="http://purl.org/dc/elements/1.1/"
   xmlns:cc="http://creativecommons.org/ns#"
   xmlns:rdf="http://www.w3.org/1999/02/22-rdf-syntax-ns#"
   xmlns:svg="http://www.w3.org/2000/svg"
   xmlns="http://www.w3.org/2000/svg"
   viewBox="0 0 528 384"
   height="384"
   width="528"
   xml:space="preserve"
   id="svg2"
   version="1.1"><metadata
     id="metadata8"><rdf:RDF><cc:Work
         rdf:about=""><dc:format>image/svg+xml</dc:format><dc:type
           rdf:resource="http://purl.org/dc/dcmitype/StillImage" /></cc:Work></rdf:RDF></metadata><defs
     id="defs6" /><g
     transform="matrix(1.3333333,0,0,-1.3333333,0,384)"
     id="g10"><g
       transform="scale(0.1)"
       id="g12"><path
         id="path14"
         style="fill:#eaf2f3;fill-opacity:1;fill-rule:nonzero;stroke:none"
         d="M 0,0 H 3960 V 2880 H 0 Z" /><path
         id="path16"
         style="fill:#ffdc1c;fill-opacity:1;fill-rule:nonzero;stroke:none"
         d="M 1979.88,1439.95 3305.42,1649.9 C 3202.15,2301.93 2640.03,2782.02 1979.88,2782.02" /><path
         id="path18"
         style="fill:none;stroke:#ffd803;stroke-width:1.20000005;stroke-linecap:butt;stroke-linejoin:miter;stroke-miterlimit:10;stroke-dasharray:none;stroke-opacity:1"
         d="M 1979.88,1439.95 3305.42,1649.9 C 3202.15,2301.93 2640.03,2782.02 1979.88,2782.02 Z" /><path
         id="path20"
         style="fill:#ff8319;fill-opacity:1;fill-rule:nonzero;stroke:none"
         d="M 1979.88,1439.95 2650.91,277.688 c 415.23,239.734 671.04,682.792 671.04,1162.262 0,70.31 -5.53,140.51 -16.53,209.95" /><path
         id="path22"
         style="fill:none;stroke:#ff7500;stroke-width:1.20000005;stroke-linecap:butt;stroke-linejoin:miter;stroke-miterlimit:10;stroke-dasharray:none;stroke-opacity:1"
         d="M 1979.88,1439.95 2650.91,277.688 c 415.23,239.734 671.04,682.792 671.04,1162.262 0,70.31 -5.53,140.51 -16.53,209.95 z" /><path
         id="path24"
         style="fill:#a9e942;fill-opacity:1;fill-rule:nonzero;stroke:none"
         d="M 1979.88,1439.95 1746.83,118.273 c 76.94,-13.562 154.92,-20.3863 233.05,-20.3863 235.58,0 467.01,62.0113 671.03,179.8013" /><path
         id="path26"
         style="fill:none;stroke:#9fe72d;stroke-width:1.20000005;stroke-linecap:butt;stroke-linejoin:miter;stroke-miterlimit:10;stroke-dasharray:none;stroke-opacity:1"
         d="M 1979.88,1439.95 1746.83,118.273 c 76.94,-13.562 154.92,-20.3863 233.05,-20.3863 235.58,0 467.01,62.0113 671.03,179.8013 z" /><path
         id="path28"
         style="fill:#9820c8;fill-opacity:1;fill-rule:nonzero;stroke:none"
         d="M 1979.88,1439.95 1047.6,474.551 c 192.37,-185.774 435.86,-309.84 699.23,-356.278" /><path
         id="path30"
         style="fill:none;stroke:#8c07c2;stroke-width:1.20000005;stroke-linecap:butt;stroke-linejoin:miter;stroke-miterlimit:10;stroke-dasharray:none;stroke-opacity:1"
         d="M 1979.88,1439.95 1047.6,474.551 c 192.37,-185.774 435.86,-309.84 699.23,-356.278 z" /><path
         id="path32"
         style="fill:#b66751;fill-opacity:1;fill-rule:nonzero;stroke:none"
         d="M 1979.88,1439.95 735.531,937.207 C 805.984,762.828 912.309,605.199 1047.6,474.551" /><path
         id="path34"
         style="fill:none;stroke:#ae563e;stroke-width:1.20000005;stroke-linecap:butt;stroke-linejoin:miter;stroke-miterlimit:10;stroke-dasharray:none;stroke-opacity:1"
         d="M 1979.88,1439.95 735.531,937.207 C 805.984,762.828 912.309,605.199 1047.6,474.551 Z" /><path
         id="path36"
         style="fill:#e0e0e0;fill-opacity:1;fill-rule:nonzero;stroke:none"
         d="m 1979.88,1439.95 v 1342.07 c -741.21,0 -1342.071,-600.86 -1342.071,-1342.07 0,-172.3 33.179,-342.99 97.722,-502.743" /><path
         id="path38"
         style="fill:none;stroke:#dcdcdc;stroke-width:1.20000005;stroke-linecap:butt;stroke-linejoin:miter;stroke-miterlimit:10;stroke-dasharray:none;stroke-opacity:1"
         d="m 1979.88,1439.95 v 1342.07 c -741.21,0 -1342.071,-600.86 -1342.071,-1342.07 0,-172.3 33.179,-342.99 97.722,-502.743 z" /><g
         transform="scale(10)"
         id="g40"><text
           id="text54"
           style="font-variant:normal;font-weight:normal;font-size:11.00139999px;font-family:Helvetica;-inkscape-font-specification:Helvetica;writing-mode:lr-tb;fill:#000000;fill-opacity:1;fill-rule:nonzero;stroke:none"
           transform="matrix(1,0,0,-1,254.625,228.814)"><tspan
             id="tspan42"
             y="0"
             x="0 6.1167784 12.233557 15.291946 21.408724 27.525503">22.41%</tspan><tspan
             id="tspan44"
             y="138.884"
             x="32.683998 38.800777 44.917557 47.975945 54.092724">19.4%</tspan><tspan
             id="tspan46"
             y="203.2836"
             x="-55.551201 -49.434422 -43.317642 -40.259254 -34.142475 -28.025698">10.96%</tspan><tspan
             id="tspan48"
             y="192.3938"
             x="-124.8496 -118.73282 -115.67443 -109.55766 -103.44087">9.41%</tspan><tspan
             id="tspan50"
             y="154.093"
             x="-171.44299 -165.32622 -162.26784 -156.15105 -150.03427 -143.9175">6.627%</tspan><tspan
             id="tspan52"
             y="23.882999"
             x="-171.87621 -165.75943 -159.64264 -156.58426 -150.46748 -144.35069 -171.87621 -165.75943 -159.64264 -156.58426 -150.46748 -144.35069">31.19%31.19%</tspan></text>
</g></g></g></svg>