<?xml version="1.0" encoding="UTF-8" standalone="no"?>
<svg
   xmlns:dc="http://purl.org/dc/elements/1.1/"
   xmlns:cc="http://creativecommons.org/ns#"
   xmlns:rdf="http://www.w3.org/1999/02/22-rdf-syntax-ns#"
   xmlns:svg="http://www.w3.org/2000/svg"
   xmlns="http://www.w3.org/2000/svg"
   viewBox="0 0 528 384"
   height="384"
   width="528"
   xml:space="preserve"
   id="svg2"
   version="1.1"><metadata
     id="metadata8"><rdf:RDF><cc:Work
         rdf:about=""><dc:format>image/svg+xml</dc:format><dc:type
           rdf:resource="http://purl.org/dc/dcmitype/StillImage" /></cc:Work></rdf:RDF></metadata><defs
     id="defs6" /><g
     transform="matrix(1.3333333,0,0,-1.3333333,0,384)"
     id="g10"><g
       transform="scale(0.1)"
       id="g12"><path
         id="path14"
         style="fill:#eaf2f3;fill-opacity:1;fill-rule:nonzero;stroke:none"
         d="M 0,0 H 3960 V 2880 H 0 Z" /><path
         id="path16"
         style="fill:#349bff;fill-opacity:1;fill-rule:nonzero;stroke:none"
         d="m 1979.88,1439.95 898.01,997.35 c -246.46,221.92 -566.37,344.72 -898.01,344.72" /><path
         id="path18"
         style="fill:none;stroke:#1e90ff;stroke-width:1.20000005;stroke-linecap:butt;stroke-linejoin:miter;stroke-miterlimit:10;stroke-dasharray:none;stroke-opacity:1"
         d="m 1979.88,1439.95 898.01,997.35 c -246.46,221.92 -566.37,344.72 -898.01,344.72 z" /><path
         id="path20"
         style="fill:#ff77c3;fill-opacity:1;fill-rule:nonzero;stroke:none"
         d="m 1979.88,1439.95 1332.06,163.56 c -39.43,321.17 -193.58,617.28 -434.05,833.79" /><path
         id="path22"
         style="fill:none;stroke:#ff68bc;stroke-width:1.20000005;stroke-linecap:butt;stroke-linejoin:miter;stroke-miterlimit:10;stroke-dasharray:none;stroke-opacity:1"
         d="m 1979.88,1439.95 1332.06,163.56 c -39.43,321.17 -193.58,617.28 -434.05,833.79 z" /><path
         id="path24"
         style="fill:#ffdc1c;fill-opacity:1;fill-rule:nonzero;stroke:none"
         d="M 1979.88,1439.95 3142.14,768.922 c 117.79,204.016 179.81,435.458 179.81,671.028 0,54.68 -3.35,109.3 -10.01,163.56" /><path
         id="path26"
         style="fill:none;stroke:#ffd803;stroke-width:1.20000005;stroke-linecap:butt;stroke-linejoin:miter;stroke-miterlimit:10;stroke-dasharray:none;stroke-opacity:1"
         d="M 1979.88,1439.95 3142.14,768.922 c 117.79,204.016 179.81,435.458 179.81,671.028 0,54.68 -3.35,109.3 -10.01,163.56 z" /><path
         id="path28"
         style="fill:#48b07d;fill-opacity:1;fill-rule:nonzero;stroke:none"
         d="M 1979.88,1439.95 2730.35,327.328 c 169.03,114.008 309.85,265.031 411.79,441.594" /><path
         id="path30"
         style="fill:none;stroke:#34a76e;stroke-width:1.20000005;stroke-linecap:butt;stroke-linejoin:miter;stroke-miterlimit:10;stroke-dasharray:none;stroke-opacity:1"
         d="M 1979.88,1439.95 2730.35,327.328 c 169.03,114.008 309.85,265.031 411.79,441.594 z" /><path
         id="path32"
         style="fill:#598fbc;fill-opacity:1;fill-rule:nonzero;stroke:none"
         d="m 1979.88,1439.95 324.67,-1302.2 c 151.9,37.871 296.01,102.035 425.8,189.578" /><path
         id="path34"
         style="fill:none;stroke:#4682b4;stroke-width:1.20000005;stroke-linecap:butt;stroke-linejoin:miter;stroke-miterlimit:10;stroke-dasharray:none;stroke-opacity:1"
         d="m 1979.88,1439.95 324.67,-1302.2 c 151.9,37.871 296.01,102.035 425.8,189.578 z" /><path
         id="path36"
         style="fill:#f4af65;fill-opacity:1;fill-rule:nonzero;stroke:none"
         d="M 1979.88,1439.95 1909.64,99.7266 c 23.39,-1.2227 46.81,-1.8399 70.24,-1.8399 109.44,0 218.48,13.3903 324.67,39.8633" /><path
         id="path38"
         style="fill:none;stroke:#f3a654;stroke-width:1.20000005;stroke-linecap:butt;stroke-linejoin:miter;stroke-miterlimit:10;stroke-dasharray:none;stroke-opacity:1"
         d="M 1979.88,1439.95 1909.64,99.7266 c 23.39,-1.2227 46.81,-1.8399 70.24,-1.8399 109.44,0 218.48,13.3903 324.67,39.8633 z" /><path
         id="path40"
         style="fill:#e02b54;fill-opacity:1;fill-rule:nonzero;stroke:none"
         d="M 1979.88,1439.95 1655.2,137.75 c 83.4,-20.793 168.6,-33.527 254.44,-38.0234" /><path
         id="path42"
         style="fill:none;stroke:#dc1341;stroke-width:1.20000005;stroke-linecap:butt;stroke-linejoin:miter;stroke-miterlimit:10;stroke-dasharray:none;stroke-opacity:1"
         d="M 1979.88,1439.95 1655.2,137.75 c 83.4,-20.793 168.6,-33.527 254.44,-38.0234 z" /><path
         id="path44"
         style="fill:#ff8319;fill-opacity:1;fill-rule:nonzero;stroke:none"
         d="M 1979.88,1439.95 1391.55,233.711 c 84.29,-41.109 172.66,-73.273 263.65,-95.961" /><path
         id="path46"
         style="fill:none;stroke:#ff7500;stroke-width:1.20000005;stroke-linecap:butt;stroke-linejoin:miter;stroke-miterlimit:10;stroke-dasharray:none;stroke-opacity:1"
         d="M 1979.88,1439.95 1391.55,233.711 c 84.29,-41.109 172.66,-73.273 263.65,-95.961 z" /><path
         id="path48"
         style="fill:#b5dde7;fill-opacity:1;fill-rule:nonzero;stroke:none"
         d="M 1979.88,1439.95 1172.2,368.133 c 68.64,-51.727 142.1,-96.746 219.35,-134.422" /><path
         id="path50"
         style="fill:none;stroke:#add9e4;stroke-width:1.20000005;stroke-linecap:butt;stroke-linejoin:miter;stroke-miterlimit:10;stroke-dasharray:none;stroke-opacity:1"
         d="M 1979.88,1439.95 1172.2,368.133 c 68.64,-51.727 142.1,-96.746 219.35,-134.422 z" /><path
         id="path52"
         style="fill:#e0e0e0;fill-opacity:1;fill-rule:nonzero;stroke:none"
         d="m 1979.88,1439.95 v 1342.07 c -741.21,0 -1342.071,-600.86 -1342.071,-1342.07 0,-421.35 197.886,-818.243 534.391,-1071.817" /><path
         id="path54"
         style="fill:none;stroke:#dcdcdc;stroke-width:1.20000005;stroke-linecap:butt;stroke-linejoin:miter;stroke-miterlimit:10;stroke-dasharray:none;stroke-opacity:1"
         d="m 1979.88,1439.95 v 1342.07 c -741.21,0 -1342.071,-600.86 -1342.071,-1342.07 0,-421.35 197.886,-818.243 534.391,-1071.817 z" /><g
         transform="scale(10)"
         id="g56"><text
           id="text78"
           style="font-variant:normal;font-weight:normal;font-size:11.00139999px;font-family:Helvetica;-inkscape-font-specification:Helvetica;writing-mode:lr-tb;fill:#000000;fill-opacity:1;fill-rule:nonzero;stroke:none"
           transform="matrix(1,0,0,-1,220.73,248.836)"><tspan
             id="tspan58"
             y="0"
             x="0 6.1167784 12.233557 15.291946 21.408724 27.525503">11.58%</tspan><tspan
             id="tspan60"
             y="54.969501"
             x="61.776199 67.892975 74.009758 77.068146 83.184921 89.301704">11.55%</tspan><tspan
             id="tspan62"
             y="132.2886"
             x="72.505096 78.62188 84.738655 87.797043 93.913826 100.0306">10.23%</tspan><tspan
             id="tspan64"
             y="187.7534"
             x="43.9188 50.03558 53.093967 59.210747 65.327522 71.444305">7.059%</tspan><tspan
             id="tspan66"
             y="214.7925"
             x="6.2493 12.366078 15.424468 21.541246 27.658024 33.774803">5.718%</tspan><tspan
             id="tspan68"
             y="224.45734"
             x="-30.2073 -24.090521 -21.032133 -14.915354 -8.7985754 -2.6817973">4.652%</tspan><tspan
             id="tspan70"
             y="223.70265"
             x="-58.694401 -52.577621 -49.519234 -43.402454 -37.285675 -31.168898">3.164%</tspan><tspan
             id="tspan72"
             y="218.03468"
             x="-81.018997 -74.902222 -71.843834 -65.727051 -59.610275 -53.493496">3.152%</tspan><tspan
             id="tspan74"
             y="208.12257"
             x="-101.7225 -95.605721 -92.547333 -86.430557 -80.313774 -74.196999">3.138%</tspan><tspan
             id="tspan76"
             y="71.886574"
             x="-151.71741 -145.60062 -139.48384 -136.42546 -130.30867 -124.19189">39.75%</tspan></text>
</g></g></g></svg>