<?xml version="1.0" encoding="UTF-8" standalone="no"?>
<svg
   xmlns:dc="http://purl.org/dc/elements/1.1/"
   xmlns:cc="http://creativecommons.org/ns#"
   xmlns:rdf="http://www.w3.org/1999/02/22-rdf-syntax-ns#"
   xmlns:svg="http://www.w3.org/2000/svg"
   xmlns="http://www.w3.org/2000/svg"
   viewBox="0 0 528 384"
   height="384"
   width="528"
   xml:space="preserve"
   id="svg2"
   version="1.1"><metadata
     id="metadata8"><rdf:RDF><cc:Work
         rdf:about=""><dc:format>image/svg+xml</dc:format><dc:type
           rdf:resource="http://purl.org/dc/dcmitype/StillImage" /></cc:Work></rdf:RDF></metadata><defs
     id="defs6" /><g
     transform="matrix(1.3333333,0,0,-1.3333333,0,384)"
     id="g10"><g
       transform="scale(0.1)"
       id="g12"><path
         id="path14"
         style="fill:#eaf2f3;fill-opacity:1;fill-rule:nonzero;stroke:none"
         d="M 0,0 H 3960 V 2880 H 0 Z" /><path
         id="path16"
         style="fill:#ff77c3;fill-opacity:1;fill-rule:nonzero;stroke:none"
         d="m 1979.88,1439.95 1125.55,730.95 c -247.51,381.14 -671.1,611.12 -1125.55,611.12" /><path
         id="path18"
         style="fill:none;stroke:#ff68bc;stroke-width:1.20000005;stroke-linecap:butt;stroke-linejoin:miter;stroke-miterlimit:10;stroke-dasharray:none;stroke-opacity:1"
         d="m 1979.88,1439.95 1125.55,730.95 c -247.51,381.14 -671.1,611.12 -1125.55,611.12 z" /><path
         id="path20"
         style="fill:#349bff;fill-opacity:1;fill-rule:nonzero;stroke:none"
         d="M 1979.88,1439.95 3311.94,1276.4 c 6.66,54.26 10.01,108.89 10.01,163.55 0,259.46 -75.21,513.35 -216.52,730.95" /><path
         id="path22"
         style="fill:none;stroke:#1e90ff;stroke-width:1.20000005;stroke-linecap:butt;stroke-linejoin:miter;stroke-miterlimit:10;stroke-dasharray:none;stroke-opacity:1"
         d="M 1979.88,1439.95 3311.94,1276.4 c 6.66,54.26 10.01,108.89 10.01,163.55 0,259.46 -75.21,513.35 -216.52,730.95 z" /><path
         id="path24"
         style="fill:#ffdc1c;fill-opacity:1;fill-rule:nonzero;stroke:none"
         d="m 1979.88,1439.95 965.4,-932.274 c 202.44,209.633 331.15,479.469 366.66,768.724" /><path
         id="path26"
         style="fill:none;stroke:#ffd803;stroke-width:1.20000005;stroke-linecap:butt;stroke-linejoin:miter;stroke-miterlimit:10;stroke-dasharray:none;stroke-opacity:1"
         d="m 1979.88,1439.95 965.4,-932.274 c 202.44,209.633 331.15,479.469 366.66,768.724 z" /><path
         id="path28"
         style="fill:#ff8319;fill-opacity:1;fill-rule:nonzero;stroke:none"
         d="M 1979.88,1439.95 2372.26,156.527 c 217.69,66.555 414.89,187.395 573.02,351.149" /><path
         id="path30"
         style="fill:none;stroke:#ff7500;stroke-width:1.20000005;stroke-linecap:butt;stroke-linejoin:miter;stroke-miterlimit:10;stroke-dasharray:none;stroke-opacity:1"
         d="M 1979.88,1439.95 2372.26,156.527 c 217.69,66.555 414.89,187.395 573.02,351.149 z" /><path
         id="path32"
         style="fill:#598fbc;fill-opacity:1;fill-rule:nonzero;stroke:none"
         d="M 1979.88,1439.95 1839.59,105.238 c 46.6,-4.894 93.43,-7.3513 140.29,-7.3513 132.97,0 265.21,19.7653 392.38,58.6403" /><path
         id="path34"
         style="fill:none;stroke:#4682b4;stroke-width:1.20000005;stroke-linecap:butt;stroke-linejoin:miter;stroke-miterlimit:10;stroke-dasharray:none;stroke-opacity:1"
         d="M 1979.88,1439.95 1839.59,105.238 c 46.6,-4.894 93.43,-7.3513 140.29,-7.3513 132.97,0 265.21,19.7653 392.38,58.6403 z" /><path
         id="path36"
         style="fill:#9f1922;fill-opacity:1;fill-rule:nonzero;stroke:none"
         d="M 1979.88,1439.95 1412.7,223.629 c 134.75,-62.836 279.02,-102.848 426.89,-118.391" /><path
         id="path38"
         style="fill:none;stroke:#940009;stroke-width:1.20000005;stroke-linecap:butt;stroke-linejoin:miter;stroke-miterlimit:10;stroke-dasharray:none;stroke-opacity:1"
         d="M 1979.88,1439.95 1412.7,223.629 c 134.75,-62.836 279.02,-102.848 426.89,-118.391 z" /><path
         id="path40"
         style="fill:#f4af65;fill-opacity:1;fill-rule:nonzero;stroke:none"
         d="M 1979.88,1439.95 1099.4,427.082 c 94.43,-82.09 199.89,-150.574 313.3,-203.453" /><path
         id="path42"
         style="fill:none;stroke:#f3a654;stroke-width:1.20000005;stroke-linecap:butt;stroke-linejoin:miter;stroke-miterlimit:10;stroke-dasharray:none;stroke-opacity:1"
         d="M 1979.88,1439.95 1099.4,427.082 c 94.43,-82.09 199.89,-150.574 313.3,-203.453 z" /><path
         id="path44"
         style="fill:#9820c8;fill-opacity:1;fill-rule:nonzero;stroke:none"
         d="M 1979.88,1439.95 880.52,670.176 C 943.293,580.523 1016.8,498.883 1099.4,427.082" /><path
         id="path46"
         style="fill:none;stroke:#8c07c2;stroke-width:1.20000005;stroke-linecap:butt;stroke-linejoin:miter;stroke-miterlimit:10;stroke-dasharray:none;stroke-opacity:1"
         d="M 1979.88,1439.95 880.52,670.176 C 943.293,580.523 1016.8,498.883 1099.4,427.082 Z" /><path
         id="path48"
         style="fill:#d9c5d7;fill-opacity:1;fill-rule:nonzero;stroke:none"
         d="M 1979.88,1439.95 744.496,915.566 C 781.137,829.242 826.73,746.992 880.52,670.176" /><path
         id="path50"
         style="fill:none;stroke:#d5bed2;stroke-width:1.20000005;stroke-linecap:butt;stroke-linejoin:miter;stroke-miterlimit:10;stroke-dasharray:none;stroke-opacity:1"
         d="M 1979.88,1439.95 744.496,915.566 C 781.137,829.242 826.73,746.992 880.52,670.176 Z" /><path
         id="path52"
         style="fill:#ffffaf;fill-opacity:1;fill-rule:nonzero;stroke:none"
         d="M 1979.88,1439.95 662.465,1183.88 c 17.89,-92.06 45.39,-181.99 82.031,-268.314" /><path
         id="path54"
         style="fill:none;stroke:#ffffa6;stroke-width:1.20000005;stroke-linecap:butt;stroke-linejoin:miter;stroke-miterlimit:10;stroke-dasharray:none;stroke-opacity:1"
         d="M 1979.88,1439.95 662.465,1183.88 c 17.89,-92.06 45.39,-181.99 82.031,-268.314 z" /><path
         id="path56"
         style="fill:#e0e0e0;fill-opacity:1;fill-rule:nonzero;stroke:none"
         d="m 1979.88,1439.95 v 1342.07 c -741.21,0 -1342.071,-600.86 -1342.071,-1342.07 0,-85.95 8.257,-171.7 24.656,-256.07" /><path
         id="path58"
         style="fill:none;stroke:#dcdcdc;stroke-width:1.20000005;stroke-linecap:butt;stroke-linejoin:miter;stroke-miterlimit:10;stroke-dasharray:none;stroke-opacity:1"
         d="m 1979.88,1439.95 v 1342.07 c -741.21,0 -1342.071,-600.86 -1342.071,-1342.07 0,-85.95 8.257,-171.7 24.656,-256.07 z" /><g
         transform="scale(10)"
         id="g60"><text
           id="text84"
           style="font-variant:normal;font-weight:normal;font-size:11.00139999px;font-family:Helvetica;-inkscape-font-specification:Helvetica;writing-mode:lr-tb;fill:#000000;fill-opacity:1;fill-rule:nonzero;stroke:none"
           transform="matrix(1,0,0,-1,235.159,242.191)"><tspan
             id="tspan62"
             y="0"
             x="0 6.1167784 12.233557 15.291946 21.408724 27.525503">15.93%</tspan><tspan
             id="tspan64"
             y="76.279297"
             x="57.605499 63.722279 69.839058 72.897446 79.014221 85.131004">11.02%</tspan><tspan
             id="tspan66"
             y="152.05161"
             x="49.190659 55.307438 61.424217 64.482605 70.599388 76.716164">10.23%</tspan><tspan
             id="tspan68"
             y="201.22971"
             x="4.9375601 11.054338 14.112727 20.229506 26.346285 32.463062">8.125%</tspan><tspan
             id="tspan70"
             y="217.8121"
             x="-44.66124 -38.54446 -35.486073 -29.369293 -23.252516 -17.135736">6.314%</tspan><tspan
             id="tspan72"
             y="214.08749"
             x="-87.033539 -80.916763 -77.858376 -71.741592 -65.624817 -59.508038 -87.033539 -80.916763 -77.858376 -71.741592 -65.624817 -59.508038">5.391%5.391%</tspan><tspan
             id="tspan74"
             y="199.53439"
             x="-119.25774 -113.14096 -110.08257 -103.9658 -97.849014 -91.732239">4.323%</tspan><tspan
             id="tspan76"
             y="180.0192"
             x="-142.11433 -135.99756 -132.93918 -126.8224 -120.70561 -114.58884">3.924%</tspan><tspan
             id="tspan78"
             y="158.23909"
             x="-157.64523 -151.52846 -148.47008 -142.35329 -136.23651 -130.11974">3.415%</tspan><tspan
             id="tspan80"
             y="135.34529"
             x="-167.26047 -161.14369 -158.0853 -151.96852 -145.85175 -139.73497">3.393%</tspan><tspan
             id="tspan82"
             y="27.69529"
             x="-145.25777 -139.14099 -133.02422 -129.96582 -123.84904 -117.73227">27.93%</tspan></text>
</g></g></g></svg>