<?xml version="1.0" encoding="UTF-8" standalone="no"?>
<!-- Created with Inkscape (http://www.inkscape.org/) -->

<svg
   version="1.1"
   id="svg2"
   xml:space="preserve"
   width="528"
   height="384"
   viewBox="0 0 528 384"
   sodipodi:docname="temp.eps"
   xmlns:inkscape="http://www.inkscape.org/namespaces/inkscape"
   xmlns:sodipodi="http://sodipodi.sourceforge.net/DTD/sodipodi-0.dtd"
   xmlns="http://www.w3.org/2000/svg"
   xmlns:svg="http://www.w3.org/2000/svg"><defs
     id="defs6"><clipPath
       clipPathUnits="userSpaceOnUse"
       id="clipPath22"><path
         d="m 1979.88,1439.95 1235.38,524.39 c -210.43,495.75 -696.83,817.68 -1235.38,817.68 z"
         id="path20" /></clipPath><clipPath
       clipPathUnits="userSpaceOnUse"
       id="clipPath34"><path
         d="m 1979.88,1439.95 1317.41,-256.07 c 16.4,84.37 24.66,170.12 24.66,256.07 0,180.19 -36.29,358.53 -106.69,524.39 z"
         id="path32" /></clipPath><clipPath
       clipPathUnits="userSpaceOnUse"
       id="clipPath46"><path
         d="M 1979.88,1439.95 3022.86,595.363 c 138.27,170.75 232.51,372.84 274.43,588.517 z"
         id="path44" /></clipPath><clipPath
       clipPathUnits="userSpaceOnUse"
       id="clipPath58"><path
         d="M 1979.88,1439.95 2589.16,244.164 c 167.58,85.383 315.34,205.039 433.7,351.199 z"
         id="path56" /></clipPath><clipPath
       clipPathUnits="userSpaceOnUse"
       id="clipPath70"><path
         d="M 1979.88,1439.95 2026.71,98.7031 c 195.86,6.8359 387.84,56.4919 562.45,145.4609 z"
         id="path68" /></clipPath><clipPath
       clipPathUnits="userSpaceOnUse"
       id="clipPath82"><path
         d="M 1979.88,1439.95 1632.52,143.617 c 113.29,-30.355 230.07,-45.7303 347.36,-45.7303 15.61,0 31.23,0.2735 46.83,0.8164 z"
         id="path80" /></clipPath><clipPath
       clipPathUnits="userSpaceOnUse"
       id="clipPath94"><path
         d="M 1979.88,1439.95 1268.69,301.816 c 112.77,-70.464 235.39,-123.785 363.83,-158.199 z"
         id="path92" /></clipPath><clipPath
       clipPathUnits="userSpaceOnUse"
       id="clipPath106"><path
         d="M 1979.88,1439.95 1014.47,507.676 c 76.03,-78.727 161.41,-147.863 254.22,-205.86 z"
         id="path104" /></clipPath><clipPath
       clipPathUnits="userSpaceOnUse"
       id="clipPath118"><path
         d="M 1979.88,1439.95 829.5,748.738 c 52.332,-87.097 114.391,-167.972 184.97,-241.062 z"
         id="path116" /></clipPath><clipPath
       clipPathUnits="userSpaceOnUse"
       id="clipPath130"><path
         d="M 1979.88,1439.95 718.746,980.941 C 748.141,900.176 785.23,822.414 829.5,748.738 Z"
         id="path128" /></clipPath><clipPath
       clipPathUnits="userSpaceOnUse"
       id="clipPath142"><path
         d="m 1979.88,1439.95 v 1342.07 c -741.21,0 -1342.071,-600.86 -1342.071,-1342.07 0,-156.55 27.394,-311.9 80.937,-459.009 z"
         id="path140" /></clipPath></defs><sodipodi:namedview
     id="namedview4"
     pagecolor="#ffffff"
     bordercolor="#666666"
     borderopacity="1.0"
     inkscape:pageshadow="2"
     inkscape:pageopacity="0.0"
     inkscape:pagecheckerboard="0" /><g
     id="g8"
     inkscape:groupmode="layer"
     inkscape:label="ink_ext_XXXXXX"
     transform="matrix(1.3333333,0,0,-1.3333333,0,384)"><g
       id="g10"
       transform="scale(0.1)"><path
         d="M 0,0 H 3960 V 2880 H 0 Z"
         style="fill:#eaf2f3;fill-opacity:1;fill-rule:nonzero;stroke:none"
         id="path12" /><path
         d="m 1979.88,1439.95 1235.38,524.39 c -210.43,495.75 -696.83,817.68 -1235.38,817.68"
         style="fill:#349bff;fill-opacity:1;fill-rule:nonzero;stroke:none"
         id="path14" /><g
         id="g16"><g
           id="g18"
           clip-path="url(#clipPath22)"><path
             d="m 1979.88,1439.95 1235.38,524.39 c -210.43,495.75 -696.83,817.68 -1235.38,817.68 z"
             style="fill:none;stroke:#1e90ff;stroke-width:2.4;stroke-linecap:butt;stroke-linejoin:miter;stroke-miterlimit:10;stroke-dasharray:none;stroke-opacity:1"
             id="path24" /></g></g><path
         d="m 1979.88,1439.95 1317.41,-256.07 c 16.4,84.37 24.66,170.12 24.66,256.07 0,180.19 -36.29,358.53 -106.69,524.39"
         style="fill:#ffdc1c;fill-opacity:1;fill-rule:nonzero;stroke:none"
         id="path26" /><g
         id="g28"><g
           id="g30"
           clip-path="url(#clipPath34)"><path
             d="m 1979.88,1439.95 1317.41,-256.07 c 16.4,84.37 24.66,170.12 24.66,256.07 0,180.19 -36.29,358.53 -106.69,524.39 z"
             style="fill:none;stroke:#ffd803;stroke-width:2.4;stroke-linecap:butt;stroke-linejoin:miter;stroke-miterlimit:10;stroke-dasharray:none;stroke-opacity:1"
             id="path36" /></g></g><path
         d="M 1979.88,1439.95 3022.86,595.363 c 138.27,170.75 232.51,372.84 274.43,588.517"
         style="fill:#f4af65;fill-opacity:1;fill-rule:nonzero;stroke:none"
         id="path38" /><g
         id="g40"><g
           id="g42"
           clip-path="url(#clipPath46)"><path
             d="M 1979.88,1439.95 3022.86,595.363 c 138.27,170.75 232.51,372.84 274.43,588.517 z"
             style="fill:none;stroke:#f3a654;stroke-width:2.4;stroke-linecap:butt;stroke-linejoin:miter;stroke-miterlimit:10;stroke-dasharray:none;stroke-opacity:1"
             id="path48" /></g></g><path
         d="M 1979.88,1439.95 2589.16,244.164 c 167.58,85.383 315.34,205.039 433.7,351.199"
         style="fill:#ff77c3;fill-opacity:1;fill-rule:nonzero;stroke:none"
         id="path50" /><g
         id="g52"><g
           id="g54"
           clip-path="url(#clipPath58)"><path
             d="M 1979.88,1439.95 2589.16,244.164 c 167.58,85.383 315.34,205.039 433.7,351.199 z"
             style="fill:none;stroke:#ff68bc;stroke-width:2.4;stroke-linecap:butt;stroke-linejoin:miter;stroke-miterlimit:10;stroke-dasharray:none;stroke-opacity:1"
             id="path60" /></g></g><path
         d="M 1979.88,1439.95 2026.71,98.7031 c 195.86,6.8359 387.84,56.4919 562.45,145.4609"
         style="fill:#598fbc;fill-opacity:1;fill-rule:nonzero;stroke:none"
         id="path62" /><g
         id="g64"><g
           id="g66"
           clip-path="url(#clipPath70)"><path
             d="M 1979.88,1439.95 2026.71,98.7031 c 195.86,6.8359 387.84,56.4919 562.45,145.4609 z"
             style="fill:none;stroke:#4682b4;stroke-width:2.4;stroke-linecap:butt;stroke-linejoin:miter;stroke-miterlimit:10;stroke-dasharray:none;stroke-opacity:1"
             id="path72" /></g></g><path
         d="M 1979.88,1439.95 1632.52,143.617 c 113.29,-30.355 230.07,-45.7303 347.36,-45.7303 15.61,0 31.23,0.2735 46.83,0.8164"
         style="fill:#9f1922;fill-opacity:1;fill-rule:nonzero;stroke:none"
         id="path74" /><g
         id="g76"><g
           id="g78"
           clip-path="url(#clipPath82)"><path
             d="M 1979.88,1439.95 1632.52,143.617 c 113.29,-30.355 230.07,-45.7303 347.36,-45.7303 15.61,0 31.23,0.2735 46.83,0.8164 z"
             style="fill:none;stroke:#940009;stroke-width:2.4;stroke-linecap:butt;stroke-linejoin:miter;stroke-miterlimit:10;stroke-dasharray:none;stroke-opacity:1"
             id="path84" /></g></g><path
         d="M 1979.88,1439.95 1268.69,301.816 c 112.77,-70.464 235.39,-123.785 363.83,-158.199"
         style="fill:#e02b54;fill-opacity:1;fill-rule:nonzero;stroke:none"
         id="path86" /><g
         id="g88"><g
           id="g90"
           clip-path="url(#clipPath94)"><path
             d="M 1979.88,1439.95 1268.69,301.816 c 112.77,-70.464 235.39,-123.785 363.83,-158.199 z"
             style="fill:none;stroke:#dc1341;stroke-width:2.4;stroke-linecap:butt;stroke-linejoin:miter;stroke-miterlimit:10;stroke-dasharray:none;stroke-opacity:1"
             id="path96" /></g></g><path
         d="M 1979.88,1439.95 1014.47,507.676 c 76.03,-78.727 161.41,-147.863 254.22,-205.86"
         style="fill:#48b07d;fill-opacity:1;fill-rule:nonzero;stroke:none"
         id="path98" /><g
         id="g100"><g
           id="g102"
           clip-path="url(#clipPath106)"><path
             d="M 1979.88,1439.95 1014.47,507.676 c 76.03,-78.727 161.41,-147.863 254.22,-205.86 z"
             style="fill:none;stroke:#34a76e;stroke-width:2.4;stroke-linecap:butt;stroke-linejoin:miter;stroke-miterlimit:10;stroke-dasharray:none;stroke-opacity:1"
             id="path108" /></g></g><path
         d="M 1979.88,1439.95 829.5,748.738 c 52.332,-87.097 114.391,-167.972 184.97,-241.062"
         style="fill:#ff8319;fill-opacity:1;fill-rule:nonzero;stroke:none"
         id="path110" /><g
         id="g112"><g
           id="g114"
           clip-path="url(#clipPath118)"><path
             d="M 1979.88,1439.95 829.5,748.738 c 52.332,-87.097 114.391,-167.972 184.97,-241.062 z"
             style="fill:none;stroke:#ff7500;stroke-width:2.4;stroke-linecap:butt;stroke-linejoin:miter;stroke-miterlimit:10;stroke-dasharray:none;stroke-opacity:1"
             id="path120" /></g></g><path
         d="M 1979.88,1439.95 718.746,980.941 C 748.141,900.176 785.23,822.414 829.5,748.738"
         style="fill:#ffffaf;fill-opacity:1;fill-rule:nonzero;stroke:none"
         id="path122" /><g
         id="g124"><g
           id="g126"
           clip-path="url(#clipPath130)"><path
             d="M 1979.88,1439.95 718.746,980.941 C 748.141,900.176 785.23,822.414 829.5,748.738 Z"
             style="fill:none;stroke:#ffffa6;stroke-width:2.4;stroke-linecap:butt;stroke-linejoin:miter;stroke-miterlimit:10;stroke-dasharray:none;stroke-opacity:1"
             id="path132" /></g></g><path
         d="m 1979.88,1439.95 v 1342.07 c -741.21,0 -1342.071,-600.86 -1342.071,-1342.07 0,-156.55 27.394,-311.9 80.937,-459.009"
         style="fill:#e0e0e0;fill-opacity:1;fill-rule:nonzero;stroke:none"
         id="path134" /><g
         id="g136"><g
           id="g138"
           clip-path="url(#clipPath142)"><path
             d="m 1979.88,1439.95 v 1342.07 c -741.21,0 -1342.071,-600.86 -1342.071,-1342.07 0,-156.55 27.394,-311.9 80.937,-459.009 z"
             style="fill:none;stroke:#dcdcdc;stroke-width:2.4;stroke-linecap:butt;stroke-linejoin:miter;stroke-miterlimit:10;stroke-dasharray:none;stroke-opacity:1"
             id="path144" /></g></g><g
         id="g146"
         transform="scale(10)"><text
           transform="matrix(1,0,0,-1,243.698,237.031)"
           style="font-variant:normal;font-weight:normal;font-size:11.0014px;font-family:Helvetica;-inkscape-font-specification:Helvetica;writing-mode:lr-tb;fill:#000000;fill-opacity:1;fill-rule:nonzero;stroke:none"
           id="text170"><tspan
             x="0 6.1167784 12.233557 15.291946 21.408724 27.525503"
             y="0"
             sodipodi:role="line"
             id="tspan148">18.66%</tspan><tspan
             x="51.294498 57.411278 60.469669 66.586449 72.703224 78.82"
             y="84.5215"
             sodipodi:role="line"
             id="tspan150">9.283%</tspan><tspan
             x="41.382 47.498779 50.557167 56.673946 62.790726 68.907501"
             y="145.332"
             sodipodi:role="line"
             id="tspan152">7.784%</tspan><tspan
             x="8.8359003 14.952679 18.011068 24.127846 30.244625 36.361404"
             y="187.2832"
             sodipodi:role="line"
             id="tspan154">6.875%</tspan><tspan
             x="-35.392601 -29.275822 -26.217432 -20.100655 -13.983875 -7.8670974"
             y="209.5336"
             sodipodi:role="line"
             id="tspan156">6.777%</tspan><tspan
             x="-77.343803 -71.22702 -68.168633 -62.051853 -55.935074 -49.818298 -77.343803 -71.22702 -68.168633 -62.051853 -55.935074 -49.818298"
             y="212.46642"
             sodipodi:role="line"
             id="tspan158">4.796%4.796%</tspan><tspan
             x="-110.3106 -104.19382 -101.13543 -95.018654 -88.901878 -82.785095"
             y="203.72969"
             sodipodi:role="line"
             id="tspan160">4.572%</tspan><tspan
             x="-137.2883 -131.17152 -128.11313 -121.99635 -115.87958 -109.76279"
             y="187.48129"
             sodipodi:role="line"
             id="tspan162">4.075%</tspan><tspan
             x="-156.7664 -150.64963 -147.59123 -141.47446 -135.35768 -129.24089"
             y="167.50829"
             sodipodi:role="line"
             id="tspan164">3.576%</tspan><tspan
             x="-169.5004 -163.38362 -160.32523 -154.20845 -148.09167 -141.9749"
             y="146.61919"
             sodipodi:role="line"
             id="tspan166">3.133%</tspan><tspan
             x="-159.4395 -153.32272 -147.20595 -144.14755 -138.03078 -131.914"
             y="29.89819"
             sodipodi:role="line"
             id="tspan168">30.47%</tspan></text></g></g></g></svg>
