<?xml version="1.0" encoding="UTF-8" standalone="no"?>
<svg
   xmlns:dc="http://purl.org/dc/elements/1.1/"
   xmlns:cc="http://creativecommons.org/ns#"
   xmlns:rdf="http://www.w3.org/1999/02/22-rdf-syntax-ns#"
   xmlns:svg="http://www.w3.org/2000/svg"
   xmlns="http://www.w3.org/2000/svg"
   viewBox="0 0 528 384"
   height="384"
   width="528"
   xml:space="preserve"
   id="svg2"
   version="1.1"><metadata
     id="metadata8"><rdf:RDF><cc:Work
         rdf:about=""><dc:format>image/svg+xml</dc:format><dc:type
           rdf:resource="http://purl.org/dc/dcmitype/StillImage" /></cc:Work></rdf:RDF></metadata><defs
     id="defs6" /><g
     transform="matrix(1.3333333,0,0,-1.3333333,0,384)"
     id="g10"><g
       transform="scale(0.1)"
       id="g12"><path
         id="path14"
         style="fill:#eaf2f3;fill-opacity:1;fill-rule:nonzero;stroke:none"
         d="M 0,0 H 3960 V 2880 H 0 Z" /><path
         id="path16"
         style="fill:#598fbc;fill-opacity:1;fill-rule:nonzero;stroke:none"
         d="m 1979.88,1439.95 324.67,1302.21 c -106.19,26.47 -215.23,39.86 -324.67,39.86" /><path
         id="path18"
         style="fill:none;stroke:#4783b5;stroke-width:1.20000005;stroke-linecap:butt;stroke-linejoin:miter;stroke-miterlimit:10;stroke-dasharray:none;stroke-opacity:1"
         d="m 1979.88,1439.95 324.67,1302.21 c -106.19,26.47 -215.23,39.86 -324.67,39.86 z" /><path
         id="path20"
         style="fill:#ffdc1c;fill-opacity:1;fill-rule:nonzero;stroke:none"
         d="m 1979.88,1439.95 1125.55,730.95 c -185.03,284.92 -471.24,489.07 -800.88,571.26" /><path
         id="path22"
         style="fill:none;stroke:#ffd803;stroke-width:1.20000005;stroke-linecap:butt;stroke-linejoin:miter;stroke-miterlimit:10;stroke-dasharray:none;stroke-opacity:1"
         d="m 1979.88,1439.95 1125.55,730.95 c -185.03,284.92 -471.24,489.07 -800.88,571.26 z" /><path
         id="path24"
         style="fill:#9f1922;fill-opacity:1;fill-rule:nonzero;stroke:none"
         d="m 1979.88,1439.95 1334.71,140.29 c -22.13,210.63 -93.81,413.04 -209.16,590.66" /><path
         id="path26"
         style="fill:none;stroke:#940009;stroke-width:1.20000005;stroke-linecap:butt;stroke-linejoin:miter;stroke-miterlimit:10;stroke-dasharray:none;stroke-opacity:1"
         d="m 1979.88,1439.95 1334.71,140.29 c -22.13,210.63 -93.81,413.04 -209.16,590.66 z" /><path
         id="path28"
         style="fill:#349bff;fill-opacity:1;fill-rule:nonzero;stroke:none"
         d="M 1979.88,1439.95 2860.35,427.082 c 293.22,254.895 461.6,624.348 461.6,1012.868 0,46.86 -2.46,93.69 -7.36,140.29" /><path
         id="path30"
         style="fill:none;stroke:#1e90ff;stroke-width:1.20000005;stroke-linecap:butt;stroke-linejoin:miter;stroke-miterlimit:10;stroke-dasharray:none;stroke-opacity:1"
         d="M 1979.88,1439.95 2860.35,427.082 c 293.22,254.895 461.6,624.348 461.6,1012.868 0,46.86 -2.46,93.69 -7.36,140.29 z" /><path
         id="path32"
         style="fill:#ff77c3;fill-opacity:1;fill-rule:nonzero;stroke:none"
         d="M 1979.88,1439.95 1565.15,163.57 c 133.94,-43.515 273.9,-65.6833 414.73,-65.6833 323.58,0 636.26,116.9103 880.47,329.1953" /><path
         id="path34"
         style="fill:none;stroke:#ff68bc;stroke-width:1.20000005;stroke-linecap:butt;stroke-linejoin:miter;stroke-miterlimit:10;stroke-dasharray:none;stroke-opacity:1"
         d="M 1979.88,1439.95 1565.15,163.57 c 133.94,-43.515 273.9,-65.6833 414.73,-65.6833 323.58,0 636.26,116.9103 880.47,329.1953 z" /><path
         id="path36"
         style="fill:#ff8319;fill-opacity:1;fill-rule:nonzero;stroke:none"
         d="M 1979.88,1439.95 1172.2,368.133 c 118.75,-89.485 251.55,-158.617 392.95,-204.563" /><path
         id="path38"
         style="fill:none;stroke:#ff7500;stroke-width:1.20000005;stroke-linecap:butt;stroke-linejoin:miter;stroke-miterlimit:10;stroke-dasharray:none;stroke-opacity:1"
         d="M 1979.88,1439.95 1172.2,368.133 c 118.75,-89.485 251.55,-158.617 392.95,-204.563 z" /><path
         id="path40"
         style="fill:#e0e0e0;fill-opacity:1;fill-rule:nonzero;stroke:none"
         d="m 1979.88,1439.95 v 1342.07 c -741.21,0 -1342.071,-600.86 -1342.071,-1342.07 0,-421.35 197.886,-818.243 534.391,-1071.817" /><path
         id="path42"
         style="fill:none;stroke:#dcdcdc;stroke-width:1.20000005;stroke-linecap:butt;stroke-linejoin:miter;stroke-miterlimit:10;stroke-dasharray:none;stroke-opacity:1"
         d="m 1979.88,1439.95 v 1342.07 c -741.21,0 -1342.071,-600.86 -1342.071,-1342.07 0,-421.35 197.886,-818.243 534.391,-1071.817 z" /><g
         transform="scale(10)"
         id="g44"><text
           id="text60"
           style="font-variant:normal;font-weight:normal;font-size:11.00139999px;font-family:Helvetica;-inkscape-font-specification:Helvetica;writing-mode:lr-tb;fill:#000000;fill-opacity:1;fill-rule:nonzero;stroke:none"
           transform="matrix(1,0,0,-1,191.785,242.278)"><tspan
             id="tspan46"
             y="0"
             x="0 6.1167784 9.175168 15.291946 21.408724 27.525503">3.859%</tspan><tspan
             id="tspan48"
             y="18.4387"
             x="47.409 53.52578 59.642555 62.700947 68.817726 74.934502">12.04%</tspan><tspan
             id="tspan50"
             y="67.926201"
             x="84.595703 90.712479 93.770866 99.88765 106.00443 112.1212">7.411%</tspan><tspan
             id="tspan52"
             y="139.9364"
             x="83.246872 89.363647 95.480431 98.538818 104.65559 110.77237">15.35%</tspan><tspan
             id="tspan54"
             y="203.0739"
             x="7.4991698 13.615949 19.732727 22.791117 28.907894 35.024673">16.46%</tspan><tspan
             id="tspan56"
             y="193.16141"
             x="-57.344231 -51.227451 -48.169064 -42.052284 -35.935505">5.18%</tspan><tspan
             id="tspan58"
             y="69.398399"
             x="-109.98873 -103.87195 -97.755173 -94.696785 -88.580002 -82.463226">39.69%</tspan></text>
</g></g></g></svg>