<?xml version="1.0" encoding="UTF-8" standalone="no"?>
<svg
   xmlns:dc="http://purl.org/dc/elements/1.1/"
   xmlns:cc="http://creativecommons.org/ns#"
   xmlns:rdf="http://www.w3.org/1999/02/22-rdf-syntax-ns#"
   xmlns:svg="http://www.w3.org/2000/svg"
   xmlns="http://www.w3.org/2000/svg"
   viewBox="0 0 528 384"
   height="384"
   width="528"
   xml:space="preserve"
   id="svg2"
   version="1.1"><metadata
     id="metadata8"><rdf:RDF><cc:Work
         rdf:about=""><dc:format>image/svg+xml</dc:format><dc:type
           rdf:resource="http://purl.org/dc/dcmitype/StillImage" /></cc:Work></rdf:RDF></metadata><defs
     id="defs6" /><g
     transform="matrix(1.3333333,0,0,-1.3333333,0,384)"
     id="g10"><g
       transform="scale(0.1)"
       id="g12"><path
         id="path14"
         style="fill:#eaf2f3;fill-opacity:1;fill-rule:nonzero;stroke:none"
         d="M 0,0 H 3960 V 2880 H 0 Z" /><path
         id="path16"
         style="fill:#f4af65;fill-opacity:1;fill-rule:nonzero;stroke:none"
         d="m 1980,1439.95 116.97,1336.97 c -38.9,3.4 -77.93,5.1 -116.97,5.1" /><path
         id="path18"
         style="fill:none;stroke:#f3a654;stroke-width:1.20000005;stroke-linecap:butt;stroke-linejoin:miter;stroke-miterlimit:10;stroke-dasharray:none;stroke-opacity:1"
         d="m 1980,1439.95 116.97,1336.97 c -38.9,3.4 -77.93,5.1 -116.97,5.1 z" /><path
         id="path20"
         style="fill:#38f219;fill-opacity:1;fill-rule:nonzero;stroke:none"
         d="m 1980,1439.95 347.35,1296.34 c -75.46,20.22 -152.55,33.82 -230.38,40.63" /><path
         id="path22"
         style="fill:none;stroke:#22f000;stroke-width:1.20000005;stroke-linecap:butt;stroke-linejoin:miter;stroke-miterlimit:10;stroke-dasharray:none;stroke-opacity:1"
         d="m 1980,1439.95 347.35,1296.34 c -75.46,20.22 -152.55,33.82 -230.38,40.63 z" /><path
         id="path24"
         style="fill:#e0e0e0;fill-opacity:1;fill-rule:nonzero;stroke:none"
         d="M 1980,1439.95 V 2782.02 C 1238.8,2782.02 637.93,2181.16 637.93,1439.95 637.93,698.75 1238.8,97.8867 1980,97.8867 c 741.2,0 1342.07,600.8633 1342.07,1342.0633 0,607.43 -407.99,1139.13 -994.72,1296.34" /><path
         id="path26"
         style="fill:none;stroke:#dcdcdc;stroke-width:1.20000005;stroke-linecap:butt;stroke-linejoin:miter;stroke-miterlimit:10;stroke-dasharray:none;stroke-opacity:1"
         d="M 1980,1439.95 V 2782.02 C 1238.8,2782.02 637.93,2181.16 637.93,1439.95 637.93,698.75 1238.8,97.8867 1980,97.8867 c 741.2,0 1342.07,600.8633 1342.07,1342.0633 0,607.43 -407.99,1139.13 -994.72,1296.34 z" /><g
         transform="scale(10)"
         id="g28"><text
           id="text36"
           style="font-variant:normal;font-weight:normal;font-size:11.00139999px;font-family:Helvetica;-inkscape-font-specification:Helvetica;writing-mode:lr-tb;fill:#000000;fill-opacity:1;fill-rule:nonzero;stroke:none"
           transform="matrix(1,0,0,-1,184.904,256.323)"><tspan
             id="tspan30"
             y="0"
             x="0 6.1167784 9.175168 15.291946 21.408724 27.525503">1.521%</tspan><tspan
             id="tspan32"
             y="1.79453"
             x="15.543 21.659779 24.718168 30.834946 36.951725 43.068504">2.766%</tspan><tspan
             id="tspan34"
             y="231.43753"
             x="-21.1859 -15.069121 -8.952343 -5.8939538 0.22282439 6.3396029">95.71%</tspan></text>
</g></g></g></svg>