<?xml version="1.0" encoding="UTF-8" standalone="no"?>
<svg
   xmlns:dc="http://purl.org/dc/elements/1.1/"
   xmlns:cc="http://creativecommons.org/ns#"
   xmlns:rdf="http://www.w3.org/1999/02/22-rdf-syntax-ns#"
   xmlns:svg="http://www.w3.org/2000/svg"
   xmlns="http://www.w3.org/2000/svg"
   viewBox="0 0 528 384"
   height="384"
   width="528"
   xml:space="preserve"
   id="svg2"
   version="1.1"><metadata
     id="metadata8"><rdf:RDF><cc:Work
         rdf:about=""><dc:format>image/svg+xml</dc:format><dc:type
           rdf:resource="http://purl.org/dc/dcmitype/StillImage" /></cc:Work></rdf:RDF></metadata><defs
     id="defs6" /><g
     transform="matrix(1.3333333,0,0,-1.3333333,0,384)"
     id="g10"><g
       transform="scale(0.1)"
       id="g12"><path
         id="path14"
         style="fill:#eaf2f3;fill-opacity:1;fill-rule:nonzero;stroke:none"
         d="M 0,0 H 3960 V 2880 H 0 Z" /><path
         id="path16"
         style="fill:#349bff;fill-opacity:1;fill-rule:nonzero;stroke:none"
         d="m 1979.88,1439.95 1195.79,609.29 c -229.12,449.66 -691.13,732.78 -1195.79,732.78" /><path
         id="path18"
         style="fill:none;stroke:#1e90ff;stroke-width:1.20000005;stroke-linecap:butt;stroke-linejoin:miter;stroke-miterlimit:10;stroke-dasharray:none;stroke-opacity:1"
         d="m 1979.88,1439.95 1195.79,609.29 c -229.12,449.66 -691.13,732.78 -1195.79,732.78 z" /><path
         id="path20"
         style="fill:#48b07d;fill-opacity:1;fill-rule:nonzero;stroke:none"
         d="M 1979.88,1439.95 3276.21,1092.6 c 30.36,113.29 45.74,230.07 45.74,347.35 0,211.8 -50.13,420.59 -146.28,609.29" /><path
         id="path22"
         style="fill:none;stroke:#34a76e;stroke-width:1.20000005;stroke-linecap:butt;stroke-linejoin:miter;stroke-miterlimit:10;stroke-dasharray:none;stroke-opacity:1"
         d="M 1979.88,1439.95 3276.21,1092.6 c 30.36,113.29 45.74,230.07 45.74,347.35 0,211.8 -50.13,420.59 -146.28,609.29 z" /><path
         id="path24"
         style="fill:#ffdc1c;fill-opacity:1;fill-rule:nonzero;stroke:none"
         d="M 1979.88,1439.95 2749.66,340.598 c 258.46,180.972 444.89,447.234 526.55,752.002" /><path
         id="path26"
         style="fill:none;stroke:#ffd803;stroke-width:1.20000005;stroke-linecap:butt;stroke-linejoin:miter;stroke-miterlimit:10;stroke-dasharray:none;stroke-opacity:1"
         d="M 1979.88,1439.95 2749.66,340.598 c 258.46,180.972 444.89,447.234 526.55,752.002 z" /><path
         id="path28"
         style="fill:#f4af65;fill-opacity:1;fill-rule:nonzero;stroke:none"
         d="M 1979.88,1439.95 2258.91,127.215 c 176.24,37.461 343.15,110.035 490.75,213.383" /><path
         id="path30"
         style="fill:none;stroke:#f3a654;stroke-width:1.20000005;stroke-linecap:butt;stroke-linejoin:miter;stroke-miterlimit:10;stroke-dasharray:none;stroke-opacity:1"
         d="M 1979.88,1439.95 2258.91,127.215 c 176.24,37.461 343.15,110.035 490.75,213.383 z" /><path
         id="path32"
         style="fill:#9f1922;fill-opacity:1;fill-rule:nonzero;stroke:none"
         d="M 1979.88,1439.95 1793.1,110.945 c 61.88,-8.691 124.29,-13.0583 186.78,-13.0583 93.77,0 187.3,9.8323 279.03,29.3283" /><path
         id="path34"
         style="fill:none;stroke:#940009;stroke-width:1.20000005;stroke-linecap:butt;stroke-linejoin:miter;stroke-miterlimit:10;stroke-dasharray:none;stroke-opacity:1"
         d="M 1979.88,1439.95 1793.1,110.945 c 61.88,-8.691 124.29,-13.0583 186.78,-13.0583 93.77,0 187.3,9.8323 279.03,29.3283 z" /><path
         id="path36"
         style="fill:#ffffaf;fill-opacity:1;fill-rule:nonzero;stroke:none"
         d="M 1979.88,1439.95 1477.13,195.609 c 101.47,-40.996 207.59,-69.433 315.97,-84.664" /><path
         id="path38"
         style="fill:none;stroke:#ffffa6;stroke-width:1.20000005;stroke-linecap:butt;stroke-linejoin:miter;stroke-miterlimit:10;stroke-dasharray:none;stroke-opacity:1"
         d="M 1979.88,1439.95 1477.13,195.609 c 101.47,-40.996 207.59,-69.433 315.97,-84.664 z" /><path
         id="path40"
         style="fill:#a346d5;fill-opacity:1;fill-rule:nonzero;stroke:none"
         d="M 1979.88,1439.95 1210.1,340.598 c 83.23,-58.282 172.82,-106.926 267.03,-144.989" /><path
         id="path42"
         style="fill:none;stroke:#9931d0;stroke-width:1.20000005;stroke-linecap:butt;stroke-linejoin:miter;stroke-miterlimit:10;stroke-dasharray:none;stroke-opacity:1"
         d="M 1979.88,1439.95 1210.1,340.598 c 83.23,-58.282 172.82,-106.926 267.03,-144.989 z" /><path
         id="path44"
         style="fill:#955b30;fill-opacity:1;fill-rule:nonzero;stroke:none"
         d="M 1979.88,1439.95 967.004,559.48 C 1038.8,476.883 1120.45,403.371 1210.1,340.598" /><path
         id="path46"
         style="fill:none;stroke:#894919;stroke-width:1.20000005;stroke-linecap:butt;stroke-linejoin:miter;stroke-miterlimit:10;stroke-dasharray:none;stroke-opacity:1"
         d="M 1979.88,1439.95 967.004,559.48 C 1038.8,476.883 1120.45,403.371 1210.1,340.598 Z" /><path
         id="path48"
         style="fill:#e02b54;fill-opacity:1;fill-rule:nonzero;stroke:none"
         d="M 1979.88,1439.95 806.078,789.309 C 851.539,707.289 905.48,630.254 967.004,559.48" /><path
         id="path50"
         style="fill:none;stroke:#dc1341;stroke-width:1.20000005;stroke-linecap:butt;stroke-linejoin:miter;stroke-miterlimit:10;stroke-dasharray:none;stroke-opacity:1"
         d="M 1979.88,1439.95 806.078,789.309 C 851.539,707.289 905.48,630.254 967.004,559.48 Z" /><path
         id="path52"
         style="fill:#3d983e;fill-opacity:1;fill-rule:nonzero;stroke:none"
         d="M 1979.88,1439.95 689.797,1070.03 c 28.008,-97.675 67.019,-191.854 116.281,-280.721" /><path
         id="path54"
         style="fill:none;stroke:#278d29;stroke-width:1.20000005;stroke-linecap:butt;stroke-linejoin:miter;stroke-miterlimit:10;stroke-dasharray:none;stroke-opacity:1"
         d="M 1979.88,1439.95 689.797,1070.03 c 28.008,-97.675 67.019,-191.854 116.281,-280.721 z" /><path
         id="path56"
         style="fill:#e0e0e0;fill-opacity:1;fill-rule:nonzero;stroke:none"
         d="m 1979.88,1439.95 v 1342.07 c -741.21,0 -1342.071,-600.86 -1342.071,-1342.07 0,-125.12 17.5,-249.64 51.988,-369.92" /><path
         id="path58"
         style="fill:none;stroke:#dcdcdc;stroke-width:1.20000005;stroke-linecap:butt;stroke-linejoin:miter;stroke-miterlimit:10;stroke-dasharray:none;stroke-opacity:1"
         d="m 1979.88,1439.95 v 1342.07 c -741.21,0 -1342.071,-600.86 -1342.071,-1342.07 0,-125.12 17.5,-249.64 51.988,-369.92 z" /><g
         transform="scale(10)"
         id="g60"><text
           id="text84"
           style="font-variant:normal;font-weight:normal;font-size:11.00139999px;font-family:Helvetica;-inkscape-font-specification:Helvetica;writing-mode:lr-tb;fill:#000000;fill-opacity:1;fill-rule:nonzero;stroke:none"
           transform="matrix(1,0,0,-1,240.307,239.196)"><tspan
             id="tspan62"
             y="0"
             x="0 6.1167784 12.233557 15.291946 21.408724 27.525503">17.56%</tspan><tspan
             id="tspan64"
             y="87.008598"
             x="54.722301 60.839077 66.955856 70.014244 76.131027 82.247803">11.58%</tspan><tspan
             id="tspan66"
             y="165.9117"
             x="34.2043 40.321079 46.437859 49.496246 55.613026 61.729801">11.22%</tspan><tspan
             id="tspan68"
             y="205.8582"
             x="-14.9242 -8.8074217 -5.7490325 0.367746 6.4845243 12.601303">6.325%</tspan><tspan
             id="tspan70"
             y="215.30038"
             x="-57.246899 -51.130123 -48.071732 -41.954952 -35.838177 -29.721397">5.611%</tspan><tspan
             id="tspan72"
             y="211.30312"
             x="-91.426598 -85.309822 -82.251434 -76.134651 -70.017876 -63.901096 -91.426598 -85.309822 -82.251434 -76.134651 -70.017876 -63.901096">3.842%3.842%</tspan><tspan
             id="tspan74"
             y="201.05663"
             x="-116.845 -110.72822 -107.66983 -101.55305 -95.436279 -89.319496">3.677%</tspan><tspan
             id="tspan76"
             y="185.58781"
             x="-138.6868 -132.57002 -129.51163 -123.39485 -117.27808 -111.1613">3.662%</tspan><tspan
             id="tspan78"
             y="165.89912"
             x="-156.1481 -150.03133 -146.97293 -140.85616 -134.73938 -128.6226">3.557%</tspan><tspan
             id="tspan80"
             y="143.56242"
             x="-168.4239 -162.30713 -159.24873 -153.13196 -147.01518 -140.89839">3.432%</tspan><tspan
             id="tspan82"
             y="29.31642"
             x="-154.0567 -147.93993 -141.82315 -138.76476 -132.64798 -126.5312">29.53%</tspan></text>
</g></g></g></svg>