<?xml version="1.0" encoding="UTF-8" standalone="no"?>
<svg
   xmlns:dc="http://purl.org/dc/elements/1.1/"
   xmlns:cc="http://creativecommons.org/ns#"
   xmlns:rdf="http://www.w3.org/1999/02/22-rdf-syntax-ns#"
   xmlns:svg="http://www.w3.org/2000/svg"
   xmlns="http://www.w3.org/2000/svg"
   viewBox="0 0 528 384"
   height="384"
   width="528"
   xml:space="preserve"
   id="svg2"
   version="1.1"><metadata
     id="metadata8"><rdf:RDF><cc:Work
         rdf:about=""><dc:format>image/svg+xml</dc:format><dc:type
           rdf:resource="http://purl.org/dc/dcmitype/StillImage" /></cc:Work></rdf:RDF></metadata><defs
     id="defs6" /><g
     transform="matrix(1.3333333,0,0,-1.3333333,0,384)"
     id="g10"><g
       transform="scale(0.1)"
       id="g12"><path
         id="path14"
         style="fill:#eaf2f3;fill-opacity:1;fill-rule:nonzero;stroke:none"
         d="M 0,0 H 3960 V 2880 H 0 Z" /><path
         id="path16"
         style="fill:#38f219;fill-opacity:1;fill-rule:nonzero;stroke:none"
         d="m 1980,1439.95 279.03,1312.75 c -91.73,19.49 -185.25,29.32 -279.03,29.32" /><path
         id="path18"
         style="fill:none;stroke:#22f000;stroke-width:1.20000005;stroke-linecap:butt;stroke-linejoin:miter;stroke-miterlimit:10;stroke-dasharray:none;stroke-opacity:1"
         d="m 1980,1439.95 279.03,1312.75 c -91.73,19.49 -185.25,29.32 -279.03,29.32 z" /><path
         id="path20"
         style="fill:#f4af65;fill-opacity:1;fill-rule:nonzero;stroke:none"
         d="m 1980,1439.95 459.02,1261.14 c -58.72,21.37 -118.87,38.62 -179.99,51.61" /><path
         id="path22"
         style="fill:none;stroke:#f3a654;stroke-width:1.20000005;stroke-linecap:butt;stroke-linejoin:miter;stroke-miterlimit:10;stroke-dasharray:none;stroke-opacity:1"
         d="m 1980,1439.95 459.02,1261.14 c -58.72,21.37 -118.87,38.62 -179.99,51.61 z" /><path
         id="path24"
         style="fill:#e0e0e0;fill-opacity:1;fill-rule:nonzero;stroke:none"
         d="M 1980,1439.95 V 2782.02 C 1238.8,2782.02 637.93,2181.16 637.93,1439.95 637.93,698.75 1238.8,97.8867 1980,97.8867 c 741.2,0 1342.07,600.8633 1342.07,1342.0633 0,564.21 -352.88,1068.17 -883.05,1261.14" /><path
         id="path26"
         style="fill:none;stroke:#dcdcdc;stroke-width:1.20000005;stroke-linecap:butt;stroke-linejoin:miter;stroke-miterlimit:10;stroke-dasharray:none;stroke-opacity:1"
         d="M 1980,1439.95 V 2782.02 C 1238.8,2782.02 637.93,2181.16 637.93,1439.95 637.93,698.75 1238.8,97.8867 1980,97.8867 c 741.2,0 1342.07,600.8633 1342.07,1342.0633 0,564.21 -352.88,1068.17 -883.05,1261.14 z" /><g
         transform="scale(10)"
         id="g28"><text
           id="text36"
           style="font-variant:normal;font-weight:normal;font-size:11.00139999px;font-family:Helvetica;-inkscape-font-specification:Helvetica;writing-mode:lr-tb;fill:#000000;fill-opacity:1;fill-rule:nonzero;stroke:none"
           transform="matrix(1,0,0,-1,191.364,255.829)"><tspan
             id="tspan30"
             y="0"
             x="0 6.1167784 9.175168 15.291946 21.408724 27.525503">3.297%</tspan><tspan
             id="tspan32"
             y="3.76211"
             x="19.6516 25.768379 28.826767 34.943546 41.060326 47.177101">2.186%</tspan><tspan
             id="tspan34"
             y="230.27411"
             x="-31.9519 -25.835121 -19.718344 -16.659954 -10.543176 -4.4263973">94.52%</tspan></text>
</g></g></g></svg>