<?xml version="1.0" encoding="UTF-8" standalone="no"?>
<!-- Created with Inkscape (http://www.inkscape.org/) -->

<svg
   version="1.1"
   id="svg2"
   xml:space="preserve"
   width="528"
   height="384"
   viewBox="0 0 528 384"
   sodipodi:docname="temp.eps"
   xmlns:inkscape="http://www.inkscape.org/namespaces/inkscape"
   xmlns:sodipodi="http://sodipodi.sourceforge.net/DTD/sodipodi-0.dtd"
   xmlns="http://www.w3.org/2000/svg"
   xmlns:svg="http://www.w3.org/2000/svg"><defs
     id="defs6"><clipPath
       clipPathUnits="userSpaceOnUse"
       id="clipPath22"><path
         d="m 1979.88,1439.95 997.35,898.02 c -254.51,282.66 -617,444.05 -997.35,444.05 z"
         id="path20" /></clipPath><clipPath
       clipPathUnits="userSpaceOnUse"
       id="clipPath34"><path
         d="m 1979.88,1439.95 1341.25,46.84 c -11.01,315.33 -132.78,616.71 -343.9,851.18 z"
         id="path32" /></clipPath><clipPath
       clipPathUnits="userSpaceOnUse"
       id="clipPath46"><path
         d="M 1979.88,1439.95 3105.43,709.012 c 141.31,217.597 216.52,471.488 216.52,730.938 0,15.62 -0.28,31.24 -0.82,46.84 z"
         id="path44" /></clipPath><clipPath
       clipPathUnits="userSpaceOnUse"
       id="clipPath58"><path
         d="M 1979.88,1439.95 2691.07,301.816 c 166.19,103.848 307.63,242.84 414.36,407.196 z"
         id="path56" /></clipPath><clipPath
       clipPathUnits="userSpaceOnUse"
       id="clipPath70"><path
         d="M 1979.88,1439.95 2189.82,114.41 c 177.97,28.188 348.44,91.926 501.25,187.406 z"
         id="path68" /></clipPath><clipPath
       clipPathUnits="userSpaceOnUse"
       id="clipPath82"><path
         d="m 1979.88,1439.95 v 1342.07 c -741.21,0 -1342.071,-600.86 -1342.071,-1342.07 0,-741.2 600.861,-1342.0633 1342.071,-1342.0633 70.3,0 140.5,5.5273 209.94,16.5233 z"
         id="path80" /></clipPath></defs><sodipodi:namedview
     id="namedview4"
     pagecolor="#ffffff"
     bordercolor="#666666"
     borderopacity="1.0"
     inkscape:pageshadow="2"
     inkscape:pageopacity="0.0"
     inkscape:pagecheckerboard="0" /><g
     id="g8"
     inkscape:groupmode="layer"
     inkscape:label="ink_ext_XXXXXX"
     transform="matrix(1.3333333,0,0,-1.3333333,0,384)"><g
       id="g10"
       transform="scale(0.1)"><path
         d="M 0,0 H 3960 V 2880 H 0 Z"
         style="fill:#eaf2f3;fill-opacity:1;fill-rule:nonzero;stroke:none"
         id="path12" /><path
         d="m 1979.88,1439.95 997.35,898.02 c -254.51,282.66 -617,444.05 -997.35,444.05"
         style="fill:#b5dde7;fill-opacity:1;fill-rule:nonzero;stroke:none"
         id="path14" /><g
         id="g16"><g
           id="g18"
           clip-path="url(#clipPath22)"><path
             d="m 1979.88,1439.95 997.35,898.02 c -254.51,282.66 -617,444.05 -997.35,444.05 z"
             style="fill:none;stroke:#add9e4;stroke-width:2.4;stroke-linecap:butt;stroke-linejoin:miter;stroke-miterlimit:10;stroke-dasharray:none;stroke-opacity:1"
             id="path24" /></g></g><path
         d="m 1979.88,1439.95 1341.25,46.84 c -11.01,315.33 -132.78,616.71 -343.9,851.18"
         style="fill:#b66751;fill-opacity:1;fill-rule:nonzero;stroke:none"
         id="path26" /><g
         id="g28"><g
           id="g30"
           clip-path="url(#clipPath34)"><path
             d="m 1979.88,1439.95 1341.25,46.84 c -11.01,315.33 -132.78,616.71 -343.9,851.18 z"
             style="fill:none;stroke:#ae563e;stroke-width:2.4;stroke-linecap:butt;stroke-linejoin:miter;stroke-miterlimit:10;stroke-dasharray:none;stroke-opacity:1"
             id="path36" /></g></g><path
         d="M 1979.88,1439.95 3105.43,709.012 c 141.31,217.597 216.52,471.488 216.52,730.938 0,15.62 -0.28,31.24 -0.82,46.84"
         style="fill:#ffffaf;fill-opacity:1;fill-rule:nonzero;stroke:none"
         id="path38" /><g
         id="g40"><g
           id="g42"
           clip-path="url(#clipPath46)"><path
             d="M 1979.88,1439.95 3105.43,709.012 c 141.31,217.597 216.52,471.488 216.52,730.938 0,15.62 -0.28,31.24 -0.82,46.84 z"
             style="fill:none;stroke:#ffffa6;stroke-width:2.4;stroke-linecap:butt;stroke-linejoin:miter;stroke-miterlimit:10;stroke-dasharray:none;stroke-opacity:1"
             id="path48" /></g></g><path
         d="M 1979.88,1439.95 2691.07,301.816 c 166.19,103.848 307.63,242.84 414.36,407.196"
         style="fill:#a346d5;fill-opacity:1;fill-rule:nonzero;stroke:none"
         id="path50" /><g
         id="g52"><g
           id="g54"
           clip-path="url(#clipPath58)"><path
             d="M 1979.88,1439.95 2691.07,301.816 c 166.19,103.848 307.63,242.84 414.36,407.196 z"
             style="fill:none;stroke:#9931d0;stroke-width:2.4;stroke-linecap:butt;stroke-linejoin:miter;stroke-miterlimit:10;stroke-dasharray:none;stroke-opacity:1"
             id="path60" /></g></g><path
         d="M 1979.88,1439.95 2189.82,114.41 c 177.97,28.188 348.44,91.926 501.25,187.406"
         style="fill:#d9c5d7;fill-opacity:1;fill-rule:nonzero;stroke:none"
         id="path62" /><g
         id="g64"><g
           id="g66"
           clip-path="url(#clipPath70)"><path
             d="M 1979.88,1439.95 2189.82,114.41 c 177.97,28.188 348.44,91.926 501.25,187.406 z"
             style="fill:none;stroke:#d5bed2;stroke-width:2.4;stroke-linecap:butt;stroke-linejoin:miter;stroke-miterlimit:10;stroke-dasharray:none;stroke-opacity:1"
             id="path72" /></g></g><path
         d="m 1979.88,1439.95 v 1342.07 c -741.21,0 -1342.071,-600.86 -1342.071,-1342.07 0,-741.2 600.861,-1342.0633 1342.071,-1342.0633 70.3,0 140.5,5.5273 209.94,16.5233"
         style="fill:#e0e0e0;fill-opacity:1;fill-rule:nonzero;stroke:none"
         id="path74" /><g
         id="g76"><g
           id="g78"
           clip-path="url(#clipPath82)"><path
             d="m 1979.88,1439.95 v 1342.07 c -741.21,0 -1342.071,-600.86 -1342.071,-1342.07 0,-741.2 600.861,-1342.0633 1342.071,-1342.0633 70.3,0 140.5,5.5273 209.94,16.5233 z"
             style="fill:none;stroke:#dcdcdc;stroke-width:2.4;stroke-linecap:butt;stroke-linejoin:miter;stroke-miterlimit:10;stroke-dasharray:none;stroke-opacity:1"
             id="path84" /></g></g><g
         id="g86"
         transform="scale(10)"><text
           transform="matrix(1,0,0,-1,227.103,246.201)"
           style="font-variant:normal;font-weight:normal;font-size:11.0014px;font-family:Helvetica;-inkscape-font-specification:Helvetica;writing-mode:lr-tb;fill:#000000;fill-opacity:1;fill-rule:nonzero;stroke:none"
           id="text100"><tspan
             x="0 6.1167784 12.233557 15.291946 21.408724 27.525503"
             y="0"
             sodipodi:role="line"
             id="tspan88">13.47%</tspan><tspan
             x="60.118 66.234779 72.351555 75.409943 81.526726 87.643501"
             y="62.580502"
             sodipodi:role="line"
             id="tspan90">10.87%</tspan><tspan
             x="64.387138 70.503922 73.562309 79.679085 85.795868 91.912643"
             y="136.8676"
             sodipodi:role="line"
             id="tspan92">9.863%</tspan><tspan
             x="33.759041 39.87582 42.934208 49.050987 55.167763 61.284542"
             y="189.01601"
             sodipodi:role="line"
             id="tspan94">6.883%</tspan><tspan
             x="-6.8557601 -0.7389816 2.3194077 8.4361858 14.552964 20.669743"
             y="214.92931"
             sodipodi:role="line"
             id="tspan96">6.398%</tspan><tspan
             x="-163.70876 -157.59198 -151.4752 -148.41681 -142.30003 -136.18326 -163.70876 -157.59198 -151.4752 -148.41681 -142.30003 -136.18326"
             y="115.2484"
             sodipodi:role="line"
             id="tspan98">52.52%52.52%</tspan></text></g></g></g></svg>
