<?xml version="1.0" encoding="UTF-8" standalone="no"?>
<svg
   xmlns:dc="http://purl.org/dc/elements/1.1/"
   xmlns:cc="http://creativecommons.org/ns#"
   xmlns:rdf="http://www.w3.org/1999/02/22-rdf-syntax-ns#"
   xmlns:svg="http://www.w3.org/2000/svg"
   xmlns="http://www.w3.org/2000/svg"
   viewBox="0 0 528 384"
   height="384"
   width="528"
   xml:space="preserve"
   id="svg2"
   version="1.1"><metadata
     id="metadata8"><rdf:RDF><cc:Work
         rdf:about=""><dc:format>image/svg+xml</dc:format><dc:type
           rdf:resource="http://purl.org/dc/dcmitype/StillImage" /></cc:Work></rdf:RDF></metadata><defs
     id="defs6" /><g
     transform="matrix(1.3333333,0,0,-1.3333333,0,384)"
     id="g10"><g
       transform="scale(0.1)"
       id="g12"><path
         id="path14"
         style="fill:#eaf2f3;fill-opacity:1;fill-rule:nonzero;stroke:none"
         d="M 0,0 H 3960 V 2880 H 0 Z" /><path
         id="path16"
         style="fill:#349bff;fill-opacity:1;fill-rule:nonzero;stroke:none"
         d="m 1980,1439.95 948.98,-948.981 c 251.69,251.683 393.09,593.051 393.09,948.981 0,741.21 -600.87,1342.07 -1342.07,1342.07" /><path
         id="path18"
         style="fill:none;stroke:#1e90ff;stroke-width:1.20000005;stroke-linecap:butt;stroke-linejoin:miter;stroke-miterlimit:10;stroke-dasharray:none;stroke-opacity:1"
         d="m 1980,1439.95 948.98,-948.981 c 251.69,251.683 393.09,593.051 393.09,948.981 0,741.21 -600.87,1342.07 -1342.07,1342.07 z" /><path
         id="path20"
         style="fill:#ffdc1c;fill-opacity:1;fill-rule:nonzero;stroke:none"
         d="M 1980,1439.95 922.434,613.695 C 1176.78,288.152 1566.88,97.8867 1980,97.8867 c 355.94,0 697.3,141.3983 948.98,393.0823" /><path
         id="path22"
         style="fill:none;stroke:#ffd803;stroke-width:1.20000005;stroke-linecap:butt;stroke-linejoin:miter;stroke-miterlimit:10;stroke-dasharray:none;stroke-opacity:1"
         d="M 1980,1439.95 922.434,613.695 C 1176.78,288.152 1566.88,97.8867 1980,97.8867 c 355.94,0 697.3,141.3983 948.98,393.0823 z" /><path
         id="path24"
         style="fill:#b66751;fill-opacity:1;fill-rule:nonzero;stroke:none"
         d="M 1980,1439.95 672.328,1138.05 C 716.41,947.105 801.781,768.125 922.434,613.695" /><path
         id="path26"
         style="fill:none;stroke:#ae563e;stroke-width:1.20000005;stroke-linecap:butt;stroke-linejoin:miter;stroke-miterlimit:10;stroke-dasharray:none;stroke-opacity:1"
         d="M 1980,1439.95 672.328,1138.05 C 716.41,947.105 801.781,768.125 922.434,613.695 Z" /><path
         id="path28"
         style="fill:#9820c8;fill-opacity:1;fill-rule:nonzero;stroke:none"
         d="M 1980,1439.95 643.039,1556.93 c -3.402,-38.9 -5.109,-77.93 -5.109,-116.98 0,-101.6 11.543,-202.89 34.398,-301.9" /><path
         id="path30"
         style="fill:none;stroke:#8c07c2;stroke-width:1.20000005;stroke-linecap:butt;stroke-linejoin:miter;stroke-miterlimit:10;stroke-dasharray:none;stroke-opacity:1"
         d="M 1980,1439.95 643.039,1556.93 c -3.402,-38.9 -5.109,-77.93 -5.109,-116.98 0,-101.6 11.543,-202.89 34.398,-301.9 z" /><path
         id="path32"
         style="fill:#a9e942;fill-opacity:1;fill-rule:nonzero;stroke:none"
         d="M 1980,1439.95 718.867,1898.97 c -40.113,-110.21 -65.609,-225.21 -75.828,-342.04" /><path
         id="path34"
         style="fill:none;stroke:#9fe72d;stroke-width:1.20000005;stroke-linecap:butt;stroke-linejoin:miter;stroke-miterlimit:10;stroke-dasharray:none;stroke-opacity:1"
         d="M 1980,1439.95 718.867,1898.97 c -40.113,-110.21 -65.609,-225.21 -75.828,-342.04 z" /><path
         id="path36"
         style="fill:#e0e0e0;fill-opacity:1;fill-rule:nonzero;stroke:none"
         d="m 1980,1439.95 v 1342.07 c -564.2,0 -1068.164,-352.88 -1261.133,-883.05" /><path
         id="path38"
         style="fill:none;stroke:#dcdcdc;stroke-width:1.20000005;stroke-linecap:butt;stroke-linejoin:miter;stroke-miterlimit:10;stroke-dasharray:none;stroke-opacity:1"
         d="m 1980,1439.95 v 1342.07 c -564.2,0 -1068.164,-352.88 -1261.133,-883.05 z" /><g
         transform="scale(10)"
         id="g40"><text
           id="text54"
           style="font-variant:normal;font-weight:normal;font-size:11.00139999px;font-family:Helvetica;-inkscape-font-specification:Helvetica;writing-mode:lr-tb;fill:#000000;fill-opacity:1;fill-rule:nonzero;stroke:none"
           transform="matrix(1,0,0,-1,286.899,184.412)"><tspan
             id="tspan42"
             y="0"
             x="0 6.1167784 12.233557 15.291946 21.408724 27.525503">37.57%</tspan><tspan
             id="tspan44"
             y="160.343"
             x="-114.989 -108.87222 -102.75544 -99.697052 -93.580276 -87.463501">26.89%</tspan><tspan
             id="tspan46"
             y="94.161697"
             x="-212.6152 -206.49843 -203.44003 -197.32326 -191.20648 -185.08969">6.963%</tspan><tspan
             id="tspan48"
             y="52.247601"
             x="-223.5918 -217.47502 -214.41663 -208.29985 -202.18307 -196.0663">4.965%</tspan><tspan
             id="tspan50"
             y="18.8843"
             x="-221.06758 -214.95081 -211.89241 -205.77563 -199.65886 -193.54208">4.221%</tspan><tspan
             id="tspan52"
             y="-51.1208"
             x="-174.10428 -167.9875 -161.87073 -158.81233 -152.69556 -146.57878">19.39%</tspan></text>
</g></g></g></svg>