<?xml version="1.0" encoding="UTF-8" standalone="no"?>
<svg
   xmlns:dc="http://purl.org/dc/elements/1.1/"
   xmlns:cc="http://creativecommons.org/ns#"
   xmlns:rdf="http://www.w3.org/1999/02/22-rdf-syntax-ns#"
   xmlns:svg="http://www.w3.org/2000/svg"
   xmlns="http://www.w3.org/2000/svg"
   viewBox="0 0 528 384"
   height="384"
   width="528"
   xml:space="preserve"
   id="svg2"
   version="1.1"><metadata
     id="metadata8"><rdf:RDF><cc:Work
         rdf:about=""><dc:format>image/svg+xml</dc:format><dc:type
           rdf:resource="http://purl.org/dc/dcmitype/StillImage" /></cc:Work></rdf:RDF></metadata><defs
     id="defs6" /><g
     transform="matrix(1.3333333,0,0,-1.3333333,0,384)"
     id="g10"><g
       transform="scale(0.1)"
       id="g12"><path
         id="path14"
         style="fill:#eaf2f3;fill-opacity:1;fill-rule:nonzero;stroke:none"
         d="M 0,0 H 3960 V 2880 H 0 Z" /><path
         id="path16"
         style="fill:#598fbc;fill-opacity:1;fill-rule:nonzero;stroke:none"
         d="m 1979.88,1439.95 301.9,1307.68 c -99.01,22.85 -200.3,34.39 -301.9,34.39" /><path
         id="path18"
         style="fill:none;stroke:#4783b5;stroke-width:1.20000005;stroke-linecap:butt;stroke-linejoin:miter;stroke-miterlimit:10;stroke-dasharray:none;stroke-opacity:1"
         d="m 1979.88,1439.95 301.9,1307.68 c -99.01,22.85 -200.3,34.39 -301.9,34.39 z" /><path
         id="path20"
         style="fill:#ffdc1c;fill-opacity:1;fill-rule:nonzero;stroke:none"
         d="m 1979.88,1439.95 1099.35,769.78 c -190.22,271.68 -474.3,463.29 -797.45,537.9" /><path
         id="path22"
         style="fill:none;stroke:#ffd803;stroke-width:1.20000005;stroke-linecap:butt;stroke-linejoin:miter;stroke-miterlimit:10;stroke-dasharray:none;stroke-opacity:1"
         d="m 1979.88,1439.95 1099.35,769.78 c -190.22,271.68 -474.3,463.29 -797.45,537.9 z" /><path
         id="path24"
         style="fill:#9f1922;fill-opacity:1;fill-rule:nonzero;stroke:none"
         d="m 1979.88,1439.95 1340.23,70.25 c -13.16,251.14 -96.63,493.53 -240.88,699.53" /><path
         id="path26"
         style="fill:none;stroke:#940009;stroke-width:1.20000005;stroke-linecap:butt;stroke-linejoin:miter;stroke-miterlimit:10;stroke-dasharray:none;stroke-opacity:1"
         d="m 1979.88,1439.95 1340.23,70.25 c -13.16,251.14 -96.63,493.53 -240.88,699.53 z" /><path
         id="path28"
         style="fill:#349bff;fill-opacity:1;fill-rule:nonzero;stroke:none"
         d="M 1979.88,1439.95 2525.75,213.914 c 484.22,215.59 796.2,695.992 796.2,1226.036 0,23.43 -0.62,46.85 -1.84,70.25" /><path
         id="path30"
         style="fill:none;stroke:#1e90ff;stroke-width:1.20000005;stroke-linecap:butt;stroke-linejoin:miter;stroke-miterlimit:10;stroke-dasharray:none;stroke-opacity:1"
         d="M 1979.88,1439.95 2525.75,213.914 c 484.22,215.59 796.2,695.992 796.2,1226.036 0,23.43 -0.62,46.85 -1.84,70.25 z" /><path
         id="path32"
         style="fill:#ff77c3;fill-opacity:1;fill-rule:nonzero;stroke:none"
         d="M 1979.88,1439.95 1391.55,233.711 C 1574.8,144.34 1776,97.8867 1979.88,97.8867 c 188.07,0 374.05,39.5313 545.87,116.0273" /><path
         id="path34"
         style="fill:none;stroke:#ff68bc;stroke-width:1.20000005;stroke-linecap:butt;stroke-linejoin:miter;stroke-miterlimit:10;stroke-dasharray:none;stroke-opacity:1"
         d="M 1979.88,1439.95 1391.55,233.711 C 1574.8,144.34 1776,97.8867 1979.88,97.8867 c 188.07,0 374.05,39.5313 545.87,116.0273 z" /><path
         id="path36"
         style="fill:#ff8319;fill-opacity:1;fill-rule:nonzero;stroke:none"
         d="M 1979.88,1439.95 1030.89,490.969 c 105.14,-105.137 227.02,-192.078 360.66,-257.258" /><path
         id="path38"
         style="fill:none;stroke:#ff7500;stroke-width:1.20000005;stroke-linecap:butt;stroke-linejoin:miter;stroke-miterlimit:10;stroke-dasharray:none;stroke-opacity:1"
         d="M 1979.88,1439.95 1030.89,490.969 c 105.14,-105.137 227.02,-192.078 360.66,-257.258 z" /><path
         id="path40"
         style="fill:#e0e0e0;fill-opacity:1;fill-rule:nonzero;stroke:none"
         d="m 1979.88,1439.95 v 1342.07 c -741.21,0 -1342.071,-600.86 -1342.071,-1342.07 0,-355.93 141.398,-697.298 393.081,-948.981" /><path
         id="path42"
         style="fill:none;stroke:#dcdcdc;stroke-width:1.20000005;stroke-linecap:butt;stroke-linejoin:miter;stroke-miterlimit:10;stroke-dasharray:none;stroke-opacity:1"
         d="m 1979.88,1439.95 v 1342.07 c -741.21,0 -1342.071,-600.86 -1342.071,-1342.07 0,-355.93 141.398,-697.298 393.081,-948.981 z" /><g
         transform="scale(10)"
         id="g44"><text
           id="text60"
           style="font-variant:normal;font-weight:normal;font-size:11.00139999px;font-family:Helvetica;-inkscape-font-specification:Helvetica;writing-mode:lr-tb;fill:#000000;fill-opacity:1;fill-rule:nonzero;stroke:none"
           transform="matrix(1,0,0,-1,190.782,242.402)"><tspan
             id="tspan46"
             y="0"
             x="0 6.1167784 9.175168 15.291946 21.408724 27.525503">3.546%</tspan><tspan
             id="tspan48"
             y="16.941401"
             x="46.0723 52.189079 58.305859 61.364246 67.481026 73.597801">11.79%</tspan><tspan
             id="tspan50"
             y="68.569901"
             x="85.7836 91.900375 94.958771 101.07555 107.19232 113.3091">8.712%</tspan><tspan
             id="tspan52"
             y="155.3804"
             x="76.675789 82.792572 88.909348 91.967735 98.084511 104.20129">19.17%</tspan><tspan
             id="tspan54"
             y="205.1281"
             x="-13.21641 -7.0996318 -0.98285317 2.075536 8.1923141 14.309093">14.11%</tspan><tspan
             id="tspan56"
             y="185.9343"
             x="-71.30471 -65.187935 -62.129543 -56.012764 -49.895985 -43.779205">5.105%</tspan><tspan
             id="tspan58"
             y="63.075298"
             x="-106.57341 -100.45663 -94.339851 -91.281464 -85.164688 -79.047905">37.56%</tspan></text>
</g></g></g></svg>