<?xml version="1.0" encoding="UTF-8" standalone="no"?>
<svg
   xmlns:dc="http://purl.org/dc/elements/1.1/"
   xmlns:cc="http://creativecommons.org/ns#"
   xmlns:rdf="http://www.w3.org/1999/02/22-rdf-syntax-ns#"
   xmlns:svg="http://www.w3.org/2000/svg"
   xmlns="http://www.w3.org/2000/svg"
   viewBox="0 0 528 384"
   height="384"
   width="528"
   xml:space="preserve"
   id="svg2"
   version="1.1"><metadata
     id="metadata8"><rdf:RDF><cc:Work
         rdf:about=""><dc:format>image/svg+xml</dc:format><dc:type
           rdf:resource="http://purl.org/dc/dcmitype/StillImage" /></cc:Work></rdf:RDF></metadata><defs
     id="defs6" /><g
     transform="matrix(1.3333333,0,0,-1.3333333,0,384)"
     id="g10"><g
       transform="scale(0.1)"
       id="g12"><path
         id="path14"
         style="fill:#eaf2f3;fill-opacity:1;fill-rule:nonzero;stroke:none"
         d="M 0,0 H 3960 V 2880 H 0 Z" /><path
         id="path16"
         style="fill:#598fbc;fill-opacity:1;fill-rule:nonzero;stroke:none"
         d="m 1979.88,1439.95 301.9,1307.68 c -99.01,22.85 -200.3,34.39 -301.9,34.39" /><path
         id="path18"
         style="fill:none;stroke:#4783b5;stroke-width:1.20000005;stroke-linecap:butt;stroke-linejoin:miter;stroke-miterlimit:10;stroke-dasharray:none;stroke-opacity:1"
         d="m 1979.88,1439.95 301.9,1307.68 c -99.01,22.85 -200.3,34.39 -301.9,34.39 z" /><path
         id="path20"
         style="fill:#ffdc1c;fill-opacity:1;fill-rule:nonzero;stroke:none"
         d="m 1979.88,1439.95 1085.75,788.85 c -190.19,261.78 -468.57,446.04 -783.85,518.83" /><path
         id="path22"
         style="fill:none;stroke:#ffd803;stroke-width:1.20000005;stroke-linecap:butt;stroke-linejoin:miter;stroke-miterlimit:10;stroke-dasharray:none;stroke-opacity:1"
         d="m 1979.88,1439.95 1085.75,788.85 c -190.19,261.78 -468.57,446.04 -783.85,518.83 z" /><path
         id="path24"
         style="fill:#9f1922;fill-opacity:1;fill-rule:nonzero;stroke:none"
         d="m 1979.88,1439.95 1336.96,116.98 c -21.23,242.59 -108.07,474.86 -251.21,671.87" /><path
         id="path26"
         style="fill:none;stroke:#940009;stroke-width:1.20000005;stroke-linecap:butt;stroke-linejoin:miter;stroke-miterlimit:10;stroke-dasharray:none;stroke-opacity:1"
         d="m 1979.88,1439.95 1336.96,116.98 c -21.23,242.59 -108.07,474.86 -251.21,671.87 z" /><path
         id="path28"
         style="fill:#349bff;fill-opacity:1;fill-rule:nonzero;stroke:none"
         d="M 1979.88,1439.95 2609.94,254.98 c 438.16,232.973 712.01,688.723 712.01,1184.97 0,39.05 -1.71,78.08 -5.11,116.98" /><path
         id="path30"
         style="fill:none;stroke:#1e90ff;stroke-width:1.20000005;stroke-linecap:butt;stroke-linejoin:miter;stroke-miterlimit:10;stroke-dasharray:none;stroke-opacity:1"
         d="M 1979.88,1439.95 2609.94,254.98 c 438.16,232.973 712.01,688.723 712.01,1184.97 0,39.05 -1.71,78.08 -5.11,116.98 z" /><path
         id="path32"
         style="fill:#ff77c3;fill-opacity:1;fill-rule:nonzero;stroke:none"
         d="M 1979.88,1439.95 1477.13,195.609 c 159.75,-64.543 330.44,-97.7223 502.75,-97.7223 219.71,0 436.07,53.9453 630.06,157.0933" /><path
         id="path34"
         style="fill:none;stroke:#ff68bc;stroke-width:1.20000005;stroke-linecap:butt;stroke-linejoin:miter;stroke-miterlimit:10;stroke-dasharray:none;stroke-opacity:1"
         d="M 1979.88,1439.95 1477.13,195.609 c 159.75,-64.543 330.44,-97.7223 502.75,-97.7223 219.71,0 436.07,53.9453 630.06,157.0933 z" /><path
         id="path36"
         style="fill:#ff8319;fill-opacity:1;fill-rule:nonzero;stroke:none"
         d="M 1979.88,1439.95 1117.21,411.871 c 107.88,-90.523 229.34,-163.508 359.92,-216.262" /><path
         id="path38"
         style="fill:none;stroke:#ff7500;stroke-width:1.20000005;stroke-linecap:butt;stroke-linejoin:miter;stroke-miterlimit:10;stroke-dasharray:none;stroke-opacity:1"
         d="M 1979.88,1439.95 1117.21,411.871 c 107.88,-90.523 229.34,-163.508 359.92,-216.262 z" /><path
         id="path40"
         style="fill:#e0e0e0;fill-opacity:1;fill-rule:nonzero;stroke:none"
         d="m 1979.88,1439.95 v 1342.07 c -741.21,0 -1342.071,-600.86 -1342.071,-1342.07 0,-396.7 175.511,-773.083 479.401,-1028.079" /><path
         id="path42"
         style="fill:none;stroke:#dcdcdc;stroke-width:1.20000005;stroke-linecap:butt;stroke-linejoin:miter;stroke-miterlimit:10;stroke-dasharray:none;stroke-opacity:1"
         d="m 1979.88,1439.95 v 1342.07 c -741.21,0 -1342.071,-600.86 -1342.071,-1342.07 0,-396.7 175.511,-773.083 479.401,-1028.079 z" /><g
         transform="scale(10)"
         id="g44"><text
           id="text60"
           style="font-variant:normal;font-weight:normal;font-size:11.00139999px;font-family:Helvetica;-inkscape-font-specification:Helvetica;writing-mode:lr-tb;fill:#000000;fill-opacity:1;fill-rule:nonzero;stroke:none"
           transform="matrix(1,0,0,-1,190.597,242.414)"><tspan
             id="tspan46"
             y="0"
             x="0 6.1167784 9.175168 15.291946 21.408724 27.525503">3.489%</tspan><tspan
             id="tspan48"
             y="16.322701"
             x="45.305099 51.421879 57.538658 60.597046 66.713821 72.830605">11.55%</tspan><tspan
             id="tspan50"
             y="66.218803"
             x="85.115303 91.232079 94.290466 100.40725 106.52402 112.6408">8.528%</tspan><tspan
             id="tspan52"
             y="151.495"
             x="79.101242 85.218018 91.334793 94.393188 100.50996 106.62674">18.75%</tspan><tspan
             id="tspan54"
             y="205.0415"
             x="-6.4100599 -0.29328161 5.8234968 8.8818855 14.998665 21.115442">13.88%</tspan><tspan
             id="tspan56"
             y="190.1669"
             x="-64.733459 -58.61668 -55.558292 -49.441513 -43.324734 -37.207958">5.018%</tspan><tspan
             id="tspan58"
             y="66.787903"
             x="-107.83546 -101.71868 -95.601906 -92.54351 -86.426735 -80.309959">38.79%</tspan></text>
</g></g></g></svg>