<?xml version="1.0" encoding="UTF-8" standalone="no"?>
<svg
   xmlns:dc="http://purl.org/dc/elements/1.1/"
   xmlns:cc="http://creativecommons.org/ns#"
   xmlns:rdf="http://www.w3.org/1999/02/22-rdf-syntax-ns#"
   xmlns:svg="http://www.w3.org/2000/svg"
   xmlns="http://www.w3.org/2000/svg"
   viewBox="0 0 528 384"
   height="384"
   width="528"
   xml:space="preserve"
   id="svg2"
   version="1.1"><metadata
     id="metadata8"><rdf:RDF><cc:Work
         rdf:about=""><dc:format>image/svg+xml</dc:format><dc:type
           rdf:resource="http://purl.org/dc/dcmitype/StillImage" /></cc:Work></rdf:RDF></metadata><defs
     id="defs6" /><g
     transform="matrix(1.3333333,0,0,-1.3333333,0,384)"
     id="g10"><g
       transform="scale(0.1)"
       id="g12"><path
         id="path14"
         style="fill:#eaf2f3;fill-opacity:1;fill-rule:nonzero;stroke:none"
         d="M 0,0 H 3960 V 2880 H 0 Z" /><path
         id="path16"
         style="fill:#48b07d;fill-opacity:1;fill-rule:nonzero;stroke:none"
         d="m 1979.88,1439.95 1321.67,-233.04 c 13.57,76.94 20.4,154.92 20.4,233.04 0,741.21 -600.87,1342.07 -1342.07,1342.07" /><path
         id="path18"
         style="fill:none;stroke:#34a76e;stroke-width:1.20000005;stroke-linecap:butt;stroke-linejoin:miter;stroke-miterlimit:10;stroke-dasharray:none;stroke-opacity:1"
         d="m 1979.88,1439.95 1321.67,-233.04 c 13.57,76.94 20.4,154.92 20.4,233.04 0,741.21 -600.87,1342.07 -1342.07,1342.07 z" /><path
         id="path20"
         style="fill:#ffdc1c;fill-opacity:1;fill-rule:nonzero;stroke:none"
         d="m 1979.88,1439.95 965.4,-932.274 c 185.77,192.371 309.84,435.863 356.27,699.234" /><path
         id="path22"
         style="fill:none;stroke:#ffd803;stroke-width:1.20000005;stroke-linecap:butt;stroke-linejoin:miter;stroke-miterlimit:10;stroke-dasharray:none;stroke-opacity:1"
         d="m 1979.88,1439.95 965.4,-932.274 c 185.77,192.371 309.84,435.863 356.27,699.234 z" /><path
         id="path24"
         style="fill:#349bff;fill-opacity:1;fill-rule:nonzero;stroke:none"
         d="M 1979.88,1439.95 2416.81,171.004 c 200.25,68.949 381.35,184.324 528.47,336.672" /><path
         id="path26"
         style="fill:none;stroke:#1e90ff;stroke-width:1.20000005;stroke-linecap:butt;stroke-linejoin:miter;stroke-miterlimit:10;stroke-dasharray:none;stroke-opacity:1"
         d="M 1979.88,1439.95 2416.81,171.004 c 200.25,68.949 381.35,184.324 528.47,336.672 z" /><path
         id="path28"
         style="fill:#598fbc;fill-opacity:1;fill-rule:nonzero;stroke:none"
         d="M 1979.88,1439.95 1956.45,98.0898 c 7.81,-0.1328 15.62,-0.2031 23.43,-0.2031 148.68,0 296.34,24.7113 436.93,73.1173" /><path
         id="path30"
         style="fill:none;stroke:#4682b4;stroke-width:1.20000005;stroke-linecap:butt;stroke-linejoin:miter;stroke-miterlimit:10;stroke-dasharray:none;stroke-opacity:1"
         d="M 1979.88,1439.95 1956.45,98.0898 c 7.81,-0.1328 15.62,-0.2031 23.43,-0.2031 148.68,0 296.34,24.7113 436.93,73.1173 z" /><path
         id="path32"
         style="fill:#a346d5;fill-opacity:1;fill-rule:nonzero;stroke:none"
         d="M 1979.88,1439.95 1677.98,132.285 c 91.37,-21.097 184.71,-32.5623 278.47,-34.1952" /><path
         id="path34"
         style="fill:none;stroke:#9931d0;stroke-width:1.20000005;stroke-linecap:butt;stroke-linejoin:miter;stroke-miterlimit:10;stroke-dasharray:none;stroke-opacity:1"
         d="M 1979.88,1439.95 1677.98,132.285 c 91.37,-21.097 184.71,-32.5623 278.47,-34.1952 z" /><path
         id="path36"
         style="fill:#f4af65;fill-opacity:1;fill-rule:nonzero;stroke:none"
         d="M 1979.88,1439.95 1434.01,213.914 c 78.52,-34.957 160.22,-62.297 243.97,-81.629" /><path
         id="path38"
         style="fill:none;stroke:#f3a654;stroke-width:1.20000005;stroke-linecap:butt;stroke-linejoin:miter;stroke-miterlimit:10;stroke-dasharray:none;stroke-opacity:1"
         d="M 1979.88,1439.95 1434.01,213.914 c 78.52,-34.957 160.22,-62.297 243.97,-81.629 z" /><path
         id="path40"
         style="fill:#3d983e;fill-opacity:1;fill-rule:nonzero;stroke:none"
         d="M 1979.88,1439.95 1210.1,340.598 c 70.4,-49.297 145.39,-91.727 223.91,-126.684" /><path
         id="path42"
         style="fill:none;stroke:#278d29;stroke-width:1.20000005;stroke-linecap:butt;stroke-linejoin:miter;stroke-miterlimit:10;stroke-dasharray:none;stroke-opacity:1"
         d="M 1979.88,1439.95 1210.1,340.598 c 70.4,-49.297 145.39,-91.727 223.91,-126.684 z" /><path
         id="path44"
         style="fill:#ffffaf;fill-opacity:1;fill-rule:nonzero;stroke:none"
         d="M 1979.88,1439.95 1030.89,490.969 C 1086.13,435.727 1146.1,385.41 1210.1,340.598" /><path
         id="path46"
         style="fill:none;stroke:#ffffa6;stroke-width:1.20000005;stroke-linecap:butt;stroke-linejoin:miter;stroke-miterlimit:10;stroke-dasharray:none;stroke-opacity:1"
         d="M 1979.88,1439.95 1030.89,490.969 C 1086.13,435.727 1146.1,385.41 1210.1,340.598 Z" /><path
         id="path48"
         style="fill:#1d1a92;fill-opacity:1;fill-rule:nonzero;stroke:none"
         d="M 1979.88,1439.95 867.25,689.48 c 48.063,-71.253 102.863,-137.734 163.64,-198.511" /><path
         id="path50"
         style="fill:none;stroke:#040186;stroke-width:1.20000005;stroke-linecap:butt;stroke-linejoin:miter;stroke-miterlimit:10;stroke-dasharray:none;stroke-opacity:1"
         d="M 1979.88,1439.95 867.25,689.48 c 48.063,-71.253 102.863,-137.734 163.64,-198.511 z" /><path
         id="path52"
         style="fill:#9f1922;fill-opacity:1;fill-rule:nonzero;stroke:none"
         d="M 1979.88,1439.95 763.551,872.773 C 793.262,809.055 827.938,747.766 867.25,689.48" /><path
         id="path54"
         style="fill:none;stroke:#940009;stroke-width:1.20000005;stroke-linecap:butt;stroke-linejoin:miter;stroke-miterlimit:10;stroke-dasharray:none;stroke-opacity:1"
         d="M 1979.88,1439.95 763.551,872.773 C 793.262,809.055 827.938,747.766 867.25,689.48 Z" /><path
         id="path56"
         style="fill:#e0e0e0;fill-opacity:1;fill-rule:nonzero;stroke:none"
         d="m 1979.88,1439.95 v 1342.07 c -741.21,0 -1342.071,-600.86 -1342.071,-1342.07 0,-195.97 42.921,-389.57 125.742,-567.177" /><path
         id="path58"
         style="fill:none;stroke:#dcdcdc;stroke-width:1.20000005;stroke-linecap:butt;stroke-linejoin:miter;stroke-miterlimit:10;stroke-dasharray:none;stroke-opacity:1"
         d="m 1979.88,1439.95 v 1342.07 c -741.21,0 -1342.071,-600.86 -1342.071,-1342.07 0,-195.97 42.921,-389.57 125.742,-567.177 z" /><g
         transform="scale(10)"
         id="g60"><text
           id="text84"
           style="font-variant:normal;font-weight:normal;font-size:11.00139999px;font-family:Helvetica;-inkscape-font-specification:Helvetica;writing-mode:lr-tb;fill:#000000;fill-opacity:1;fill-rule:nonzero;stroke:none"
           transform="matrix(1,0,0,-1,268.696,214.595)"><tspan
             id="tspan62"
             y="0"
             x="0 6.1167784 12.233557 15.291946 21.408724 27.525503">27.89%</tspan><tspan
             id="tspan64"
             y="127.302"
             x="14.2559 20.372679 23.431068 29.547846 35.664623 41.781403">9.238%</tspan><tspan
             id="tspan66"
             y="172.3098"
             x="-26.507401 -20.390621 -17.332232 -11.215454 -5.0986757 1.0181028">7.575%</tspan><tspan
             id="tspan68"
             y="189.3875"
             x="-71.527702 -65.410919 -62.352531 -56.235752 -50.118977 -44.002197">5.701%</tspan><tspan
             id="tspan70"
             y="189.83281"
             x="-103.9625 -97.845718 -94.787331 -88.670555 -82.553772 -76.436996">3.204%</tspan><tspan
             id="tspan72"
             y="184.77148"
             x="-126.1879 -120.07112 -117.01273 -110.89595 -104.77917 -98.662399 -126.1879 -120.07112 -117.01273 -110.89595 -104.77917 -98.662399">3.045%3.045%</tspan><tspan
             id="tspan74"
             y="175.86171"
             x="-146.3098 -140.19302 -137.13463 -131.01785 -124.90108 -118.78429">2.986%</tspan><tspan
             id="tspan76"
             y="163.51131"
             x="-164.15469 -158.03792 -154.97954 -148.86275 -142.74597 -136.6292">2.961%</tspan><tspan
             id="tspan78"
             y="148.51291"
             x="-175.9711 -169.85432 -166.79593 -160.67915 -154.56238">2.83%</tspan><tspan
             id="tspan80"
             y="132.56131"
             x="-190.1051 -183.98833 -180.92993 -174.81316 -168.69638 -162.57959">2.489%</tspan><tspan
             id="tspan82"
             y="12.375313"
             x="-187.71643 -181.59966 -175.48288 -172.42448 -166.30771 -160.19093">32.08%</tspan></text>
</g></g></g></svg>