<?xml version="1.0" encoding="UTF-8" standalone="no"?>
<!-- Created with Inkscape (http://www.inkscape.org/) -->

<svg
   width="210mm"
   height="297mm"
   viewBox="0 0 210 297"
   version="1.1"
   id="svg1669"
   inkscape:version="1.1.2 (b8e25be833, 2022-02-05)"
   sodipodi:docname="disclaimer-update.svg"
   xmlns:inkscape="http://www.inkscape.org/namespaces/inkscape"
   xmlns:sodipodi="http://sodipodi.sourceforge.net/DTD/sodipodi-0.dtd"
   xmlns="http://www.w3.org/2000/svg"
   xmlns:svg="http://www.w3.org/2000/svg"
   xmlns:rdf="http://www.w3.org/1999/02/22-rdf-syntax-ns#"
   xmlns:cc="http://creativecommons.org/ns#"
   xmlns:dc="http://purl.org/dc/elements/1.1/">
  <defs
     id="defs1663">
    <clipPath
       clipPathUnits="userSpaceOnUse"
       id="clipPath18-1">
      <path
         inkscape:connector-curvature="0"
         d="M 0,0 H 5808 V 1779.64 H 0 Z"
         id="path20-7" />
    </clipPath>
    <clipPath
       clipPathUnits="userSpaceOnUse"
       id="clipPath979">
      <path
         d="M 0,595.276 H 841.89 V 0 H 0 Z"
         id="path977" />
    </clipPath>
  </defs>
  <sodipodi:namedview
     id="base"
     pagecolor="#ffffff"
     bordercolor="#666666"
     borderopacity="1.0"
     inkscape:pageopacity="0.0"
     inkscape:pageshadow="2"
     inkscape:zoom="1.4"
     inkscape:cx="425.35714"
     inkscape:cy="980.71429"
     inkscape:document-units="mm"
     inkscape:current-layer="g1751"
     showgrid="false"
     inkscape:window-width="1920"
     inkscape:window-height="1027"
     inkscape:window-x="-8"
     inkscape:window-y="-8"
     inkscape:window-maximized="1"
     inkscape:pagecheckerboard="0" />
  <metadata
     id="metadata1666">
    <rdf:RDF>
      <cc:Work
         rdf:about="">
        <dc:format>image/svg+xml</dc:format>
        <dc:type
           rdf:resource="http://purl.org/dc/dcmitype/StillImage" />
      </cc:Work>
    </rdf:RDF>
  </metadata>
  <g
     inkscape:label="Layer 1"
     inkscape:groupmode="layer"
     id="layer1">
    <g
       id="g1905">
      <text
         id="text6973-3"
         y="256.36255"
         x="102.06562"
         style="font-style:normal;font-variant:normal;font-weight:normal;font-stretch:normal;font-size:3.96875px;line-height:0%;font-family:Arial;-inkscape-font-specification:Arial;text-align:start;letter-spacing:0px;word-spacing:0px;text-anchor:start;fill:#000000;fill-opacity:1;stroke:none;stroke-width:0.330729"
         xml:space="preserve"><tspan
           style="font-size:1.55886px;line-height:1;stroke-width:0.330729"
           y="256.36255"
           x="102.06562"
           id="tspan7494"
           sodipodi:role="line">Data source: Globocan 2018</tspan><tspan
           style="font-size:1.55886px;line-height:1;stroke-width:0.330729"
           y="257.92142"
           x="102.06562"
           id="tspan7496"
           sodipodi:role="line">Map production: IARC</tspan><tspan
           style="font-size:1.55886px;line-height:1;stroke-width:0.330729"
           y="259.48029"
           x="102.06562"
           id="tspan7498"
           sodipodi:role="line">World Health Organization</tspan><tspan
           style="font-size:1.55886px;line-height:1;stroke-width:0.330729"
           y="261.03915"
           x="102.06562"
           id="tspan7500"
           sodipodi:role="line"> </tspan></text>
      <g
         id="g1751">
        <g
           id="g975"
           clip-path="url(#clipPath979)"
           transform="matrix(0.05057023,0,0,-0.05057023,120.15038,268.7281)">
          <g
             id="g981"
             transform="translate(288.3358,242.7534)">
            <path
               d="m 0,0 c 0,-1.093 0.653,-1.859 1.841,-2.524 0,0 -0.004,0.185 -0.011,0.485 l -0.747,0.76 0.395,0.731 0.323,0.092 C 1.775,0.816 1.75,2.238 1.746,2.439 L 1.687,2.432 C 0.598,1.82 0,1.069 0,0 m -26.112,-24.431 0.078,0.295 -0.575,1.271 -0.682,0.258 z m 46.18,29.16 0.026,-0.503 1.106,0.337 0.339,0.688 -0.766,1.02 0.408,0.621 1.034,-0.749 0.189,0.154 -0.205,0.15 -0.234,0.449 0.424,0.25 -0.417,0.555 -0.967,-0.5 -0.339,-0.596 -0.193,-0.54 0.426,-0.729 -0.155,-0.344 z m 3.869,18.341 -0.388,0.634 -0.832,0.425 -0.651,-0.505 0.831,-0.45 0.936,-0.687 z m -46.232,-2.37 4.514,-4.594 c -5.261,-5.615 -8.525,-13.183 -8.627,-21.512 h -6.387 c 0.104,10.121 4.083,19.312 10.5,26.106 m -2.755,-35.797 -0.376,0.072 -0.357,0.405 -1.79,0.161 0.556,-0.77 -1.663,0.322 0.438,0.406 -0.406,0.406 -1.198,-0.529 -0.428,-0.81 0.165,-1.849 1.374,-3.36 0.666,-1.053 0.38,-0.143 -1.046,2.014 -0.228,1.023 0.235,0.254 -0.142,0.566 0.626,-0.086 0.963,-1.484 0.241,-0.099 -0.027,1.083 0.389,-0.232 0.085,-0.59 1.015,-0.273 0.421,0.31 0.146,-0.104 -0.018,-0.79 0.448,-0.56 0.541,-0.124 1.186,-2.039 0.715,-0.204 0.223,0.954 c 1.248,-2.096 2.729,-4.037 4.403,-5.782 l -4.513,-4.595 c -6.471,6.714 -10.537,15.835 -10.762,25.907 h 6.388 c 0.078,-2.916 0.546,-5.736 1.35,-8.407 m 6.307,8.407 c 0.022,-0.634 0.075,-1.259 0.145,-1.879 l -0.782,-0.18 -0.16,-0.811 -1.631,-2.104 0.042,-2.899 -1.671,-0.567 -0.915,-0.008 c -0.847,2.675 -1.342,5.51 -1.424,8.448 z m 1.431,-18.293 1.432,-0.851 0.297,-0.205 -1.038,-1.056 c -0.488,0.508 -0.952,1.039 -1.405,1.581 z m 5.833,34.674 4.514,-4.593 C -7.908,4.044 -8.716,2.863 -9.361,1.584 l -0.316,0.02 -0.636,-0.203 -0.218,0.022 -0.678,-0.64 0.856,0.14 0.768,0.196 C -9.631,1.02 -9.676,0.921 -9.72,0.82 l -0.672,-0.423 h -0.318 l -0.995,-0.768 -0.954,0.081 -1.392,-2.632 0.279,-0.527 -0.756,-0.849 -0.115,-1.108 h -2.852 c 0.1,5.829 2.366,11.128 6.016,15.097 m 4.626,-18.968 0.319,0.163 0.839,-0.641 -0.363,-0.303 0.938,-0.634 -0.058,0.682 0.498,0.843 0.525,-0.564 0.536,-0.784 -0.967,-0.218 0.439,-0.891 0.674,0.362 -0.087,0.286 0.502,0.348 0.298,1.414 c 0.366,-0.841 0.863,-1.611 1.466,-2.281 l -4.515,-4.594 c -2.153,2.303 -3.592,5.302 -3.955,8.628 l 0.924,-1.004 0.869,0.019 z m -6.483,4.857 0.12,1.295 0.755,0.445 1.354,-0.242 0.204,-0.25 c -0.118,-0.729 -0.188,-1.476 -0.205,-2.234 h -1.533 z m -2.1,-4.46 -0.604,-0.964 h -1.035 l -0.08,0.062 c -0.176,1.01 -0.288,2.041 -0.327,3.092 h 1.925 l -0.462,-1.569 z m 4.223,-12.71 c -0.463,0.486 -0.905,0.994 -1.324,1.521 l 0.196,1.643 -0.677,1.579 -0.159,2.469 -0.756,1.498 0.161,0.932 -0.916,1.78 -0.795,0.405 0.323,0.948 -0.334,0.749 0.329,0.854 h 0.875 l 0.308,0.522 h 1.491 l 0.233,-0.449 -0.28,-1.545 -0.182,-0.266 0.561,-1.242 -0.369,-0.206 -0.257,0.33 -0.108,-0.123 0.255,-0.738 0.438,-0.861 0.205,0.021 0.12,0.771 -0.213,0.284 -0.023,0.522 -0.064,1.079 0.313,1.907 -0.303,0.516 h 1.071 c 0.212,-3.988 1.847,-7.593 4.395,-10.306 z m 38.443,-6.302 c 5.253,5.525 8.56,12.978 8.782,21.202 h 6.387 C 42.175,-16.707 38.152,-25.783 31.744,-32.485 Z m -1.76,1.791 0.497,0.568 -0.469,2.512 -0.328,0.132 0.2,0.425 -1.067,0.344 -0.208,-0.901 -0.104,-1.138 -0.224,-0.208 -1.946,1.981 c 3.869,4.113 6.318,9.617 6.535,15.696 h 6.394 c -0.221,-7.871 -3.387,-15.002 -8.411,-20.294 z m -5.628,-6.073 0.6,1.312 -0.234,0.583 0.885,0.794 v 0.474 l -0.755,0.479 0.624,1.268 0.935,1.243 -0.935,1.031 H 20.26 l -0.438,0.718 c 0.377,0.317 0.747,0.642 1.104,0.983 l 4.518,-4.601 c -1.691,-1.639 -3.572,-3.08 -5.602,-4.284 m -0.864,12.683 -0.613,0.622 0.469,0.622 0.591,1.22 -0.231,0.345 0.393,0.905 -0.045,0.816 -0.236,0.845 -0.557,0.202 -0.206,-0.48 -0.332,0.091 c 0.481,0.781 0.988,1.515 1.335,2.376 l 0.575,0.252 0.321,0.443 0.157,-0.186 0.389,0.477 -0.312,0.397 0.286,0.078 0.52,-0.211 0.988,-0.027 0.597,0.317 1.559,0.423 -0.294,0.526 -0.101,0.639 0.837,-0.372 0.313,0.185 -0.156,0.662 -1.028,-0.392 -1.13,0.235 -0.859,1.791 h 4.887 c -0.216,-5.725 -2.524,-10.909 -6.165,-14.789 l -0.672,0.683 0.288,0.914 -0.52,2.01 z M 16.677,4.981 21.195,9.58 C 22.254,8.414 23.189,7.132 23.99,5.76 L 23.427,5.603 23.456,4.575 25.152,3.487 C 25.566,2.551 25.92,1.58 26.208,0.582 l -0.296,-0.441 -0.61,-0.396 -0.155,-0.955 -0.418,-0.236 -0.345,-0.421 -0.357,0.13 -0.621,0.027 0.364,0.501 0.257,1.297 0.417,0.265 -1.221,1.19 -0.91,-0.317 -0.207,-0.873 -0.573,-0.634 -0.596,0.503 -0.211,0.533 0.338,0.215 0.189,-0.351 0.28,0.103 -0.12,0.586 -0.399,0.024 -0.026,-0.237 -0.26,-0.055 -1.403,1.666 -0.474,0.374 0.18,0.199 0.427,0.152 -0.395,0.156 c 0,0 -0.496,-0.114 -0.552,-0.114 l 0.281,-0.362 -0.711,0.014 c -0.426,0.652 -0.893,1.274 -1.404,1.856 m 0.701,-25.082 -1.38,0.401 -0.416,-0.156 -0.779,0.608 -0.734,0.269 c 0.363,0.264 0.714,0.543 1.053,0.838 l 1.137,-0.816 0.867,-0.466 0.431,-0.438 z m -2.446,21.591 0.571,0.133 -0.026,0.14 -0.571,0.388 0.195,1.227 0.682,0.694 c 0.43,-0.494 0.827,-1.018 1.19,-1.566 L 16.732,1.752 16.107,2.203 15.634,2.071 15.867,1.623 h 0.235 L 15.843,0.962 15.66,1.226 Z m 7.669,-4.471 1.143,0.635 1.169,0.186 0.259,0.581 0.65,0.398 0.251,0.555 0.203,0.96 c 0.094,-0.339 0.18,-0.681 0.258,-1.025 l -0.619,-1.881 -0.027,-0.635 0.902,1.221 c 0.187,-1.116 0.297,-2.257 0.317,-3.42 h -5.598 l -0.13,0.495 0.65,0.527 0.128,0.32 0.286,0.21 0.755,0.08 0.078,0.343 z m 1.278,15.24 1.535,-0.071 0.363,-0.449 -0.181,-0.662 2.131,-1.349 0.417,0.053 2.726,-3.175 1.115,0.398 c 1.729,-3.783 2.717,-7.983 2.774,-12.41 h -6.391 c -0.027,1.697 -0.234,3.35 -0.593,4.946 l 0.291,0.401 0.397,2.037 -0.298,2.189 -0.77,2.517 -1.782,2.652 0.431,-0.233 0.218,0.222 -1.429,0.987 L 24.738,9.987 26.168,7.908 26.979,6.2 27.555,4.513 27.739,3.375 28.036,1.462 27.5,1.423 c 0,0 -0.616,1.17 -0.808,1.655 l 0.287,0.434 -0.544,0.795 V 5.099 L 26.044,5.602 25.561,5.537 C 25.387,5.865 25.206,6.189 25.018,6.508 L 25.359,6.329 25.452,6.424 25.269,6.833 25.685,7.071 25.497,7.31 24.88,7.071 25.104,8.059 24.739,8.271 24.41,7.483 c -0.698,1.063 -1.472,2.07 -2.323,3.004 z m 8.134,8.331 C 38.367,13.808 42.303,4.659 42.405,-5.406 H 36.02 c -0.061,4.984 -1.256,9.695 -3.333,13.88 l 0.055,0.117 0.443,-0.238 0.104,0.343 -1.144,2.037 -1.351,1.906 -1.587,1.347 c -0.543,0.694 -1.113,1.364 -1.711,2.008 z m -18.818,-38.628 -0.004,0.032 0.013,-0.026 c -0.003,-0.002 -0.006,-0.005 -0.009,-0.006 m -8.388,-27.33 c 21.429,0 38.864,17.747 38.864,39.56 0,20.46 -15.339,37.342 -34.927,39.358 C 8.729,33.474 8.713,33.396 8.697,33.321 8.619,32.938 8.55,32.591 8.493,32.284 17.266,31.411 25.162,27.457 31.125,21.502 l -4.289,-4.365 0.163,0.766 -0.56,0.254 -0.774,0.045 0.165,0.504 -0.519,1.787 -1.068,1.193 -3.351,1.799 -0.287,-0.313 -0.609,-0.18 c 1.151,-1.726 1.774,-3.719 1.774,-5.736 0,-0.262 -0.006,-0.52 -0.02,-0.774 l 1.662,-2.125 -0.779,-0.184 0.514,-0.79 -1.464,-1.491 -0.589,1.142 c -0.282,-0.798 -0.654,-1.539 -1.11,-2.228 0.11,-0.104 0.222,-0.203 0.328,-0.309 L 15.799,5.902 C 15.524,6.169 15.238,6.423 14.947,6.669 14.515,6.465 14.074,6.273 13.624,6.098 13.754,5.998 13.883,5.897 14.01,5.794 L 13.78,5.561 13.252,5.258 13.054,4.721 12.725,5.057 11.773,4.732 l 0.261,-0.425 0.658,0.178 0.428,-0.033 0.032,0.235 0.331,0.168 0.099,0.202 0.594,0.167 0.461,0.021 c 0.091,-0.083 0.182,-0.164 0.27,-0.25 L 13.116,3.173 12.982,3.369 11.112,3.052 10.695,2.627 10.283,2.577 11.447,3.711 11.03,3.923 9.947,2.445 10.265,2.479 10.246,1.937 10.643,1.781 10.722,1.198 10.07,1.332 9.389,1.203 7.748,2.063 c 0,0 -0.091,-4.491 -0.137,-6.748 3.877,-1.327 7.993,-3.244 7.993,-8.281 0,-2.21 -0.939,-3.999 -2.789,-5.318 l 0.016,-0.005 -0.085,-0.056 -0.009,0.005 c -0.042,-0.028 -0.081,-0.058 -0.124,-0.088 -1.568,-1.054 -3.585,-1.616 -5.334,-2.175 -0.009,-0.003 -0.052,-3.525 -0.052,-3.525 2.782,-1.407 6.155,-3.455 5.845,-9.311 -0.038,-1.442 -0.592,-1.837 -1.062,-1.969 v -10e-4 c -1.628,-0.41 -3.309,-0.683 -5.027,-0.809 -0.008,-0.453 -0.016,-0.888 -0.023,-1.29 7.487,0.523 14.258,3.741 19.377,8.71 l 4.514,-4.593 C 24.088,-40.01 14.906,-44.085 4.807,-44.085 c -10.046,0 -19.185,4.03 -25.937,10.586 l 4.516,4.597 c 5.068,-4.872 11.732,-8.041 19.1,-8.595 -0.007,0.397 -0.013,0.83 -0.022,1.29 -7.011,0.555 -13.353,3.577 -18.186,8.213 l 1.206,1.227 1.653,-0.193 0.88,0.964 2.306,-0.081 0.341,0.815 -0.081,0.343 c 3.342,-2.583 7.376,-4.279 11.766,-4.746 -0.009,0.5 -0.017,0.939 -0.024,1.294 -4.847,0.549 -9.232,2.683 -12.638,5.882 l 4.519,4.599 c 1.095,-0.997 2.327,-1.84 3.662,-2.501 0.101,0.439 0.253,0.842 0.454,1.208 -1.17,0.59 -2.255,1.329 -3.222,2.203 l 4.527,4.608 c 0.718,-0.588 1.535,-1.052 2.42,-1.372 -0.009,0.459 -0.019,0.936 -0.027,1.387 -0.537,0.237 -1.039,0.539 -1.496,0.898 l 1.278,1.301 c -0.448,0.137 -0.901,0.283 -1.351,0.44 l -0.853,-0.869 c -0.433,0.488 -0.798,1.038 -1.085,1.635 -0.78,0.349 -1.534,0.748 -2.236,1.218 -2.783,1.862 -4.193,4.49 -4.193,7.809 0,2.535 0.697,4.455 1.829,5.944 l -4.504,4.585 c 3.244,3.155 7.417,5.329 12.056,6.042 -0.009,0.445 -0.018,0.879 -0.025,1.292 -4.976,-0.729 -9.453,-3.045 -12.922,-6.427 l -0.761,0.773 c -0.173,-0.307 -0.375,-0.701 -0.607,-1.197 l 0.48,-0.488 c -3.878,-4.203 -6.285,-9.823 -6.386,-16.005 h -6.391 c 0.101,7.974 3.224,15.222 8.257,20.605 l 2.031,-2.067 c 0.092,-10e-4 0.189,10e-4 0.288,0.009 0.358,0.026 0.76,0.14 1.151,0.342 L -16,16.109 c 1.364,1.341 2.852,2.552 4.444,3.614 0.128,0.437 0.247,0.818 0.316,0.957 0.078,0.159 0.483,0.704 0.977,1.333 -2.424,-1.367 -4.652,-3.05 -6.629,-4.996 l -4.512,4.592 c 5.92,5.866 13.724,9.768 22.39,10.662 -0.029,0.157 -0.051,0.278 -0.051,0.278 -0.06,0.305 -0.124,0.639 -0.189,0.987 -19.53,-2.073 -34.807,-18.926 -34.807,-39.344 0,-21.813 17.436,-39.56 38.868,-39.56 M -13.43,11.678 c 0.043,0.263 0.094,0.476 0.161,0.712 -0.237,-0.061 -0.51,-0.088 -0.78,-0.082 z M 8.642,-12.966 c 0,0.33 -0.427,0.653 -1.064,0.957 l -0.114,0.001 c -0.006,-0.267 -0.028,-1.579 -0.042,-2.222 0.784,0.36 1.22,0.744 1.22,1.264 m 3.671,41.815 0.381,0.348 -0.723,0.313 -1.908,0.037 -0.496,-0.35 -1.124,0.095 -0.013,-0.278 c 0.716,-0.047 1.413,-0.116 1.964,-0.212 l 0.928,0.086 z m 1.444,-12.471 c -1.793,0.754 -3.695,1.291 -5.678,1.574 -0.009,-0.427 -0.017,-0.861 -0.027,-1.293 1.828,-0.272 3.583,-0.77 5.239,-1.467 0.221,0.355 0.378,0.746 0.466,1.186 M 37.95,22.1 C 40.966,12.022 48.093,14.262 52.863,3.688 52.362,7.243 56.336,18.574 47.011,25.576 50.128,21.689 49.204,14.49 51.049,9.783 47.436,17.705 39.652,19.009 37.95,22.1 m -68.391,1.18 c 2.152,2.61 2.882,6.198 6.258,8.787 -6.93,-1.503 -12.793,-7.817 -14.37,-15.546 2.205,2.614 5.96,4.151 8.112,6.759 M 46.628,0.568 c -0.473,-10.24 5.143,-12.045 4.791,-21.002 2.388,6.249 11.683,8.022 8.201,22.93 0.066,-5.717 -4.935,-9.042 -7.027,-17.983 0.412,10.065 -3.465,11.181 -5.965,16.055 m 14.304,-11.319 c -1.853,-5.64 -8.258,-8.698 -12.396,-16.921 2.345,9.703 -1.13,12.292 -1.494,17.599 -3.481,-9.426 1.101,-12.81 -1.479,-22.63 3.073,4.254 15.239,6.535 15.369,21.952 m -7.245,7.915 C 52.623,2.242 50.099,5.727 46.938,8.376 44.622,10.318 44.011,10.845 43.142,12.082 46.45,0.758 51.541,0.69 53.749,-7.865 54.07,-3.421 63.102,3.933 54.557,16.212 56.763,10.485 53.446,2.63 53.687,-2.836 m -87.299,14.918 c -0.869,-1.237 -1.48,-1.764 -3.797,-3.706 -3.16,-2.649 -5.685,-6.134 -6.747,-11.212 0.24,5.466 -3.077,13.321 -0.87,19.048 -8.545,-12.279 0.486,-19.633 0.806,-24.077 2.208,8.555 7.299,8.623 10.608,19.947 M -37.099,0.568 c -2.498,-4.874 -6.376,-5.99 -5.964,-16.055 -2.091,8.941 -7.093,12.266 -7.028,17.983 -3.48,-14.908 5.814,-16.681 8.201,-22.93 -0.351,8.957 5.265,10.762 4.791,21.002 m 62.903,-50.429 c -3.936,1.069 -7.988,1.599 -11.004,1.676 -3.762,0.095 -7.124,-0.628 -10.034,-1.733 -2.912,1.105 -6.274,1.828 -10.036,1.733 -3.017,-0.077 -7.069,-0.607 -11.003,-1.676 -6.052,-1.642 -11.287,-2.912 -15.846,-0.563 4.369,-3.948 9.472,-5.356 16.843,-4.55 6.136,0.674 11.086,3.794 16.871,3.753 0.077,-0.001 0.151,-0.006 0.226,-0.008 -6.095,-3.13 -9.536,-7.545 -9.536,-7.545 l 2.79,-0.384 c 0,0 2.938,6.01 9.69,7.57 6.752,-1.56 9.689,-7.57 9.689,-7.57 l 2.791,0.384 c 0,0 -3.44,4.415 -9.537,7.545 0.076,0.002 0.149,0.007 0.226,0.008 5.786,0.041 10.735,-3.079 16.873,-3.753 7.371,-0.806 12.472,0.602 16.841,4.55 -4.559,-2.349 -9.794,-1.079 -15.844,0.563 m 16.074,12.448 c 3.998,5.68 1.483,11.619 2.34,15.741 -6.437,-9.861 -2.9,-14.065 -7.226,-20.39 5.263,3.819 16.914,0.2 21.388,17.767 -3.587,-7.188 -12.356,-8.392 -16.502,-13.118 m -10.524,-8.786 c 6.788,6.543 4.59,10.75 6.722,14.097 -10.063,-9.164 -7.619,-12.017 -11.2,-17.062 3.778,1.837 17.111,-4.197 24.694,10.571 -4.414,-5.325 -13.576,-3.62 -20.216,-7.606 m -48.701,-2.965 c -3.58,5.045 -1.136,7.898 -11.2,17.062 2.133,-3.347 -0.065,-7.554 6.722,-14.097 -6.639,3.986 -15.802,2.281 -20.216,7.606 7.583,-14.768 20.917,-8.734 24.694,-10.571 m -18.687,16.461 c -2.578,9.82 2.003,13.204 -1.479,22.63 -0.363,-5.307 -3.838,-7.896 -1.493,-17.599 -4.139,8.223 -10.543,11.281 -12.396,16.921 0.129,-15.417 12.297,-17.698 15.368,-21.952 m 1.346,11.031 c 0.856,-4.122 -1.658,-10.061 2.339,-15.741 -4.145,4.726 -12.914,5.93 -16.502,13.118 4.475,-17.567 16.126,-13.948 21.388,-17.767 -4.326,6.325 -0.788,10.529 -7.225,20.39 m -8.646,25.36 c 4.771,10.574 11.897,8.334 14.913,18.412 -1.702,-3.091 -9.485,-4.395 -13.098,-12.317 1.845,4.707 0.92,11.906 4.039,15.793 -9.327,-7.002 -5.352,-18.333 -5.854,-21.888 M 39.971,23.28 c 2.151,-2.608 5.906,-4.145 8.111,-6.759 -1.577,7.729 -7.438,14.043 -14.37,15.546 3.376,-2.589 4.107,-6.177 6.259,-8.787"
               style="fill:#000000;fill-opacity:1;fill-rule:nonzero;stroke:none"
               id="path983" />
          </g>
          <g
             id="g985"
             transform="translate(295.4715,214.5776)">
            <path
               d="M 0,0 C 2.002,-1.031 3.853,-2.455 4.626,-5.16 4.964,-0.684 2.499,1.258 0.052,2.568 0.054,2.563 -0.002,-0.001 0,0"
               style="fill:#000000;fill-opacity:1;fill-rule:nonzero;stroke:none"
               id="path987" />
          </g>
          <g
             id="g989"
             transform="translate(308.7918,260.0093)">
            <path
               d="m 0,0 c 0,4.069 -2.901,8.58 -10.003,10.174 -0.523,0.117 -1.327,0.2 -2.165,0.255 -0.015,-0.614 -0.047,-2.017 -0.047,-2.017 -0.01,-0.441 -0.045,-2.07 -0.053,-2.42 0.655,-0.057 1.139,-0.139 1.364,-0.195 C -6.777,4.793 -5.3,2.383 -5.3,0 c 0,-3.859 -3.245,-5.314 -7.229,-6.415 -0.433,-0.119 -0.875,-0.234 -1.321,-0.35 -1.209,-0.306 -2.457,-0.602 -3.683,-0.939 -0.441,-0.12 -0.878,-0.248 -1.309,-0.381 -4.421,-1.37 -8.217,-3.538 -8.217,-9.096 0,-5.504 4.331,-7.561 8.563,-8.886 -0.03,1.582 -0.06,3.175 -0.09,4.771 -1.868,0.889 -3.185,2.064 -3.185,4.04 0,1.929 1.199,3.093 3.032,3.938 0.406,0.185 0.843,0.357 1.306,0.516 1.054,0.366 2.237,0.674 3.479,0.981 0.433,0.107 0.876,0.216 1.321,0.325 C -6.676,-10.027 0,-8.131 0,0"
               style="fill:#000000;fill-opacity:1;fill-rule:nonzero;stroke:none"
               id="path991" />
          </g>
          <g
             id="g993"
             transform="translate(287.3875,221.189)">
            <path
               d="M 0,0 C 0.011,-2.223 1.615,-3.436 3.226,-4.351 3.22,-3.977 3.156,-0.535 3.154,-0.477 3.19,0.21 3.844,0.621 4.37,0.875 5.146,1.248 5.93,1.518 6.93,1.87 c 0.475,0.168 0.885,0.333 1.341,0.473 3.233,0.99 6.97,2.254 6.97,6.256 0,4.007 -3.205,5.648 -6.71,6.879 C 8.507,14.2 8.47,12.34 8.444,11.052 9.925,10.46 10.904,9.74 10.904,8.599 10.904,7.167 9.4,6.341 8.335,5.923 7.893,5.747 7.215,5.518 7.028,5.458 6.168,5.186 5.243,4.873 4.382,4.549 3.927,4.376 3.485,4.187 3.073,3.972 1.559,3.182 -0.011,2.027 0,0"
               style="fill:#000000;fill-opacity:1;fill-rule:nonzero;stroke:none"
               id="path995" />
          </g>
          <g
             id="g997"
             transform="translate(281.3973,262.3462)">
            <path
               d="M 0,0 -1,-0.222 0.195,1.77 1.598,1.725 Z M 8.18,7.457 C 6.028,6.832 4.763,6.006 4.285,5.843 2.891,5.372 0.927,5.291 -1.102,3.043 -1.464,2.643 -2.342,1.516 -2.966,0.595 -3.577,-0.304 -3.604,-1.746 -4.055,-2.519 -4.705,-3.642 -4.55,-4.284 -4.55,-4.284 l 0.019,-0.032 c -0.023,-0.141 -0.154,-0.736 -0.745,-1.409 -0.68,-0.766 -1.572,-1.19 -2.634,-1.018 0.924,-0.47 2.202,0.187 2.202,0.187 0,0 -0.244,-0.71 -0.489,-1.871 1.038,2.392 1.988,3.264 2.286,3.507 0.447,-0.103 1.369,-0.061 3.084,0.94 C 1.11,-2.849 4.026,-0.999 4.85,0.169 5.738,1.43 6.961,2.264 8.283,2.804 8.246,4.566 8.211,6.135 8.18,7.457"
               style="fill:#000000;fill-opacity:1;fill-rule:nonzero;stroke:none"
               id="path999" />
          </g>
          <g
             id="g1001"
             transform="translate(293.577,221.4644)">
            <path
               d="m 0,0 c -0.185,-0.066 -0.671,-0.277 -0.978,-0.387 -0.324,-0.118 -0.736,-0.287 -0.736,-0.403 10e-4,-0.03 0.311,-17.243 0.311,-17.62 0,-3.545 1.776,-3.567 1.776,0 0,0.253 0.356,18.653 0.356,18.653 C 0.729,0.243 0.302,0.111 0,0"
               style="fill:#000000;fill-opacity:1;fill-rule:nonzero;stroke:none"
               id="path1003" />
          </g>
          <g
             id="g1005"
             transform="translate(291.743,227.144)">
            <path
               d="M 0,0 C 0.554,0.196 1.101,0.368 1.614,0.528 2,0.649 2.357,0.762 2.688,0.872 2.71,1.955 3.011,16.935 3.066,19.658 1.744,19.323 0.594,19.008 -0.355,18.654 -0.316,16.61 -0.03,1.637 0,0"
               style="fill:#000000;fill-opacity:1;fill-rule:nonzero;stroke:none"
               id="path1007" />
          </g>
          <g
             id="g1009"
             transform="translate(293.2195,284.5083)">
            <path
               d="m 0,0 c -4.98,0 -2.865,-7.52 -2.47,-9.971 0.018,-0.114 0.404,-16.987 0.482,-20.858 0.756,0.203 1.507,0.392 2.235,0.573 0.522,0.131 1.024,0.258 1.504,0.382 0.077,3.728 0.443,19.829 0.455,19.936 C 2.504,-7.318 5.113,0 0,0"
               style="fill:#000000;fill-opacity:1;fill-rule:nonzero;stroke:none"
               id="path1011" />
          </g>
          <g
             id="g1013"
             transform="translate(382.8524,262.1196)">
            <path
               d="M 0,0 H -0.081 L -4.557,-24.871 H -10.7 l -5.737,30.35 h 4.882 l 3.988,-23.393 h 0.081 l 4.272,23.393 h 6.347 l 4.232,-23.393 h 0.081 l 4.15,23.393 h 4.718 l -5.858,-30.35 H 4.231 Z"
               style="fill:#000000;fill-opacity:1;fill-rule:nonzero;stroke:none"
               id="path1015" />
          </g>
          <g
             id="g1017"
             transform="translate(407.8367,240.7261)">
            <path
               d="m 0,0 c 3.255,0 3.988,4.002 3.988,7.741 0,3.739 -0.733,7.696 -3.988,7.696 -3.255,0 -4.028,-3.957 -4.028,-7.696 C -4.028,4.002 -3.255,0 0,0 m 0,19.263 c 4.271,0 9.195,-2.392 9.195,-11.522 0,-9.392 -4.924,-11.566 -9.195,-11.566 -4.272,0 -9.236,2.174 -9.236,11.566 0,9.13 4.964,11.522 9.236,11.522"
               style="fill:#000000;fill-opacity:1;fill-rule:nonzero;stroke:none"
               id="path1019" />
          </g>
          <g
             id="g1021"
             transform="translate(420.1619,255.9458)">
            <path
               d="M 0,0 C 0,1.391 -0.039,2.695 -0.161,3.695 H 4.396 C 4.436,2.348 4.56,0.956 4.56,-0.392 h 0.08 c 0.611,1.74 2.197,4.435 5.33,4.435 0.327,0 0.569,-0.087 0.856,-0.13 V -1.131 C 10.377,-1 9.93,-0.914 9.4,-0.914 7.325,-0.914 5.046,-2.262 5.046,-6.435 V -18.697 H 0 Z"
               style="fill:#000000;fill-opacity:1;fill-rule:nonzero;stroke:none"
               id="path1023" />
          </g>
          <path
             d="m 434.168,269.859 h 5.045 v -32.61 h -5.045 z"
             style="fill:#000000;fill-opacity:1;fill-rule:nonzero;stroke:none"
             id="path1025" />
          <g
             id="g1027"
             transform="translate(451.2322,240.8569)">
            <path
               d="m 0,0 c 2.97,0 3.987,3.436 3.987,7.653 0,4.349 -1.139,7.523 -3.907,7.523 -2.809,0 -3.784,-2.913 -3.784,-7.393 C -3.704,2.609 -2.93,0 0,0 M 9.031,29.002 V 0.218 c 0,-1.609 0.042,-3 0.162,-3.826 H 4.476 C 4.395,-2.956 4.312,-1.651 4.312,-0.131 H 4.19 c -0.814,-1.912 -2.319,-3.825 -5.575,-3.825 -5.207,0 -7.363,5.306 -7.363,11.523 0,7.303 2.726,11.565 7.243,11.565 3.01,0 4.678,-1.825 5.41,-3.566 h 0.082 v 13.436 z"
               style="fill:#000000;fill-opacity:1;fill-rule:nonzero;stroke:none"
               id="path1029" />
          </g>
          <g
             id="g1031"
             transform="translate(476.8856,267.5981)">
            <path
               d="m 0,0 h 5.208 v -12.349 h 8.421 V 0 h 5.208 v -30.35 h -5.208 v 13.392 H 5.208 V -30.35 H 0 Z"
               style="fill:#000000;fill-opacity:1;fill-rule:nonzero;stroke:none"
               id="path1033" />
          </g>
          <g
             id="g1035"
             transform="translate(511.2244,250.3794)">
            <path
               d="M 0,0 C 0,3.957 -1.221,5.958 -3.499,5.958 -6.144,5.958 -7.241,2.957 -7.241,0 Z m 3.824,-12.044 c -1.057,-0.478 -3.256,-1.435 -6.264,-1.435 -6.755,0 -9.683,5.174 -9.683,11.219 0,6.696 3.295,11.869 8.624,11.869 4.516,0 8.38,-2.826 8.38,-11.957 V -3.392 H -7.241 c 0,-3.826 1.424,-6.13 5.329,-6.13 3.092,0 4.556,1.001 5.492,1.74 z"
               style="fill:#000000;fill-opacity:1;fill-rule:nonzero;stroke:none"
               id="path1037" />
          </g>
          <g
             id="g1039"
             transform="translate(530.5496,248.2056)">
            <path
               d="m 0,0 h -0.447 c -4.314,0 -6.875,-0.957 -6.875,-4.217 0,-2.044 1.26,-3.435 3.214,-3.435 3.01,0 4.108,2.39 4.108,6.392 z m -9.926,10.132 c 1.424,0.695 3.415,1.651 6.632,1.651 6.509,0 8.013,-3.39 8.013,-9 v -9.784 c 0,-1.608 0.164,-3.087 0.286,-3.956 H 0.448 C 0.203,-10.088 0.163,-9 0.163,-7.914 h -0.08 c -1.263,-1.825 -2.851,-3.391 -5.858,-3.391 -3.257,0 -6.266,2.391 -6.266,6.566 0,6.088 4.638,7.609 11.025,7.609 H 0 v 0.825 c 0,2.217 -1.016,4.262 -3.905,4.262 -2.523,0 -4.76,-1.305 -5.737,-2.174 z"
               style="fill:#000000;fill-opacity:1;fill-rule:nonzero;stroke:none"
               id="path1041" />
          </g>
          <path
             d="m 540.233,269.859 h 5.046 v -32.61 h -5.046 z"
             style="fill:#000000;fill-opacity:1;fill-rule:nonzero;stroke:none"
             id="path1043" />
          <g
             id="g1045"
             transform="translate(551.5838,264.2495)">
            <path
               d="m 0,0 5.047,1.652 v -6.26 H 9.236 V -8.564 H 5.047 v -11.611 c 0,-2.391 0.811,-3.088 2.277,-3.088 0.895,0 1.546,0.262 1.912,0.479 V -26.61 C 8.465,-27.001 7.364,-27.349 5.858,-27.349 2.116,-27.349 0,-25.521 0,-20.827 v 12.263 h -3.334 v 3.956 H 0 Z"
               style="fill:#000000;fill-opacity:1;fill-rule:nonzero;stroke:none"
               id="path1047" />
          </g>
          <g
             id="g1049"
             transform="translate(563.4236,269.8589)">
            <path
               d="m 0,0 h 5.045 v -13.087 h 0.122 c 0.895,1.392 2.074,3.217 5.207,3.217 4.762,0 6.185,-3.782 6.185,-8.305 V -32.61 h -5.046 v 13.435 c 0,3.434 -0.813,4.87 -2.887,4.87 -2.646,0 -3.581,-2.391 -3.581,-5.261 V -32.61 H 0 Z"
               style="fill:#000000;fill-opacity:1;fill-rule:nonzero;stroke:none"
               id="path1051" />
          </g>
          <g
             id="g1053"
             transform="translate(377.5242,202.2124)">
            <path
               d="m 0,0 c 3.295,0 5.938,2.999 5.938,11.348 0,8.348 -2.643,11.349 -5.938,11.349 -3.296,0 -5.941,-3.001 -5.941,-11.349 C -5.941,2.999 -3.296,0 0,0 m 0,26.958 c 5.899,0 11.31,-4.695 11.31,-15.61 C 11.31,0.435 5.899,-4.261 0,-4.261 c -5.9,0 -11.312,4.696 -11.312,15.609 0,10.915 5.412,15.61 11.312,15.61"
               style="fill:#000000;fill-opacity:1;fill-rule:nonzero;stroke:none"
               id="path1055" />
          </g>
          <g
             id="g1057"
             transform="translate(392.2332,217.0835)">
            <path
               d="M 0,0 C 0,1.392 -0.043,2.694 -0.163,3.695 H 4.394 C 4.435,2.347 4.556,0.955 4.556,-0.394 h 0.082 c 0.61,1.741 2.196,4.437 5.329,4.437 0.326,0 0.569,-0.088 0.854,-0.131 V -1.132 C 10.374,-1 9.928,-0.916 9.397,-0.916 7.322,-0.916 5.045,-2.262 5.045,-6.437 V -18.699 H 0 Z"
               style="fill:#000000;fill-opacity:1;fill-rule:nonzero;stroke:none"
               id="path1059" />
          </g>
          <g
             id="g1061"
             transform="translate(414.032,202.3423)">
            <path
               d="m 0,0 c 3.173,0 4.434,2.435 4.434,7.521 0,4.697 -1.669,7.22 -4.069,7.175 C -2.279,14.652 -3.296,12.045 -3.296,7.479 -3.296,2.218 -1.71,0 0,0 m -7.848,-7.436 c 1.179,-0.696 3.54,-1.913 6.186,-1.913 4.761,0 5.533,3.523 5.533,7.045 v 2.131 H 3.789 c -0.812,-1.74 -2.237,-3.785 -5.532,-3.785 -2.931,0 -7.324,2.088 -7.324,11.133 0,6.175 2.076,11.609 7.568,11.609 3.051,0 4.476,-1.87 5.534,-3.826 h 0.163 c 0,1.175 0.12,2.304 0.162,3.479 H 8.917 C 8.835,17.262 8.754,16.088 8.754,14.913 v -16.52 c 0,-7.003 -1.993,-12.002 -9.684,-12.002 -3.335,0 -5.98,0.913 -7.202,1.39 z"
               style="fill:#000000;fill-opacity:1;fill-rule:nonzero;stroke:none"
               id="path1063" />
          </g>
          <g
             id="g1065"
             transform="translate(438.1697,209.3423)">
            <path
               d="m 0,0 h -0.446 c -4.314,0 -6.877,-0.958 -6.877,-4.217 0,-2.044 1.261,-3.435 3.214,-3.435 3.01,0 4.109,2.39 4.109,6.391 z m -9.928,10.132 c 1.425,0.695 3.419,1.652 6.632,1.652 6.511,0 8.016,-3.391 8.016,-9.001 L 4.72,-7 c 0,-1.607 0.162,-3.087 0.284,-3.958 H 0.448 C 0.204,-10.087 0.162,-9 0.162,-7.913 H 0.08 c -1.26,-1.826 -2.848,-3.392 -5.857,-3.392 -3.254,0 -6.265,2.392 -6.265,6.566 0,6.087 4.638,7.609 11.024,7.609 H 0 v 0.825 c 0,2.218 -1.018,4.263 -3.905,4.263 -2.524,0 -4.76,-1.306 -5.737,-2.176 z"
               style="fill:#000000;fill-opacity:1;fill-rule:nonzero;stroke:none"
               id="path1067" />
          </g>
          <g
             id="g1069"
             transform="translate(447.9754,217.0835)">
            <path
               d="M 0,0 C 0,1.392 -0.041,2.694 -0.164,3.695 H 4.557 C 4.598,2.564 4.72,1.392 4.72,0.259 H 4.842 4.801 c 0.732,1.348 2.156,3.784 5.575,3.784 4.759,0 6.184,-3.784 6.184,-8.305 v -14.437 h -5.045 v 13.436 c 0,3.435 -0.815,4.869 -2.889,4.869 -2.646,0 -3.58,-2.389 -3.58,-5.259 V -18.699 H 0 Z"
               style="fill:#000000;fill-opacity:1;fill-rule:nonzero;stroke:none"
               id="path1071" />
          </g>
          <path
             d="m 469.163,220.779 h 5.046 v -22.395 h -5.046 z m -0.081,9.521 h 5.209 v -5.305 h -5.209 z"
             style="fill:#000000;fill-opacity:1;fill-rule:nonzero;stroke:none"
             id="path1073" />
          <g
             id="g1075"
             transform="translate(478.9031,203.0386)">
            <path
               d="M 0,0 8.951,13.651 H 0.285 V 17.74 H 13.997 V 13.129 L 5.21,-0.565 h 9.07 V -4.654 H 0 Z"
               style="fill:#000000;fill-opacity:1;fill-rule:nonzero;stroke:none"
               id="path1077" />
          </g>
          <g
             id="g1079"
             transform="translate(507.8875,209.3423)">
            <path
               d="m 0,0 h -0.447 c -4.314,0 -6.877,-0.958 -6.877,-4.217 0,-2.044 1.262,-3.435 3.214,-3.435 3.011,0 4.11,2.39 4.11,6.391 z m -9.929,10.132 c 1.425,0.695 3.418,1.652 6.634,1.652 6.51,0 8.014,-3.391 8.014,-9.001 V -7 c 0,-1.607 0.162,-3.087 0.286,-3.958 H 0.449 C 0.202,-10.087 0.163,-9 0.163,-7.913 H 0.081 c -1.261,-1.826 -2.848,-3.392 -5.856,-3.392 -3.257,0 -6.267,2.392 -6.267,6.566 0,6.087 4.637,7.609 11.025,7.609 H 0 v 0.825 c 0,2.218 -1.017,4.263 -3.905,4.263 -2.523,0 -4.761,-1.306 -5.737,-2.176 z"
               style="fill:#000000;fill-opacity:1;fill-rule:nonzero;stroke:none"
               id="path1081" />
          </g>
          <g
             id="g1083"
             transform="translate(518.409,225.3872)">
            <path
               d="m 0,0 5.044,1.652 v -6.26 H 9.236 V -8.566 H 5.044 v -11.61 c 0,-2.39 0.814,-3.085 2.279,-3.085 0.896,0 1.546,0.259 1.913,0.477 V -26.61 C 8.462,-27.003 7.365,-27.35 5.858,-27.35 2.116,-27.35 0,-25.523 0,-20.827 v 12.261 h -3.337 v 3.958 H 0 Z"
               style="fill:#000000;fill-opacity:1;fill-rule:nonzero;stroke:none"
               id="path1085" />
          </g>
          <path
             d="m 531.753,220.779 h 5.046 v -22.395 h -5.046 z m -0.643,9.521 h 5.207 v -5.305 h -5.207 z"
             style="fill:#000000;fill-opacity:1;fill-rule:nonzero;stroke:none"
             id="path1087" />
          <g
             id="g1089"
             transform="translate(549.8992,201.8628)">
            <path
               d="m 0,0 c 3.254,0 3.987,4.003 3.987,7.739 0,3.741 -0.733,7.699 -3.987,7.699 -3.255,0 -4.026,-3.958 -4.026,-7.699 C -4.026,4.003 -3.255,0 0,0 m 0,19.264 c 4.271,0 9.194,-2.392 9.194,-11.525 0,-9.39 -4.923,-11.564 -9.194,-11.564 -4.272,0 -9.235,2.174 -9.235,11.564 0,9.133 4.963,11.525 9.235,11.525"
               style="fill:#000000;fill-opacity:1;fill-rule:nonzero;stroke:none"
               id="path1091" />
          </g>
          <g
             id="g1093"
             transform="translate(563.4891,217.0835)">
            <path
               d="m 0,0 c 0,1.392 -0.044,2.694 -0.165,3.695 h 4.72 C 4.596,2.564 4.719,1.392 4.719,0.259 H 4.84 4.8 c 0.732,1.348 2.155,3.784 5.572,3.784 4.761,0 6.186,-3.784 6.186,-8.305 v -14.437 h -5.044 v 13.436 c 0,3.435 -0.816,4.869 -2.892,4.869 -2.642,0 -3.577,-2.389 -3.577,-5.259 V -18.699 H 0 Z"
               style="fill:#000000;fill-opacity:1;fill-rule:nonzero;stroke:none"
               id="path1095" />
          </g>
          <path
             d="m 246.386,373.843 h -5.009 v 30.297 h 5.009 z"
             style="fill:#000000;fill-opacity:1;fill-rule:nonzero;stroke:none"
             id="path1097" />
          <g
             id="g1099"
             transform="translate(255.6727,396.3335)">
            <path
               d="m 0,0 0.109,-3.594 c 1.477,2.632 3.545,3.948 6.207,3.948 2.468,0 4.132,-0.89 4.991,-2.672 0.859,-1.783 1.289,-4.285 1.289,-7.508 V -22.49 H 7.841 v 11.311 c 0,1.996 -0.208,3.616 -0.626,4.858 -0.417,1.242 -1.321,1.863 -2.713,1.863 -1.487,0 -2.534,-0.729 -3.139,-2.186 C 0.758,-8.1 0.456,-9.826 0.456,-11.822 V -22.49 h -4.791 v 14.305 c 0,3.179 -0.061,5.908 -0.182,8.185 z"
               style="fill:#000000;fill-opacity:1;fill-rule:nonzero;stroke:none"
               id="path1101" />
          </g>
          <g
             id="g1103"
             transform="translate(282.3484,378.6567)">
            <path
               d="m 0,0 0.163,-4.547 c -1.21,-0.296 -2.28,-0.443 -3.212,-0.443 -1.56,0 -2.795,0.35 -3.702,1.052 -0.907,0.703 -1.542,1.701 -1.905,2.995 C -9.02,0.351 -9.2,1.937 -9.2,3.814 v 9.405 h -3.467 v 4.324 h 3.539 v 4.569 l 4.754,1.908 v -6.477 h 4.192 V 13.219 H -4.374 V 5.034 c 0,-1.745 0.154,-3.071 0.463,-3.981 0.308,-0.909 1.067,-1.364 2.277,-1.364 0.447,0 0.992,0.103 1.634,0.311"
               style="fill:#000000;fill-opacity:1;fill-rule:nonzero;stroke:none"
               id="path1105" />
          </g>
          <g
             id="g1107"
             transform="translate(296.4822,387.2397)">
            <path
               d="M 0,0 C -0.024,1.005 -0.173,1.93 -0.444,2.772 -0.717,3.615 -1.134,4.295 -1.697,4.812 -2.26,5.33 -2.958,5.589 -3.793,5.589 -4.651,5.589 -5.387,5.334 -5.997,4.824 -6.608,4.313 -7.08,3.638 -7.413,2.795 -7.746,1.951 -7.948,1.021 -8.021,0 Z m 3.229,-7.408 0.074,-5.034 c -1.949,-1.036 -4.053,-1.553 -6.316,-1.553 -1.511,0 -2.857,0.263 -4.037,0.787 -1.179,0.525 -2.186,1.301 -3.021,2.329 -0.835,1.027 -1.47,2.27 -1.906,3.726 -0.435,1.457 -0.653,3.116 -0.653,4.979 0,1.715 0.202,3.294 0.608,4.736 0.405,1.441 0.989,2.691 1.751,3.748 0.762,1.057 1.703,1.881 2.822,2.473 C -6.33,9.374 -5.062,9.67 -3.647,9.67 -2.269,9.67 -1.053,9.367 0,8.761 1.053,8.154 1.908,7.319 2.567,6.254 3.227,5.189 3.72,3.959 4.047,2.562 4.373,1.164 4.536,-0.37 4.536,-2.041 4.536,-2.337 4.53,-2.559 4.519,-2.706 4.506,-2.854 4.494,-3.039 4.482,-3.261 4.47,-3.482 4.452,-3.741 4.428,-4.037 H -7.948 c 0.121,-1.774 0.686,-3.156 1.696,-4.148 1.011,-0.99 2.266,-1.485 3.766,-1.485 1.693,0 3.598,0.754 5.715,2.262"
               style="fill:#000000;fill-opacity:1;fill-rule:nonzero;stroke:none"
               id="path1109" />
          </g>
          <g
             id="g1111"
             transform="translate(308.8563,373.8433)">
            <path
               d="m 0,0 h -4.755 v 15.726 c -0.06,3.74 -0.108,5.995 -0.144,6.764 h 4.318 l 0.109,-5.678 c 0.411,1.774 1.037,3.194 1.878,4.258 0.841,1.065 1.939,1.597 3.294,1.597 0.411,0 0.877,-0.074 1.397,-0.222 V 16.989 C 5.468,17.196 4.911,17.3 4.428,17.3 3.303,17.3 2.407,16.937 1.742,16.213 1.076,15.488 0.619,14.561 0.372,13.43 0.124,12.299 0,11.06 0,9.715 V 9.271 Z"
               style="fill:#000000;fill-opacity:1;fill-rule:nonzero;stroke:none"
               id="path1113" />
          </g>
          <g
             id="g1115"
             transform="translate(321.5369,396.3335)">
            <path
               d="m 0,0 0.109,-3.594 c 1.477,2.632 3.545,3.948 6.207,3.948 2.468,0 4.132,-0.89 4.991,-2.672 0.859,-1.783 1.289,-4.285 1.289,-7.508 V -22.49 H 7.841 v 11.311 c 0,1.996 -0.208,3.616 -0.626,4.858 -0.417,1.242 -1.321,1.863 -2.713,1.863 -1.487,0 -2.534,-0.729 -3.139,-2.186 C 0.758,-8.1 0.456,-9.826 0.456,-11.822 V -22.49 h -4.791 v 14.305 c 0,3.179 -0.061,5.908 -0.182,8.185 z"
               style="fill:#000000;fill-opacity:1;fill-rule:nonzero;stroke:none"
               id="path1117" />
          </g>
          <g
             id="g1119"
             transform="translate(348.8113,384.0679)">
            <path
               d="m 0,0 c -0.121,0.029 -0.309,0.045 -0.562,0.045 h -0.582 c -1.04,0 -1.993,-0.07 -2.857,-0.211 -0.865,-0.141 -1.622,-0.496 -2.269,-1.064 -0.647,-0.57 -0.97,-1.402 -0.97,-2.496 0,-0.887 0.287,-1.593 0.861,-2.118 0.575,-0.525 1.243,-0.788 2.006,-0.788 1.439,0 2.528,0.652 3.266,1.952 C -0.369,-3.379 0,-1.818 0,0 M 4.464,-10.225 H 0.218 l -0.072,3.371 c -0.57,-1.197 -1.365,-2.118 -2.387,-2.76 -1.023,-0.644 -2.132,-0.965 -3.33,-0.965 -1.222,0 -2.314,0.259 -3.276,0.776 -0.962,0.518 -1.72,1.305 -2.277,2.363 -0.557,1.056 -0.835,2.339 -0.835,3.847 0,2.809 0.901,4.732 2.704,5.767 1.803,1.035 3.998,1.553 6.587,1.553 0.375,0 0.617,-0.004 0.727,-0.012 0.108,-0.007 0.35,-0.022 0.725,-0.044 0.375,-0.023 0.756,-0.048 1.144,-0.078 0,1.671 -0.333,2.913 -0.998,3.726 -0.666,0.813 -1.695,1.22 -3.085,1.22 -2.106,0 -4.005,-0.82 -5.699,-2.462 l -0.145,5.057 c 1.972,1.02 4.107,1.53 6.406,1.53 0.859,0 1.711,-0.103 2.559,-0.31 0.847,-0.208 1.63,-0.551 2.349,-1.032 0.72,-0.48 1.319,-1.12 1.797,-1.918 C 3.59,8.605 3.904,7.692 4.056,6.665 4.207,5.637 4.282,4.414 4.282,2.994 c 0,-1.464 0.003,-2.935 0.009,-4.413 0.007,-1.479 0.019,-2.828 0.037,-4.048 0.018,-1.22 0.064,-2.805 0.136,-4.758"
               style="fill:#000000;fill-opacity:1;fill-rule:nonzero;stroke:none"
               id="path1121" />
          </g>
          <g
             id="g1123"
             transform="translate(367.3553,378.6567)">
            <path
               d="m 0,0 0.163,-4.547 c -1.21,-0.296 -2.28,-0.443 -3.212,-0.443 -1.56,0 -2.795,0.35 -3.702,1.052 -0.907,0.703 -1.542,1.701 -1.905,2.995 C -9.02,0.351 -9.2,1.937 -9.2,3.814 v 9.405 h -3.467 v 4.324 h 3.539 v 4.569 l 4.754,1.908 v -6.477 h 4.192 V 13.219 H -4.374 V 5.034 c 0,-1.745 0.154,-3.071 0.463,-3.981 0.308,-0.909 1.067,-1.364 2.277,-1.364 0.447,0 0.992,0.103 1.634,0.311"
               style="fill:#000000;fill-opacity:1;fill-rule:nonzero;stroke:none"
               id="path1125" />
          </g>
          <path
             d="m 374.684,373.843 h -4.755 v 22.49 h 4.755 z m 0.073,26.571 h -4.899 v 5.501 h 4.899 z"
             style="fill:#000000;fill-opacity:1;fill-rule:nonzero;stroke:none"
             id="path1127" />
          <g
             id="g1129"
             transform="translate(391.7401,385.0103)">
            <path
               d="m 0,0 c 0,1.211 -0.161,2.399 -0.481,3.566 -0.321,1.166 -0.832,2.126 -1.534,2.879 -0.701,0.753 -1.566,1.129 -2.594,1.129 -0.98,0 -1.825,-0.369 -2.532,-1.107 -0.708,-0.738 -1.231,-1.679 -1.57,-2.823 -0.339,-1.145 -0.508,-2.3 -0.508,-3.466 0,-1.255 0.16,-2.466 0.482,-3.632 0.32,-1.167 0.831,-2.123 1.533,-2.868 0.701,-0.746 1.591,-1.118 2.667,-1.118 0.763,0 1.433,0.224 2.015,0.674 0.58,0.451 1.052,1.027 1.415,1.728 0.363,0.701 0.638,1.491 0.826,2.37 C -0.094,-1.79 0,-0.9 0,0 m 4.936,-0.122 c 0,-1.73 -0.23,-3.316 -0.69,-4.757 -0.46,-1.441 -1.11,-2.669 -1.951,-3.682 -0.841,-1.012 -1.848,-1.8 -3.022,-2.362 -1.172,-0.561 -2.479,-0.843 -3.919,-0.843 -1.899,0 -3.569,0.503 -5.008,1.508 -1.44,1.006 -2.55,2.425 -3.33,4.259 -0.781,1.833 -1.17,3.895 -1.17,6.187 0,2.292 0.399,4.326 1.197,6.1 0.799,1.775 1.921,3.153 3.366,4.137 1.445,0.982 3.107,1.474 4.982,1.474 1.452,0 2.767,-0.295 3.947,-0.886 C 0.517,10.421 1.524,9.582 2.358,8.495 3.193,7.408 3.831,6.133 4.273,4.669 4.715,3.205 4.936,1.608 4.936,-0.122"
               style="fill:#000000;fill-opacity:1;fill-rule:nonzero;stroke:none"
               id="path1131" />
          </g>
          <g
             id="g1133"
             transform="translate(404.1121,396.3335)">
            <path
               d="m 0,0 0.109,-3.594 c 1.477,2.632 3.545,3.948 6.207,3.948 2.468,0 4.132,-0.89 4.991,-2.672 0.859,-1.783 1.289,-4.285 1.289,-7.508 V -22.49 H 7.841 v 11.311 c 0,1.996 -0.208,3.616 -0.626,4.858 -0.417,1.242 -1.321,1.863 -2.713,1.863 -1.487,0 -2.534,-0.729 -3.139,-2.186 C 0.758,-8.1 0.456,-9.826 0.456,-11.822 V -22.49 h -4.791 v 14.305 c 0,3.179 -0.061,5.908 -0.182,8.185 z"
               style="fill:#000000;fill-opacity:1;fill-rule:nonzero;stroke:none"
               id="path1135" />
          </g>
          <g
             id="g1137"
             transform="translate(431.3856,384.0679)">
            <path
               d="m 0,0 c -0.121,0.029 -0.309,0.045 -0.562,0.045 h -0.581 c -1.041,0 -1.993,-0.07 -2.858,-0.211 -0.865,-0.141 -1.621,-0.496 -2.269,-1.064 -0.647,-0.57 -0.97,-1.402 -0.97,-2.496 0,-0.887 0.287,-1.593 0.862,-2.118 0.574,-0.525 1.243,-0.788 2.005,-0.788 1.439,0 2.528,0.652 3.267,1.952 C -0.369,-3.379 0,-1.818 0,0 M 4.465,-10.225 H 0.218 l -0.072,3.371 c -0.569,-1.197 -1.365,-2.118 -2.387,-2.76 -1.023,-0.644 -2.132,-0.965 -3.329,-0.965 -1.223,0 -2.315,0.259 -3.276,0.776 -0.962,0.518 -1.721,1.305 -2.277,2.363 -0.557,1.056 -0.835,2.339 -0.835,3.847 0,2.809 0.901,4.732 2.704,5.767 1.802,1.035 3.998,1.553 6.587,1.553 0.375,0 0.617,-0.004 0.726,-0.012 0.109,-0.007 0.35,-0.022 0.725,-0.044 0.375,-0.023 0.756,-0.048 1.144,-0.078 0,1.671 -0.333,2.913 -0.998,3.726 -0.665,0.813 -1.694,1.22 -3.085,1.22 -2.105,0 -4.004,-0.82 -5.699,-2.462 l -0.144,5.057 c 1.972,1.02 4.106,1.53 6.405,1.53 0.86,0 1.712,-0.103 2.559,-0.31 0.847,-0.208 1.63,-0.551 2.35,-1.032 0.719,-0.48 1.319,-1.12 1.796,-1.918 C 3.59,8.605 3.904,7.692 4.056,6.665 4.207,5.637 4.283,4.414 4.283,2.994 c 0,-1.464 0.003,-2.935 0.009,-4.413 0.006,-1.479 0.019,-2.828 0.036,-4.048 0.019,-1.22 0.064,-2.805 0.137,-4.758"
               style="fill:#000000;fill-opacity:1;fill-rule:nonzero;stroke:none"
               id="path1139" />
          </g>
          <path
             d="m 444.359,373.843 h -4.755 v 32.714 h 4.755 z"
             style="fill:#000000;fill-opacity:1;fill-rule:nonzero;stroke:none"
             id="path1141" />
          <g
             id="g1143"
             transform="translate(471.7811,385.7095)">
            <path
               d="m 0,0 -3.191,10.712 c -0.073,0.236 -0.236,0.902 -0.49,1.996 -0.097,-0.458 -0.194,-0.92 -0.291,-1.386 -0.096,-0.466 -0.18,-0.84 -0.253,-1.12 L -7.199,0 Z M 9.14,-11.866 H 3.682 L 1.523,-4.99 H -8.723 l -2.121,-6.876 h -5.168 l 9.665,30.297 h 5.568 z"
               style="fill:#000000;fill-opacity:1;fill-rule:nonzero;stroke:none"
               id="path1145" />
          </g>
          <g
             id="g1147"
             transform="translate(494.9637,385.3325)">
            <path
               d="m 0,0 c 0,0.754 -0.091,1.537 -0.272,2.351 -0.181,0.813 -0.445,1.526 -0.79,2.14 -0.344,0.613 -0.795,1.116 -1.351,1.508 -0.557,0.392 -1.168,0.588 -1.833,0.588 -1.356,0 -2.368,-0.65 -3.04,-1.952 -0.671,-1.301 -1.007,-2.831 -1.007,-4.591 0,-1.745 0.342,-3.315 1.025,-4.713 0.684,-1.397 1.691,-2.096 3.022,-2.096 0.943,0 1.729,0.332 2.359,0.998 0.629,0.665 1.101,1.523 1.415,2.573 C -0.157,-2.145 0,-1.08 0,0 M 0.182,10.956 H 4.718 V -8.761 c 0,-4.066 -0.765,-7.134 -2.295,-9.204 -1.53,-2.07 -3.959,-3.105 -7.286,-3.105 -2.154,0 -4.301,0.532 -6.442,1.596 l 0.381,5.036 c 0.98,-0.592 1.926,-1.05 2.84,-1.375 0.913,-0.326 1.835,-0.489 2.768,-0.489 1.04,0 2.013,0.274 2.92,0.821 0.908,0.547 1.567,1.345 1.979,2.395 0.278,0.71 0.45,1.494 0.517,2.351 0.066,0.857 0.118,2.107 0.154,3.749 -0.605,-1.375 -1.451,-2.47 -2.54,-3.284 -1.089,-0.812 -2.275,-1.219 -3.557,-1.219 -1.658,0 -3.046,0.54 -4.165,1.619 -1.119,1.079 -1.935,2.491 -2.449,4.236 -0.515,1.744 -0.772,3.608 -0.772,5.589 0,2.025 0.263,3.907 0.79,5.645 0.526,1.737 1.351,3.138 2.477,4.203 1.125,1.064 2.534,1.596 4.228,1.596 1.331,0 2.498,-0.332 3.503,-0.998 1.003,-0.665 1.784,-1.677 2.34,-3.038 z"
               style="fill:#000000;fill-opacity:1;fill-rule:nonzero;stroke:none"
               id="path1149" />
          </g>
          <g
             id="g1151"
             transform="translate(515.032,387.2397)">
            <path
               d="M 0,0 C -0.024,1.005 -0.173,1.93 -0.444,2.772 -0.717,3.615 -1.134,4.295 -1.697,4.812 -2.26,5.33 -2.958,5.589 -3.793,5.589 -4.651,5.589 -5.387,5.334 -5.997,4.824 -6.608,4.313 -7.08,3.638 -7.413,2.795 -7.746,1.951 -7.948,1.021 -8.021,0 Z m 3.229,-7.408 0.074,-5.034 c -1.949,-1.036 -4.053,-1.553 -6.316,-1.553 -1.511,0 -2.857,0.263 -4.037,0.787 -1.179,0.525 -2.186,1.301 -3.021,2.329 -0.835,1.027 -1.47,2.27 -1.906,3.726 -0.435,1.457 -0.653,3.116 -0.653,4.979 0,1.715 0.202,3.294 0.608,4.736 0.405,1.441 0.989,2.691 1.751,3.748 0.762,1.057 1.703,1.881 2.822,2.473 C -6.33,9.374 -5.062,9.67 -3.647,9.67 -2.269,9.67 -1.053,9.367 0,8.761 1.053,8.154 1.908,7.319 2.567,6.254 3.227,5.189 3.72,3.959 4.047,2.562 4.373,1.164 4.536,-0.37 4.536,-2.041 4.536,-2.337 4.53,-2.559 4.519,-2.706 4.506,-2.854 4.494,-3.039 4.482,-3.261 4.47,-3.482 4.452,-3.741 4.428,-4.037 H -7.948 c 0.121,-1.774 0.686,-3.156 1.696,-4.148 1.011,-0.99 2.266,-1.485 3.766,-1.485 1.693,0 3.598,0.754 5.715,2.262"
               style="fill:#000000;fill-opacity:1;fill-rule:nonzero;stroke:none"
               id="path1153" />
          </g>
          <g
             id="g1155"
             transform="translate(527.0047,396.3335)">
            <path
               d="m 0,0 0.109,-3.594 c 1.477,2.632 3.545,3.948 6.207,3.948 2.468,0 4.132,-0.89 4.991,-2.672 0.859,-1.783 1.289,-4.285 1.289,-7.508 V -22.49 H 7.841 v 11.311 c 0,1.996 -0.208,3.616 -0.626,4.858 -0.417,1.242 -1.321,1.863 -2.713,1.863 -1.487,0 -2.534,-0.729 -3.139,-2.186 C 0.758,-8.1 0.456,-9.826 0.456,-11.822 V -22.49 h -4.791 v 14.305 c 0,3.179 -0.061,5.908 -0.182,8.185 z"
               style="fill:#000000;fill-opacity:1;fill-rule:nonzero;stroke:none"
               id="path1157" />
          </g>
          <g
             id="g1159"
             transform="translate(555.8397,379.4331)">
            <path
               d="m 0,0 0.272,-4.902 c -1.597,-0.577 -3.024,-0.865 -4.283,-0.865 -1.403,0 -2.691,0.262 -3.865,0.788 -1.173,0.524 -2.181,1.29 -3.021,2.294 -0.841,1.006 -1.482,2.23 -1.923,3.671 -0.443,1.442 -0.663,3.035 -0.663,4.78 0,2.218 0.39,4.184 1.17,5.9 0.781,1.715 1.881,3.046 3.303,3.992 1.421,0.946 3.028,1.419 4.818,1.419 1.331,0 2.679,-0.244 4.046,-0.731 l -0.362,-4.68 c -1.089,0.517 -2.069,0.776 -2.94,0.776 -0.992,0 -1.881,-0.299 -2.667,-0.898 C -6.902,10.945 -7.504,10.146 -7.921,9.148 -8.339,8.15 -8.547,7.037 -8.547,5.811 c 0,-2.027 0.484,-3.653 1.451,-4.88 0.968,-1.228 2.269,-1.841 3.902,-1.841 1.041,0 2.105,0.303 3.194,0.91"
               style="fill:#000000;fill-opacity:1;fill-rule:nonzero;stroke:none"
               id="path1161" />
          </g>
          <g
             id="g1163"
             transform="translate(557.7059,364.9497)">
            <path
               d="M 0,0 0.328,4.392 C 1.029,4.066 1.699,3.903 2.342,3.903 c 0.967,0 1.722,0.341 2.267,1.021 0.545,0.68 1.016,1.627 1.416,2.839 l -7.258,23.665 h 5.28 L 7.84,17.699 c 0.084,-0.326 0.193,-0.743 0.326,-1.254 0.133,-0.509 0.285,-1.105 0.453,-1.785 0.182,0.799 0.348,1.52 0.5,2.163 0.151,0.643 0.281,1.164 0.391,1.564 l 3.574,13.041 H 17.91 L 10.598,7.341 C 10.041,5.582 9.482,4.158 8.92,3.072 8.357,1.985 7.619,1.102 6.705,0.422 5.793,-0.259 4.67,-0.599 3.34,-0.599 2.443,-0.599 1.332,-0.399 0,0"
               style="fill:#000000;fill-opacity:1;fill-rule:nonzero;stroke:none"
               id="path1165" />
          </g>
          <g
             id="g1167"
             transform="translate(245.369,326.8433)">
            <path
               d="m 0,0 h -4.754 v 18.032 h -3.684 v 4.324 h 3.684 c 0.024,1.833 0.091,3.287 0.199,4.359 0.11,1.072 0.394,2.081 0.854,3.027 0.568,1.079 1.346,1.866 2.331,2.362 0.986,0.496 2.054,0.744 3.203,0.744 0.871,0 1.724,-0.141 2.559,-0.422 l -0.29,-4.68 C 3.63,27.938 3.158,28.034 2.686,28.034 1.888,28.034 1.289,27.75 0.89,27.181 0.49,26.611 0.242,25.946 0.146,25.185 0.049,24.423 0,23.48 0,22.356 H 4.174 V 18.032 H 0 Z"
               style="fill:#000000;fill-opacity:1;fill-rule:nonzero;stroke:none"
               id="path1169" />
          </g>
          <g
             id="g1171"
             transform="translate(264.8563,338.0103)">
            <path
               d="m 0,0 c 0,1.211 -0.16,2.399 -0.48,3.566 -0.322,1.166 -0.832,2.126 -1.534,2.879 -0.702,0.753 -1.567,1.129 -2.595,1.129 -0.98,0 -1.824,-0.369 -2.532,-1.107 -0.707,-0.738 -1.23,-1.679 -1.569,-2.823 -0.339,-1.145 -0.508,-2.3 -0.508,-3.466 0,-1.255 0.16,-2.466 0.481,-3.632 0.32,-1.167 0.832,-2.123 1.533,-2.868 0.702,-0.746 1.591,-1.118 2.668,-1.118 0.762,0 1.433,0.224 2.014,0.674 0.581,0.451 1.052,1.027 1.416,1.728 0.362,0.701 0.637,1.491 0.825,2.37 C -0.094,-1.79 0,-0.9 0,0 m 4.937,-0.122 c 0,-1.73 -0.231,-3.316 -0.691,-4.757 -0.459,-1.441 -1.109,-2.669 -1.95,-3.682 -0.841,-1.012 -1.849,-1.8 -3.022,-2.362 -1.173,-0.561 -2.48,-0.843 -3.92,-0.843 -1.899,0 -3.568,0.503 -5.007,1.508 -1.441,1.006 -2.55,2.425 -3.33,4.259 -0.781,1.833 -1.171,3.895 -1.171,6.187 0,2.292 0.399,4.326 1.198,6.1 0.798,1.775 1.92,3.153 3.366,4.137 1.445,0.982 3.106,1.474 4.981,1.474 1.452,0 2.767,-0.295 3.947,-0.886 C 0.518,10.421 1.524,9.582 2.359,8.495 3.194,7.408 3.832,6.133 4.273,4.669 4.715,3.205 4.937,1.608 4.937,-0.122"
               style="fill:#000000;fill-opacity:1;fill-rule:nonzero;stroke:none"
               id="path1173" />
          </g>
          <g
             id="g1175"
             transform="translate(277.6297,326.8433)">
            <path
               d="m 0,0 h -4.754 v 15.726 c -0.06,3.74 -0.109,5.995 -0.145,6.764 h 4.319 l 0.108,-5.678 c 0.411,1.774 1.037,3.194 1.878,4.258 0.841,1.065 1.939,1.597 3.294,1.597 0.411,0 0.877,-0.074 1.398,-0.222 V 16.989 C 5.469,17.196 4.912,17.3 4.428,17.3 3.303,17.3 2.407,16.937 1.742,16.213 1.077,15.488 0.62,14.561 0.372,13.43 0.124,12.299 0,11.06 0,9.715 V 9.271 Z"
               style="fill:#000000;fill-opacity:1;fill-rule:nonzero;stroke:none"
               id="path1177" />
          </g>
          <g
             id="g1179"
             transform="translate(300.8533,344.0991)">
            <path
               d="m 0,0 h 2.232 c 1.294,0 2.362,0.332 3.204,0.998 0.84,0.665 1.26,1.73 1.26,3.193 0,2.75 -1.348,4.125 -4.047,4.125 L 0,8.316 Z m 0.036,-17.256 h -5.062 v 30.297 h 8.138 c 1.635,0 3.121,-0.219 4.459,-0.654 C 8.91,11.95 9.991,11.145 10.814,9.969 11.638,8.794 12.05,7.156 12.05,5.057 12.05,3.119 11.602,1.519 10.707,0.255 9.812,-1.01 8.584,-1.79 7.023,-2.085 c 0.81,-0.37 1.415,-0.909 1.815,-1.619 0.399,-0.71 0.81,-1.7 1.233,-2.972 l 3.575,-10.58 H 8.075 L 5.354,-8.672 C 4.979,-7.431 4.585,-6.54 4.174,-6 3.763,-5.46 3.251,-5.105 2.641,-4.936 2.029,-4.766 1.162,-4.68 0.036,-4.68 Z"
               style="fill:#000000;fill-opacity:1;fill-rule:nonzero;stroke:none"
               id="path1181" />
          </g>
          <g
             id="g1183"
             transform="translate(328.1443,340.2397)">
            <path
               d="M 0,0 C -0.024,1.005 -0.173,1.93 -0.444,2.772 -0.717,3.615 -1.134,4.295 -1.697,4.812 -2.26,5.33 -2.958,5.589 -3.793,5.589 -4.651,5.589 -5.387,5.334 -5.997,4.824 -6.608,4.313 -7.08,3.638 -7.413,2.795 -7.746,1.951 -7.948,1.021 -8.021,0 Z m 3.229,-7.408 0.074,-5.034 c -1.949,-1.036 -4.053,-1.553 -6.316,-1.553 -1.511,0 -2.857,0.263 -4.037,0.787 -1.179,0.525 -2.186,1.301 -3.021,2.329 -0.835,1.027 -1.47,2.27 -1.906,3.726 -0.435,1.457 -0.653,3.116 -0.653,4.979 0,1.715 0.202,3.294 0.608,4.736 0.405,1.441 0.989,2.691 1.751,3.748 0.762,1.057 1.703,1.881 2.822,2.473 C -6.33,9.374 -5.062,9.67 -3.647,9.67 -2.269,9.67 -1.053,9.367 0,8.761 1.053,8.154 1.908,7.319 2.567,6.254 3.227,5.189 3.72,3.959 4.047,2.562 4.373,1.164 4.536,-0.37 4.536,-2.041 4.536,-2.337 4.53,-2.559 4.519,-2.706 4.506,-2.854 4.494,-3.039 4.482,-3.261 4.47,-3.482 4.452,-3.741 4.428,-4.037 H -7.948 c 0.121,-1.774 0.686,-3.156 1.696,-4.148 1.011,-0.99 2.266,-1.485 3.766,-1.485 1.693,0 3.598,0.754 5.715,2.262"
               style="fill:#000000;fill-opacity:1;fill-rule:nonzero;stroke:none"
               id="path1185" />
          </g>
          <g
             id="g1187"
             transform="translate(334.8016,327.4478)">
            <path
               d="M 0,0 0.218,4.918 C 1.912,3.854 3.473,3.321 4.9,3.321 c 0.787,0 1.531,0.207 2.232,0.62 0.701,0.414 1.053,1.057 1.053,1.928 0,0.753 -0.502,1.396 -1.506,1.928 -1.005,0.531 -2.012,1.055 -3.022,1.572 -1.011,0.517 -1.885,1.24 -2.622,2.171 -0.738,0.931 -1.107,2.231 -1.107,3.899 0,1.595 0.384,2.902 1.152,3.921 0.769,1.019 1.745,1.761 2.931,2.227 1.185,0.465 2.413,0.697 3.683,0.697 1.343,0 2.856,-0.29 4.537,-0.869 L 11.887,17.05 c -1.477,0.577 -2.777,0.865 -3.902,0.865 -0.823,0 -1.585,-0.17 -2.287,-0.51 -0.701,-0.34 -1.052,-0.93 -1.052,-1.771 0,-0.725 0.481,-1.326 1.443,-1.806 0.962,-0.48 1.972,-0.96 3.03,-1.44 1.059,-0.48 1.966,-1.197 2.722,-2.149 0.756,-0.953 1.135,-2.315 1.135,-4.087 0,-1.61 -0.367,-2.954 -1.099,-4.032 C 11.146,1.042 10.199,0.252 9.037,-0.25 7.876,-0.752 6.648,-1.004 5.354,-1.004 3.878,-1.004 2.093,-0.669 0,0"
               style="fill:#000000;fill-opacity:1;fill-rule:nonzero;stroke:none"
               id="path1189" />
          </g>
          <g
             id="g1191"
             transform="translate(362.3104,340.2397)">
            <path
               d="M 0,0 C -0.024,1.005 -0.173,1.93 -0.444,2.772 -0.717,3.615 -1.134,4.295 -1.697,4.812 -2.26,5.33 -2.958,5.589 -3.793,5.589 -4.651,5.589 -5.387,5.334 -5.997,4.824 -6.608,4.313 -7.08,3.638 -7.413,2.795 -7.746,1.951 -7.948,1.021 -8.021,0 Z m 3.229,-7.408 0.074,-5.034 c -1.949,-1.036 -4.053,-1.553 -6.316,-1.553 -1.511,0 -2.857,0.263 -4.037,0.787 -1.179,0.525 -2.186,1.301 -3.021,2.329 -0.835,1.027 -1.47,2.27 -1.906,3.726 -0.435,1.457 -0.653,3.116 -0.653,4.979 0,1.715 0.202,3.294 0.608,4.736 0.405,1.441 0.989,2.691 1.751,3.748 0.762,1.057 1.703,1.881 2.822,2.473 C -6.33,9.374 -5.062,9.67 -3.647,9.67 -2.269,9.67 -1.053,9.367 0,8.761 1.053,8.154 1.908,7.319 2.567,6.254 3.227,5.189 3.72,3.959 4.047,2.562 4.373,1.164 4.536,-0.37 4.536,-2.041 4.536,-2.337 4.53,-2.559 4.519,-2.706 4.506,-2.854 4.494,-3.039 4.482,-3.261 4.47,-3.482 4.452,-3.741 4.428,-4.037 H -7.948 c 0.121,-1.774 0.686,-3.156 1.696,-4.148 1.011,-0.99 2.266,-1.485 3.766,-1.485 1.693,0 3.598,0.754 5.715,2.262"
               style="fill:#000000;fill-opacity:1;fill-rule:nonzero;stroke:none"
               id="path1193" />
          </g>
          <g
             id="g1195"
             transform="translate(380.6727,337.0679)">
            <path
               d="m 0,0 c -0.121,0.029 -0.309,0.045 -0.562,0.045 h -0.582 c -1.04,0 -1.993,-0.07 -2.857,-0.211 -0.865,-0.141 -1.622,-0.496 -2.269,-1.064 -0.647,-0.57 -0.97,-1.402 -0.97,-2.496 0,-0.887 0.287,-1.593 0.861,-2.118 0.575,-0.525 1.243,-0.788 2.006,-0.788 1.439,0 2.528,0.652 3.266,1.952 C -0.369,-3.379 0,-1.818 0,0 M 4.464,-10.225 H 0.218 l -0.072,3.371 c -0.57,-1.197 -1.365,-2.118 -2.387,-2.76 -1.023,-0.644 -2.132,-0.965 -3.33,-0.965 -1.222,0 -2.314,0.259 -3.276,0.776 -0.962,0.518 -1.72,1.305 -2.277,2.363 -0.557,1.056 -0.835,2.339 -0.835,3.847 0,2.809 0.901,4.732 2.704,5.767 1.803,1.035 3.998,1.553 6.587,1.553 0.375,0 0.617,-0.004 0.727,-0.012 0.108,-0.007 0.35,-0.022 0.725,-0.044 0.375,-0.023 0.756,-0.048 1.144,-0.078 0,1.671 -0.333,2.913 -0.998,3.726 -0.666,0.813 -1.695,1.22 -3.085,1.22 -2.106,0 -4.005,-0.82 -5.699,-2.462 l -0.145,5.057 c 1.972,1.02 4.107,1.53 6.406,1.53 0.859,0 1.711,-0.103 2.559,-0.31 0.847,-0.208 1.63,-0.551 2.349,-1.032 0.72,-0.48 1.319,-1.12 1.797,-1.918 C 3.59,8.605 3.904,7.692 4.056,6.665 4.207,5.637 4.282,4.414 4.282,2.994 c 0,-1.464 0.003,-2.935 0.009,-4.413 0.007,-1.479 0.019,-2.828 0.037,-4.048 0.018,-1.22 0.064,-2.805 0.136,-4.758"
               style="fill:#000000;fill-opacity:1;fill-rule:nonzero;stroke:none"
               id="path1197" />
          </g>
          <g
             id="g1199"
             transform="translate(393.827,326.8433)">
            <path
               d="m 0,0 h -4.755 v 15.726 c -0.06,3.74 -0.108,5.995 -0.144,6.764 h 4.318 l 0.109,-5.678 c 0.411,1.774 1.037,3.194 1.878,4.258 0.841,1.065 1.939,1.597 3.294,1.597 0.411,0 0.877,-0.074 1.397,-0.222 V 16.989 C 5.468,17.196 4.911,17.3 4.428,17.3 3.303,17.3 2.407,16.937 1.742,16.213 1.076,15.488 0.619,14.561 0.372,13.43 0.124,12.299 0,11.06 0,9.715 V 9.271 Z"
               style="fill:#000000;fill-opacity:1;fill-rule:nonzero;stroke:none"
               id="path1201" />
          </g>
          <g
             id="g1203"
             transform="translate(414.4568,332.4331)">
            <path
               d="m 0,0 0.272,-4.902 c -1.596,-0.577 -3.024,-0.865 -4.282,-0.865 -1.403,0 -2.692,0.262 -3.865,0.788 -1.174,0.524 -2.181,1.29 -3.021,2.294 -0.841,1.006 -1.483,2.23 -1.924,3.671 -0.442,1.442 -0.662,3.035 -0.662,4.78 0,2.218 0.389,4.184 1.17,5.9 0.781,1.715 1.881,3.046 3.302,3.992 1.422,0.946 3.028,1.419 4.819,1.419 1.331,0 2.679,-0.244 4.046,-0.731 l -0.363,-4.68 c -1.089,0.517 -2.068,0.776 -2.939,0.776 -0.992,0 -1.882,-0.299 -2.668,-0.898 C -6.901,10.945 -7.503,10.146 -7.921,9.148 -8.338,8.15 -8.547,7.037 -8.547,5.811 c 0,-2.027 0.484,-3.653 1.452,-4.88 0.968,-1.228 2.269,-1.841 3.902,-1.841 1.04,0 2.104,0.303 3.193,0.91"
               style="fill:#000000;fill-opacity:1;fill-rule:nonzero;stroke:none"
               id="path1205" />
          </g>
          <g
             id="g1207"
             transform="translate(434.0897,326.8433)">
            <path
               d="m 0,0 h -4.754 v 10.912 c 0,2.159 -0.191,3.885 -0.572,5.179 -0.381,1.294 -1.279,1.941 -2.695,1.941 -1.524,0 -2.594,-0.765 -3.211,-2.296 -0.618,-1.53 -0.926,-3.323 -0.926,-5.379 V 9.227 0 h -4.754 v 32.714 h 4.754 V 19.296 c 0.689,1.212 1.518,2.114 2.486,2.706 0.968,0.591 2.074,0.887 3.32,0.887 1.295,0 2.363,-0.255 3.204,-0.765 0.84,-0.511 1.488,-1.202 1.941,-2.074 C -0.753,19.178 -0.438,18.161 -0.263,17 -0.088,15.84 0,14.476 0,12.908 Z"
               style="fill:#000000;fill-opacity:1;fill-rule:nonzero;stroke:none"
               id="path1209" />
          </g>
          <g
             id="g1211"
             transform="translate(460.4715,338.0103)">
            <path
               d="m 0,0 c 0,1.211 -0.161,2.399 -0.481,3.566 -0.321,1.166 -0.832,2.126 -1.534,2.879 -0.701,0.753 -1.566,1.129 -2.594,1.129 -0.98,0 -1.825,-0.369 -2.532,-1.107 -0.708,-0.738 -1.231,-1.679 -1.57,-2.823 -0.339,-1.145 -0.508,-2.3 -0.508,-3.466 0,-1.255 0.16,-2.466 0.482,-3.632 0.32,-1.167 0.831,-2.123 1.533,-2.868 0.701,-0.746 1.591,-1.118 2.667,-1.118 0.763,0 1.433,0.224 2.015,0.674 0.58,0.451 1.052,1.027 1.415,1.728 0.363,0.701 0.638,1.491 0.826,2.37 C -0.094,-1.79 0,-0.9 0,0 m 4.936,-0.122 c 0,-1.73 -0.23,-3.316 -0.69,-4.757 -0.46,-1.441 -1.11,-2.669 -1.951,-3.682 -0.841,-1.012 -1.848,-1.8 -3.022,-2.362 -1.172,-0.561 -2.479,-0.843 -3.919,-0.843 -1.899,0 -3.569,0.503 -5.008,1.508 -1.44,1.006 -2.55,2.425 -3.33,4.259 -0.781,1.833 -1.17,3.895 -1.17,6.187 0,2.292 0.399,4.326 1.197,6.1 0.799,1.775 1.921,3.153 3.366,4.137 1.445,0.982 3.107,1.474 4.982,1.474 1.452,0 2.767,-0.295 3.947,-0.886 C 0.517,10.421 1.524,9.582 2.358,8.495 3.193,7.408 3.831,6.133 4.273,4.669 4.715,3.205 4.936,1.608 4.936,-0.122"
               style="fill:#000000;fill-opacity:1;fill-rule:nonzero;stroke:none"
               id="path1213" />
          </g>
          <g
             id="g1215"
             transform="translate(472.8436,349.3335)">
            <path
               d="m 0,0 0.109,-3.594 c 1.476,2.632 3.544,3.948 6.206,3.948 2.469,0 4.132,-0.89 4.992,-2.672 0.859,-1.783 1.288,-4.285 1.288,-7.508 V -22.49 H 7.841 v 11.311 c 0,1.996 -0.209,3.616 -0.626,4.858 -0.418,1.242 -1.322,1.863 -2.713,1.863 -1.488,0 -2.535,-0.729 -3.14,-2.186 C 0.758,-8.1 0.455,-9.826 0.455,-11.822 V -22.49 h -4.791 v 14.305 c 0,3.179 -0.06,5.908 -0.181,8.185 z"
               style="fill:#000000;fill-opacity:1;fill-rule:nonzero;stroke:none"
               id="path1217" />
          </g>
          <g
             id="g1219"
             transform="translate(517.1736,332.9653)">
            <path
               d="m 0,0 0.181,-5.346 c -2.057,-0.665 -3.938,-0.998 -5.644,-0.998 -1.935,0 -3.725,0.311 -5.371,0.932 -1.645,0.621 -3.094,1.571 -4.346,2.849 -1.252,1.28 -2.214,2.866 -2.885,4.758 -0.671,1.893 -1.007,4.074 -1.007,6.543 0,2.469 0.301,4.68 0.907,6.632 0.604,1.951 1.485,3.604 2.641,4.957 1.155,1.353 2.543,2.369 4.164,3.049 1.621,0.681 3.435,1.02 5.444,1.02 1.79,0 3.786,-0.436 5.988,-1.308 l -0.399,-5.19 c -1.633,1.094 -3.405,1.641 -5.317,1.641 -1.622,0 -3.048,-0.425 -4.283,-1.275 -1.233,-0.85 -2.18,-2.037 -2.84,-3.56 -0.659,-1.522 -0.989,-3.275 -0.989,-5.256 0,-2.055 0.348,-3.904 1.044,-5.545 0.695,-1.641 1.685,-2.913 2.967,-3.815 1.282,-0.901 2.782,-1.353 4.5,-1.353 1.634,0 3.382,0.422 5.245,1.265"
               style="fill:#000000;fill-opacity:1;fill-rule:nonzero;stroke:none"
               id="path1221" />
          </g>
          <g
             id="g1223"
             transform="translate(530.618,337.0679)">
            <path
               d="m 0,0 c -0.121,0.029 -0.309,0.045 -0.562,0.045 h -0.582 c -1.04,0 -1.993,-0.07 -2.857,-0.211 -0.865,-0.141 -1.622,-0.496 -2.269,-1.064 -0.647,-0.57 -0.97,-1.402 -0.97,-2.496 0,-0.887 0.287,-1.593 0.861,-2.118 0.575,-0.525 1.243,-0.788 2.006,-0.788 1.439,0 2.528,0.652 3.266,1.952 C -0.369,-3.379 0,-1.818 0,0 M 4.464,-10.225 H 0.218 l -0.072,3.371 c -0.57,-1.197 -1.365,-2.118 -2.387,-2.76 -1.023,-0.644 -2.132,-0.965 -3.33,-0.965 -1.222,0 -2.314,0.259 -3.276,0.776 -0.962,0.518 -1.72,1.305 -2.277,2.363 -0.557,1.056 -0.835,2.339 -0.835,3.847 0,2.809 0.901,4.732 2.704,5.767 1.803,1.035 3.998,1.553 6.587,1.553 0.375,0 0.617,-0.004 0.727,-0.012 0.108,-0.007 0.35,-0.022 0.725,-0.044 0.375,-0.023 0.756,-0.048 1.144,-0.078 0,1.671 -0.333,2.913 -0.998,3.726 -0.666,0.813 -1.695,1.22 -3.085,1.22 -2.106,0 -4.005,-0.82 -5.699,-2.462 l -0.145,5.057 c 1.972,1.02 4.107,1.53 6.406,1.53 0.859,0 1.711,-0.103 2.559,-0.31 0.847,-0.208 1.63,-0.551 2.349,-1.032 0.72,-0.48 1.319,-1.12 1.797,-1.918 C 3.59,8.605 3.904,7.692 4.056,6.665 4.207,5.637 4.282,4.414 4.282,2.994 c 0,-1.464 0.003,-2.935 0.009,-4.413 0.007,-1.479 0.019,-2.828 0.037,-4.048 0.018,-1.22 0.064,-2.805 0.136,-4.758"
               style="fill:#000000;fill-opacity:1;fill-rule:nonzero;stroke:none"
               id="path1225" />
          </g>
          <g
             id="g1227"
             transform="translate(543.3709,349.3335)">
            <path
               d="m 0,0 0.109,-3.594 c 1.477,2.632 3.545,3.948 6.207,3.948 2.468,0 4.132,-0.89 4.991,-2.672 0.859,-1.783 1.289,-4.285 1.289,-7.508 V -22.49 H 7.841 v 11.311 c 0,1.996 -0.208,3.616 -0.626,4.858 -0.417,1.242 -1.321,1.863 -2.713,1.863 -1.487,0 -2.534,-0.729 -3.139,-2.186 C 0.758,-8.1 0.456,-9.826 0.456,-11.822 V -22.49 h -4.791 v 14.305 c 0,3.179 -0.061,5.908 -0.182,8.185 z"
               style="fill:#000000;fill-opacity:1;fill-rule:nonzero;stroke:none"
               id="path1229" />
          </g>
          <g
             id="g1231"
             transform="translate(572.2059,332.4331)">
            <path
               d="m 0,0 0.271,-4.902 c -1.596,-0.577 -3.024,-0.865 -4.282,-0.865 -1.403,0 -2.691,0.262 -3.865,0.788 -1.174,0.524 -2.181,1.29 -3.021,2.294 -0.841,1.006 -1.482,2.23 -1.924,3.671 -0.442,1.442 -0.662,3.035 -0.662,4.78 0,2.218 0.39,4.184 1.17,5.9 0.781,1.715 1.881,3.046 3.303,3.992 1.421,0.946 3.028,1.419 4.818,1.419 1.331,0 2.679,-0.244 4.046,-0.731 l -0.363,-4.68 c -1.089,0.517 -2.068,0.776 -2.939,0.776 -0.992,0 -1.881,-0.299 -2.667,-0.898 C -6.902,10.945 -7.504,10.146 -7.921,9.148 -8.339,8.15 -8.547,7.037 -8.547,5.811 c 0,-2.027 0.484,-3.653 1.451,-4.88 0.968,-1.228 2.269,-1.841 3.902,-1.841 1.04,0 2.105,0.303 3.194,0.91"
               style="fill:#000000;fill-opacity:1;fill-rule:nonzero;stroke:none"
               id="path1233" />
          </g>
          <g
             id="g1235"
             transform="translate(586.4852,340.2397)">
            <path
               d="m 0,0 c -0.024,1.005 -0.172,1.93 -0.444,2.772 -0.273,0.843 -0.69,1.523 -1.252,2.04 -0.563,0.518 -1.262,0.777 -2.097,0.777 -0.858,0 -1.594,-0.255 -2.204,-0.765 C -6.608,4.313 -7.08,3.638 -7.413,2.795 -7.745,1.951 -7.948,1.021 -8.021,0 Z m 3.23,-7.408 0.073,-5.034 c -1.949,-1.036 -4.053,-1.553 -6.315,-1.553 -1.512,0 -2.858,0.263 -4.038,0.787 -1.179,0.525 -2.186,1.301 -3.021,2.329 -0.835,1.027 -1.47,2.27 -1.906,3.726 -0.435,1.457 -0.653,3.116 -0.653,4.979 0,1.715 0.202,3.294 0.609,4.736 0.404,1.441 0.988,2.691 1.75,3.748 0.762,1.057 1.703,1.881 2.822,2.473 C -6.33,9.374 -5.062,9.67 -3.647,9.67 -2.269,9.67 -1.053,9.367 0,8.761 1.053,8.154 1.908,7.319 2.567,6.254 3.228,5.189 3.72,3.959 4.047,2.562 4.373,1.164 4.537,-0.37 4.537,-2.041 4.537,-2.337 4.53,-2.559 4.519,-2.706 4.507,-2.854 4.494,-3.039 4.482,-3.261 4.47,-3.482 4.452,-3.741 4.428,-4.037 H -7.948 c 0.121,-1.774 0.686,-3.156 1.697,-4.148 1.01,-0.99 2.265,-1.485 3.765,-1.485 1.694,0 3.599,0.754 5.716,2.262"
               style="fill:#000000;fill-opacity:1;fill-rule:nonzero;stroke:none"
               id="path1237" />
          </g>
          <g
             id="g1239"
             transform="translate(598.8592,326.8433)">
            <path
               d="m 0,0 h -4.755 v 15.726 c -0.06,3.74 -0.108,5.995 -0.145,6.764 h 4.319 l 0.108,-5.678 c 0.411,1.774 1.037,3.194 1.879,4.258 0.841,1.065 1.939,1.597 3.293,1.597 0.411,0 0.877,-0.074 1.398,-0.222 V 16.989 C 5.468,17.196 4.911,17.3 4.428,17.3 3.302,17.3 2.407,16.937 1.741,16.213 1.076,15.488 0.619,14.561 0.371,13.43 0.123,12.299 0,11.06 0,9.715 V 9.271 Z"
               style="fill:#000000;fill-opacity:1;fill-rule:nonzero;stroke:none"
               id="path1241" />
          </g>
          <path
             d="m 602.914,302.445 h -365.98 v 1 h 365.98 z"
             style="fill:#000000;fill-opacity:1;fill-rule:nonzero;stroke:none"
             id="path1243" />
        </g>
        <text
           xml:space="preserve"
           style="font-style:normal;font-variant:normal;font-weight:normal;font-stretch:normal;font-size:3.96875px;line-height:0%;font-family:Arial;-inkscape-font-specification:Arial;text-align:start;letter-spacing:0px;word-spacing:0px;text-anchor:start;fill:#000000;fill-opacity:1;stroke:none;stroke-width:0.330729"
           x="128.29329"
           y="261.03836"
           id="text7502"><tspan
             style="font-size:1.55886px;line-height:0.9;stroke-width:0.330729"
             sodipodi:role="line"
             id="tspan7504"
             x="128.29329"
             y="261.03836">© WHO 2020. All rights reserved</tspan></text>
      </g>
      <text
         id="text6973"
         y="256.36179"
         x="7.9532714"
         style="font-style:normal;font-variant:normal;font-weight:normal;font-stretch:normal;font-size:3.96875px;line-height:0%;font-family:Arial;-inkscape-font-specification:Arial;text-align:start;letter-spacing:0px;word-spacing:0px;text-anchor:start;fill:#000000;fill-opacity:1;stroke:none;stroke-width:0.330729"
         xml:space="preserve"><tspan
           style="font-size:1.55886px;line-height:1;stroke-width:0.330729"
           y="256.36179"
           x="7.9532714"
           id="tspan6975"
           sodipodi:role="line">The boundaries and names shown and the designations used on this map do not imply the expression of any opinion whatsoever</tspan><tspan
           style="font-size:1.55886px;line-height:1;stroke-width:0.330729"
           id="tspan7435"
           y="257.92065"
           x="7.9532714"
           sodipodi:role="line">on the part of the World Health Organization concerning the legal status of any country, territory, city or area or of its authorities,</tspan><tspan
           style="font-size:1.55886px;line-height:1;stroke-width:0.330729"
           id="tspan7437"
           y="259.47952"
           x="7.9532714"
           sodipodi:role="line">or concerning the delimitation of its frontiers or boundaries. Dotted and dashed lines on maps represent approximate border lines</tspan><tspan
           style="font-size:1.55886px;line-height:1;stroke-width:0.330729"
           id="tspan7447"
           y="261.03839"
           x="7.9532714"
           sodipodi:role="line">for which there may not yet be full agreement.</tspan></text>
      <text
         id="text5907-7-0-9"
         y="252.77837"
         x="12.693988"
         style="font-style:normal;font-variant:normal;font-weight:normal;font-stretch:normal;font-size:3.96875px;line-height:0%;font-family:Arial;-inkscape-font-specification:Arial;text-align:start;letter-spacing:0px;word-spacing:0px;text-anchor:start;fill:#000000;fill-opacity:1;stroke:none;stroke-width:0.330729"
         xml:space="preserve"><tspan
           y="252.77837"
           x="12.693988"
           id="tspan5909-4-9-4"
           sodipodi:role="line"
           style="font-size:1.63978px;line-height:0.9;stroke-width:0.330729">No data</tspan></text>
      <text
         id="text5907-7-0-9-8"
         y="252.62503"
         x="25.700283"
         style="font-style:normal;font-variant:normal;font-weight:normal;font-stretch:normal;font-size:3.96875px;line-height:0%;font-family:Arial;-inkscape-font-specification:Arial;text-align:start;letter-spacing:0px;word-spacing:0px;text-anchor:start;fill:#000000;fill-opacity:1;stroke:none;stroke-width:0.330729"
         xml:space="preserve"><tspan
           y="252.62503"
           x="25.700283"
           id="tspan5909-4-9-4-8"
           sodipodi:role="line"
           style="font-size:1.63978px;line-height:0.9;stroke-width:0.330729">Not applicable</tspan></text>
      <path
         style="fill:#7f7f7f;fill-opacity:1;fill-rule:nonzero;stroke:#000000;stroke-width:0.105833;stroke-miterlimit:4;stroke-dasharray:none;stroke-opacity:1"
         d="m 8.0206488,253.29478 h 4.0624132 v -2.18741 H 8.0206488 Z m 0,0"
         id="path1523-1"
         inkscape:connector-curvature="0" />
      <path
         style="fill:#d4d4d4;fill-opacity:1;fill-rule:nonzero;stroke:#000000;stroke-width:0.105833;stroke-miterlimit:4;stroke-dasharray:none;stroke-opacity:1"
         d="m 20.916073,253.29478 h 4.062413 v -2.18741 h -4.062413 z m 0,0"
         id="path1523-7"
         inkscape:connector-curvature="0" />
    </g>
    <text
       xml:space="preserve"
       style="color:#000000;font-style:normal;font-variant:normal;font-weight:normal;font-stretch:normal;font-size:4.23333px;line-height:0.9;font-family:Arial;-inkscape-font-specification:Arial;font-variant-ligatures:normal;font-variant-position:normal;font-variant-caps:normal;font-variant-numeric:normal;font-variant-alternates:normal;font-feature-settings:normal;text-indent:0;text-align:center;text-decoration:none;text-decoration-line:none;text-decoration-style:solid;text-decoration-color:#000000;letter-spacing:0px;word-spacing:0px;text-transform:none;writing-mode:lr-tb;direction:ltr;text-orientation:mixed;dominant-baseline:auto;baseline-shift:baseline;text-anchor:middle;white-space:normal;shape-padding:0;clip-rule:nonzero;display:inline;overflow:visible;visibility:visible;opacity:1;isolation:auto;mix-blend-mode:normal;color-interpolation:sRGB;color-interpolation-filters:linearRGB;solid-color:#000000;solid-opacity:1;vector-effect:none;fill:#000000;fill-opacity:1;fill-rule:nonzero;stroke:none;stroke-width:0.330729;stroke-linecap:butt;stroke-linejoin:miter;stroke-miterlimit:4;stroke-dasharray:none;stroke-dashoffset:0;stroke-opacity:1;color-rendering:auto;image-rendering:auto;shape-rendering:auto;text-rendering:auto;enable-background:accumulate"
       x="80.237701"
       y="183.89307"
       id="text1044"><tspan
         sodipodi:role="line"
         id="tspan1042"
         x="80.237701"
         y="183.89307"
         style="font-style:normal;font-variant:normal;font-weight:normal;font-stretch:normal;font-size:4.23333px;line-height:0.9;font-family:Arial;-inkscape-font-specification:Arial;font-variant-ligatures:normal;font-variant-position:normal;font-variant-caps:normal;font-variant-numeric:normal;font-variant-alternates:normal;font-feature-settings:normal;text-indent:0;text-align:center;text-decoration:none;text-decoration-line:none;text-decoration-style:solid;text-decoration-color:#000000;letter-spacing:0px;word-spacing:0px;text-transform:none;writing-mode:lr-tb;direction:ltr;text-orientation:mixed;dominant-baseline:auto;baseline-shift:baseline;text-anchor:middle;white-space:normal;shape-padding:0;vector-effect:none;fill:#000000;fill-opacity:1;stroke:none;stroke-width:0.330729;stroke-linecap:butt;stroke-linejoin:miter;stroke-miterlimit:4;stroke-dasharray:none;stroke-dashoffset:0;stroke-opacity:1">Title</tspan></text>
  </g>
</svg>
