<?xml version="1.0" encoding="UTF-8" standalone="no"?>
<svg
   xmlns:dc="http://purl.org/dc/elements/1.1/"
   xmlns:cc="http://creativecommons.org/ns#"
   xmlns:rdf="http://www.w3.org/1999/02/22-rdf-syntax-ns#"
   xmlns:svg="http://www.w3.org/2000/svg"
   xmlns="http://www.w3.org/2000/svg"
   viewBox="0 0 528 384"
   height="384"
   width="528"
   xml:space="preserve"
   id="svg2"
   version="1.1"><metadata
     id="metadata8"><rdf:RDF><cc:Work
         rdf:about=""><dc:format>image/svg+xml</dc:format><dc:type
           rdf:resource="http://purl.org/dc/dcmitype/StillImage" /></cc:Work></rdf:RDF></metadata><defs
     id="defs6" /><g
     transform="matrix(1.3333333,0,0,-1.3333333,0,384)"
     id="g10"><g
       transform="scale(0.1)"
       id="g12"><path
         id="path14"
         style="fill:#eaf2f3;fill-opacity:1;fill-rule:nonzero;stroke:none"
         d="M 0,0 H 3960 V 2880 H 0 Z" /><path
         id="path16"
         style="fill:#ffdc1c;fill-opacity:1;fill-rule:nonzero;stroke:none"
         d="M 1980,1439.95 3079.36,670.176 c 157.97,225.605 242.71,494.364 242.71,769.774 0,741.21 -600.87,1342.07 -1342.07,1342.07" /><path
         id="path18"
         style="fill:none;stroke:#ffd803;stroke-width:1.20000005;stroke-linecap:butt;stroke-linejoin:miter;stroke-miterlimit:10;stroke-dasharray:none;stroke-opacity:1"
         d="M 1980,1439.95 3079.36,670.176 c 157.97,225.605 242.71,494.364 242.71,769.774 0,741.21 -600.87,1342.07 -1342.07,1342.07 z" /><path
         id="path20"
         style="fill:#ff8319;fill-opacity:1;fill-rule:nonzero;stroke:none"
         d="M 1980,1439.95 951.914,577.289 C 1206.91,273.398 1583.3,97.8867 1980,97.8867 c 437.87,0 848.21,213.6093 1099.36,572.2893" /><path
         id="path22"
         style="fill:none;stroke:#ff7500;stroke-width:1.20000005;stroke-linecap:butt;stroke-linejoin:miter;stroke-miterlimit:10;stroke-dasharray:none;stroke-opacity:1"
         d="M 1980,1439.95 951.914,577.289 C 1206.91,273.398 1583.3,97.8867 1980,97.8867 c 437.87,0 848.21,213.6093 1099.36,572.2893 z" /><path
         id="path24"
         style="fill:#9820c8;fill-opacity:1;fill-rule:nonzero;stroke:none"
         d="M 1980,1439.95 639.77,1369.71 C 655.02,1078.69 764.594,800.531 951.914,577.289" /><path
         id="path26"
         style="fill:none;stroke:#8c07c2;stroke-width:1.20000005;stroke-linecap:butt;stroke-linejoin:miter;stroke-miterlimit:10;stroke-dasharray:none;stroke-opacity:1"
         d="M 1980,1439.95 639.77,1369.71 C 655.02,1078.69 764.594,800.531 951.914,577.289 Z" /><path
         id="path28"
         style="fill:#3d983e;fill-opacity:1;fill-rule:nonzero;stroke:none"
         d="M 1980,1439.95 683.66,1787.31 c -30.355,-113.29 -45.73,-230.07 -45.73,-347.36 0,-23.42 0.617,-46.84 1.84,-70.24" /><path
         id="path30"
         style="fill:none;stroke:#278d29;stroke-width:1.20000005;stroke-linecap:butt;stroke-linejoin:miter;stroke-miterlimit:10;stroke-dasharray:none;stroke-opacity:1"
         d="M 1980,1439.95 683.66,1787.31 c -30.355,-113.29 -45.73,-230.07 -45.73,-347.36 0,-23.42 0.617,-46.84 1.84,-70.24 z" /><path
         id="path32"
         style="fill:#b66751;fill-opacity:1;fill-rule:nonzero;stroke:none"
         d="M 1980,1439.95 795.023,2070.02 C 747.324,1980.3 709.957,1885.46 683.66,1787.31" /><path
         id="path34"
         style="fill:none;stroke:#ae563e;stroke-width:1.20000005;stroke-linecap:butt;stroke-linejoin:miter;stroke-miterlimit:10;stroke-dasharray:none;stroke-opacity:1"
         d="M 1980,1439.95 795.023,2070.02 C 747.324,1980.3 709.957,1885.46 683.66,1787.31 Z" /><path
         id="path36"
         style="fill:#e0e0e0;fill-opacity:1;fill-rule:nonzero;stroke:none"
         d="m 1980,1439.95 v 1342.07 c -496.25,0 -952,-273.84 -1184.977,-712" /><path
         id="path38"
         style="fill:none;stroke:#dcdcdc;stroke-width:1.20000005;stroke-linecap:butt;stroke-linejoin:miter;stroke-miterlimit:10;stroke-dasharray:none;stroke-opacity:1"
         d="m 1980,1439.95 v 1342.07 c -496.25,0 -952,-273.84 -1184.977,-712 z" /><g
         transform="scale(10)"
         id="g40"><text
           id="text54"
           style="font-variant:normal;font-weight:normal;font-size:11.00139999px;font-family:Helvetica;-inkscape-font-specification:Helvetica;writing-mode:lr-tb;fill:#000000;fill-opacity:1;fill-rule:nonzero;stroke:none"
           transform="matrix(1,0,0,-1,285.354,194.263)"><tspan
             id="tspan42"
             y="0"
             x="0 6.1167784 12.233557 15.291946 21.408724">34.6%</tspan><tspan
             id="tspan44"
             y="170.293"
             x="-100.474 -94.357224 -88.24044 -85.182053 -79.065277 -72.948494">29.29%</tspan><tspan
             id="tspan46"
             y="96.339897"
             x="-211.328 -205.21123 -199.09444 -196.03606 -189.91928">10.4%</tspan><tspan
             id="tspan48"
             y="41.555901"
             x="-221.6382 -215.52142 -212.46303 -206.34625 -200.22948 -194.1127">4.875%</tspan><tspan
             id="tspan50"
             y="11.8188"
             x="-214.36163 -208.24486 -205.18648 -199.06969 -192.95291 -186.83614">3.527%</tspan><tspan
             id="tspan52"
             y="-45.4035"
             x="-166.19833 -160.08156 -153.96478 -150.90639 -144.78961 -138.67284">17.31%</tspan></text>
</g></g></g></svg>